M48
; DRILL file {KiCad 9.0.0} date 2025-04-22T01:21:21-0500
; FORMAT={-:-/ absolute / metric / decimal}
; #@! TF.CreationDate,2025-04-22T01:21:21-05:00
; #@! TF.GenerationSoftware,Kicad,Pcbnew,9.0.0
; #@! TF.FileFunction,Plated,1,2,PTH
FMAT,2
METRIC
; #@! TA.AperFunction,Plated,PTH,ComponentDrill
T1C0.800
; #@! TA.AperFunction,Plated,PTH,ComponentDrill
T2C0.900
; #@! TA.AperFunction,Plated,PTH,ComponentDrill
T3C1.000
; #@! TA.AperFunction,Plated,PTH,ComponentDrill
T4C1.143
; #@! TA.AperFunction,Plated,PTH,ComponentDrill
T5C1.200
; #@! TA.AperFunction,Plated,PTH,ComponentDrill
T6C1.219
; #@! TA.AperFunction,Plated,PTH,ComponentDrill
T7C1.300
; #@! TA.AperFunction,Plated,PTH,ComponentDrill
T8C1.700
; #@! TA.AperFunction,Plated,PTH,ComponentDrill
T9C4.500
; #@! TA.AperFunction,Plated,PTH,ComponentDrill
T10C5.000
%
G90
G05
T1
X103.773Y-48.133
X103.773Y-58.293
X107.823Y-48.133
X107.823Y-58.293
X113.411Y-55.499
X113.792Y-131.445
X113.792Y-141.605
X123.571Y-55.499
X129.77Y-32.06
X132.512Y-55.499
X133.27Y-32.06
X142.672Y-55.499
X151.35Y-32.06
X151.613Y-55.499
X154.85Y-32.06
X159.068Y-29.21
X161.068Y-29.21
X161.773Y-55.499
X163.068Y-29.21
X169.786Y-29.21
X170.713Y-55.499
X171.786Y-29.21
X173.786Y-29.21
X180.505Y-29.21
X180.873Y-55.499
X182.505Y-29.21
X184.505Y-29.21
X189.814Y-55.499
X191.223Y-29.21
X193.223Y-29.21
X195.223Y-29.21
X199.974Y-55.499
X201.803Y-38.989
X201.942Y-29.21
X203.803Y-38.989
X203.942Y-29.21
X205.803Y-38.989
X205.942Y-29.21
X208.915Y-55.499
X212.66Y-29.21
X214.66Y-29.21
X216.66Y-29.21
X219.075Y-55.499
T2
X102.748Y-134.025
X105.288Y-134.025
T3
X152.34Y-142.29
X154.88Y-142.29
X157.42Y-142.29
X170.688Y-36.576
X170.688Y-39.116
X173.228Y-36.576
X173.228Y-39.116
X175.768Y-36.576
X175.768Y-39.116
X178.308Y-36.576
X178.308Y-39.116
X180.848Y-36.576
X180.848Y-39.116
X183.388Y-36.576
X183.388Y-39.116
X185.928Y-36.576
X185.928Y-39.116
X188.468Y-36.576
X188.468Y-39.116
T4
X140.081Y-32.512
X142.621Y-32.512
X145.161Y-32.512
T5
X165.1Y-143.256
X174.62Y-48.387
X185.42Y-143.256
X205.1Y-48.387
T6
X120.523Y-141.224
X124.333Y-141.224
X128.143Y-141.224
X136.09Y-141.43
X139.9Y-141.43
X143.71Y-141.43
X191.643Y-141.605
X195.453Y-141.605
X199.263Y-141.605
X216.027Y-38.735
X216.027Y-42.545
X216.027Y-46.355
T7
X135.524Y-41.011
X135.524Y-48.631
X145.684Y-48.631
X153.304Y-48.631
T8
X105.535Y-83.566
X109.195Y-83.566
X113.642Y-69.85
X113.665Y-83.566
X117.325Y-83.566
X117.602Y-69.85
X124.814Y-83.566
X128.474Y-83.566
X132.944Y-83.566
X133.429Y-69.85
X136.604Y-83.566
X137.389Y-69.85
X144.092Y-83.566
X147.752Y-83.566
X152.222Y-83.566
X153.215Y-69.85
X155.882Y-83.566
X157.175Y-69.85
X163.371Y-83.566
X167.031Y-83.566
X171.501Y-83.566
X173.002Y-69.85
X175.161Y-83.566
X176.962Y-69.85
X182.649Y-83.566
X186.309Y-83.566
X190.779Y-83.566
X192.788Y-69.85
X194.439Y-83.566
X196.748Y-69.85
X201.928Y-83.566
X205.588Y-83.566
X210.058Y-83.566
X212.575Y-69.85
X213.718Y-83.566
X216.535Y-69.85
T9
X114.212Y-31.623
X121.412Y-31.623
T10
X114.133Y-43.28
X121.333Y-43.28
X164.603Y-121.209
X171.803Y-121.209
M30
