G04 #@! TF.GenerationSoftware,KiCad,Pcbnew,9.0.0*
G04 #@! TF.CreationDate,2025-04-22T01:19:36-05:00*
G04 #@! TF.ProjectId,SubCircuitV3,53756243-6972-4637-9569-7456332e6b69,rev?*
G04 #@! TF.SameCoordinates,Original*
G04 #@! TF.FileFunction,Copper,L2,Bot*
G04 #@! TF.FilePolarity,Positive*
%FSLAX46Y46*%
G04 Gerber Fmt 4.6, Leading zero omitted, Abs format (unit mm)*
G04 Created by KiCad (PCBNEW 9.0.0) date 2025-04-22 01:19:36*
%MOMM*%
%LPD*%
G01*
G04 APERTURE LIST*
G04 Aperture macros list*
%AMRoundRect*
0 Rectangle with rounded corners*
0 $1 Rounding radius*
0 $2 $3 $4 $5 $6 $7 $8 $9 X,Y pos of 4 corners*
0 Add a 4 corners polygon primitive as box body*
4,1,4,$2,$3,$4,$5,$6,$7,$8,$9,$2,$3,0*
0 Add four circle primitives for the rounded corners*
1,1,$1+$1,$2,$3*
1,1,$1+$1,$4,$5*
1,1,$1+$1,$6,$7*
1,1,$1+$1,$8,$9*
0 Add four rect primitives between the rounded corners*
20,1,$1+$1,$2,$3,$4,$5,0*
20,1,$1+$1,$4,$5,$6,$7,0*
20,1,$1+$1,$6,$7,$8,$9,0*
20,1,$1+$1,$8,$9,$2,$3,0*%
G04 Aperture macros list end*
G04 #@! TA.AperFunction,ComponentPad*
%ADD10RoundRect,1.500000X1.500000X1.500000X-1.500000X1.500000X-1.500000X-1.500000X1.500000X-1.500000X0*%
G04 #@! TD*
G04 #@! TA.AperFunction,ComponentPad*
%ADD11C,6.000000*%
G04 #@! TD*
G04 #@! TA.AperFunction,ComponentPad*
%ADD12R,1.700000X1.700000*%
G04 #@! TD*
G04 #@! TA.AperFunction,ComponentPad*
%ADD13O,1.700000X1.700000*%
G04 #@! TD*
G04 #@! TA.AperFunction,ComponentPad*
%ADD14C,1.727200*%
G04 #@! TD*
G04 #@! TA.AperFunction,ComponentPad*
%ADD15C,2.400000*%
G04 #@! TD*
G04 #@! TA.AperFunction,ComponentPad*
%ADD16O,2.400000X2.400000*%
G04 #@! TD*
G04 #@! TA.AperFunction,ComponentPad*
%ADD17C,2.550000*%
G04 #@! TD*
G04 #@! TA.AperFunction,ComponentPad*
%ADD18C,1.600000*%
G04 #@! TD*
G04 #@! TA.AperFunction,ComponentPad*
%ADD19O,1.600000X1.600000*%
G04 #@! TD*
G04 #@! TA.AperFunction,ComponentPad*
%ADD20R,2.300000X2.300000*%
G04 #@! TD*
G04 #@! TA.AperFunction,ComponentPad*
%ADD21C,2.300000*%
G04 #@! TD*
G04 #@! TA.AperFunction,ComponentPad*
%ADD22R,1.350000X1.350000*%
G04 #@! TD*
G04 #@! TA.AperFunction,ComponentPad*
%ADD23O,1.350000X1.350000*%
G04 #@! TD*
G04 #@! TA.AperFunction,ComponentPad*
%ADD24R,1.651000X1.651000*%
G04 #@! TD*
G04 #@! TA.AperFunction,ComponentPad*
%ADD25C,1.651000*%
G04 #@! TD*
G04 #@! TA.AperFunction,ComponentPad*
%ADD26R,1.800000X1.800000*%
G04 #@! TD*
G04 #@! TA.AperFunction,ComponentPad*
%ADD27C,1.800000*%
G04 #@! TD*
G04 #@! TA.AperFunction,ComponentPad*
%ADD28RoundRect,0.250001X1.099999X1.099999X-1.099999X1.099999X-1.099999X-1.099999X1.099999X-1.099999X0*%
G04 #@! TD*
G04 #@! TA.AperFunction,ComponentPad*
%ADD29C,2.700000*%
G04 #@! TD*
G04 #@! TA.AperFunction,Conductor*
%ADD30C,4.000000*%
G04 #@! TD*
G04 #@! TA.AperFunction,Conductor*
%ADD31C,2.000000*%
G04 #@! TD*
G04 #@! TA.AperFunction,Conductor*
%ADD32C,3.000000*%
G04 #@! TD*
G04 #@! TA.AperFunction,Conductor*
%ADD33C,0.500000*%
G04 #@! TD*
G04 APERTURE END LIST*
D10*
X171802800Y-121208800D03*
D11*
X164602800Y-121208800D03*
D12*
X152340000Y-142290000D03*
D13*
X154880000Y-142290000D03*
X157420000Y-142290000D03*
D14*
X120523000Y-141224000D03*
X124333000Y-141224000D03*
X128143000Y-141224000D03*
D10*
X121333000Y-43280000D03*
D11*
X114133000Y-43280000D03*
D15*
X165100000Y-143256000D03*
D16*
X185420000Y-143256000D03*
D17*
X163370800Y-83566000D03*
X167030800Y-83566000D03*
X171500800Y-83566000D03*
X175160800Y-83566000D03*
D18*
X103773000Y-48133000D03*
D19*
X103773000Y-58293000D03*
D14*
X216027000Y-38735000D03*
X216027000Y-42545000D03*
X216027000Y-46355000D03*
D18*
X107823000Y-48133000D03*
D19*
X107823000Y-58293000D03*
D15*
X174620000Y-48387000D03*
D16*
X205100000Y-48387000D03*
D18*
X154850000Y-32060000D03*
X151350000Y-32060000D03*
X170713400Y-55499000D03*
D19*
X180873400Y-55499000D03*
D17*
X105535000Y-83566000D03*
X109195000Y-83566000D03*
X113665000Y-83566000D03*
X117325000Y-83566000D03*
D20*
X135524000Y-48631000D03*
D21*
X145684000Y-48631000D03*
X153304000Y-48631000D03*
X135524000Y-41011000D03*
D18*
X189814200Y-55499000D03*
D19*
X199974200Y-55499000D03*
D10*
X121412000Y-31623000D03*
D11*
X114212000Y-31623000D03*
D18*
X113411000Y-55499000D03*
D19*
X123571000Y-55499000D03*
D17*
X201928000Y-83566000D03*
X205588000Y-83566000D03*
X210058000Y-83566000D03*
X213718000Y-83566000D03*
X124813600Y-83566000D03*
X128473600Y-83566000D03*
X132943600Y-83566000D03*
X136603600Y-83566000D03*
D18*
X133270000Y-32060000D03*
X129770000Y-32060000D03*
D22*
X201803000Y-38989000D03*
D23*
X203803000Y-38989000D03*
X205803000Y-38989000D03*
D12*
X170688000Y-39116000D03*
D13*
X170688000Y-36576000D03*
X173228000Y-39116000D03*
X173228000Y-36576000D03*
X175768000Y-39116000D03*
X175768000Y-36576000D03*
X178308000Y-39116000D03*
X178308000Y-36576000D03*
X180848000Y-39116000D03*
X180848000Y-36576000D03*
X183388000Y-39116000D03*
X183388000Y-36576000D03*
X185928000Y-39116000D03*
X185928000Y-36576000D03*
X188468000Y-39116000D03*
X188468000Y-36576000D03*
D24*
X140081000Y-32512000D03*
D25*
X142621000Y-32512000D03*
X145161000Y-32512000D03*
D18*
X151612600Y-55499000D03*
D19*
X161772600Y-55499000D03*
D18*
X208915000Y-55499000D03*
D19*
X219075000Y-55499000D03*
D14*
X199263000Y-141605000D03*
X195453000Y-141605000D03*
X191643000Y-141605000D03*
D17*
X182649400Y-83566000D03*
X186309400Y-83566000D03*
X190779400Y-83566000D03*
X194439400Y-83566000D03*
D14*
X136090000Y-141430000D03*
X139900000Y-141430000D03*
X143710000Y-141430000D03*
D18*
X132511800Y-55499000D03*
D19*
X142671800Y-55499000D03*
D26*
X105288000Y-134025000D03*
D27*
X102748000Y-134025000D03*
D17*
X144092200Y-83566000D03*
X147752200Y-83566000D03*
X152222200Y-83566000D03*
X155882200Y-83566000D03*
D18*
X113792000Y-141605000D03*
D19*
X113792000Y-131445000D03*
D28*
X216535000Y-69850000D03*
D29*
X212575000Y-69850000D03*
D28*
X117602000Y-69850000D03*
D29*
X113642000Y-69850000D03*
D22*
X159068000Y-29210000D03*
D23*
X161068000Y-29210000D03*
X163068000Y-29210000D03*
D28*
X137388600Y-69850000D03*
D29*
X133428600Y-69850000D03*
D22*
X169786400Y-29210000D03*
D23*
X171786400Y-29210000D03*
X173786400Y-29210000D03*
D28*
X157175200Y-69850000D03*
D29*
X153215200Y-69850000D03*
D22*
X180504800Y-29210000D03*
D23*
X182504800Y-29210000D03*
X184504800Y-29210000D03*
D22*
X191223200Y-29210000D03*
D23*
X193223200Y-29210000D03*
X195223200Y-29210000D03*
D28*
X176961800Y-69850000D03*
D29*
X173001800Y-69850000D03*
D22*
X201941600Y-29210000D03*
D23*
X203941600Y-29210000D03*
X205941600Y-29210000D03*
D28*
X196748400Y-69850000D03*
D29*
X192788400Y-69850000D03*
D22*
X212660000Y-29210000D03*
D23*
X214660000Y-29210000D03*
X216660000Y-29210000D03*
D30*
X176961800Y-77012800D02*
X176961800Y-69850000D01*
X178910000Y-102658960D02*
X178910000Y-78961000D01*
X164602800Y-116966160D02*
X178910000Y-102658960D01*
X164602800Y-121208800D02*
X164602800Y-116966160D01*
X178910000Y-78961000D02*
X176961800Y-77012800D01*
D31*
X201727000Y-39848908D02*
X201727000Y-38989000D01*
X205439092Y-43561000D02*
X201727000Y-39848908D01*
X209169000Y-43561000D02*
X205439092Y-43561000D01*
X216027000Y-38735000D02*
X213995000Y-38735000D01*
X213995000Y-38735000D02*
X209169000Y-43561000D01*
X153304000Y-48631000D02*
X153304000Y-40655000D01*
X153304000Y-40655000D02*
X145161000Y-32512000D01*
X140081000Y-32512000D02*
X140081000Y-29972000D01*
X137668000Y-27559000D02*
X130941000Y-27559000D01*
X188468000Y-39116000D02*
X201676000Y-39116000D01*
X130941000Y-27559000D02*
X129770000Y-28730000D01*
X129770000Y-28730000D02*
X129770000Y-32060000D01*
X149759000Y-27559000D02*
X151350000Y-29150000D01*
D32*
X114212000Y-43201000D02*
X114133000Y-43280000D01*
D31*
X151350000Y-29150000D02*
X151350000Y-32060000D01*
X129770000Y-34890000D02*
X129770000Y-32060000D01*
X140081000Y-29718000D02*
X142240000Y-27559000D01*
X114212000Y-31623000D02*
X114212000Y-35726000D01*
X115951000Y-37465000D02*
X127195000Y-37465000D01*
X140081000Y-29972000D02*
X137668000Y-27559000D01*
X142240000Y-27559000D02*
X149759000Y-27559000D01*
X127195000Y-37465000D02*
X129770000Y-34890000D01*
X114133000Y-43280000D02*
X114133000Y-44156000D01*
X113157000Y-44256000D02*
X114133000Y-43280000D01*
X114212000Y-35726000D02*
X115951000Y-37465000D01*
X140081000Y-32512000D02*
X140081000Y-29718000D01*
D30*
X164602800Y-125451440D02*
X166151360Y-127000000D01*
X217737300Y-71052300D02*
X216535000Y-69850000D01*
D31*
X147310000Y-41011000D02*
X149479000Y-43180000D01*
D30*
X156701100Y-121208800D02*
X140335000Y-104842700D01*
X164602800Y-121208800D02*
X164602800Y-125451440D01*
X121158000Y-73406000D02*
X117602000Y-69850000D01*
X196748400Y-75531100D02*
X196748400Y-69850000D01*
X164602800Y-121208800D02*
X156701100Y-121208800D01*
X185606300Y-127000000D02*
X198179300Y-114427000D01*
X137388600Y-76682600D02*
X137388600Y-69850000D01*
D33*
X199974200Y-66624200D02*
X196748400Y-69850000D01*
X161772600Y-65252600D02*
X157175200Y-69850000D01*
D31*
X154237300Y-127635000D02*
X149885000Y-127635000D01*
X154880000Y-142290000D02*
X154880000Y-128277700D01*
D30*
X158572100Y-115178100D02*
X164602800Y-121208800D01*
X140335000Y-79629000D02*
X137388600Y-76682600D01*
X199263000Y-138303000D02*
X195580000Y-134620000D01*
D33*
X123571000Y-63881000D02*
X117602000Y-69850000D01*
D31*
X149885000Y-127635000D02*
X136090000Y-141430000D01*
D30*
X158572100Y-89458900D02*
X159512000Y-88519000D01*
X212276300Y-134620000D02*
X195580000Y-134620000D01*
X172525300Y-134620000D02*
X164602800Y-126697500D01*
X140335000Y-104842700D02*
X140335000Y-79629000D01*
X199263000Y-141605000D02*
X199263000Y-138303000D01*
D31*
X147320000Y-54483000D02*
X147320000Y-69850000D01*
D33*
X199974200Y-55499000D02*
X199974200Y-66624200D01*
X105288000Y-110425700D02*
X121158000Y-94555700D01*
D30*
X217737300Y-129159000D02*
X217737300Y-71052300D01*
X164602800Y-126697500D02*
X164602800Y-121208800D01*
X121158000Y-94555700D02*
X121158000Y-73406000D01*
X198179300Y-114427000D02*
X198179300Y-76962000D01*
D33*
X142671800Y-64566800D02*
X137388600Y-69850000D01*
D30*
X158176600Y-127635000D02*
X154237300Y-127635000D01*
D31*
X140335000Y-76835000D02*
X140335000Y-79629000D01*
D33*
X142671800Y-55499000D02*
X142671800Y-64566800D01*
X161772600Y-55499000D02*
X161772600Y-65252600D01*
D30*
X195580000Y-134620000D02*
X172525300Y-134620000D01*
X159512000Y-72186800D02*
X157175200Y-69850000D01*
X166151360Y-127000000D02*
X185606300Y-127000000D01*
X154237300Y-127635000D02*
X121158000Y-94555700D01*
D33*
X219075000Y-55499000D02*
X219075000Y-67310000D01*
X123571000Y-55499000D02*
X123571000Y-63881000D01*
X105288000Y-134025000D02*
X105288000Y-110425700D01*
D31*
X149479000Y-43180000D02*
X149479000Y-52324000D01*
X135524000Y-41011000D02*
X147310000Y-41011000D01*
D30*
X198179300Y-76962000D02*
X196748400Y-75531100D01*
X217737300Y-129159000D02*
X212276300Y-134620000D01*
D33*
X180873400Y-65938400D02*
X176961800Y-69850000D01*
X180873400Y-55499000D02*
X180873400Y-65938400D01*
D30*
X158572100Y-115178100D02*
X158572100Y-89458900D01*
D31*
X149479000Y-52324000D02*
X147320000Y-54483000D01*
D33*
X219075000Y-67310000D02*
X216535000Y-69850000D01*
D31*
X147320000Y-69850000D02*
X140335000Y-76835000D01*
D30*
X159512000Y-88519000D02*
X159512000Y-72186800D01*
X164602800Y-121208800D02*
X158176600Y-127635000D01*
D31*
X154880000Y-128277700D02*
X154237300Y-127635000D01*
D33*
X128143000Y-141224000D02*
X124714000Y-144653000D01*
X124714000Y-144653000D02*
X116840000Y-144653000D01*
X116840000Y-144653000D02*
X113792000Y-141605000D01*
D31*
X103773000Y-48133000D02*
X103759000Y-48119000D01*
X103773000Y-48133000D02*
X107823000Y-48133000D01*
X135026000Y-48133000D02*
X135524000Y-48631000D01*
X107823000Y-48133000D02*
X135026000Y-48133000D01*
D33*
X208915000Y-66190000D02*
X212575000Y-69850000D01*
X208915000Y-55499000D02*
X208915000Y-66190000D01*
X189814200Y-66875800D02*
X192788400Y-69850000D01*
X189814200Y-55499000D02*
X189814200Y-66875800D01*
X170713400Y-67561600D02*
X173001800Y-69850000D01*
X170713400Y-55499000D02*
X170713400Y-67561600D01*
X113411000Y-55499000D02*
X113411000Y-69619000D01*
X113411000Y-69619000D02*
X113642000Y-69850000D01*
X132511800Y-68933200D02*
X133428600Y-69850000D01*
X132511800Y-55499000D02*
X132511800Y-68933200D01*
X151612600Y-68247400D02*
X153215200Y-69850000D01*
X151612600Y-55499000D02*
X151612600Y-68247400D01*
D31*
X171958000Y-32766000D02*
X167005000Y-32766000D01*
D33*
X163068000Y-34163000D02*
X164846000Y-35941000D01*
X205941600Y-29210000D02*
X203327000Y-31824600D01*
D31*
X178308000Y-39116000D02*
X180848000Y-39116000D01*
D33*
X173786400Y-30937600D02*
X171958000Y-32766000D01*
X195223200Y-29210000D02*
X195223200Y-30582800D01*
X203327000Y-32766000D02*
X213104000Y-32766000D01*
X203327000Y-31824600D02*
X203327000Y-32766000D01*
X184504800Y-29210000D02*
X184504800Y-30506200D01*
D31*
X164846000Y-34925000D02*
X164846000Y-35941000D01*
X175768000Y-39116000D02*
X178308000Y-39116000D01*
X166878000Y-39116000D02*
X170688000Y-39116000D01*
D33*
X173786400Y-29210000D02*
X173786400Y-30937600D01*
D31*
X164846000Y-37084000D02*
X166878000Y-39116000D01*
D33*
X213104000Y-32766000D02*
X216660000Y-29210000D01*
X184504800Y-30506200D02*
X182245000Y-32766000D01*
D31*
X203327000Y-32766000D02*
X193040000Y-32766000D01*
D33*
X195223200Y-30582800D02*
X193040000Y-32766000D01*
D31*
X182245000Y-32766000D02*
X171958000Y-32766000D01*
X164846000Y-35941000D02*
X164846000Y-37084000D01*
X170688000Y-39116000D02*
X173228000Y-39116000D01*
X167005000Y-32766000D02*
X164846000Y-34925000D01*
X193040000Y-32766000D02*
X182245000Y-32766000D01*
D33*
X163068000Y-29210000D02*
X163068000Y-34163000D01*
D31*
X180848000Y-39116000D02*
X183388000Y-39116000D01*
X173228000Y-39116000D02*
X175768000Y-39116000D01*
M02*
