G04 #@! TF.GenerationSoftware,KiCad,Pcbnew,9.0.0*
G04 #@! TF.CreationDate,2025-04-22T01:19:36-05:00*
G04 #@! TF.ProjectId,SubCircuitV3,53756243-6972-4637-9569-7456332e6b69,rev?*
G04 #@! TF.SameCoordinates,Original*
G04 #@! TF.FileFunction,Legend,Bot*
G04 #@! TF.FilePolarity,Positive*
%FSLAX46Y46*%
G04 Gerber Fmt 4.6, Leading zero omitted, Abs format (unit mm)*
G04 Created by KiCad (PCBNEW 9.0.0) date 2025-04-22 01:19:36*
%MOMM*%
%LPD*%
G01*
G04 APERTURE LIST*
G04 Aperture macros list*
%AMRoundRect*
0 Rectangle with rounded corners*
0 $1 Rounding radius*
0 $2 $3 $4 $5 $6 $7 $8 $9 X,Y pos of 4 corners*
0 Add a 4 corners polygon primitive as box body*
4,1,4,$2,$3,$4,$5,$6,$7,$8,$9,$2,$3,0*
0 Add four circle primitives for the rounded corners*
1,1,$1+$1,$2,$3*
1,1,$1+$1,$4,$5*
1,1,$1+$1,$6,$7*
1,1,$1+$1,$8,$9*
0 Add four rect primitives between the rounded corners*
20,1,$1+$1,$2,$3,$4,$5,0*
20,1,$1+$1,$4,$5,$6,$7,0*
20,1,$1+$1,$6,$7,$8,$9,0*
20,1,$1+$1,$8,$9,$2,$3,0*%
G04 Aperture macros list end*
%ADD10C,0.150000*%
%ADD11C,0.508000*%
%ADD12C,0.120000*%
%ADD13C,2.700000*%
%ADD14RoundRect,1.500000X1.500000X1.500000X-1.500000X1.500000X-1.500000X-1.500000X1.500000X-1.500000X0*%
%ADD15C,6.000000*%
%ADD16R,1.700000X1.700000*%
%ADD17O,1.700000X1.700000*%
%ADD18C,1.727200*%
%ADD19C,2.400000*%
%ADD20O,2.400000X2.400000*%
%ADD21C,2.550000*%
%ADD22C,1.600000*%
%ADD23O,1.600000X1.600000*%
%ADD24R,2.300000X2.300000*%
%ADD25C,2.300000*%
%ADD26R,1.350000X1.350000*%
%ADD27O,1.350000X1.350000*%
%ADD28R,1.651000X1.651000*%
%ADD29C,1.651000*%
%ADD30R,1.800000X1.800000*%
%ADD31C,1.800000*%
%ADD32RoundRect,0.250001X1.099999X1.099999X-1.099999X1.099999X-1.099999X-1.099999X1.099999X-1.099999X0*%
G04 APERTURE END LIST*
D10*
X214888333Y-64404819D02*
X214888333Y-65119104D01*
X214888333Y-65119104D02*
X214935952Y-65261961D01*
X214935952Y-65261961D02*
X215031190Y-65357200D01*
X215031190Y-65357200D02*
X215174047Y-65404819D01*
X215174047Y-65404819D02*
X215269285Y-65404819D01*
X214269285Y-64833390D02*
X214364523Y-64785771D01*
X214364523Y-64785771D02*
X214412142Y-64738152D01*
X214412142Y-64738152D02*
X214459761Y-64642914D01*
X214459761Y-64642914D02*
X214459761Y-64595295D01*
X214459761Y-64595295D02*
X214412142Y-64500057D01*
X214412142Y-64500057D02*
X214364523Y-64452438D01*
X214364523Y-64452438D02*
X214269285Y-64404819D01*
X214269285Y-64404819D02*
X214078809Y-64404819D01*
X214078809Y-64404819D02*
X213983571Y-64452438D01*
X213983571Y-64452438D02*
X213935952Y-64500057D01*
X213935952Y-64500057D02*
X213888333Y-64595295D01*
X213888333Y-64595295D02*
X213888333Y-64642914D01*
X213888333Y-64642914D02*
X213935952Y-64738152D01*
X213935952Y-64738152D02*
X213983571Y-64785771D01*
X213983571Y-64785771D02*
X214078809Y-64833390D01*
X214078809Y-64833390D02*
X214269285Y-64833390D01*
X214269285Y-64833390D02*
X214364523Y-64881009D01*
X214364523Y-64881009D02*
X214412142Y-64928628D01*
X214412142Y-64928628D02*
X214459761Y-65023866D01*
X214459761Y-65023866D02*
X214459761Y-65214342D01*
X214459761Y-65214342D02*
X214412142Y-65309580D01*
X214412142Y-65309580D02*
X214364523Y-65357200D01*
X214364523Y-65357200D02*
X214269285Y-65404819D01*
X214269285Y-65404819D02*
X214078809Y-65404819D01*
X214078809Y-65404819D02*
X213983571Y-65357200D01*
X213983571Y-65357200D02*
X213935952Y-65309580D01*
X213935952Y-65309580D02*
X213888333Y-65214342D01*
X213888333Y-65214342D02*
X213888333Y-65023866D01*
X213888333Y-65023866D02*
X213935952Y-64928628D01*
X213935952Y-64928628D02*
X213983571Y-64881009D01*
X213983571Y-64881009D02*
X214078809Y-64833390D01*
X116431523Y-64404819D02*
X116431523Y-65119104D01*
X116431523Y-65119104D02*
X116479142Y-65261961D01*
X116479142Y-65261961D02*
X116574380Y-65357200D01*
X116574380Y-65357200D02*
X116717237Y-65404819D01*
X116717237Y-65404819D02*
X116812475Y-65404819D01*
X115431523Y-65404819D02*
X116002951Y-65404819D01*
X115717237Y-65404819D02*
X115717237Y-64404819D01*
X115717237Y-64404819D02*
X115812475Y-64547676D01*
X115812475Y-64547676D02*
X115907713Y-64642914D01*
X115907713Y-64642914D02*
X116002951Y-64690533D01*
X114479142Y-65404819D02*
X115050570Y-65404819D01*
X114764856Y-65404819D02*
X114764856Y-64404819D01*
X114764856Y-64404819D02*
X114860094Y-64547676D01*
X114860094Y-64547676D02*
X114955332Y-64642914D01*
X114955332Y-64642914D02*
X115050570Y-64690533D01*
X156462819Y-28876666D02*
X157177104Y-28876666D01*
X157177104Y-28876666D02*
X157319961Y-28829047D01*
X157319961Y-28829047D02*
X157415200Y-28733809D01*
X157415200Y-28733809D02*
X157462819Y-28590952D01*
X157462819Y-28590952D02*
X157462819Y-28495714D01*
X156462819Y-29781428D02*
X156462819Y-29590952D01*
X156462819Y-29590952D02*
X156510438Y-29495714D01*
X156510438Y-29495714D02*
X156558057Y-29448095D01*
X156558057Y-29448095D02*
X156700914Y-29352857D01*
X156700914Y-29352857D02*
X156891390Y-29305238D01*
X156891390Y-29305238D02*
X157272342Y-29305238D01*
X157272342Y-29305238D02*
X157367580Y-29352857D01*
X157367580Y-29352857D02*
X157415200Y-29400476D01*
X157415200Y-29400476D02*
X157462819Y-29495714D01*
X157462819Y-29495714D02*
X157462819Y-29686190D01*
X157462819Y-29686190D02*
X157415200Y-29781428D01*
X157415200Y-29781428D02*
X157367580Y-29829047D01*
X157367580Y-29829047D02*
X157272342Y-29876666D01*
X157272342Y-29876666D02*
X157034247Y-29876666D01*
X157034247Y-29876666D02*
X156939009Y-29829047D01*
X156939009Y-29829047D02*
X156891390Y-29781428D01*
X156891390Y-29781428D02*
X156843771Y-29686190D01*
X156843771Y-29686190D02*
X156843771Y-29495714D01*
X156843771Y-29495714D02*
X156891390Y-29400476D01*
X156891390Y-29400476D02*
X156939009Y-29352857D01*
X156939009Y-29352857D02*
X157034247Y-29305238D01*
X136218123Y-64404819D02*
X136218123Y-65119104D01*
X136218123Y-65119104D02*
X136265742Y-65261961D01*
X136265742Y-65261961D02*
X136360980Y-65357200D01*
X136360980Y-65357200D02*
X136503837Y-65404819D01*
X136503837Y-65404819D02*
X136599075Y-65404819D01*
X135218123Y-65404819D02*
X135789551Y-65404819D01*
X135503837Y-65404819D02*
X135503837Y-64404819D01*
X135503837Y-64404819D02*
X135599075Y-64547676D01*
X135599075Y-64547676D02*
X135694313Y-64642914D01*
X135694313Y-64642914D02*
X135789551Y-64690533D01*
X134837170Y-64500057D02*
X134789551Y-64452438D01*
X134789551Y-64452438D02*
X134694313Y-64404819D01*
X134694313Y-64404819D02*
X134456218Y-64404819D01*
X134456218Y-64404819D02*
X134360980Y-64452438D01*
X134360980Y-64452438D02*
X134313361Y-64500057D01*
X134313361Y-64500057D02*
X134265742Y-64595295D01*
X134265742Y-64595295D02*
X134265742Y-64690533D01*
X134265742Y-64690533D02*
X134313361Y-64833390D01*
X134313361Y-64833390D02*
X134884789Y-65404819D01*
X134884789Y-65404819D02*
X134265742Y-65404819D01*
X167181219Y-28876666D02*
X167895504Y-28876666D01*
X167895504Y-28876666D02*
X168038361Y-28829047D01*
X168038361Y-28829047D02*
X168133600Y-28733809D01*
X168133600Y-28733809D02*
X168181219Y-28590952D01*
X168181219Y-28590952D02*
X168181219Y-28495714D01*
X167181219Y-29829047D02*
X167181219Y-29352857D01*
X167181219Y-29352857D02*
X167657409Y-29305238D01*
X167657409Y-29305238D02*
X167609790Y-29352857D01*
X167609790Y-29352857D02*
X167562171Y-29448095D01*
X167562171Y-29448095D02*
X167562171Y-29686190D01*
X167562171Y-29686190D02*
X167609790Y-29781428D01*
X167609790Y-29781428D02*
X167657409Y-29829047D01*
X167657409Y-29829047D02*
X167752647Y-29876666D01*
X167752647Y-29876666D02*
X167990742Y-29876666D01*
X167990742Y-29876666D02*
X168085980Y-29829047D01*
X168085980Y-29829047D02*
X168133600Y-29781428D01*
X168133600Y-29781428D02*
X168181219Y-29686190D01*
X168181219Y-29686190D02*
X168181219Y-29448095D01*
X168181219Y-29448095D02*
X168133600Y-29352857D01*
X168133600Y-29352857D02*
X168085980Y-29305238D01*
X156004723Y-64404819D02*
X156004723Y-65119104D01*
X156004723Y-65119104D02*
X156052342Y-65261961D01*
X156052342Y-65261961D02*
X156147580Y-65357200D01*
X156147580Y-65357200D02*
X156290437Y-65404819D01*
X156290437Y-65404819D02*
X156385675Y-65404819D01*
X155004723Y-65404819D02*
X155576151Y-65404819D01*
X155290437Y-65404819D02*
X155290437Y-64404819D01*
X155290437Y-64404819D02*
X155385675Y-64547676D01*
X155385675Y-64547676D02*
X155480913Y-64642914D01*
X155480913Y-64642914D02*
X155576151Y-64690533D01*
X154671389Y-64404819D02*
X154052342Y-64404819D01*
X154052342Y-64404819D02*
X154385675Y-64785771D01*
X154385675Y-64785771D02*
X154242818Y-64785771D01*
X154242818Y-64785771D02*
X154147580Y-64833390D01*
X154147580Y-64833390D02*
X154099961Y-64881009D01*
X154099961Y-64881009D02*
X154052342Y-64976247D01*
X154052342Y-64976247D02*
X154052342Y-65214342D01*
X154052342Y-65214342D02*
X154099961Y-65309580D01*
X154099961Y-65309580D02*
X154147580Y-65357200D01*
X154147580Y-65357200D02*
X154242818Y-65404819D01*
X154242818Y-65404819D02*
X154528532Y-65404819D01*
X154528532Y-65404819D02*
X154623770Y-65357200D01*
X154623770Y-65357200D02*
X154671389Y-65309580D01*
X177899619Y-28876666D02*
X178613904Y-28876666D01*
X178613904Y-28876666D02*
X178756761Y-28829047D01*
X178756761Y-28829047D02*
X178852000Y-28733809D01*
X178852000Y-28733809D02*
X178899619Y-28590952D01*
X178899619Y-28590952D02*
X178899619Y-28495714D01*
X178232952Y-29781428D02*
X178899619Y-29781428D01*
X177852000Y-29543333D02*
X178566285Y-29305238D01*
X178566285Y-29305238D02*
X178566285Y-29924285D01*
X188618019Y-28876666D02*
X189332304Y-28876666D01*
X189332304Y-28876666D02*
X189475161Y-28829047D01*
X189475161Y-28829047D02*
X189570400Y-28733809D01*
X189570400Y-28733809D02*
X189618019Y-28590952D01*
X189618019Y-28590952D02*
X189618019Y-28495714D01*
X188618019Y-29257619D02*
X188618019Y-29876666D01*
X188618019Y-29876666D02*
X188998971Y-29543333D01*
X188998971Y-29543333D02*
X188998971Y-29686190D01*
X188998971Y-29686190D02*
X189046590Y-29781428D01*
X189046590Y-29781428D02*
X189094209Y-29829047D01*
X189094209Y-29829047D02*
X189189447Y-29876666D01*
X189189447Y-29876666D02*
X189427542Y-29876666D01*
X189427542Y-29876666D02*
X189522780Y-29829047D01*
X189522780Y-29829047D02*
X189570400Y-29781428D01*
X189570400Y-29781428D02*
X189618019Y-29686190D01*
X189618019Y-29686190D02*
X189618019Y-29400476D01*
X189618019Y-29400476D02*
X189570400Y-29305238D01*
X189570400Y-29305238D02*
X189522780Y-29257619D01*
X175791323Y-64404819D02*
X175791323Y-65119104D01*
X175791323Y-65119104D02*
X175838942Y-65261961D01*
X175838942Y-65261961D02*
X175934180Y-65357200D01*
X175934180Y-65357200D02*
X176077037Y-65404819D01*
X176077037Y-65404819D02*
X176172275Y-65404819D01*
X174791323Y-65404819D02*
X175362751Y-65404819D01*
X175077037Y-65404819D02*
X175077037Y-64404819D01*
X175077037Y-64404819D02*
X175172275Y-64547676D01*
X175172275Y-64547676D02*
X175267513Y-64642914D01*
X175267513Y-64642914D02*
X175362751Y-64690533D01*
X174172275Y-64404819D02*
X174077037Y-64404819D01*
X174077037Y-64404819D02*
X173981799Y-64452438D01*
X173981799Y-64452438D02*
X173934180Y-64500057D01*
X173934180Y-64500057D02*
X173886561Y-64595295D01*
X173886561Y-64595295D02*
X173838942Y-64785771D01*
X173838942Y-64785771D02*
X173838942Y-65023866D01*
X173838942Y-65023866D02*
X173886561Y-65214342D01*
X173886561Y-65214342D02*
X173934180Y-65309580D01*
X173934180Y-65309580D02*
X173981799Y-65357200D01*
X173981799Y-65357200D02*
X174077037Y-65404819D01*
X174077037Y-65404819D02*
X174172275Y-65404819D01*
X174172275Y-65404819D02*
X174267513Y-65357200D01*
X174267513Y-65357200D02*
X174315132Y-65309580D01*
X174315132Y-65309580D02*
X174362751Y-65214342D01*
X174362751Y-65214342D02*
X174410370Y-65023866D01*
X174410370Y-65023866D02*
X174410370Y-64785771D01*
X174410370Y-64785771D02*
X174362751Y-64595295D01*
X174362751Y-64595295D02*
X174315132Y-64500057D01*
X174315132Y-64500057D02*
X174267513Y-64452438D01*
X174267513Y-64452438D02*
X174172275Y-64404819D01*
X199336419Y-28876666D02*
X200050704Y-28876666D01*
X200050704Y-28876666D02*
X200193561Y-28829047D01*
X200193561Y-28829047D02*
X200288800Y-28733809D01*
X200288800Y-28733809D02*
X200336419Y-28590952D01*
X200336419Y-28590952D02*
X200336419Y-28495714D01*
X199431657Y-29305238D02*
X199384038Y-29352857D01*
X199384038Y-29352857D02*
X199336419Y-29448095D01*
X199336419Y-29448095D02*
X199336419Y-29686190D01*
X199336419Y-29686190D02*
X199384038Y-29781428D01*
X199384038Y-29781428D02*
X199431657Y-29829047D01*
X199431657Y-29829047D02*
X199526895Y-29876666D01*
X199526895Y-29876666D02*
X199622133Y-29876666D01*
X199622133Y-29876666D02*
X199764990Y-29829047D01*
X199764990Y-29829047D02*
X200336419Y-29257619D01*
X200336419Y-29257619D02*
X200336419Y-29876666D01*
X195101733Y-64404819D02*
X195101733Y-65119104D01*
X195101733Y-65119104D02*
X195149352Y-65261961D01*
X195149352Y-65261961D02*
X195244590Y-65357200D01*
X195244590Y-65357200D02*
X195387447Y-65404819D01*
X195387447Y-65404819D02*
X195482685Y-65404819D01*
X194577923Y-65404819D02*
X194387447Y-65404819D01*
X194387447Y-65404819D02*
X194292209Y-65357200D01*
X194292209Y-65357200D02*
X194244590Y-65309580D01*
X194244590Y-65309580D02*
X194149352Y-65166723D01*
X194149352Y-65166723D02*
X194101733Y-64976247D01*
X194101733Y-64976247D02*
X194101733Y-64595295D01*
X194101733Y-64595295D02*
X194149352Y-64500057D01*
X194149352Y-64500057D02*
X194196971Y-64452438D01*
X194196971Y-64452438D02*
X194292209Y-64404819D01*
X194292209Y-64404819D02*
X194482685Y-64404819D01*
X194482685Y-64404819D02*
X194577923Y-64452438D01*
X194577923Y-64452438D02*
X194625542Y-64500057D01*
X194625542Y-64500057D02*
X194673161Y-64595295D01*
X194673161Y-64595295D02*
X194673161Y-64833390D01*
X194673161Y-64833390D02*
X194625542Y-64928628D01*
X194625542Y-64928628D02*
X194577923Y-64976247D01*
X194577923Y-64976247D02*
X194482685Y-65023866D01*
X194482685Y-65023866D02*
X194292209Y-65023866D01*
X194292209Y-65023866D02*
X194196971Y-64976247D01*
X194196971Y-64976247D02*
X194149352Y-64928628D01*
X194149352Y-64928628D02*
X194101733Y-64833390D01*
X210054819Y-28400476D02*
X210769104Y-28400476D01*
X210769104Y-28400476D02*
X210911961Y-28352857D01*
X210911961Y-28352857D02*
X211007200Y-28257619D01*
X211007200Y-28257619D02*
X211054819Y-28114762D01*
X211054819Y-28114762D02*
X211054819Y-28019524D01*
X211054819Y-29400476D02*
X211054819Y-28829048D01*
X211054819Y-29114762D02*
X210054819Y-29114762D01*
X210054819Y-29114762D02*
X210197676Y-29019524D01*
X210197676Y-29019524D02*
X210292914Y-28924286D01*
X210292914Y-28924286D02*
X210340533Y-28829048D01*
X210054819Y-30305238D02*
X210054819Y-29829048D01*
X210054819Y-29829048D02*
X210531009Y-29781429D01*
X210531009Y-29781429D02*
X210483390Y-29829048D01*
X210483390Y-29829048D02*
X210435771Y-29924286D01*
X210435771Y-29924286D02*
X210435771Y-30162381D01*
X210435771Y-30162381D02*
X210483390Y-30257619D01*
X210483390Y-30257619D02*
X210531009Y-30305238D01*
X210531009Y-30305238D02*
X210626247Y-30352857D01*
X210626247Y-30352857D02*
X210864342Y-30352857D01*
X210864342Y-30352857D02*
X210959580Y-30305238D01*
X210959580Y-30305238D02*
X211007200Y-30257619D01*
X211007200Y-30257619D02*
X211054819Y-30162381D01*
X211054819Y-30162381D02*
X211054819Y-29924286D01*
X211054819Y-29924286D02*
X211007200Y-29829048D01*
X211007200Y-29829048D02*
X210959580Y-29781429D01*
D11*
X118242001Y-141224000D02*
G75*
G02*
X117480001Y-141224000I-381000J0D01*
G01*
X117480001Y-141224000D02*
G75*
G02*
X118242001Y-141224000I381000J0D01*
G01*
X216408000Y-36073001D02*
G75*
G02*
X215646000Y-36073001I-381000J0D01*
G01*
X215646000Y-36073001D02*
G75*
G02*
X216408000Y-36073001I381000J0D01*
G01*
X202305999Y-141605000D02*
G75*
G02*
X201543999Y-141605000I-381000J0D01*
G01*
X201543999Y-141605000D02*
G75*
G02*
X202305999Y-141605000I381000J0D01*
G01*
X133809001Y-141430000D02*
G75*
G02*
X133047001Y-141430000I-381000J0D01*
G01*
X133047001Y-141430000D02*
G75*
G02*
X133809001Y-141430000I381000J0D01*
G01*
D12*
X210515000Y-67740000D02*
X210515000Y-74760000D01*
X210515000Y-74760000D02*
X218595000Y-74760000D01*
X211715000Y-66040000D02*
X211715000Y-67740000D01*
X211715000Y-67740000D02*
X210515000Y-67740000D01*
X217395000Y-66040000D02*
X211715000Y-66040000D01*
X217395000Y-67740000D02*
X217395000Y-66040000D01*
X218595000Y-67740000D02*
X217395000Y-67740000D01*
X218595000Y-74760000D02*
X218595000Y-67740000D01*
X218795000Y-69850000D02*
X219395000Y-70150000D01*
X219395000Y-69550000D02*
X218795000Y-69850000D01*
X219395000Y-70150000D02*
X219395000Y-69550000D01*
X111582000Y-67740000D02*
X111582000Y-74760000D01*
X111582000Y-74760000D02*
X119662000Y-74760000D01*
X112782000Y-66040000D02*
X112782000Y-67740000D01*
X112782000Y-67740000D02*
X111582000Y-67740000D01*
X118462000Y-66040000D02*
X112782000Y-66040000D01*
X118462000Y-67740000D02*
X118462000Y-66040000D01*
X119662000Y-67740000D02*
X118462000Y-67740000D01*
X119662000Y-74760000D02*
X119662000Y-67740000D01*
X119862000Y-69850000D02*
X120462000Y-70150000D01*
X120462000Y-69550000D02*
X119862000Y-69850000D01*
X120462000Y-70150000D02*
X120462000Y-69550000D01*
X158008000Y-28150000D02*
X158008000Y-29210000D01*
X159068000Y-28150000D02*
X158008000Y-28150000D01*
X160068000Y-28150000D02*
X160068000Y-30270000D01*
X160068000Y-28150000D02*
X164128000Y-28150000D01*
X160068000Y-30270000D02*
X164128000Y-30270000D01*
X164128000Y-28150000D02*
X164128000Y-30270000D01*
X131368600Y-67740000D02*
X131368600Y-74760000D01*
X131368600Y-74760000D02*
X139448600Y-74760000D01*
X132568600Y-66040000D02*
X132568600Y-67740000D01*
X132568600Y-67740000D02*
X131368600Y-67740000D01*
X138248600Y-66040000D02*
X132568600Y-66040000D01*
X138248600Y-67740000D02*
X138248600Y-66040000D01*
X139448600Y-67740000D02*
X138248600Y-67740000D01*
X139448600Y-74760000D02*
X139448600Y-67740000D01*
X139648600Y-69850000D02*
X140248600Y-70150000D01*
X140248600Y-69550000D02*
X139648600Y-69850000D01*
X140248600Y-70150000D02*
X140248600Y-69550000D01*
X168726400Y-28150000D02*
X168726400Y-29210000D01*
X169786400Y-28150000D02*
X168726400Y-28150000D01*
X170786400Y-28150000D02*
X170786400Y-30270000D01*
X170786400Y-28150000D02*
X174846400Y-28150000D01*
X170786400Y-30270000D02*
X174846400Y-30270000D01*
X174846400Y-28150000D02*
X174846400Y-30270000D01*
X151155200Y-67740000D02*
X151155200Y-74760000D01*
X151155200Y-74760000D02*
X159235200Y-74760000D01*
X152355200Y-66040000D02*
X152355200Y-67740000D01*
X152355200Y-67740000D02*
X151155200Y-67740000D01*
X158035200Y-66040000D02*
X152355200Y-66040000D01*
X158035200Y-67740000D02*
X158035200Y-66040000D01*
X159235200Y-67740000D02*
X158035200Y-67740000D01*
X159235200Y-74760000D02*
X159235200Y-67740000D01*
X159435200Y-69850000D02*
X160035200Y-70150000D01*
X160035200Y-69550000D02*
X159435200Y-69850000D01*
X160035200Y-70150000D02*
X160035200Y-69550000D01*
X179444800Y-28150000D02*
X179444800Y-29210000D01*
X180504800Y-28150000D02*
X179444800Y-28150000D01*
X181504800Y-28150000D02*
X181504800Y-30270000D01*
X181504800Y-28150000D02*
X185564800Y-28150000D01*
X181504800Y-30270000D02*
X185564800Y-30270000D01*
X185564800Y-28150000D02*
X185564800Y-30270000D01*
X190163200Y-28150000D02*
X190163200Y-29210000D01*
X191223200Y-28150000D02*
X190163200Y-28150000D01*
X192223200Y-28150000D02*
X192223200Y-30270000D01*
X192223200Y-28150000D02*
X196283200Y-28150000D01*
X192223200Y-30270000D02*
X196283200Y-30270000D01*
X196283200Y-28150000D02*
X196283200Y-30270000D01*
X170941800Y-67740000D02*
X170941800Y-74760000D01*
X170941800Y-74760000D02*
X179021800Y-74760000D01*
X172141800Y-66040000D02*
X172141800Y-67740000D01*
X172141800Y-67740000D02*
X170941800Y-67740000D01*
X177821800Y-66040000D02*
X172141800Y-66040000D01*
X177821800Y-67740000D02*
X177821800Y-66040000D01*
X179021800Y-67740000D02*
X177821800Y-67740000D01*
X179021800Y-74760000D02*
X179021800Y-67740000D01*
X179221800Y-69850000D02*
X179821800Y-70150000D01*
X179821800Y-69550000D02*
X179221800Y-69850000D01*
X179821800Y-70150000D02*
X179821800Y-69550000D01*
X200881600Y-28150000D02*
X200881600Y-29210000D01*
X201941600Y-28150000D02*
X200881600Y-28150000D01*
X202941600Y-28150000D02*
X202941600Y-30270000D01*
X202941600Y-28150000D02*
X207001600Y-28150000D01*
X202941600Y-30270000D02*
X207001600Y-30270000D01*
X207001600Y-28150000D02*
X207001600Y-30270000D01*
X190728400Y-67740000D02*
X190728400Y-74760000D01*
X190728400Y-74760000D02*
X198808400Y-74760000D01*
X191928400Y-66040000D02*
X191928400Y-67740000D01*
X191928400Y-67740000D02*
X190728400Y-67740000D01*
X197608400Y-66040000D02*
X191928400Y-66040000D01*
X197608400Y-67740000D02*
X197608400Y-66040000D01*
X198808400Y-67740000D02*
X197608400Y-67740000D01*
X198808400Y-74760000D02*
X198808400Y-67740000D01*
X199008400Y-69850000D02*
X199608400Y-70150000D01*
X199608400Y-69550000D02*
X199008400Y-69850000D01*
X199608400Y-70150000D02*
X199608400Y-69550000D01*
X211600000Y-28150000D02*
X211600000Y-29210000D01*
X212660000Y-28150000D02*
X211600000Y-28150000D01*
X213660000Y-28150000D02*
X213660000Y-30270000D01*
X213660000Y-28150000D02*
X217720000Y-28150000D01*
X213660000Y-30270000D02*
X217720000Y-30270000D01*
X217720000Y-28150000D02*
X217720000Y-30270000D01*
%LPC*%
D13*
X214122000Y-140716000D03*
D14*
X171802800Y-121208800D03*
D15*
X164602800Y-121208800D03*
D16*
X152340000Y-142290000D03*
D17*
X154880000Y-142290000D03*
X157420000Y-142290000D03*
D18*
X120523000Y-141224000D03*
X124333000Y-141224000D03*
X128143000Y-141224000D03*
D14*
X121333000Y-43280000D03*
D15*
X114133000Y-43280000D03*
D19*
X165100000Y-143256000D03*
D20*
X185420000Y-143256000D03*
D21*
X163370800Y-83566000D03*
X167030800Y-83566000D03*
X171500800Y-83566000D03*
X175160800Y-83566000D03*
D22*
X103773000Y-48133000D03*
D23*
X103773000Y-58293000D03*
D18*
X216027000Y-38735000D03*
X216027000Y-42545000D03*
X216027000Y-46355000D03*
D22*
X107823000Y-48133000D03*
D23*
X107823000Y-58293000D03*
D19*
X174620000Y-48387000D03*
D20*
X205100000Y-48387000D03*
D22*
X154850000Y-32060000D03*
X151350000Y-32060000D03*
X170713400Y-55499000D03*
D23*
X180873400Y-55499000D03*
D21*
X105535000Y-83566000D03*
X109195000Y-83566000D03*
X113665000Y-83566000D03*
X117325000Y-83566000D03*
D24*
X135524000Y-48631000D03*
D25*
X145684000Y-48631000D03*
X153304000Y-48631000D03*
X135524000Y-41011000D03*
D22*
X189814200Y-55499000D03*
D23*
X199974200Y-55499000D03*
D14*
X121412000Y-31623000D03*
D15*
X114212000Y-31623000D03*
D22*
X113411000Y-55499000D03*
D23*
X123571000Y-55499000D03*
D21*
X201928000Y-83566000D03*
X205588000Y-83566000D03*
X210058000Y-83566000D03*
X213718000Y-83566000D03*
X124813600Y-83566000D03*
X128473600Y-83566000D03*
X132943600Y-83566000D03*
X136603600Y-83566000D03*
D13*
X105156000Y-140716000D03*
D22*
X133270000Y-32060000D03*
X129770000Y-32060000D03*
D26*
X201803000Y-38989000D03*
D27*
X203803000Y-38989000D03*
X205803000Y-38989000D03*
D16*
X170688000Y-39116000D03*
D17*
X170688000Y-36576000D03*
X173228000Y-39116000D03*
X173228000Y-36576000D03*
X175768000Y-39116000D03*
X175768000Y-36576000D03*
X178308000Y-39116000D03*
X178308000Y-36576000D03*
X180848000Y-39116000D03*
X180848000Y-36576000D03*
X183388000Y-39116000D03*
X183388000Y-36576000D03*
X185928000Y-39116000D03*
X185928000Y-36576000D03*
X188468000Y-39116000D03*
X188468000Y-36576000D03*
D28*
X140081000Y-32512000D03*
D29*
X142621000Y-32512000D03*
X145161000Y-32512000D03*
D22*
X151612600Y-55499000D03*
D23*
X161772600Y-55499000D03*
D22*
X208915000Y-55499000D03*
D23*
X219075000Y-55499000D03*
D18*
X199263000Y-141605000D03*
X195453000Y-141605000D03*
X191643000Y-141605000D03*
D21*
X182649400Y-83566000D03*
X186309400Y-83566000D03*
X190779400Y-83566000D03*
X194439400Y-83566000D03*
D13*
X105156000Y-32131000D03*
D18*
X136090000Y-141430000D03*
X139900000Y-141430000D03*
X143710000Y-141430000D03*
D22*
X132511800Y-55499000D03*
D23*
X142671800Y-55499000D03*
D30*
X105288000Y-134025000D03*
D31*
X102748000Y-134025000D03*
D21*
X144092200Y-83566000D03*
X147752200Y-83566000D03*
X152222200Y-83566000D03*
X155882200Y-83566000D03*
D22*
X113792000Y-141605000D03*
D23*
X113792000Y-131445000D03*
D32*
X216535000Y-69850000D03*
D13*
X212575000Y-69850000D03*
D32*
X117602000Y-69850000D03*
D13*
X113642000Y-69850000D03*
D26*
X159068000Y-29210000D03*
D27*
X161068000Y-29210000D03*
X163068000Y-29210000D03*
D32*
X137388600Y-69850000D03*
D13*
X133428600Y-69850000D03*
D26*
X169786400Y-29210000D03*
D27*
X171786400Y-29210000D03*
X173786400Y-29210000D03*
D32*
X157175200Y-69850000D03*
D13*
X153215200Y-69850000D03*
D26*
X180504800Y-29210000D03*
D27*
X182504800Y-29210000D03*
X184504800Y-29210000D03*
D26*
X191223200Y-29210000D03*
D27*
X193223200Y-29210000D03*
X195223200Y-29210000D03*
D32*
X176961800Y-69850000D03*
D13*
X173001800Y-69850000D03*
D26*
X201941600Y-29210000D03*
D27*
X203941600Y-29210000D03*
X205941600Y-29210000D03*
D32*
X196748400Y-69850000D03*
D13*
X192788400Y-69850000D03*
D26*
X212660000Y-29210000D03*
D27*
X214660000Y-29210000D03*
X216660000Y-29210000D03*
%LPD*%
M02*
