G04 #@! TF.GenerationSoftware,KiCad,Pcbnew,9.0.0*
G04 #@! TF.CreationDate,2025-04-22T01:19:36-05:00*
G04 #@! TF.ProjectId,SubCircuitV3,53756243-6972-4637-9569-7456332e6b69,rev?*
G04 #@! TF.SameCoordinates,Original*
G04 #@! TF.FileFunction,Copper,L1,Top*
G04 #@! TF.FilePolarity,Positive*
%FSLAX46Y46*%
G04 Gerber Fmt 4.6, Leading zero omitted, Abs format (unit mm)*
G04 Created by KiCad (PCBNEW 9.0.0) date 2025-04-22 01:19:36*
%MOMM*%
%LPD*%
G01*
G04 APERTURE LIST*
G04 Aperture macros list*
%AMRoundRect*
0 Rectangle with rounded corners*
0 $1 Rounding radius*
0 $2 $3 $4 $5 $6 $7 $8 $9 X,Y pos of 4 corners*
0 Add a 4 corners polygon primitive as box body*
4,1,4,$2,$3,$4,$5,$6,$7,$8,$9,$2,$3,0*
0 Add four circle primitives for the rounded corners*
1,1,$1+$1,$2,$3*
1,1,$1+$1,$4,$5*
1,1,$1+$1,$6,$7*
1,1,$1+$1,$8,$9*
0 Add four rect primitives between the rounded corners*
20,1,$1+$1,$2,$3,$4,$5,0*
20,1,$1+$1,$4,$5,$6,$7,0*
20,1,$1+$1,$6,$7,$8,$9,0*
20,1,$1+$1,$8,$9,$2,$3,0*%
G04 Aperture macros list end*
G04 #@! TA.AperFunction,ComponentPad*
%ADD10RoundRect,1.500000X1.500000X1.500000X-1.500000X1.500000X-1.500000X-1.500000X1.500000X-1.500000X0*%
G04 #@! TD*
G04 #@! TA.AperFunction,ComponentPad*
%ADD11C,6.000000*%
G04 #@! TD*
G04 #@! TA.AperFunction,ComponentPad*
%ADD12R,1.700000X1.700000*%
G04 #@! TD*
G04 #@! TA.AperFunction,ComponentPad*
%ADD13O,1.700000X1.700000*%
G04 #@! TD*
G04 #@! TA.AperFunction,ComponentPad*
%ADD14C,1.727200*%
G04 #@! TD*
G04 #@! TA.AperFunction,SMDPad,CuDef*
%ADD15R,0.939800X2.743200*%
G04 #@! TD*
G04 #@! TA.AperFunction,SMDPad,CuDef*
%ADD16R,5.562600X6.096000*%
G04 #@! TD*
G04 #@! TA.AperFunction,ComponentPad*
%ADD17C,2.400000*%
G04 #@! TD*
G04 #@! TA.AperFunction,ComponentPad*
%ADD18O,2.400000X2.400000*%
G04 #@! TD*
G04 #@! TA.AperFunction,ComponentPad*
%ADD19C,2.550000*%
G04 #@! TD*
G04 #@! TA.AperFunction,ComponentPad*
%ADD20C,1.600000*%
G04 #@! TD*
G04 #@! TA.AperFunction,ComponentPad*
%ADD21O,1.600000X1.600000*%
G04 #@! TD*
G04 #@! TA.AperFunction,ComponentPad*
%ADD22R,2.300000X2.300000*%
G04 #@! TD*
G04 #@! TA.AperFunction,ComponentPad*
%ADD23C,2.300000*%
G04 #@! TD*
G04 #@! TA.AperFunction,ComponentPad*
%ADD24R,1.350000X1.350000*%
G04 #@! TD*
G04 #@! TA.AperFunction,ComponentPad*
%ADD25O,1.350000X1.350000*%
G04 #@! TD*
G04 #@! TA.AperFunction,ComponentPad*
%ADD26R,1.651000X1.651000*%
G04 #@! TD*
G04 #@! TA.AperFunction,ComponentPad*
%ADD27C,1.651000*%
G04 #@! TD*
G04 #@! TA.AperFunction,ComponentPad*
%ADD28R,1.800000X1.800000*%
G04 #@! TD*
G04 #@! TA.AperFunction,ComponentPad*
%ADD29C,1.800000*%
G04 #@! TD*
G04 #@! TA.AperFunction,ComponentPad*
%ADD30RoundRect,0.250001X1.099999X1.099999X-1.099999X1.099999X-1.099999X-1.099999X1.099999X-1.099999X0*%
G04 #@! TD*
G04 #@! TA.AperFunction,ComponentPad*
%ADD31C,2.700000*%
G04 #@! TD*
G04 #@! TA.AperFunction,Conductor*
%ADD32C,4.000000*%
G04 #@! TD*
G04 #@! TA.AperFunction,Conductor*
%ADD33C,0.500000*%
G04 #@! TD*
G04 #@! TA.AperFunction,Conductor*
%ADD34C,2.000000*%
G04 #@! TD*
G04 #@! TA.AperFunction,Conductor*
%ADD35C,3.000000*%
G04 #@! TD*
G04 APERTURE END LIST*
D10*
X171802800Y-121208800D03*
D11*
X164602800Y-121208800D03*
D12*
X152340000Y-142290000D03*
D13*
X154880000Y-142290000D03*
X157420000Y-142290000D03*
D14*
X120523000Y-141224000D03*
X124333000Y-141224000D03*
X128143000Y-141224000D03*
D15*
X148293700Y-102743000D03*
D16*
X150579700Y-95961200D03*
D15*
X152865700Y-102743000D03*
D10*
X121333000Y-43280000D03*
D11*
X114133000Y-43280000D03*
D17*
X165100000Y-143256000D03*
D18*
X185420000Y-143256000D03*
D19*
X163370800Y-83566000D03*
X167030800Y-83566000D03*
X171500800Y-83566000D03*
X175160800Y-83566000D03*
D20*
X103773000Y-48133000D03*
D21*
X103773000Y-58293000D03*
D14*
X216027000Y-38735000D03*
X216027000Y-42545000D03*
X216027000Y-46355000D03*
D20*
X107823000Y-48133000D03*
D21*
X107823000Y-58293000D03*
D17*
X174620000Y-48387000D03*
D18*
X205100000Y-48387000D03*
D20*
X154850000Y-32060000D03*
X151350000Y-32060000D03*
D15*
X168181900Y-102743000D03*
D16*
X170467900Y-95961200D03*
D15*
X172753900Y-102743000D03*
D20*
X170713400Y-55499000D03*
D21*
X180873400Y-55499000D03*
D19*
X105535000Y-83566000D03*
X109195000Y-83566000D03*
X113665000Y-83566000D03*
X117325000Y-83566000D03*
D22*
X135524000Y-48631000D03*
D23*
X145684000Y-48631000D03*
X153304000Y-48631000D03*
X135524000Y-41011000D03*
D15*
X128405500Y-102743000D03*
D16*
X130691500Y-95961200D03*
D15*
X132977500Y-102743000D03*
D20*
X189814200Y-55499000D03*
D21*
X199974200Y-55499000D03*
D10*
X121412000Y-31623000D03*
D11*
X114212000Y-31623000D03*
D20*
X113411000Y-55499000D03*
D21*
X123571000Y-55499000D03*
D19*
X201928000Y-83566000D03*
X205588000Y-83566000D03*
X210058000Y-83566000D03*
X213718000Y-83566000D03*
D15*
X188070100Y-102743000D03*
D16*
X190356100Y-95961200D03*
D15*
X192642100Y-102743000D03*
D19*
X124813600Y-83566000D03*
X128473600Y-83566000D03*
X132943600Y-83566000D03*
X136603600Y-83566000D03*
D15*
X207958300Y-102743000D03*
D16*
X210244300Y-95961200D03*
D15*
X212530300Y-102743000D03*
D20*
X133270000Y-32060000D03*
X129770000Y-32060000D03*
D24*
X201803000Y-38989000D03*
D25*
X203803000Y-38989000D03*
X205803000Y-38989000D03*
D12*
X170688000Y-39116000D03*
D13*
X170688000Y-36576000D03*
X173228000Y-39116000D03*
X173228000Y-36576000D03*
X175768000Y-39116000D03*
X175768000Y-36576000D03*
X178308000Y-39116000D03*
X178308000Y-36576000D03*
X180848000Y-39116000D03*
X180848000Y-36576000D03*
X183388000Y-39116000D03*
X183388000Y-36576000D03*
X185928000Y-39116000D03*
X185928000Y-36576000D03*
X188468000Y-39116000D03*
X188468000Y-36576000D03*
D15*
X108517300Y-102743000D03*
D16*
X110803300Y-95961200D03*
D15*
X113089300Y-102743000D03*
D26*
X140081000Y-32512000D03*
D27*
X142621000Y-32512000D03*
X145161000Y-32512000D03*
D20*
X151612600Y-55499000D03*
D21*
X161772600Y-55499000D03*
D20*
X208915000Y-55499000D03*
D21*
X219075000Y-55499000D03*
D14*
X199263000Y-141605000D03*
X195453000Y-141605000D03*
X191643000Y-141605000D03*
D19*
X182649400Y-83566000D03*
X186309400Y-83566000D03*
X190779400Y-83566000D03*
X194439400Y-83566000D03*
D14*
X136090000Y-141430000D03*
X139900000Y-141430000D03*
X143710000Y-141430000D03*
D20*
X132511800Y-55499000D03*
D21*
X142671800Y-55499000D03*
D28*
X105288000Y-134025000D03*
D29*
X102748000Y-134025000D03*
D19*
X144092200Y-83566000D03*
X147752200Y-83566000D03*
X152222200Y-83566000D03*
X155882200Y-83566000D03*
D20*
X113792000Y-141605000D03*
D21*
X113792000Y-131445000D03*
D30*
X216535000Y-69850000D03*
D31*
X212575000Y-69850000D03*
D30*
X117602000Y-69850000D03*
D31*
X113642000Y-69850000D03*
D24*
X159068000Y-29210000D03*
D25*
X161068000Y-29210000D03*
X163068000Y-29210000D03*
D30*
X137388600Y-69850000D03*
D31*
X133428600Y-69850000D03*
D24*
X169786400Y-29210000D03*
D25*
X171786400Y-29210000D03*
X173786400Y-29210000D03*
D30*
X157175200Y-69850000D03*
D31*
X153215200Y-69850000D03*
D24*
X180504800Y-29210000D03*
D25*
X182504800Y-29210000D03*
X184504800Y-29210000D03*
D24*
X191223200Y-29210000D03*
D25*
X193223200Y-29210000D03*
X195223200Y-29210000D03*
D30*
X176961800Y-69850000D03*
D31*
X173001800Y-69850000D03*
D24*
X201941600Y-29210000D03*
D25*
X203941600Y-29210000D03*
X205941600Y-29210000D03*
D30*
X196748400Y-69850000D03*
D31*
X192788400Y-69850000D03*
D24*
X212660000Y-29210000D03*
D25*
X214660000Y-29210000D03*
X216660000Y-29210000D03*
D32*
X195258300Y-102743000D02*
X192642100Y-102743000D01*
X197798300Y-100203000D02*
X195258300Y-102743000D01*
X197798300Y-91948000D02*
X197798300Y-100203000D01*
X194930300Y-89080000D02*
X197798300Y-91948000D01*
X190779400Y-88029400D02*
X191830000Y-89080000D01*
X191830000Y-89080000D02*
X194930300Y-89080000D01*
X190779400Y-83566000D02*
X190779400Y-88029400D01*
D33*
X202042000Y-36576000D02*
X203803000Y-38337000D01*
X190881000Y-36576000D02*
X202042000Y-36576000D01*
X203803000Y-38337000D02*
X203803000Y-38989000D01*
D34*
X136779000Y-36906200D02*
X133270000Y-33397200D01*
X144322800Y-36906200D02*
X145161000Y-36068000D01*
X136779000Y-36906200D02*
X144322800Y-36906200D01*
X133270000Y-33397200D02*
X133270000Y-32060000D01*
X145161000Y-32512000D02*
X145161000Y-36068000D01*
D35*
X212852000Y-38735000D02*
X208280000Y-43307000D01*
X114133000Y-47522640D02*
X114133000Y-43280000D01*
X114212000Y-43201000D02*
X114133000Y-43280000D01*
D34*
X185928000Y-39116000D02*
X188468000Y-39116000D01*
D35*
X208280000Y-43307000D02*
X204089000Y-43307000D01*
X119188360Y-52578000D02*
X114133000Y-47522640D01*
X216027000Y-38735000D02*
X212852000Y-38735000D01*
X204089000Y-43307000D02*
X194818000Y-52578000D01*
X194818000Y-52578000D02*
X119188360Y-52578000D01*
X114212000Y-31623000D02*
X114212000Y-43201000D01*
D34*
X192405000Y-43053000D02*
X193802000Y-41656000D01*
X190881000Y-36576000D02*
X188468000Y-36576000D01*
X193802000Y-38989000D02*
X191389000Y-36576000D01*
X193802000Y-41656000D02*
X193802000Y-38989000D01*
X142621000Y-30999000D02*
X142621000Y-32512000D01*
X154850000Y-28780000D02*
X154850000Y-32060000D01*
X165227000Y-43053000D02*
X192405000Y-43053000D01*
X125349000Y-27686000D02*
X125349000Y-27559000D01*
X139181000Y-27559000D02*
X142621000Y-30999000D01*
X153629000Y-27559000D02*
X154850000Y-28780000D01*
X154850000Y-32060000D02*
X154850000Y-32676000D01*
X125349000Y-27559000D02*
X139181000Y-27559000D01*
X191389000Y-36576000D02*
X190881000Y-36576000D01*
X121412000Y-31623000D02*
X125349000Y-27686000D01*
X139181000Y-27559000D02*
X153629000Y-27559000D01*
X154850000Y-32676000D02*
X165227000Y-43053000D01*
D33*
X103251000Y-131445000D02*
X102748000Y-131948000D01*
X113792000Y-131445000D02*
X103251000Y-131445000D01*
X102748000Y-131948000D02*
X102748000Y-134025000D01*
X166434000Y-36576000D02*
X159068000Y-29210000D01*
X170688000Y-36576000D02*
X166434000Y-36576000D01*
X169786400Y-29210000D02*
X169786400Y-33134400D01*
X169786400Y-33134400D02*
X173228000Y-36576000D01*
X176784000Y-35560000D02*
X176784000Y-32930800D01*
X179959000Y-29210000D02*
X180504800Y-29210000D01*
X175768000Y-36576000D02*
X176784000Y-35560000D01*
X176784000Y-32930800D02*
X180504800Y-29210000D01*
D32*
X165140000Y-136652000D02*
X141605000Y-136652000D01*
X144331300Y-128016000D02*
X128405500Y-112090200D01*
D34*
X128143000Y-141224000D02*
X128143000Y-133407000D01*
D32*
X137491650Y-133368350D02*
X117407300Y-113284000D01*
X168461300Y-136652000D02*
X165140000Y-136652000D01*
X117407300Y-113284000D02*
X110930300Y-113284000D01*
X171802800Y-121208800D02*
X171802800Y-118208800D01*
X171802800Y-120864500D02*
X176970300Y-115697000D01*
X197671300Y-129032000D02*
X197671300Y-128905000D01*
D34*
X157420000Y-142290000D02*
X163058000Y-136652000D01*
X136323300Y-132200000D02*
X137491650Y-133368350D01*
D32*
X188070100Y-113614200D02*
X188070100Y-102743000D01*
X168461300Y-136652000D02*
X168461300Y-139894700D01*
X171802800Y-121208800D02*
X180475500Y-121208800D01*
X170747300Y-109093000D02*
X168181900Y-106527600D01*
X175065300Y-109093000D02*
X170747300Y-109093000D01*
X171802800Y-133310500D02*
X168461300Y-136652000D01*
X179764300Y-129032000D02*
X197671300Y-129032000D01*
X197671300Y-128905000D02*
X207958300Y-118618000D01*
X171802800Y-121208800D02*
X171941100Y-121208800D01*
X141605000Y-136652000D02*
X140775300Y-136652000D01*
X176970300Y-110998000D02*
X175065300Y-109093000D01*
D34*
X129350000Y-132200000D02*
X136323300Y-132200000D01*
D32*
X167995600Y-128016000D02*
X171802800Y-124208800D01*
X148293700Y-108102400D02*
X148293700Y-102743000D01*
X128405500Y-112090200D02*
X128405500Y-102743000D01*
X171802800Y-124208800D02*
X171802800Y-121208800D01*
X140775300Y-136652000D02*
X137491650Y-133368350D01*
D34*
X128143000Y-133407000D02*
X129350000Y-132200000D01*
D32*
X171941100Y-121208800D02*
X179764300Y-129032000D01*
X176970300Y-115697000D02*
X176970300Y-110998000D01*
X171802800Y-118208800D02*
X164465000Y-110871000D01*
X168461300Y-139894700D02*
X165100000Y-143256000D01*
X180475500Y-121208800D02*
X188070100Y-113614200D01*
X110930300Y-113284000D02*
X108517300Y-110871000D01*
X108517300Y-110871000D02*
X108517300Y-102743000D01*
X207958300Y-118618000D02*
X207958300Y-102743000D01*
X144331300Y-128016000D02*
X167995600Y-128016000D01*
X171802800Y-121208800D02*
X171802800Y-133310500D01*
X151062300Y-110871000D02*
X148293700Y-108102400D01*
D34*
X163058000Y-136652000D02*
X165140000Y-136652000D01*
D32*
X171802800Y-121208800D02*
X171802800Y-120864500D01*
X168181900Y-106527600D02*
X168181900Y-102743000D01*
X164465000Y-110871000D02*
X151062300Y-110871000D01*
D35*
X156591000Y-44196000D02*
X160782000Y-48387000D01*
X141249000Y-44196000D02*
X156591000Y-44196000D01*
X160782000Y-48387000D02*
X174620000Y-48387000D01*
X130021000Y-43280000D02*
X130937000Y-44196000D01*
X121333000Y-43280000D02*
X130021000Y-43280000D01*
X130937000Y-44196000D02*
X141249000Y-44196000D01*
X141249000Y-44196000D02*
X145684000Y-48631000D01*
D33*
X187579000Y-29210000D02*
X185166000Y-31623000D01*
X185166000Y-31623000D02*
X183261000Y-31623000D01*
X183261000Y-31623000D02*
X178308000Y-36576000D01*
X191223200Y-29210000D02*
X187579000Y-29210000D01*
X180848000Y-36576000D02*
X180848000Y-35560000D01*
X183896000Y-32512000D02*
X198639600Y-32512000D01*
X199141800Y-32009800D02*
X201941600Y-29210000D01*
X198639600Y-32512000D02*
X199141800Y-32009800D01*
X180848000Y-35560000D02*
X183896000Y-32512000D01*
X200279000Y-33274000D02*
X208596000Y-33274000D01*
X184531000Y-33528000D02*
X200025000Y-33528000D01*
X183388000Y-34671000D02*
X184531000Y-33528000D01*
X183388000Y-36576000D02*
X183388000Y-34671000D01*
X200025000Y-33528000D02*
X200279000Y-33274000D01*
X208596000Y-33274000D02*
X212660000Y-29210000D01*
X185928000Y-36576000D02*
X185928000Y-35179000D01*
X186563000Y-34544000D02*
X201422000Y-34544000D01*
X185928000Y-35179000D02*
X186563000Y-34544000D01*
X203583000Y-36705000D02*
X203583000Y-36769000D01*
X201422000Y-34544000D02*
X203583000Y-36705000D01*
X203583000Y-36769000D02*
X205803000Y-38989000D01*
D34*
X120523000Y-90297000D02*
X120523000Y-79756000D01*
X159512000Y-76708000D02*
X166243000Y-69977000D01*
X178181000Y-85344000D02*
X188798200Y-95961200D01*
X159512000Y-85852000D02*
X159512000Y-76708000D01*
X169621200Y-95961200D02*
X159512000Y-85852000D01*
X103773000Y-58293000D02*
X107823000Y-58293000D01*
X101219000Y-69977000D02*
X101219000Y-98552000D01*
X188798200Y-95961200D02*
X190356100Y-95961200D01*
X170467900Y-95961200D02*
X169621200Y-95961200D01*
X101600000Y-98552000D02*
X104190800Y-95961200D01*
X185293000Y-70358000D02*
X178181000Y-77470000D01*
X139954000Y-73660000D02*
X145923000Y-67691000D01*
X101219000Y-98552000D02*
X101219000Y-111633000D01*
X130691500Y-95961200D02*
X126187200Y-95961200D01*
X178181000Y-77470000D02*
X178181000Y-85344000D01*
X113792000Y-118364000D02*
X120523000Y-125095000D01*
X101219000Y-69977000D02*
X103773000Y-67423000D01*
X204470000Y-70739000D02*
X198247000Y-76962000D01*
X107950000Y-118364000D02*
X113792000Y-118364000D01*
X121920000Y-62357000D02*
X108839000Y-62357000D01*
X166243000Y-66548000D02*
X162052000Y-62357000D01*
X145923000Y-67691000D02*
X145923000Y-65659000D01*
X103773000Y-67423000D02*
X103773000Y-58293000D01*
X104190800Y-95961200D02*
X110803300Y-95961200D01*
X120523000Y-79756000D02*
X125984000Y-74295000D01*
X198247000Y-76962000D02*
X198247000Y-86233000D01*
X101219000Y-98552000D02*
X101600000Y-98552000D01*
X166243000Y-69977000D02*
X166243000Y-66548000D01*
X185293000Y-66421000D02*
X185293000Y-70358000D01*
X145923000Y-65659000D02*
X142621000Y-62357000D01*
X125984000Y-74295000D02*
X125984000Y-66421000D01*
X120523000Y-125095000D02*
X120523000Y-141224000D01*
X126187200Y-95961200D02*
X120523000Y-90297000D01*
X101219000Y-111633000D02*
X107950000Y-118364000D01*
X162052000Y-62357000D02*
X142621000Y-62357000D01*
X210244300Y-95961200D02*
X207975200Y-95961200D01*
X150579700Y-95961200D02*
X148666200Y-95961200D01*
X108839000Y-62357000D02*
X101219000Y-69977000D01*
X208102200Y-95961200D02*
X210244300Y-95961200D01*
X148666200Y-95961200D02*
X139954000Y-87249000D01*
X207975200Y-95961200D02*
X198247000Y-86233000D01*
X142621000Y-62357000D02*
X121920000Y-62357000D01*
X202819000Y-62357000D02*
X204470000Y-64008000D01*
X139954000Y-87249000D02*
X139954000Y-73660000D01*
X181229000Y-62357000D02*
X202819000Y-62357000D01*
X181229000Y-62357000D02*
X185293000Y-66421000D01*
X181229000Y-62357000D02*
X162052000Y-62357000D01*
X204470000Y-64008000D02*
X204470000Y-70739000D01*
X125984000Y-66421000D02*
X121920000Y-62357000D01*
D32*
X201928000Y-80497000D02*
X212575000Y-69850000D01*
X201928000Y-83566000D02*
X201928000Y-80497000D01*
X182649400Y-83566000D02*
X182649400Y-79989000D01*
X182649400Y-79989000D02*
X192788400Y-69850000D01*
X163370800Y-80424098D02*
X173001800Y-70793098D01*
X163370800Y-83566000D02*
X163370800Y-80424098D01*
X173001800Y-70793098D02*
X173001800Y-69850000D01*
X113665000Y-83566000D02*
X113665000Y-69873000D01*
X113665000Y-69873000D02*
X113642000Y-69850000D01*
X132943600Y-70335000D02*
X133428600Y-69850000D01*
X132943600Y-83566000D02*
X132943600Y-70335000D01*
X152222200Y-83566000D02*
X152222200Y-70843000D01*
X152222200Y-70843000D02*
X153215200Y-69850000D01*
X212530300Y-102743000D02*
X213546300Y-102743000D01*
X210058000Y-85543600D02*
X210058000Y-83566000D01*
X213546300Y-102743000D02*
X217610300Y-98679000D01*
X217610300Y-93095900D02*
X210058000Y-85543600D01*
X217610300Y-98679000D02*
X217610300Y-93095900D01*
X177351300Y-102743000D02*
X179002300Y-101092000D01*
X172753900Y-102743000D02*
X177351300Y-102743000D01*
X179002300Y-101092000D02*
X179002300Y-93472000D01*
X171500800Y-83566000D02*
X171500800Y-85970500D01*
X171500800Y-85970500D02*
X179002300Y-93472000D01*
X113089300Y-102743000D02*
X114554000Y-102743000D01*
X105535000Y-85369122D02*
X105535000Y-83566000D01*
X117348000Y-92837000D02*
X113411000Y-88900000D01*
X113411000Y-88900000D02*
X109065878Y-88900000D01*
X117348000Y-99949000D02*
X117348000Y-92837000D01*
X109065878Y-88900000D02*
X105535000Y-85369122D01*
X114554000Y-102743000D02*
X117348000Y-99949000D01*
X134620000Y-88900000D02*
X127000000Y-88900000D01*
X124813600Y-86713600D02*
X124813600Y-83566000D01*
X132977500Y-102743000D02*
X135382000Y-102743000D01*
X127000000Y-88900000D02*
X124813600Y-86713600D01*
X138049000Y-92329000D02*
X134620000Y-88900000D01*
X138049000Y-99822000D02*
X138049000Y-92329000D01*
X135382000Y-102743000D02*
X138176000Y-99949000D01*
X138176000Y-99949000D02*
X138049000Y-99822000D01*
X154686000Y-102743000D02*
X157861000Y-99568000D01*
X147447000Y-89154000D02*
X144092200Y-85799200D01*
X144092200Y-85799200D02*
X144092200Y-83566000D01*
X157861000Y-99568000D02*
X157861000Y-92583000D01*
X154432000Y-89154000D02*
X147447000Y-89154000D01*
X157861000Y-92583000D02*
X154432000Y-89154000D01*
X152865700Y-102743000D02*
X154686000Y-102743000D01*
D35*
X205100000Y-48387000D02*
X213995000Y-48387000D01*
X213995000Y-48387000D02*
X216027000Y-46355000D01*
D32*
X189992000Y-143256000D02*
X191643000Y-141605000D01*
X185420000Y-143256000D02*
X189992000Y-143256000D01*
D34*
X144570000Y-142290000D02*
X143710000Y-141430000D01*
X152340000Y-142290000D02*
X144570000Y-142290000D01*
M02*
