G04 #@! TF.GenerationSoftware,KiCad,Pcbnew,9.0.0*
G04 #@! TF.CreationDate,2025-04-22T01:19:36-05:00*
G04 #@! TF.ProjectId,SubCircuitV3,53756243-6972-4637-9569-7456332e6b69,rev?*
G04 #@! TF.SameCoordinates,Original*
G04 #@! TF.FileFunction,Legend,Top*
G04 #@! TF.FilePolarity,Positive*
%FSLAX46Y46*%
G04 Gerber Fmt 4.6, Leading zero omitted, Abs format (unit mm)*
G04 Created by KiCad (PCBNEW 9.0.0) date 2025-04-22 01:19:36*
%MOMM*%
%LPD*%
G01*
G04 APERTURE LIST*
G04 Aperture macros list*
%AMRoundRect*
0 Rectangle with rounded corners*
0 $1 Rounding radius*
0 $2 $3 $4 $5 $6 $7 $8 $9 X,Y pos of 4 corners*
0 Add a 4 corners polygon primitive as box body*
4,1,4,$2,$3,$4,$5,$6,$7,$8,$9,$2,$3,0*
0 Add four circle primitives for the rounded corners*
1,1,$1+$1,$2,$3*
1,1,$1+$1,$4,$5*
1,1,$1+$1,$6,$7*
1,1,$1+$1,$8,$9*
0 Add four rect primitives between the rounded corners*
20,1,$1+$1,$2,$3,$4,$5,0*
20,1,$1+$1,$4,$5,$6,$7,0*
20,1,$1+$1,$6,$7,$8,$9,0*
20,1,$1+$1,$8,$9,$2,$3,0*%
G04 Aperture macros list end*
%ADD10C,0.150000*%
%ADD11C,0.120000*%
%ADD12C,0.152400*%
%ADD13C,0.508000*%
%ADD14C,0.127000*%
%ADD15C,2.700000*%
%ADD16RoundRect,1.500000X1.500000X1.500000X-1.500000X1.500000X-1.500000X-1.500000X1.500000X-1.500000X0*%
%ADD17C,6.000000*%
%ADD18R,1.700000X1.700000*%
%ADD19O,1.700000X1.700000*%
%ADD20C,1.727200*%
%ADD21R,0.939800X2.743200*%
%ADD22R,5.562600X6.096000*%
%ADD23C,2.400000*%
%ADD24O,2.400000X2.400000*%
%ADD25C,2.754000*%
%ADD26C,1.600000*%
%ADD27O,1.600000X1.600000*%
%ADD28R,2.300000X2.300000*%
%ADD29C,2.300000*%
%ADD30R,1.350000X1.350000*%
%ADD31O,1.350000X1.350000*%
%ADD32R,1.651000X1.651000*%
%ADD33C,1.651000*%
%ADD34R,1.800000X1.800000*%
%ADD35C,1.800000*%
%ADD36RoundRect,0.250001X1.099999X1.099999X-1.099999X1.099999X-1.099999X-1.099999X1.099999X-1.099999X0*%
G04 APERTURE END LIST*
D10*
X212788666Y-137470819D02*
X212455333Y-136994628D01*
X212217238Y-137470819D02*
X212217238Y-136470819D01*
X212217238Y-136470819D02*
X212598190Y-136470819D01*
X212598190Y-136470819D02*
X212693428Y-136518438D01*
X212693428Y-136518438D02*
X212741047Y-136566057D01*
X212741047Y-136566057D02*
X212788666Y-136661295D01*
X212788666Y-136661295D02*
X212788666Y-136804152D01*
X212788666Y-136804152D02*
X212741047Y-136899390D01*
X212741047Y-136899390D02*
X212693428Y-136947009D01*
X212693428Y-136947009D02*
X212598190Y-136994628D01*
X212598190Y-136994628D02*
X212217238Y-136994628D01*
X213217238Y-136947009D02*
X213550571Y-136947009D01*
X213693428Y-137470819D02*
X213217238Y-137470819D01*
X213217238Y-137470819D02*
X213217238Y-136470819D01*
X213217238Y-136470819D02*
X213693428Y-136470819D01*
X214455333Y-136947009D02*
X214122000Y-136947009D01*
X214122000Y-137470819D02*
X214122000Y-136470819D01*
X214122000Y-136470819D02*
X214598190Y-136470819D01*
X215122000Y-136470819D02*
X215122000Y-136708914D01*
X214883905Y-136613676D02*
X215122000Y-136708914D01*
X215122000Y-136708914D02*
X215360095Y-136613676D01*
X214979143Y-136899390D02*
X215122000Y-136708914D01*
X215122000Y-136708914D02*
X215264857Y-136899390D01*
X215883905Y-136470819D02*
X215883905Y-136708914D01*
X215645810Y-136613676D02*
X215883905Y-136708914D01*
X215883905Y-136708914D02*
X216122000Y-136613676D01*
X215741048Y-136899390D02*
X215883905Y-136708914D01*
X215883905Y-136708914D02*
X216026762Y-136899390D01*
X149464819Y-143099523D02*
X150179104Y-143099523D01*
X150179104Y-143099523D02*
X150321961Y-143147142D01*
X150321961Y-143147142D02*
X150417200Y-143242380D01*
X150417200Y-143242380D02*
X150464819Y-143385237D01*
X150464819Y-143385237D02*
X150464819Y-143480475D01*
X149560057Y-142670951D02*
X149512438Y-142623332D01*
X149512438Y-142623332D02*
X149464819Y-142528094D01*
X149464819Y-142528094D02*
X149464819Y-142289999D01*
X149464819Y-142289999D02*
X149512438Y-142194761D01*
X149512438Y-142194761D02*
X149560057Y-142147142D01*
X149560057Y-142147142D02*
X149655295Y-142099523D01*
X149655295Y-142099523D02*
X149750533Y-142099523D01*
X149750533Y-142099523D02*
X149893390Y-142147142D01*
X149893390Y-142147142D02*
X150464819Y-142718570D01*
X150464819Y-142718570D02*
X150464819Y-142099523D01*
X150464819Y-141147142D02*
X150464819Y-141718570D01*
X150464819Y-141432856D02*
X149464819Y-141432856D01*
X149464819Y-141432856D02*
X149607676Y-141528094D01*
X149607676Y-141528094D02*
X149702914Y-141623332D01*
X149702914Y-141623332D02*
X149750533Y-141718570D01*
X127714476Y-143726819D02*
X127714476Y-144441104D01*
X127714476Y-144441104D02*
X127666857Y-144583961D01*
X127666857Y-144583961D02*
X127571619Y-144679200D01*
X127571619Y-144679200D02*
X127428762Y-144726819D01*
X127428762Y-144726819D02*
X127333524Y-144726819D01*
X128143048Y-143822057D02*
X128190667Y-143774438D01*
X128190667Y-143774438D02*
X128285905Y-143726819D01*
X128285905Y-143726819D02*
X128524000Y-143726819D01*
X128524000Y-143726819D02*
X128619238Y-143774438D01*
X128619238Y-143774438D02*
X128666857Y-143822057D01*
X128666857Y-143822057D02*
X128714476Y-143917295D01*
X128714476Y-143917295D02*
X128714476Y-144012533D01*
X128714476Y-144012533D02*
X128666857Y-144155390D01*
X128666857Y-144155390D02*
X128095429Y-144726819D01*
X128095429Y-144726819D02*
X128714476Y-144726819D01*
X129333524Y-143726819D02*
X129428762Y-143726819D01*
X129428762Y-143726819D02*
X129524000Y-143774438D01*
X129524000Y-143774438D02*
X129571619Y-143822057D01*
X129571619Y-143822057D02*
X129619238Y-143917295D01*
X129619238Y-143917295D02*
X129666857Y-144107771D01*
X129666857Y-144107771D02*
X129666857Y-144345866D01*
X129666857Y-144345866D02*
X129619238Y-144536342D01*
X129619238Y-144536342D02*
X129571619Y-144631580D01*
X129571619Y-144631580D02*
X129524000Y-144679200D01*
X129524000Y-144679200D02*
X129428762Y-144726819D01*
X129428762Y-144726819D02*
X129333524Y-144726819D01*
X129333524Y-144726819D02*
X129238286Y-144679200D01*
X129238286Y-144679200D02*
X129190667Y-144631580D01*
X129190667Y-144631580D02*
X129143048Y-144536342D01*
X129143048Y-144536342D02*
X129095429Y-144345866D01*
X129095429Y-144345866D02*
X129095429Y-144107771D01*
X129095429Y-144107771D02*
X129143048Y-143917295D01*
X129143048Y-143917295D02*
X129190667Y-143822057D01*
X129190667Y-143822057D02*
X129238286Y-143774438D01*
X129238286Y-143774438D02*
X129333524Y-143726819D01*
X150357461Y-92231357D02*
X150262223Y-92183738D01*
X150262223Y-92183738D02*
X150166985Y-92088500D01*
X150166985Y-92088500D02*
X150024128Y-91945642D01*
X150024128Y-91945642D02*
X149928890Y-91898023D01*
X149928890Y-91898023D02*
X149833652Y-91898023D01*
X149881271Y-92136119D02*
X149786033Y-92088500D01*
X149786033Y-92088500D02*
X149690795Y-91993261D01*
X149690795Y-91993261D02*
X149643176Y-91802785D01*
X149643176Y-91802785D02*
X149643176Y-91469452D01*
X149643176Y-91469452D02*
X149690795Y-91278976D01*
X149690795Y-91278976D02*
X149786033Y-91183738D01*
X149786033Y-91183738D02*
X149881271Y-91136119D01*
X149881271Y-91136119D02*
X150071747Y-91136119D01*
X150071747Y-91136119D02*
X150166985Y-91183738D01*
X150166985Y-91183738D02*
X150262223Y-91278976D01*
X150262223Y-91278976D02*
X150309842Y-91469452D01*
X150309842Y-91469452D02*
X150309842Y-91802785D01*
X150309842Y-91802785D02*
X150262223Y-91993261D01*
X150262223Y-91993261D02*
X150166985Y-92088500D01*
X150166985Y-92088500D02*
X150071747Y-92136119D01*
X150071747Y-92136119D02*
X149881271Y-92136119D01*
X151166985Y-91136119D02*
X150976509Y-91136119D01*
X150976509Y-91136119D02*
X150881271Y-91183738D01*
X150881271Y-91183738D02*
X150833652Y-91231357D01*
X150833652Y-91231357D02*
X150738414Y-91374214D01*
X150738414Y-91374214D02*
X150690795Y-91564690D01*
X150690795Y-91564690D02*
X150690795Y-91945642D01*
X150690795Y-91945642D02*
X150738414Y-92040880D01*
X150738414Y-92040880D02*
X150786033Y-92088500D01*
X150786033Y-92088500D02*
X150881271Y-92136119D01*
X150881271Y-92136119D02*
X151071747Y-92136119D01*
X151071747Y-92136119D02*
X151166985Y-92088500D01*
X151166985Y-92088500D02*
X151214604Y-92040880D01*
X151214604Y-92040880D02*
X151262223Y-91945642D01*
X151262223Y-91945642D02*
X151262223Y-91707547D01*
X151262223Y-91707547D02*
X151214604Y-91612309D01*
X151214604Y-91612309D02*
X151166985Y-91564690D01*
X151166985Y-91564690D02*
X151071747Y-91517071D01*
X151071747Y-91517071D02*
X150881271Y-91517071D01*
X150881271Y-91517071D02*
X150786033Y-91564690D01*
X150786033Y-91564690D02*
X150738414Y-91612309D01*
X150738414Y-91612309D02*
X150690795Y-91707547D01*
X148849557Y-100264119D02*
X148849557Y-99264119D01*
X148849557Y-99264119D02*
X149420985Y-100264119D01*
X149420985Y-100264119D02*
X149420985Y-99264119D01*
X149897176Y-100264119D02*
X149897176Y-99264119D01*
X149897176Y-99264119D02*
X150230509Y-99978404D01*
X150230509Y-99978404D02*
X150563842Y-99264119D01*
X150563842Y-99264119D02*
X150563842Y-100264119D01*
X151230509Y-99264119D02*
X151420985Y-99264119D01*
X151420985Y-99264119D02*
X151516223Y-99311738D01*
X151516223Y-99311738D02*
X151611461Y-99406976D01*
X151611461Y-99406976D02*
X151659080Y-99597452D01*
X151659080Y-99597452D02*
X151659080Y-99930785D01*
X151659080Y-99930785D02*
X151611461Y-100121261D01*
X151611461Y-100121261D02*
X151516223Y-100216500D01*
X151516223Y-100216500D02*
X151420985Y-100264119D01*
X151420985Y-100264119D02*
X151230509Y-100264119D01*
X151230509Y-100264119D02*
X151135271Y-100216500D01*
X151135271Y-100216500D02*
X151040033Y-100121261D01*
X151040033Y-100121261D02*
X150992414Y-99930785D01*
X150992414Y-99930785D02*
X150992414Y-99597452D01*
X150992414Y-99597452D02*
X151040033Y-99406976D01*
X151040033Y-99406976D02*
X151135271Y-99311738D01*
X151135271Y-99311738D02*
X151230509Y-99264119D01*
X152040033Y-100216500D02*
X152182890Y-100264119D01*
X152182890Y-100264119D02*
X152420985Y-100264119D01*
X152420985Y-100264119D02*
X152516223Y-100216500D01*
X152516223Y-100216500D02*
X152563842Y-100168880D01*
X152563842Y-100168880D02*
X152611461Y-100073642D01*
X152611461Y-100073642D02*
X152611461Y-99978404D01*
X152611461Y-99978404D02*
X152563842Y-99883166D01*
X152563842Y-99883166D02*
X152516223Y-99835547D01*
X152516223Y-99835547D02*
X152420985Y-99787928D01*
X152420985Y-99787928D02*
X152230509Y-99740309D01*
X152230509Y-99740309D02*
X152135271Y-99692690D01*
X152135271Y-99692690D02*
X152087652Y-99645071D01*
X152087652Y-99645071D02*
X152040033Y-99549833D01*
X152040033Y-99549833D02*
X152040033Y-99454595D01*
X152040033Y-99454595D02*
X152087652Y-99359357D01*
X152087652Y-99359357D02*
X152135271Y-99311738D01*
X152135271Y-99311738D02*
X152230509Y-99264119D01*
X152230509Y-99264119D02*
X152468604Y-99264119D01*
X152468604Y-99264119D02*
X152611461Y-99311738D01*
X145372700Y-102197819D02*
X145372700Y-102435914D01*
X145134605Y-102340676D02*
X145372700Y-102435914D01*
X145372700Y-102435914D02*
X145610795Y-102340676D01*
X145229843Y-102626390D02*
X145372700Y-102435914D01*
X145372700Y-102435914D02*
X145515557Y-102626390D01*
X174926666Y-140267009D02*
X174593333Y-140267009D01*
X174593333Y-140790819D02*
X174593333Y-139790819D01*
X174593333Y-139790819D02*
X175069523Y-139790819D01*
X175593333Y-140219390D02*
X175498095Y-140171771D01*
X175498095Y-140171771D02*
X175450476Y-140124152D01*
X175450476Y-140124152D02*
X175402857Y-140028914D01*
X175402857Y-140028914D02*
X175402857Y-139981295D01*
X175402857Y-139981295D02*
X175450476Y-139886057D01*
X175450476Y-139886057D02*
X175498095Y-139838438D01*
X175498095Y-139838438D02*
X175593333Y-139790819D01*
X175593333Y-139790819D02*
X175783809Y-139790819D01*
X175783809Y-139790819D02*
X175879047Y-139838438D01*
X175879047Y-139838438D02*
X175926666Y-139886057D01*
X175926666Y-139886057D02*
X175974285Y-139981295D01*
X175974285Y-139981295D02*
X175974285Y-140028914D01*
X175974285Y-140028914D02*
X175926666Y-140124152D01*
X175926666Y-140124152D02*
X175879047Y-140171771D01*
X175879047Y-140171771D02*
X175783809Y-140219390D01*
X175783809Y-140219390D02*
X175593333Y-140219390D01*
X175593333Y-140219390D02*
X175498095Y-140267009D01*
X175498095Y-140267009D02*
X175450476Y-140314628D01*
X175450476Y-140314628D02*
X175402857Y-140409866D01*
X175402857Y-140409866D02*
X175402857Y-140600342D01*
X175402857Y-140600342D02*
X175450476Y-140695580D01*
X175450476Y-140695580D02*
X175498095Y-140743200D01*
X175498095Y-140743200D02*
X175593333Y-140790819D01*
X175593333Y-140790819D02*
X175783809Y-140790819D01*
X175783809Y-140790819D02*
X175879047Y-140743200D01*
X175879047Y-140743200D02*
X175926666Y-140695580D01*
X175926666Y-140695580D02*
X175974285Y-140600342D01*
X175974285Y-140600342D02*
X175974285Y-140409866D01*
X175974285Y-140409866D02*
X175926666Y-140314628D01*
X175926666Y-140314628D02*
X175879047Y-140267009D01*
X175879047Y-140267009D02*
X175783809Y-140219390D01*
X164487466Y-79941009D02*
X164154133Y-79941009D01*
X164154133Y-80464819D02*
X164154133Y-79464819D01*
X164154133Y-79464819D02*
X164630323Y-79464819D01*
X164916038Y-79464819D02*
X165535085Y-79464819D01*
X165535085Y-79464819D02*
X165201752Y-79845771D01*
X165201752Y-79845771D02*
X165344609Y-79845771D01*
X165344609Y-79845771D02*
X165439847Y-79893390D01*
X165439847Y-79893390D02*
X165487466Y-79941009D01*
X165487466Y-79941009D02*
X165535085Y-80036247D01*
X165535085Y-80036247D02*
X165535085Y-80274342D01*
X165535085Y-80274342D02*
X165487466Y-80369580D01*
X165487466Y-80369580D02*
X165439847Y-80417200D01*
X165439847Y-80417200D02*
X165344609Y-80464819D01*
X165344609Y-80464819D02*
X165058895Y-80464819D01*
X165058895Y-80464819D02*
X164963657Y-80417200D01*
X164963657Y-80417200D02*
X164916038Y-80369580D01*
X101304819Y-49476666D02*
X100828628Y-49809999D01*
X101304819Y-50048094D02*
X100304819Y-50048094D01*
X100304819Y-50048094D02*
X100304819Y-49667142D01*
X100304819Y-49667142D02*
X100352438Y-49571904D01*
X100352438Y-49571904D02*
X100400057Y-49524285D01*
X100400057Y-49524285D02*
X100495295Y-49476666D01*
X100495295Y-49476666D02*
X100638152Y-49476666D01*
X100638152Y-49476666D02*
X100733390Y-49524285D01*
X100733390Y-49524285D02*
X100781009Y-49571904D01*
X100781009Y-49571904D02*
X100828628Y-49667142D01*
X100828628Y-49667142D02*
X100828628Y-50048094D01*
X100304819Y-49143332D02*
X100304819Y-48524285D01*
X100304819Y-48524285D02*
X100685771Y-48857618D01*
X100685771Y-48857618D02*
X100685771Y-48714761D01*
X100685771Y-48714761D02*
X100733390Y-48619523D01*
X100733390Y-48619523D02*
X100781009Y-48571904D01*
X100781009Y-48571904D02*
X100876247Y-48524285D01*
X100876247Y-48524285D02*
X101114342Y-48524285D01*
X101114342Y-48524285D02*
X101209580Y-48571904D01*
X101209580Y-48571904D02*
X101257200Y-48619523D01*
X101257200Y-48619523D02*
X101304819Y-48714761D01*
X101304819Y-48714761D02*
X101304819Y-49000475D01*
X101304819Y-49000475D02*
X101257200Y-49095713D01*
X101257200Y-49095713D02*
X101209580Y-49143332D01*
X214540180Y-40973476D02*
X213825895Y-40973476D01*
X213825895Y-40973476D02*
X213683038Y-40925857D01*
X213683038Y-40925857D02*
X213587800Y-40830619D01*
X213587800Y-40830619D02*
X213540180Y-40687762D01*
X213540180Y-40687762D02*
X213540180Y-40592524D01*
X213540180Y-41973476D02*
X213540180Y-41402048D01*
X213540180Y-41687762D02*
X214540180Y-41687762D01*
X214540180Y-41687762D02*
X214397323Y-41592524D01*
X214397323Y-41592524D02*
X214302085Y-41497286D01*
X214302085Y-41497286D02*
X214254466Y-41402048D01*
X213540180Y-42449667D02*
X213540180Y-42640143D01*
X213540180Y-42640143D02*
X213587800Y-42735381D01*
X213587800Y-42735381D02*
X213635419Y-42783000D01*
X213635419Y-42783000D02*
X213778276Y-42878238D01*
X213778276Y-42878238D02*
X213968752Y-42925857D01*
X213968752Y-42925857D02*
X214349704Y-42925857D01*
X214349704Y-42925857D02*
X214444942Y-42878238D01*
X214444942Y-42878238D02*
X214492561Y-42830619D01*
X214492561Y-42830619D02*
X214540180Y-42735381D01*
X214540180Y-42735381D02*
X214540180Y-42544905D01*
X214540180Y-42544905D02*
X214492561Y-42449667D01*
X214492561Y-42449667D02*
X214444942Y-42402048D01*
X214444942Y-42402048D02*
X214349704Y-42354429D01*
X214349704Y-42354429D02*
X214111609Y-42354429D01*
X214111609Y-42354429D02*
X214016371Y-42402048D01*
X214016371Y-42402048D02*
X213968752Y-42449667D01*
X213968752Y-42449667D02*
X213921133Y-42544905D01*
X213921133Y-42544905D02*
X213921133Y-42735381D01*
X213921133Y-42735381D02*
X213968752Y-42830619D01*
X213968752Y-42830619D02*
X214016371Y-42878238D01*
X214016371Y-42878238D02*
X214111609Y-42925857D01*
X110647819Y-53379666D02*
X110171628Y-53712999D01*
X110647819Y-53951094D02*
X109647819Y-53951094D01*
X109647819Y-53951094D02*
X109647819Y-53570142D01*
X109647819Y-53570142D02*
X109695438Y-53474904D01*
X109695438Y-53474904D02*
X109743057Y-53427285D01*
X109743057Y-53427285D02*
X109838295Y-53379666D01*
X109838295Y-53379666D02*
X109981152Y-53379666D01*
X109981152Y-53379666D02*
X110076390Y-53427285D01*
X110076390Y-53427285D02*
X110124009Y-53474904D01*
X110124009Y-53474904D02*
X110171628Y-53570142D01*
X110171628Y-53570142D02*
X110171628Y-53951094D01*
X110647819Y-52427285D02*
X110647819Y-52998713D01*
X110647819Y-52712999D02*
X109647819Y-52712999D01*
X109647819Y-52712999D02*
X109790676Y-52808237D01*
X109790676Y-52808237D02*
X109885914Y-52903475D01*
X109885914Y-52903475D02*
X109933533Y-52998713D01*
X189526666Y-42698009D02*
X189193333Y-42698009D01*
X189193333Y-43221819D02*
X189193333Y-42221819D01*
X189193333Y-42221819D02*
X189669523Y-42221819D01*
X189955238Y-42221819D02*
X190621904Y-42221819D01*
X190621904Y-42221819D02*
X190193333Y-43221819D01*
X152933333Y-37669580D02*
X152885714Y-37717200D01*
X152885714Y-37717200D02*
X152742857Y-37764819D01*
X152742857Y-37764819D02*
X152647619Y-37764819D01*
X152647619Y-37764819D02*
X152504762Y-37717200D01*
X152504762Y-37717200D02*
X152409524Y-37621961D01*
X152409524Y-37621961D02*
X152361905Y-37526723D01*
X152361905Y-37526723D02*
X152314286Y-37336247D01*
X152314286Y-37336247D02*
X152314286Y-37193390D01*
X152314286Y-37193390D02*
X152361905Y-37002914D01*
X152361905Y-37002914D02*
X152409524Y-36907676D01*
X152409524Y-36907676D02*
X152504762Y-36812438D01*
X152504762Y-36812438D02*
X152647619Y-36764819D01*
X152647619Y-36764819D02*
X152742857Y-36764819D01*
X152742857Y-36764819D02*
X152885714Y-36812438D01*
X152885714Y-36812438D02*
X152933333Y-36860057D01*
X153314286Y-36860057D02*
X153361905Y-36812438D01*
X153361905Y-36812438D02*
X153457143Y-36764819D01*
X153457143Y-36764819D02*
X153695238Y-36764819D01*
X153695238Y-36764819D02*
X153790476Y-36812438D01*
X153790476Y-36812438D02*
X153838095Y-36860057D01*
X153838095Y-36860057D02*
X153885714Y-36955295D01*
X153885714Y-36955295D02*
X153885714Y-37050533D01*
X153885714Y-37050533D02*
X153838095Y-37193390D01*
X153838095Y-37193390D02*
X153266667Y-37764819D01*
X153266667Y-37764819D02*
X153885714Y-37764819D01*
X170245661Y-92104357D02*
X170150423Y-92056738D01*
X170150423Y-92056738D02*
X170055185Y-91961500D01*
X170055185Y-91961500D02*
X169912328Y-91818642D01*
X169912328Y-91818642D02*
X169817090Y-91771023D01*
X169817090Y-91771023D02*
X169721852Y-91771023D01*
X169769471Y-92009119D02*
X169674233Y-91961500D01*
X169674233Y-91961500D02*
X169578995Y-91866261D01*
X169578995Y-91866261D02*
X169531376Y-91675785D01*
X169531376Y-91675785D02*
X169531376Y-91342452D01*
X169531376Y-91342452D02*
X169578995Y-91151976D01*
X169578995Y-91151976D02*
X169674233Y-91056738D01*
X169674233Y-91056738D02*
X169769471Y-91009119D01*
X169769471Y-91009119D02*
X169959947Y-91009119D01*
X169959947Y-91009119D02*
X170055185Y-91056738D01*
X170055185Y-91056738D02*
X170150423Y-91151976D01*
X170150423Y-91151976D02*
X170198042Y-91342452D01*
X170198042Y-91342452D02*
X170198042Y-91675785D01*
X170198042Y-91675785D02*
X170150423Y-91866261D01*
X170150423Y-91866261D02*
X170055185Y-91961500D01*
X170055185Y-91961500D02*
X169959947Y-92009119D01*
X169959947Y-92009119D02*
X169769471Y-92009119D01*
X170531376Y-91009119D02*
X171150423Y-91009119D01*
X171150423Y-91009119D02*
X170817090Y-91390071D01*
X170817090Y-91390071D02*
X170959947Y-91390071D01*
X170959947Y-91390071D02*
X171055185Y-91437690D01*
X171055185Y-91437690D02*
X171102804Y-91485309D01*
X171102804Y-91485309D02*
X171150423Y-91580547D01*
X171150423Y-91580547D02*
X171150423Y-91818642D01*
X171150423Y-91818642D02*
X171102804Y-91913880D01*
X171102804Y-91913880D02*
X171055185Y-91961500D01*
X171055185Y-91961500D02*
X170959947Y-92009119D01*
X170959947Y-92009119D02*
X170674233Y-92009119D01*
X170674233Y-92009119D02*
X170578995Y-91961500D01*
X170578995Y-91961500D02*
X170531376Y-91913880D01*
X168991757Y-100264119D02*
X168991757Y-99264119D01*
X168991757Y-99264119D02*
X169563185Y-100264119D01*
X169563185Y-100264119D02*
X169563185Y-99264119D01*
X170039376Y-100264119D02*
X170039376Y-99264119D01*
X170039376Y-99264119D02*
X170372709Y-99978404D01*
X170372709Y-99978404D02*
X170706042Y-99264119D01*
X170706042Y-99264119D02*
X170706042Y-100264119D01*
X171372709Y-99264119D02*
X171563185Y-99264119D01*
X171563185Y-99264119D02*
X171658423Y-99311738D01*
X171658423Y-99311738D02*
X171753661Y-99406976D01*
X171753661Y-99406976D02*
X171801280Y-99597452D01*
X171801280Y-99597452D02*
X171801280Y-99930785D01*
X171801280Y-99930785D02*
X171753661Y-100121261D01*
X171753661Y-100121261D02*
X171658423Y-100216500D01*
X171658423Y-100216500D02*
X171563185Y-100264119D01*
X171563185Y-100264119D02*
X171372709Y-100264119D01*
X171372709Y-100264119D02*
X171277471Y-100216500D01*
X171277471Y-100216500D02*
X171182233Y-100121261D01*
X171182233Y-100121261D02*
X171134614Y-99930785D01*
X171134614Y-99930785D02*
X171134614Y-99597452D01*
X171134614Y-99597452D02*
X171182233Y-99406976D01*
X171182233Y-99406976D02*
X171277471Y-99311738D01*
X171277471Y-99311738D02*
X171372709Y-99264119D01*
X172182233Y-100216500D02*
X172325090Y-100264119D01*
X172325090Y-100264119D02*
X172563185Y-100264119D01*
X172563185Y-100264119D02*
X172658423Y-100216500D01*
X172658423Y-100216500D02*
X172706042Y-100168880D01*
X172706042Y-100168880D02*
X172753661Y-100073642D01*
X172753661Y-100073642D02*
X172753661Y-99978404D01*
X172753661Y-99978404D02*
X172706042Y-99883166D01*
X172706042Y-99883166D02*
X172658423Y-99835547D01*
X172658423Y-99835547D02*
X172563185Y-99787928D01*
X172563185Y-99787928D02*
X172372709Y-99740309D01*
X172372709Y-99740309D02*
X172277471Y-99692690D01*
X172277471Y-99692690D02*
X172229852Y-99645071D01*
X172229852Y-99645071D02*
X172182233Y-99549833D01*
X172182233Y-99549833D02*
X172182233Y-99454595D01*
X172182233Y-99454595D02*
X172229852Y-99359357D01*
X172229852Y-99359357D02*
X172277471Y-99311738D01*
X172277471Y-99311738D02*
X172372709Y-99264119D01*
X172372709Y-99264119D02*
X172610804Y-99264119D01*
X172610804Y-99264119D02*
X172753661Y-99311738D01*
X165260900Y-102197819D02*
X165260900Y-102435914D01*
X165022805Y-102340676D02*
X165260900Y-102435914D01*
X165260900Y-102435914D02*
X165498995Y-102340676D01*
X165118043Y-102626390D02*
X165260900Y-102435914D01*
X165260900Y-102435914D02*
X165403757Y-102626390D01*
X175626733Y-53583819D02*
X175293400Y-53107628D01*
X175055305Y-53583819D02*
X175055305Y-52583819D01*
X175055305Y-52583819D02*
X175436257Y-52583819D01*
X175436257Y-52583819D02*
X175531495Y-52631438D01*
X175531495Y-52631438D02*
X175579114Y-52679057D01*
X175579114Y-52679057D02*
X175626733Y-52774295D01*
X175626733Y-52774295D02*
X175626733Y-52917152D01*
X175626733Y-52917152D02*
X175579114Y-53012390D01*
X175579114Y-53012390D02*
X175531495Y-53060009D01*
X175531495Y-53060009D02*
X175436257Y-53107628D01*
X175436257Y-53107628D02*
X175055305Y-53107628D01*
X176483876Y-52583819D02*
X176293400Y-52583819D01*
X176293400Y-52583819D02*
X176198162Y-52631438D01*
X176198162Y-52631438D02*
X176150543Y-52679057D01*
X176150543Y-52679057D02*
X176055305Y-52821914D01*
X176055305Y-52821914D02*
X176007686Y-53012390D01*
X176007686Y-53012390D02*
X176007686Y-53393342D01*
X176007686Y-53393342D02*
X176055305Y-53488580D01*
X176055305Y-53488580D02*
X176102924Y-53536200D01*
X176102924Y-53536200D02*
X176198162Y-53583819D01*
X176198162Y-53583819D02*
X176388638Y-53583819D01*
X176388638Y-53583819D02*
X176483876Y-53536200D01*
X176483876Y-53536200D02*
X176531495Y-53488580D01*
X176531495Y-53488580D02*
X176579114Y-53393342D01*
X176579114Y-53393342D02*
X176579114Y-53155247D01*
X176579114Y-53155247D02*
X176531495Y-53060009D01*
X176531495Y-53060009D02*
X176483876Y-53012390D01*
X176483876Y-53012390D02*
X176388638Y-52964771D01*
X176388638Y-52964771D02*
X176198162Y-52964771D01*
X176198162Y-52964771D02*
X176102924Y-53012390D01*
X176102924Y-53012390D02*
X176055305Y-53060009D01*
X176055305Y-53060009D02*
X176007686Y-53155247D01*
X106651666Y-79941009D02*
X106318333Y-79941009D01*
X106318333Y-80464819D02*
X106318333Y-79464819D01*
X106318333Y-79464819D02*
X106794523Y-79464819D01*
X107604047Y-79798152D02*
X107604047Y-80464819D01*
X107365952Y-79417200D02*
X107127857Y-80131485D01*
X107127857Y-80131485D02*
X107746904Y-80131485D01*
X144285905Y-38585819D02*
X144285905Y-37585819D01*
X144857333Y-38585819D02*
X144428762Y-38014390D01*
X144857333Y-37585819D02*
X144285905Y-38157247D01*
X145809714Y-38585819D02*
X145238286Y-38585819D01*
X145524000Y-38585819D02*
X145524000Y-37585819D01*
X145524000Y-37585819D02*
X145428762Y-37728676D01*
X145428762Y-37728676D02*
X145333524Y-37823914D01*
X145333524Y-37823914D02*
X145238286Y-37871533D01*
X130596261Y-91977357D02*
X130501023Y-91929738D01*
X130501023Y-91929738D02*
X130405785Y-91834500D01*
X130405785Y-91834500D02*
X130262928Y-91691642D01*
X130262928Y-91691642D02*
X130167690Y-91644023D01*
X130167690Y-91644023D02*
X130072452Y-91644023D01*
X130120071Y-91882119D02*
X130024833Y-91834500D01*
X130024833Y-91834500D02*
X129929595Y-91739261D01*
X129929595Y-91739261D02*
X129881976Y-91548785D01*
X129881976Y-91548785D02*
X129881976Y-91215452D01*
X129881976Y-91215452D02*
X129929595Y-91024976D01*
X129929595Y-91024976D02*
X130024833Y-90929738D01*
X130024833Y-90929738D02*
X130120071Y-90882119D01*
X130120071Y-90882119D02*
X130310547Y-90882119D01*
X130310547Y-90882119D02*
X130405785Y-90929738D01*
X130405785Y-90929738D02*
X130501023Y-91024976D01*
X130501023Y-91024976D02*
X130548642Y-91215452D01*
X130548642Y-91215452D02*
X130548642Y-91548785D01*
X130548642Y-91548785D02*
X130501023Y-91739261D01*
X130501023Y-91739261D02*
X130405785Y-91834500D01*
X130405785Y-91834500D02*
X130310547Y-91882119D01*
X130310547Y-91882119D02*
X130120071Y-91882119D01*
X131453404Y-90882119D02*
X130977214Y-90882119D01*
X130977214Y-90882119D02*
X130929595Y-91358309D01*
X130929595Y-91358309D02*
X130977214Y-91310690D01*
X130977214Y-91310690D02*
X131072452Y-91263071D01*
X131072452Y-91263071D02*
X131310547Y-91263071D01*
X131310547Y-91263071D02*
X131405785Y-91310690D01*
X131405785Y-91310690D02*
X131453404Y-91358309D01*
X131453404Y-91358309D02*
X131501023Y-91453547D01*
X131501023Y-91453547D02*
X131501023Y-91691642D01*
X131501023Y-91691642D02*
X131453404Y-91786880D01*
X131453404Y-91786880D02*
X131405785Y-91834500D01*
X131405785Y-91834500D02*
X131310547Y-91882119D01*
X131310547Y-91882119D02*
X131072452Y-91882119D01*
X131072452Y-91882119D02*
X130977214Y-91834500D01*
X130977214Y-91834500D02*
X130929595Y-91786880D01*
X129088357Y-100137119D02*
X129088357Y-99137119D01*
X129088357Y-99137119D02*
X129659785Y-100137119D01*
X129659785Y-100137119D02*
X129659785Y-99137119D01*
X130135976Y-100137119D02*
X130135976Y-99137119D01*
X130135976Y-99137119D02*
X130469309Y-99851404D01*
X130469309Y-99851404D02*
X130802642Y-99137119D01*
X130802642Y-99137119D02*
X130802642Y-100137119D01*
X131469309Y-99137119D02*
X131659785Y-99137119D01*
X131659785Y-99137119D02*
X131755023Y-99184738D01*
X131755023Y-99184738D02*
X131850261Y-99279976D01*
X131850261Y-99279976D02*
X131897880Y-99470452D01*
X131897880Y-99470452D02*
X131897880Y-99803785D01*
X131897880Y-99803785D02*
X131850261Y-99994261D01*
X131850261Y-99994261D02*
X131755023Y-100089500D01*
X131755023Y-100089500D02*
X131659785Y-100137119D01*
X131659785Y-100137119D02*
X131469309Y-100137119D01*
X131469309Y-100137119D02*
X131374071Y-100089500D01*
X131374071Y-100089500D02*
X131278833Y-99994261D01*
X131278833Y-99994261D02*
X131231214Y-99803785D01*
X131231214Y-99803785D02*
X131231214Y-99470452D01*
X131231214Y-99470452D02*
X131278833Y-99279976D01*
X131278833Y-99279976D02*
X131374071Y-99184738D01*
X131374071Y-99184738D02*
X131469309Y-99137119D01*
X132278833Y-100089500D02*
X132421690Y-100137119D01*
X132421690Y-100137119D02*
X132659785Y-100137119D01*
X132659785Y-100137119D02*
X132755023Y-100089500D01*
X132755023Y-100089500D02*
X132802642Y-100041880D01*
X132802642Y-100041880D02*
X132850261Y-99946642D01*
X132850261Y-99946642D02*
X132850261Y-99851404D01*
X132850261Y-99851404D02*
X132802642Y-99756166D01*
X132802642Y-99756166D02*
X132755023Y-99708547D01*
X132755023Y-99708547D02*
X132659785Y-99660928D01*
X132659785Y-99660928D02*
X132469309Y-99613309D01*
X132469309Y-99613309D02*
X132374071Y-99565690D01*
X132374071Y-99565690D02*
X132326452Y-99518071D01*
X132326452Y-99518071D02*
X132278833Y-99422833D01*
X132278833Y-99422833D02*
X132278833Y-99327595D01*
X132278833Y-99327595D02*
X132326452Y-99232357D01*
X132326452Y-99232357D02*
X132374071Y-99184738D01*
X132374071Y-99184738D02*
X132469309Y-99137119D01*
X132469309Y-99137119D02*
X132707404Y-99137119D01*
X132707404Y-99137119D02*
X132850261Y-99184738D01*
X125484500Y-102197819D02*
X125484500Y-102435914D01*
X125246405Y-102340676D02*
X125484500Y-102435914D01*
X125484500Y-102435914D02*
X125722595Y-102340676D01*
X125341643Y-102626390D02*
X125484500Y-102435914D01*
X125484500Y-102435914D02*
X125627357Y-102626390D01*
X202383333Y-56154819D02*
X202050000Y-55678628D01*
X201811905Y-56154819D02*
X201811905Y-55154819D01*
X201811905Y-55154819D02*
X202192857Y-55154819D01*
X202192857Y-55154819D02*
X202288095Y-55202438D01*
X202288095Y-55202438D02*
X202335714Y-55250057D01*
X202335714Y-55250057D02*
X202383333Y-55345295D01*
X202383333Y-55345295D02*
X202383333Y-55488152D01*
X202383333Y-55488152D02*
X202335714Y-55583390D01*
X202335714Y-55583390D02*
X202288095Y-55631009D01*
X202288095Y-55631009D02*
X202192857Y-55678628D01*
X202192857Y-55678628D02*
X201811905Y-55678628D01*
X203288095Y-55154819D02*
X202811905Y-55154819D01*
X202811905Y-55154819D02*
X202764286Y-55631009D01*
X202764286Y-55631009D02*
X202811905Y-55583390D01*
X202811905Y-55583390D02*
X202907143Y-55535771D01*
X202907143Y-55535771D02*
X203145238Y-55535771D01*
X203145238Y-55535771D02*
X203240476Y-55583390D01*
X203240476Y-55583390D02*
X203288095Y-55631009D01*
X203288095Y-55631009D02*
X203335714Y-55726247D01*
X203335714Y-55726247D02*
X203335714Y-55964342D01*
X203335714Y-55964342D02*
X203288095Y-56059580D01*
X203288095Y-56059580D02*
X203240476Y-56107200D01*
X203240476Y-56107200D02*
X203145238Y-56154819D01*
X203145238Y-56154819D02*
X202907143Y-56154819D01*
X202907143Y-56154819D02*
X202811905Y-56107200D01*
X202811905Y-56107200D02*
X202764286Y-56059580D01*
X117002476Y-36377819D02*
X117002476Y-37092104D01*
X117002476Y-37092104D02*
X116954857Y-37234961D01*
X116954857Y-37234961D02*
X116859619Y-37330200D01*
X116859619Y-37330200D02*
X116716762Y-37377819D01*
X116716762Y-37377819D02*
X116621524Y-37377819D01*
X118002476Y-37377819D02*
X117431048Y-37377819D01*
X117716762Y-37377819D02*
X117716762Y-36377819D01*
X117716762Y-36377819D02*
X117621524Y-36520676D01*
X117621524Y-36520676D02*
X117526286Y-36615914D01*
X117526286Y-36615914D02*
X117431048Y-36663533D01*
X118859619Y-36711152D02*
X118859619Y-37377819D01*
X118621524Y-36330200D02*
X118383429Y-37044485D01*
X118383429Y-37044485D02*
X119002476Y-37044485D01*
X118324333Y-53583819D02*
X117991000Y-53107628D01*
X117752905Y-53583819D02*
X117752905Y-52583819D01*
X117752905Y-52583819D02*
X118133857Y-52583819D01*
X118133857Y-52583819D02*
X118229095Y-52631438D01*
X118229095Y-52631438D02*
X118276714Y-52679057D01*
X118276714Y-52679057D02*
X118324333Y-52774295D01*
X118324333Y-52774295D02*
X118324333Y-52917152D01*
X118324333Y-52917152D02*
X118276714Y-53012390D01*
X118276714Y-53012390D02*
X118229095Y-53060009D01*
X118229095Y-53060009D02*
X118133857Y-53107628D01*
X118133857Y-53107628D02*
X117752905Y-53107628D01*
X118657667Y-52583819D02*
X119324333Y-52583819D01*
X119324333Y-52583819D02*
X118895762Y-53583819D01*
X203044666Y-79941009D02*
X202711333Y-79941009D01*
X202711333Y-80464819D02*
X202711333Y-79464819D01*
X202711333Y-79464819D02*
X203187523Y-79464819D01*
X204092285Y-80464819D02*
X203520857Y-80464819D01*
X203806571Y-80464819D02*
X203806571Y-79464819D01*
X203806571Y-79464819D02*
X203711333Y-79607676D01*
X203711333Y-79607676D02*
X203616095Y-79702914D01*
X203616095Y-79702914D02*
X203520857Y-79750533D01*
X190260861Y-91723357D02*
X190165623Y-91675738D01*
X190165623Y-91675738D02*
X190070385Y-91580500D01*
X190070385Y-91580500D02*
X189927528Y-91437642D01*
X189927528Y-91437642D02*
X189832290Y-91390023D01*
X189832290Y-91390023D02*
X189737052Y-91390023D01*
X189784671Y-91628119D02*
X189689433Y-91580500D01*
X189689433Y-91580500D02*
X189594195Y-91485261D01*
X189594195Y-91485261D02*
X189546576Y-91294785D01*
X189546576Y-91294785D02*
X189546576Y-90961452D01*
X189546576Y-90961452D02*
X189594195Y-90770976D01*
X189594195Y-90770976D02*
X189689433Y-90675738D01*
X189689433Y-90675738D02*
X189784671Y-90628119D01*
X189784671Y-90628119D02*
X189975147Y-90628119D01*
X189975147Y-90628119D02*
X190070385Y-90675738D01*
X190070385Y-90675738D02*
X190165623Y-90770976D01*
X190165623Y-90770976D02*
X190213242Y-90961452D01*
X190213242Y-90961452D02*
X190213242Y-91294785D01*
X190213242Y-91294785D02*
X190165623Y-91485261D01*
X190165623Y-91485261D02*
X190070385Y-91580500D01*
X190070385Y-91580500D02*
X189975147Y-91628119D01*
X189975147Y-91628119D02*
X189784671Y-91628119D01*
X190594195Y-90723357D02*
X190641814Y-90675738D01*
X190641814Y-90675738D02*
X190737052Y-90628119D01*
X190737052Y-90628119D02*
X190975147Y-90628119D01*
X190975147Y-90628119D02*
X191070385Y-90675738D01*
X191070385Y-90675738D02*
X191118004Y-90723357D01*
X191118004Y-90723357D02*
X191165623Y-90818595D01*
X191165623Y-90818595D02*
X191165623Y-90913833D01*
X191165623Y-90913833D02*
X191118004Y-91056690D01*
X191118004Y-91056690D02*
X190546576Y-91628119D01*
X190546576Y-91628119D02*
X191165623Y-91628119D01*
X189387957Y-100264119D02*
X189387957Y-99264119D01*
X189387957Y-99264119D02*
X189959385Y-100264119D01*
X189959385Y-100264119D02*
X189959385Y-99264119D01*
X190435576Y-100264119D02*
X190435576Y-99264119D01*
X190435576Y-99264119D02*
X190768909Y-99978404D01*
X190768909Y-99978404D02*
X191102242Y-99264119D01*
X191102242Y-99264119D02*
X191102242Y-100264119D01*
X191768909Y-99264119D02*
X191959385Y-99264119D01*
X191959385Y-99264119D02*
X192054623Y-99311738D01*
X192054623Y-99311738D02*
X192149861Y-99406976D01*
X192149861Y-99406976D02*
X192197480Y-99597452D01*
X192197480Y-99597452D02*
X192197480Y-99930785D01*
X192197480Y-99930785D02*
X192149861Y-100121261D01*
X192149861Y-100121261D02*
X192054623Y-100216500D01*
X192054623Y-100216500D02*
X191959385Y-100264119D01*
X191959385Y-100264119D02*
X191768909Y-100264119D01*
X191768909Y-100264119D02*
X191673671Y-100216500D01*
X191673671Y-100216500D02*
X191578433Y-100121261D01*
X191578433Y-100121261D02*
X191530814Y-99930785D01*
X191530814Y-99930785D02*
X191530814Y-99597452D01*
X191530814Y-99597452D02*
X191578433Y-99406976D01*
X191578433Y-99406976D02*
X191673671Y-99311738D01*
X191673671Y-99311738D02*
X191768909Y-99264119D01*
X192578433Y-100216500D02*
X192721290Y-100264119D01*
X192721290Y-100264119D02*
X192959385Y-100264119D01*
X192959385Y-100264119D02*
X193054623Y-100216500D01*
X193054623Y-100216500D02*
X193102242Y-100168880D01*
X193102242Y-100168880D02*
X193149861Y-100073642D01*
X193149861Y-100073642D02*
X193149861Y-99978404D01*
X193149861Y-99978404D02*
X193102242Y-99883166D01*
X193102242Y-99883166D02*
X193054623Y-99835547D01*
X193054623Y-99835547D02*
X192959385Y-99787928D01*
X192959385Y-99787928D02*
X192768909Y-99740309D01*
X192768909Y-99740309D02*
X192673671Y-99692690D01*
X192673671Y-99692690D02*
X192626052Y-99645071D01*
X192626052Y-99645071D02*
X192578433Y-99549833D01*
X192578433Y-99549833D02*
X192578433Y-99454595D01*
X192578433Y-99454595D02*
X192626052Y-99359357D01*
X192626052Y-99359357D02*
X192673671Y-99311738D01*
X192673671Y-99311738D02*
X192768909Y-99264119D01*
X192768909Y-99264119D02*
X193007004Y-99264119D01*
X193007004Y-99264119D02*
X193149861Y-99311738D01*
X185149100Y-102197819D02*
X185149100Y-102435914D01*
X184911005Y-102340676D02*
X185149100Y-102435914D01*
X185149100Y-102435914D02*
X185387195Y-102340676D01*
X185006243Y-102626390D02*
X185149100Y-102435914D01*
X185149100Y-102435914D02*
X185291957Y-102626390D01*
X125930266Y-79941009D02*
X125596933Y-79941009D01*
X125596933Y-80464819D02*
X125596933Y-79464819D01*
X125596933Y-79464819D02*
X126073123Y-79464819D01*
X126930266Y-79464819D02*
X126454076Y-79464819D01*
X126454076Y-79464819D02*
X126406457Y-79941009D01*
X126406457Y-79941009D02*
X126454076Y-79893390D01*
X126454076Y-79893390D02*
X126549314Y-79845771D01*
X126549314Y-79845771D02*
X126787409Y-79845771D01*
X126787409Y-79845771D02*
X126882647Y-79893390D01*
X126882647Y-79893390D02*
X126930266Y-79941009D01*
X126930266Y-79941009D02*
X126977885Y-80036247D01*
X126977885Y-80036247D02*
X126977885Y-80274342D01*
X126977885Y-80274342D02*
X126930266Y-80369580D01*
X126930266Y-80369580D02*
X126882647Y-80417200D01*
X126882647Y-80417200D02*
X126787409Y-80464819D01*
X126787409Y-80464819D02*
X126549314Y-80464819D01*
X126549314Y-80464819D02*
X126454076Y-80417200D01*
X126454076Y-80417200D02*
X126406457Y-80369580D01*
X210149061Y-91723357D02*
X210053823Y-91675738D01*
X210053823Y-91675738D02*
X209958585Y-91580500D01*
X209958585Y-91580500D02*
X209815728Y-91437642D01*
X209815728Y-91437642D02*
X209720490Y-91390023D01*
X209720490Y-91390023D02*
X209625252Y-91390023D01*
X209672871Y-91628119D02*
X209577633Y-91580500D01*
X209577633Y-91580500D02*
X209482395Y-91485261D01*
X209482395Y-91485261D02*
X209434776Y-91294785D01*
X209434776Y-91294785D02*
X209434776Y-90961452D01*
X209434776Y-90961452D02*
X209482395Y-90770976D01*
X209482395Y-90770976D02*
X209577633Y-90675738D01*
X209577633Y-90675738D02*
X209672871Y-90628119D01*
X209672871Y-90628119D02*
X209863347Y-90628119D01*
X209863347Y-90628119D02*
X209958585Y-90675738D01*
X209958585Y-90675738D02*
X210053823Y-90770976D01*
X210053823Y-90770976D02*
X210101442Y-90961452D01*
X210101442Y-90961452D02*
X210101442Y-91294785D01*
X210101442Y-91294785D02*
X210053823Y-91485261D01*
X210053823Y-91485261D02*
X209958585Y-91580500D01*
X209958585Y-91580500D02*
X209863347Y-91628119D01*
X209863347Y-91628119D02*
X209672871Y-91628119D01*
X211053823Y-91628119D02*
X210482395Y-91628119D01*
X210768109Y-91628119D02*
X210768109Y-90628119D01*
X210768109Y-90628119D02*
X210672871Y-90770976D01*
X210672871Y-90770976D02*
X210577633Y-90866214D01*
X210577633Y-90866214D02*
X210482395Y-90913833D01*
X209276157Y-100137119D02*
X209276157Y-99137119D01*
X209276157Y-99137119D02*
X209847585Y-100137119D01*
X209847585Y-100137119D02*
X209847585Y-99137119D01*
X210323776Y-100137119D02*
X210323776Y-99137119D01*
X210323776Y-99137119D02*
X210657109Y-99851404D01*
X210657109Y-99851404D02*
X210990442Y-99137119D01*
X210990442Y-99137119D02*
X210990442Y-100137119D01*
X211657109Y-99137119D02*
X211847585Y-99137119D01*
X211847585Y-99137119D02*
X211942823Y-99184738D01*
X211942823Y-99184738D02*
X212038061Y-99279976D01*
X212038061Y-99279976D02*
X212085680Y-99470452D01*
X212085680Y-99470452D02*
X212085680Y-99803785D01*
X212085680Y-99803785D02*
X212038061Y-99994261D01*
X212038061Y-99994261D02*
X211942823Y-100089500D01*
X211942823Y-100089500D02*
X211847585Y-100137119D01*
X211847585Y-100137119D02*
X211657109Y-100137119D01*
X211657109Y-100137119D02*
X211561871Y-100089500D01*
X211561871Y-100089500D02*
X211466633Y-99994261D01*
X211466633Y-99994261D02*
X211419014Y-99803785D01*
X211419014Y-99803785D02*
X211419014Y-99470452D01*
X211419014Y-99470452D02*
X211466633Y-99279976D01*
X211466633Y-99279976D02*
X211561871Y-99184738D01*
X211561871Y-99184738D02*
X211657109Y-99137119D01*
X212466633Y-100089500D02*
X212609490Y-100137119D01*
X212609490Y-100137119D02*
X212847585Y-100137119D01*
X212847585Y-100137119D02*
X212942823Y-100089500D01*
X212942823Y-100089500D02*
X212990442Y-100041880D01*
X212990442Y-100041880D02*
X213038061Y-99946642D01*
X213038061Y-99946642D02*
X213038061Y-99851404D01*
X213038061Y-99851404D02*
X212990442Y-99756166D01*
X212990442Y-99756166D02*
X212942823Y-99708547D01*
X212942823Y-99708547D02*
X212847585Y-99660928D01*
X212847585Y-99660928D02*
X212657109Y-99613309D01*
X212657109Y-99613309D02*
X212561871Y-99565690D01*
X212561871Y-99565690D02*
X212514252Y-99518071D01*
X212514252Y-99518071D02*
X212466633Y-99422833D01*
X212466633Y-99422833D02*
X212466633Y-99327595D01*
X212466633Y-99327595D02*
X212514252Y-99232357D01*
X212514252Y-99232357D02*
X212561871Y-99184738D01*
X212561871Y-99184738D02*
X212657109Y-99137119D01*
X212657109Y-99137119D02*
X212895204Y-99137119D01*
X212895204Y-99137119D02*
X213038061Y-99184738D01*
X205037300Y-102197819D02*
X205037300Y-102435914D01*
X204799205Y-102340676D02*
X205037300Y-102435914D01*
X205037300Y-102435914D02*
X205275395Y-102340676D01*
X204894443Y-102626390D02*
X205037300Y-102435914D01*
X205037300Y-102435914D02*
X205180157Y-102626390D01*
X103822666Y-137470819D02*
X103489333Y-136994628D01*
X103251238Y-137470819D02*
X103251238Y-136470819D01*
X103251238Y-136470819D02*
X103632190Y-136470819D01*
X103632190Y-136470819D02*
X103727428Y-136518438D01*
X103727428Y-136518438D02*
X103775047Y-136566057D01*
X103775047Y-136566057D02*
X103822666Y-136661295D01*
X103822666Y-136661295D02*
X103822666Y-136804152D01*
X103822666Y-136804152D02*
X103775047Y-136899390D01*
X103775047Y-136899390D02*
X103727428Y-136947009D01*
X103727428Y-136947009D02*
X103632190Y-136994628D01*
X103632190Y-136994628D02*
X103251238Y-136994628D01*
X104251238Y-136947009D02*
X104584571Y-136947009D01*
X104727428Y-137470819D02*
X104251238Y-137470819D01*
X104251238Y-137470819D02*
X104251238Y-136470819D01*
X104251238Y-136470819D02*
X104727428Y-136470819D01*
X105489333Y-136947009D02*
X105156000Y-136947009D01*
X105156000Y-137470819D02*
X105156000Y-136470819D01*
X105156000Y-136470819D02*
X105632190Y-136470819D01*
X106156000Y-136470819D02*
X106156000Y-136708914D01*
X105917905Y-136613676D02*
X106156000Y-136708914D01*
X106156000Y-136708914D02*
X106394095Y-136613676D01*
X106013143Y-136899390D02*
X106156000Y-136708914D01*
X106156000Y-136708914D02*
X106298857Y-136899390D01*
X106917905Y-136470819D02*
X106917905Y-136708914D01*
X106679810Y-136613676D02*
X106917905Y-136708914D01*
X106917905Y-136708914D02*
X107156000Y-136613676D01*
X106775048Y-136899390D02*
X106917905Y-136708914D01*
X106917905Y-136708914D02*
X107060762Y-136899390D01*
X131353333Y-37669580D02*
X131305714Y-37717200D01*
X131305714Y-37717200D02*
X131162857Y-37764819D01*
X131162857Y-37764819D02*
X131067619Y-37764819D01*
X131067619Y-37764819D02*
X130924762Y-37717200D01*
X130924762Y-37717200D02*
X130829524Y-37621961D01*
X130829524Y-37621961D02*
X130781905Y-37526723D01*
X130781905Y-37526723D02*
X130734286Y-37336247D01*
X130734286Y-37336247D02*
X130734286Y-37193390D01*
X130734286Y-37193390D02*
X130781905Y-37002914D01*
X130781905Y-37002914D02*
X130829524Y-36907676D01*
X130829524Y-36907676D02*
X130924762Y-36812438D01*
X130924762Y-36812438D02*
X131067619Y-36764819D01*
X131067619Y-36764819D02*
X131162857Y-36764819D01*
X131162857Y-36764819D02*
X131305714Y-36812438D01*
X131305714Y-36812438D02*
X131353333Y-36860057D01*
X132305714Y-37764819D02*
X131734286Y-37764819D01*
X132020000Y-37764819D02*
X132020000Y-36764819D01*
X132020000Y-36764819D02*
X131924762Y-36907676D01*
X131924762Y-36907676D02*
X131829524Y-37002914D01*
X131829524Y-37002914D02*
X131734286Y-37050533D01*
X199197819Y-39798523D02*
X199912104Y-39798523D01*
X199912104Y-39798523D02*
X200054961Y-39846142D01*
X200054961Y-39846142D02*
X200150200Y-39941380D01*
X200150200Y-39941380D02*
X200197819Y-40084237D01*
X200197819Y-40084237D02*
X200197819Y-40179475D01*
X200197819Y-38798523D02*
X200197819Y-39369951D01*
X200197819Y-39084237D02*
X199197819Y-39084237D01*
X199197819Y-39084237D02*
X199340676Y-39179475D01*
X199340676Y-39179475D02*
X199435914Y-39274713D01*
X199435914Y-39274713D02*
X199483533Y-39369951D01*
X199197819Y-38465189D02*
X199197819Y-37798523D01*
X199197819Y-37798523D02*
X200197819Y-38227094D01*
X167812819Y-38179333D02*
X168527104Y-38179333D01*
X168527104Y-38179333D02*
X168669961Y-38226952D01*
X168669961Y-38226952D02*
X168765200Y-38322190D01*
X168765200Y-38322190D02*
X168812819Y-38465047D01*
X168812819Y-38465047D02*
X168812819Y-38560285D01*
X168812819Y-37179333D02*
X168812819Y-37750761D01*
X168812819Y-37465047D02*
X167812819Y-37465047D01*
X167812819Y-37465047D02*
X167955676Y-37560285D01*
X167955676Y-37560285D02*
X168050914Y-37655523D01*
X168050914Y-37655523D02*
X168098533Y-37750761D01*
X110708061Y-91977357D02*
X110612823Y-91929738D01*
X110612823Y-91929738D02*
X110517585Y-91834500D01*
X110517585Y-91834500D02*
X110374728Y-91691642D01*
X110374728Y-91691642D02*
X110279490Y-91644023D01*
X110279490Y-91644023D02*
X110184252Y-91644023D01*
X110231871Y-91882119D02*
X110136633Y-91834500D01*
X110136633Y-91834500D02*
X110041395Y-91739261D01*
X110041395Y-91739261D02*
X109993776Y-91548785D01*
X109993776Y-91548785D02*
X109993776Y-91215452D01*
X109993776Y-91215452D02*
X110041395Y-91024976D01*
X110041395Y-91024976D02*
X110136633Y-90929738D01*
X110136633Y-90929738D02*
X110231871Y-90882119D01*
X110231871Y-90882119D02*
X110422347Y-90882119D01*
X110422347Y-90882119D02*
X110517585Y-90929738D01*
X110517585Y-90929738D02*
X110612823Y-91024976D01*
X110612823Y-91024976D02*
X110660442Y-91215452D01*
X110660442Y-91215452D02*
X110660442Y-91548785D01*
X110660442Y-91548785D02*
X110612823Y-91739261D01*
X110612823Y-91739261D02*
X110517585Y-91834500D01*
X110517585Y-91834500D02*
X110422347Y-91882119D01*
X110422347Y-91882119D02*
X110231871Y-91882119D01*
X111517585Y-91215452D02*
X111517585Y-91882119D01*
X111279490Y-90834500D02*
X111041395Y-91548785D01*
X111041395Y-91548785D02*
X111660442Y-91548785D01*
X108946157Y-100264119D02*
X108946157Y-99264119D01*
X108946157Y-99264119D02*
X109517585Y-100264119D01*
X109517585Y-100264119D02*
X109517585Y-99264119D01*
X109993776Y-100264119D02*
X109993776Y-99264119D01*
X109993776Y-99264119D02*
X110327109Y-99978404D01*
X110327109Y-99978404D02*
X110660442Y-99264119D01*
X110660442Y-99264119D02*
X110660442Y-100264119D01*
X111327109Y-99264119D02*
X111517585Y-99264119D01*
X111517585Y-99264119D02*
X111612823Y-99311738D01*
X111612823Y-99311738D02*
X111708061Y-99406976D01*
X111708061Y-99406976D02*
X111755680Y-99597452D01*
X111755680Y-99597452D02*
X111755680Y-99930785D01*
X111755680Y-99930785D02*
X111708061Y-100121261D01*
X111708061Y-100121261D02*
X111612823Y-100216500D01*
X111612823Y-100216500D02*
X111517585Y-100264119D01*
X111517585Y-100264119D02*
X111327109Y-100264119D01*
X111327109Y-100264119D02*
X111231871Y-100216500D01*
X111231871Y-100216500D02*
X111136633Y-100121261D01*
X111136633Y-100121261D02*
X111089014Y-99930785D01*
X111089014Y-99930785D02*
X111089014Y-99597452D01*
X111089014Y-99597452D02*
X111136633Y-99406976D01*
X111136633Y-99406976D02*
X111231871Y-99311738D01*
X111231871Y-99311738D02*
X111327109Y-99264119D01*
X112136633Y-100216500D02*
X112279490Y-100264119D01*
X112279490Y-100264119D02*
X112517585Y-100264119D01*
X112517585Y-100264119D02*
X112612823Y-100216500D01*
X112612823Y-100216500D02*
X112660442Y-100168880D01*
X112660442Y-100168880D02*
X112708061Y-100073642D01*
X112708061Y-100073642D02*
X112708061Y-99978404D01*
X112708061Y-99978404D02*
X112660442Y-99883166D01*
X112660442Y-99883166D02*
X112612823Y-99835547D01*
X112612823Y-99835547D02*
X112517585Y-99787928D01*
X112517585Y-99787928D02*
X112327109Y-99740309D01*
X112327109Y-99740309D02*
X112231871Y-99692690D01*
X112231871Y-99692690D02*
X112184252Y-99645071D01*
X112184252Y-99645071D02*
X112136633Y-99549833D01*
X112136633Y-99549833D02*
X112136633Y-99454595D01*
X112136633Y-99454595D02*
X112184252Y-99359357D01*
X112184252Y-99359357D02*
X112231871Y-99311738D01*
X112231871Y-99311738D02*
X112327109Y-99264119D01*
X112327109Y-99264119D02*
X112565204Y-99264119D01*
X112565204Y-99264119D02*
X112708061Y-99311738D01*
X105596300Y-102197819D02*
X105596300Y-102435914D01*
X105358205Y-102340676D02*
X105596300Y-102435914D01*
X105596300Y-102435914D02*
X105834395Y-102340676D01*
X105453443Y-102626390D02*
X105596300Y-102435914D01*
X105596300Y-102435914D02*
X105739157Y-102626390D01*
X143605333Y-29061580D02*
X143557714Y-29109200D01*
X143557714Y-29109200D02*
X143414857Y-29156819D01*
X143414857Y-29156819D02*
X143319619Y-29156819D01*
X143319619Y-29156819D02*
X143176762Y-29109200D01*
X143176762Y-29109200D02*
X143081524Y-29013961D01*
X143081524Y-29013961D02*
X143033905Y-28918723D01*
X143033905Y-28918723D02*
X142986286Y-28728247D01*
X142986286Y-28728247D02*
X142986286Y-28585390D01*
X142986286Y-28585390D02*
X143033905Y-28394914D01*
X143033905Y-28394914D02*
X143081524Y-28299676D01*
X143081524Y-28299676D02*
X143176762Y-28204438D01*
X143176762Y-28204438D02*
X143319619Y-28156819D01*
X143319619Y-28156819D02*
X143414857Y-28156819D01*
X143414857Y-28156819D02*
X143557714Y-28204438D01*
X143557714Y-28204438D02*
X143605333Y-28252057D01*
X144605333Y-29156819D02*
X144272000Y-28680628D01*
X144033905Y-29156819D02*
X144033905Y-28156819D01*
X144033905Y-28156819D02*
X144414857Y-28156819D01*
X144414857Y-28156819D02*
X144510095Y-28204438D01*
X144510095Y-28204438D02*
X144557714Y-28252057D01*
X144557714Y-28252057D02*
X144605333Y-28347295D01*
X144605333Y-28347295D02*
X144605333Y-28490152D01*
X144605333Y-28490152D02*
X144557714Y-28585390D01*
X144557714Y-28585390D02*
X144510095Y-28633009D01*
X144510095Y-28633009D02*
X144414857Y-28680628D01*
X144414857Y-28680628D02*
X144033905Y-28680628D01*
X145557714Y-29156819D02*
X144986286Y-29156819D01*
X145272000Y-29156819D02*
X145272000Y-28156819D01*
X145272000Y-28156819D02*
X145176762Y-28299676D01*
X145176762Y-28299676D02*
X145081524Y-28394914D01*
X145081524Y-28394914D02*
X144986286Y-28442533D01*
X156525933Y-53583819D02*
X156192600Y-53107628D01*
X155954505Y-53583819D02*
X155954505Y-52583819D01*
X155954505Y-52583819D02*
X156335457Y-52583819D01*
X156335457Y-52583819D02*
X156430695Y-52631438D01*
X156430695Y-52631438D02*
X156478314Y-52679057D01*
X156478314Y-52679057D02*
X156525933Y-52774295D01*
X156525933Y-52774295D02*
X156525933Y-52917152D01*
X156525933Y-52917152D02*
X156478314Y-53012390D01*
X156478314Y-53012390D02*
X156430695Y-53060009D01*
X156430695Y-53060009D02*
X156335457Y-53107628D01*
X156335457Y-53107628D02*
X155954505Y-53107628D01*
X157002124Y-53583819D02*
X157192600Y-53583819D01*
X157192600Y-53583819D02*
X157287838Y-53536200D01*
X157287838Y-53536200D02*
X157335457Y-53488580D01*
X157335457Y-53488580D02*
X157430695Y-53345723D01*
X157430695Y-53345723D02*
X157478314Y-53155247D01*
X157478314Y-53155247D02*
X157478314Y-52774295D01*
X157478314Y-52774295D02*
X157430695Y-52679057D01*
X157430695Y-52679057D02*
X157383076Y-52631438D01*
X157383076Y-52631438D02*
X157287838Y-52583819D01*
X157287838Y-52583819D02*
X157097362Y-52583819D01*
X157097362Y-52583819D02*
X157002124Y-52631438D01*
X157002124Y-52631438D02*
X156954505Y-52679057D01*
X156954505Y-52679057D02*
X156906886Y-52774295D01*
X156906886Y-52774295D02*
X156906886Y-53012390D01*
X156906886Y-53012390D02*
X156954505Y-53107628D01*
X156954505Y-53107628D02*
X157002124Y-53155247D01*
X157002124Y-53155247D02*
X157097362Y-53202866D01*
X157097362Y-53202866D02*
X157287838Y-53202866D01*
X157287838Y-53202866D02*
X157383076Y-53155247D01*
X157383076Y-53155247D02*
X157430695Y-53107628D01*
X157430695Y-53107628D02*
X157478314Y-53012390D01*
X213828333Y-53583819D02*
X213495000Y-53107628D01*
X213256905Y-53583819D02*
X213256905Y-52583819D01*
X213256905Y-52583819D02*
X213637857Y-52583819D01*
X213637857Y-52583819D02*
X213733095Y-52631438D01*
X213733095Y-52631438D02*
X213780714Y-52679057D01*
X213780714Y-52679057D02*
X213828333Y-52774295D01*
X213828333Y-52774295D02*
X213828333Y-52917152D01*
X213828333Y-52917152D02*
X213780714Y-53012390D01*
X213780714Y-53012390D02*
X213733095Y-53060009D01*
X213733095Y-53060009D02*
X213637857Y-53107628D01*
X213637857Y-53107628D02*
X213256905Y-53107628D01*
X214685476Y-52917152D02*
X214685476Y-53583819D01*
X214447381Y-52536200D02*
X214209286Y-53250485D01*
X214209286Y-53250485D02*
X214828333Y-53250485D01*
X196007522Y-139737180D02*
X196007522Y-139022895D01*
X196007522Y-139022895D02*
X196055141Y-138880038D01*
X196055141Y-138880038D02*
X196150379Y-138784800D01*
X196150379Y-138784800D02*
X196293236Y-138737180D01*
X196293236Y-138737180D02*
X196388474Y-138737180D01*
X195007522Y-138737180D02*
X195578950Y-138737180D01*
X195293236Y-138737180D02*
X195293236Y-139737180D01*
X195293236Y-139737180D02*
X195388474Y-139594323D01*
X195388474Y-139594323D02*
X195483712Y-139499085D01*
X195483712Y-139499085D02*
X195578950Y-139451466D01*
X194436093Y-139308609D02*
X194531331Y-139356228D01*
X194531331Y-139356228D02*
X194578950Y-139403847D01*
X194578950Y-139403847D02*
X194626569Y-139499085D01*
X194626569Y-139499085D02*
X194626569Y-139546704D01*
X194626569Y-139546704D02*
X194578950Y-139641942D01*
X194578950Y-139641942D02*
X194531331Y-139689561D01*
X194531331Y-139689561D02*
X194436093Y-139737180D01*
X194436093Y-139737180D02*
X194245617Y-139737180D01*
X194245617Y-139737180D02*
X194150379Y-139689561D01*
X194150379Y-139689561D02*
X194102760Y-139641942D01*
X194102760Y-139641942D02*
X194055141Y-139546704D01*
X194055141Y-139546704D02*
X194055141Y-139499085D01*
X194055141Y-139499085D02*
X194102760Y-139403847D01*
X194102760Y-139403847D02*
X194150379Y-139356228D01*
X194150379Y-139356228D02*
X194245617Y-139308609D01*
X194245617Y-139308609D02*
X194436093Y-139308609D01*
X194436093Y-139308609D02*
X194531331Y-139260990D01*
X194531331Y-139260990D02*
X194578950Y-139213371D01*
X194578950Y-139213371D02*
X194626569Y-139118133D01*
X194626569Y-139118133D02*
X194626569Y-138927657D01*
X194626569Y-138927657D02*
X194578950Y-138832419D01*
X194578950Y-138832419D02*
X194531331Y-138784800D01*
X194531331Y-138784800D02*
X194436093Y-138737180D01*
X194436093Y-138737180D02*
X194245617Y-138737180D01*
X194245617Y-138737180D02*
X194150379Y-138784800D01*
X194150379Y-138784800D02*
X194102760Y-138832419D01*
X194102760Y-138832419D02*
X194055141Y-138927657D01*
X194055141Y-138927657D02*
X194055141Y-139118133D01*
X194055141Y-139118133D02*
X194102760Y-139213371D01*
X194102760Y-139213371D02*
X194150379Y-139260990D01*
X194150379Y-139260990D02*
X194245617Y-139308609D01*
X183766066Y-79941009D02*
X183432733Y-79941009D01*
X183432733Y-80464819D02*
X183432733Y-79464819D01*
X183432733Y-79464819D02*
X183908923Y-79464819D01*
X184242257Y-79560057D02*
X184289876Y-79512438D01*
X184289876Y-79512438D02*
X184385114Y-79464819D01*
X184385114Y-79464819D02*
X184623209Y-79464819D01*
X184623209Y-79464819D02*
X184718447Y-79512438D01*
X184718447Y-79512438D02*
X184766066Y-79560057D01*
X184766066Y-79560057D02*
X184813685Y-79655295D01*
X184813685Y-79655295D02*
X184813685Y-79750533D01*
X184813685Y-79750533D02*
X184766066Y-79893390D01*
X184766066Y-79893390D02*
X184194638Y-80464819D01*
X184194638Y-80464819D02*
X184813685Y-80464819D01*
X103822666Y-28885819D02*
X103489333Y-28409628D01*
X103251238Y-28885819D02*
X103251238Y-27885819D01*
X103251238Y-27885819D02*
X103632190Y-27885819D01*
X103632190Y-27885819D02*
X103727428Y-27933438D01*
X103727428Y-27933438D02*
X103775047Y-27981057D01*
X103775047Y-27981057D02*
X103822666Y-28076295D01*
X103822666Y-28076295D02*
X103822666Y-28219152D01*
X103822666Y-28219152D02*
X103775047Y-28314390D01*
X103775047Y-28314390D02*
X103727428Y-28362009D01*
X103727428Y-28362009D02*
X103632190Y-28409628D01*
X103632190Y-28409628D02*
X103251238Y-28409628D01*
X104251238Y-28362009D02*
X104584571Y-28362009D01*
X104727428Y-28885819D02*
X104251238Y-28885819D01*
X104251238Y-28885819D02*
X104251238Y-27885819D01*
X104251238Y-27885819D02*
X104727428Y-27885819D01*
X105489333Y-28362009D02*
X105156000Y-28362009D01*
X105156000Y-28885819D02*
X105156000Y-27885819D01*
X105156000Y-27885819D02*
X105632190Y-27885819D01*
X106156000Y-27885819D02*
X106156000Y-28123914D01*
X105917905Y-28028676D02*
X106156000Y-28123914D01*
X106156000Y-28123914D02*
X106394095Y-28028676D01*
X106013143Y-28314390D02*
X106156000Y-28123914D01*
X106156000Y-28123914D02*
X106298857Y-28314390D01*
X106917905Y-27885819D02*
X106917905Y-28123914D01*
X106679810Y-28028676D02*
X106917905Y-28123914D01*
X106917905Y-28123914D02*
X107156000Y-28028676D01*
X106775048Y-28314390D02*
X106917905Y-28123914D01*
X106917905Y-28123914D02*
X107060762Y-28314390D01*
X139340476Y-143134819D02*
X139340476Y-143849104D01*
X139340476Y-143849104D02*
X139292857Y-143991961D01*
X139292857Y-143991961D02*
X139197619Y-144087200D01*
X139197619Y-144087200D02*
X139054762Y-144134819D01*
X139054762Y-144134819D02*
X138959524Y-144134819D01*
X139769048Y-143230057D02*
X139816667Y-143182438D01*
X139816667Y-143182438D02*
X139911905Y-143134819D01*
X139911905Y-143134819D02*
X140150000Y-143134819D01*
X140150000Y-143134819D02*
X140245238Y-143182438D01*
X140245238Y-143182438D02*
X140292857Y-143230057D01*
X140292857Y-143230057D02*
X140340476Y-143325295D01*
X140340476Y-143325295D02*
X140340476Y-143420533D01*
X140340476Y-143420533D02*
X140292857Y-143563390D01*
X140292857Y-143563390D02*
X139721429Y-144134819D01*
X139721429Y-144134819D02*
X140340476Y-144134819D01*
X140721429Y-143230057D02*
X140769048Y-143182438D01*
X140769048Y-143182438D02*
X140864286Y-143134819D01*
X140864286Y-143134819D02*
X141102381Y-143134819D01*
X141102381Y-143134819D02*
X141197619Y-143182438D01*
X141197619Y-143182438D02*
X141245238Y-143230057D01*
X141245238Y-143230057D02*
X141292857Y-143325295D01*
X141292857Y-143325295D02*
X141292857Y-143420533D01*
X141292857Y-143420533D02*
X141245238Y-143563390D01*
X141245238Y-143563390D02*
X140673810Y-144134819D01*
X140673810Y-144134819D02*
X141292857Y-144134819D01*
X137425133Y-53583819D02*
X137091800Y-53107628D01*
X136853705Y-53583819D02*
X136853705Y-52583819D01*
X136853705Y-52583819D02*
X137234657Y-52583819D01*
X137234657Y-52583819D02*
X137329895Y-52631438D01*
X137329895Y-52631438D02*
X137377514Y-52679057D01*
X137377514Y-52679057D02*
X137425133Y-52774295D01*
X137425133Y-52774295D02*
X137425133Y-52917152D01*
X137425133Y-52917152D02*
X137377514Y-53012390D01*
X137377514Y-53012390D02*
X137329895Y-53060009D01*
X137329895Y-53060009D02*
X137234657Y-53107628D01*
X137234657Y-53107628D02*
X136853705Y-53107628D01*
X137996562Y-53012390D02*
X137901324Y-52964771D01*
X137901324Y-52964771D02*
X137853705Y-52917152D01*
X137853705Y-52917152D02*
X137806086Y-52821914D01*
X137806086Y-52821914D02*
X137806086Y-52774295D01*
X137806086Y-52774295D02*
X137853705Y-52679057D01*
X137853705Y-52679057D02*
X137901324Y-52631438D01*
X137901324Y-52631438D02*
X137996562Y-52583819D01*
X137996562Y-52583819D02*
X138187038Y-52583819D01*
X138187038Y-52583819D02*
X138282276Y-52631438D01*
X138282276Y-52631438D02*
X138329895Y-52679057D01*
X138329895Y-52679057D02*
X138377514Y-52774295D01*
X138377514Y-52774295D02*
X138377514Y-52821914D01*
X138377514Y-52821914D02*
X138329895Y-52917152D01*
X138329895Y-52917152D02*
X138282276Y-52964771D01*
X138282276Y-52964771D02*
X138187038Y-53012390D01*
X138187038Y-53012390D02*
X137996562Y-53012390D01*
X137996562Y-53012390D02*
X137901324Y-53060009D01*
X137901324Y-53060009D02*
X137853705Y-53107628D01*
X137853705Y-53107628D02*
X137806086Y-53202866D01*
X137806086Y-53202866D02*
X137806086Y-53393342D01*
X137806086Y-53393342D02*
X137853705Y-53488580D01*
X137853705Y-53488580D02*
X137901324Y-53536200D01*
X137901324Y-53536200D02*
X137996562Y-53583819D01*
X137996562Y-53583819D02*
X138187038Y-53583819D01*
X138187038Y-53583819D02*
X138282276Y-53536200D01*
X138282276Y-53536200D02*
X138329895Y-53488580D01*
X138329895Y-53488580D02*
X138377514Y-53393342D01*
X138377514Y-53393342D02*
X138377514Y-53202866D01*
X138377514Y-53202866D02*
X138329895Y-53107628D01*
X138329895Y-53107628D02*
X138282276Y-53060009D01*
X138282276Y-53060009D02*
X138187038Y-53012390D01*
X145208866Y-79941009D02*
X144875533Y-79941009D01*
X144875533Y-80464819D02*
X144875533Y-79464819D01*
X144875533Y-79464819D02*
X145351723Y-79464819D01*
X146161247Y-79464819D02*
X145970771Y-79464819D01*
X145970771Y-79464819D02*
X145875533Y-79512438D01*
X145875533Y-79512438D02*
X145827914Y-79560057D01*
X145827914Y-79560057D02*
X145732676Y-79702914D01*
X145732676Y-79702914D02*
X145685057Y-79893390D01*
X145685057Y-79893390D02*
X145685057Y-80274342D01*
X145685057Y-80274342D02*
X145732676Y-80369580D01*
X145732676Y-80369580D02*
X145780295Y-80417200D01*
X145780295Y-80417200D02*
X145875533Y-80464819D01*
X145875533Y-80464819D02*
X146066009Y-80464819D01*
X146066009Y-80464819D02*
X146161247Y-80417200D01*
X146161247Y-80417200D02*
X146208866Y-80369580D01*
X146208866Y-80369580D02*
X146256485Y-80274342D01*
X146256485Y-80274342D02*
X146256485Y-80036247D01*
X146256485Y-80036247D02*
X146208866Y-79941009D01*
X146208866Y-79941009D02*
X146161247Y-79893390D01*
X146161247Y-79893390D02*
X146066009Y-79845771D01*
X146066009Y-79845771D02*
X145875533Y-79845771D01*
X145875533Y-79845771D02*
X145780295Y-79893390D01*
X145780295Y-79893390D02*
X145732676Y-79941009D01*
X145732676Y-79941009D02*
X145685057Y-80036247D01*
X111876819Y-136691666D02*
X111400628Y-137024999D01*
X111876819Y-137263094D02*
X110876819Y-137263094D01*
X110876819Y-137263094D02*
X110876819Y-136882142D01*
X110876819Y-136882142D02*
X110924438Y-136786904D01*
X110924438Y-136786904D02*
X110972057Y-136739285D01*
X110972057Y-136739285D02*
X111067295Y-136691666D01*
X111067295Y-136691666D02*
X111210152Y-136691666D01*
X111210152Y-136691666D02*
X111305390Y-136739285D01*
X111305390Y-136739285D02*
X111353009Y-136786904D01*
X111353009Y-136786904D02*
X111400628Y-136882142D01*
X111400628Y-136882142D02*
X111400628Y-137263094D01*
X110972057Y-136310713D02*
X110924438Y-136263094D01*
X110924438Y-136263094D02*
X110876819Y-136167856D01*
X110876819Y-136167856D02*
X110876819Y-135929761D01*
X110876819Y-135929761D02*
X110924438Y-135834523D01*
X110924438Y-135834523D02*
X110972057Y-135786904D01*
X110972057Y-135786904D02*
X111067295Y-135739285D01*
X111067295Y-135739285D02*
X111162533Y-135739285D01*
X111162533Y-135739285D02*
X111305390Y-135786904D01*
X111305390Y-135786904D02*
X111876819Y-136358332D01*
X111876819Y-136358332D02*
X111876819Y-135739285D01*
D11*
X160352800Y-117058800D02*
X160352800Y-125358800D01*
X160352800Y-125358800D02*
X173202800Y-125358800D01*
X173202800Y-117058800D02*
X160352800Y-117058800D01*
X173202800Y-125358800D02*
X176052800Y-122808800D01*
X176052800Y-119658800D02*
X173202800Y-117058800D01*
X176052800Y-122808800D02*
X176052800Y-119658800D01*
X151010000Y-143620000D02*
X151010000Y-142290000D01*
X152340000Y-143620000D02*
X151010000Y-143620000D01*
X153610000Y-140960000D02*
X158750000Y-140960000D01*
X153610000Y-143620000D02*
X153610000Y-140960000D01*
X153610000Y-143620000D02*
X158750000Y-143620000D01*
X158750000Y-143620000D02*
X158750000Y-140960000D01*
D12*
X118496001Y-136997001D02*
X118496001Y-145451002D01*
X118496001Y-145451002D02*
X130680000Y-145451002D01*
X130680000Y-136997001D02*
X118496001Y-136997001D01*
X130680000Y-145451002D02*
X130680000Y-136997001D01*
D13*
X118242001Y-141224000D02*
G75*
G02*
X117480001Y-141224000I-381000J0D01*
G01*
X117480001Y-141224000D02*
G75*
G02*
X118242001Y-141224000I381000J0D01*
G01*
D12*
X147049100Y-94157800D02*
X147049100Y-100634800D01*
X147049100Y-100634800D02*
X149881200Y-100634800D01*
X147465660Y-94157800D02*
X147049100Y-94157800D01*
X149881200Y-100634800D02*
X149881200Y-101650800D01*
X149881200Y-101650800D02*
X151278200Y-101650800D01*
X151278200Y-100634800D02*
X154110300Y-100634800D01*
X151278200Y-101650800D02*
X151278200Y-100634800D01*
X154110300Y-94157800D02*
X153693740Y-94157800D01*
X154110300Y-100634800D02*
X154110300Y-94157800D01*
D11*
X109883000Y-39130000D02*
X109883000Y-47430000D01*
X109883000Y-47430000D02*
X122733000Y-47430000D01*
X122733000Y-39130000D02*
X109883000Y-39130000D01*
X122733000Y-47430000D02*
X125583000Y-44880000D01*
X125583000Y-41730000D02*
X122733000Y-39130000D01*
X125583000Y-44880000D02*
X125583000Y-41730000D01*
X166540000Y-143256000D02*
X170190000Y-143256000D01*
X170190000Y-141336000D02*
X170190000Y-145176000D01*
X170190000Y-145176000D02*
X180330000Y-145176000D01*
X180330000Y-141336000D02*
X170190000Y-141336000D01*
X180330000Y-145176000D02*
X180330000Y-141336000D01*
X183980000Y-143256000D02*
X180330000Y-143256000D01*
D14*
X161925800Y-81191000D02*
X161925800Y-82566000D01*
X161925800Y-81191000D02*
X176605800Y-81191000D01*
X161925800Y-84566000D02*
X161925800Y-85941000D01*
X176605800Y-81191000D02*
X176605800Y-82566000D01*
X176605800Y-84566000D02*
X176605800Y-85941000D01*
X176605800Y-85941000D02*
X161925800Y-85941000D01*
D11*
X102403000Y-49943000D02*
X102403000Y-56483000D01*
X102403000Y-56483000D02*
X105143000Y-56483000D01*
X103773000Y-49173000D02*
X103773000Y-49943000D01*
X103773000Y-57253000D02*
X103773000Y-56483000D01*
X105143000Y-49943000D02*
X102403000Y-49943000D01*
X105143000Y-56483000D02*
X105143000Y-49943000D01*
D12*
X211799998Y-36708001D02*
X211799998Y-48892000D01*
X211799998Y-48892000D02*
X220253999Y-48892000D01*
X220253999Y-36708001D02*
X211799998Y-36708001D01*
X220253999Y-48892000D02*
X220253999Y-36708001D01*
D13*
X216408000Y-36073001D02*
G75*
G02*
X215646000Y-36073001I-381000J0D01*
G01*
X215646000Y-36073001D02*
G75*
G02*
X216408000Y-36073001I381000J0D01*
G01*
D11*
X106453000Y-49943000D02*
X106453000Y-56483000D01*
X106453000Y-56483000D02*
X109193000Y-56483000D01*
X107823000Y-49173000D02*
X107823000Y-49943000D01*
X107823000Y-57253000D02*
X107823000Y-56483000D01*
X109193000Y-49943000D02*
X106453000Y-49943000D01*
X109193000Y-56483000D02*
X109193000Y-49943000D01*
X176060000Y-48387000D02*
X177240000Y-48387000D01*
X177240000Y-43767000D02*
X177240000Y-53007000D01*
X177240000Y-53007000D02*
X202480000Y-53007000D01*
X202480000Y-43767000D02*
X177240000Y-43767000D01*
X202480000Y-53007000D02*
X202480000Y-43767000D01*
X203660000Y-48387000D02*
X202480000Y-48387000D01*
X157220000Y-32060000D02*
G75*
G02*
X148980000Y-32060000I-4120000J0D01*
G01*
X148980000Y-32060000D02*
G75*
G02*
X157220000Y-32060000I4120000J0D01*
G01*
D12*
X166937300Y-94157800D02*
X166937300Y-100634800D01*
X166937300Y-100634800D02*
X169769400Y-100634800D01*
X167353860Y-94157800D02*
X166937300Y-94157800D01*
X169769400Y-100634800D02*
X169769400Y-101650800D01*
X169769400Y-101650800D02*
X171166400Y-101650800D01*
X171166400Y-100634800D02*
X173998500Y-100634800D01*
X171166400Y-101650800D02*
X171166400Y-100634800D01*
X173998500Y-94157800D02*
X173581940Y-94157800D01*
X173998500Y-100634800D02*
X173998500Y-94157800D01*
D11*
X171753400Y-55499000D02*
X172523400Y-55499000D01*
X172523400Y-54129000D02*
X172523400Y-56869000D01*
X172523400Y-56869000D02*
X179063400Y-56869000D01*
X179063400Y-54129000D02*
X172523400Y-54129000D01*
X179063400Y-56869000D02*
X179063400Y-54129000D01*
X179833400Y-55499000D02*
X179063400Y-55499000D01*
D14*
X104090000Y-81191000D02*
X104090000Y-82566000D01*
X104090000Y-81191000D02*
X118770000Y-81191000D01*
X104090000Y-84566000D02*
X104090000Y-85941000D01*
X118770000Y-81191000D02*
X118770000Y-82566000D01*
X118770000Y-84566000D02*
X118770000Y-85941000D01*
X118770000Y-85941000D02*
X104090000Y-85941000D01*
D11*
X133844000Y-39321000D02*
X154984000Y-39321000D01*
X133844000Y-50321000D02*
X133844000Y-39321000D01*
X133844000Y-50321000D02*
X154984000Y-50321000D01*
X136794000Y-48631000D02*
X138064000Y-48631000D01*
X137554000Y-43801000D02*
X138064000Y-43801000D01*
X137554000Y-45581000D02*
X138574000Y-44571000D01*
X137554000Y-46341000D02*
X137554000Y-43801000D01*
X138064000Y-41011000D02*
X136794000Y-41011000D01*
X138064000Y-43801000D02*
X138064000Y-41011000D01*
X138064000Y-43801000D02*
X138574000Y-43801000D01*
X138064000Y-46341000D02*
X137554000Y-46341000D01*
X138064000Y-48631000D02*
X138064000Y-46341000D01*
X138574000Y-43801000D02*
X138574000Y-46341000D01*
X138574000Y-46341000D02*
X138064000Y-46341000D01*
X145684000Y-44821000D02*
X150764000Y-44821000D01*
X145684000Y-47361000D02*
X145684000Y-44821000D01*
X150764000Y-44821000D02*
X153554000Y-43421000D01*
X153304000Y-47361000D02*
X153304000Y-46091000D01*
X154984000Y-50321000D02*
X154984000Y-39321000D01*
X150894000Y-44821000D02*
G75*
G02*
X150634000Y-44821000I-130000J0D01*
G01*
X150634000Y-44821000D02*
G75*
G02*
X150894000Y-44821000I130000J0D01*
G01*
D12*
X127160900Y-94157800D02*
X127160900Y-100634800D01*
X127160900Y-100634800D02*
X129993000Y-100634800D01*
X127577460Y-94157800D02*
X127160900Y-94157800D01*
X129993000Y-100634800D02*
X129993000Y-101650800D01*
X129993000Y-101650800D02*
X131390000Y-101650800D01*
X131390000Y-100634800D02*
X134222100Y-100634800D01*
X131390000Y-101650800D02*
X131390000Y-100634800D01*
X134222100Y-94157800D02*
X133805540Y-94157800D01*
X134222100Y-100634800D02*
X134222100Y-94157800D01*
D11*
X190854200Y-55499000D02*
X191624200Y-55499000D01*
X191624200Y-54129000D02*
X191624200Y-56869000D01*
X191624200Y-56869000D02*
X198164200Y-56869000D01*
X198164200Y-54129000D02*
X191624200Y-54129000D01*
X198164200Y-56869000D02*
X198164200Y-54129000D01*
X198934200Y-55499000D02*
X198164200Y-55499000D01*
X109962000Y-27473000D02*
X109962000Y-35773000D01*
X109962000Y-35773000D02*
X122812000Y-35773000D01*
X122812000Y-27473000D02*
X109962000Y-27473000D01*
X122812000Y-35773000D02*
X125662000Y-33223000D01*
X125662000Y-30073000D02*
X122812000Y-27473000D01*
X125662000Y-33223000D02*
X125662000Y-30073000D01*
X114451000Y-55499000D02*
X115221000Y-55499000D01*
X115221000Y-54129000D02*
X115221000Y-56869000D01*
X115221000Y-56869000D02*
X121761000Y-56869000D01*
X121761000Y-54129000D02*
X115221000Y-54129000D01*
X121761000Y-56869000D02*
X121761000Y-54129000D01*
X122531000Y-55499000D02*
X121761000Y-55499000D01*
D14*
X200483000Y-81191000D02*
X200483000Y-82566000D01*
X200483000Y-81191000D02*
X215163000Y-81191000D01*
X200483000Y-84566000D02*
X200483000Y-85941000D01*
X215163000Y-81191000D02*
X215163000Y-82566000D01*
X215163000Y-84566000D02*
X215163000Y-85941000D01*
X215163000Y-85941000D02*
X200483000Y-85941000D01*
D12*
X186825500Y-94157800D02*
X186825500Y-100634800D01*
X186825500Y-100634800D02*
X189657600Y-100634800D01*
X187242060Y-94157800D02*
X186825500Y-94157800D01*
X189657600Y-100634800D02*
X189657600Y-101650800D01*
X189657600Y-101650800D02*
X191054600Y-101650800D01*
X191054600Y-100634800D02*
X193886700Y-100634800D01*
X191054600Y-101650800D02*
X191054600Y-100634800D01*
X193886700Y-94157800D02*
X193470140Y-94157800D01*
X193886700Y-100634800D02*
X193886700Y-94157800D01*
D14*
X123368600Y-81191000D02*
X123368600Y-82566000D01*
X123368600Y-81191000D02*
X138048600Y-81191000D01*
X123368600Y-84566000D02*
X123368600Y-85941000D01*
X138048600Y-81191000D02*
X138048600Y-82566000D01*
X138048600Y-84566000D02*
X138048600Y-85941000D01*
X138048600Y-85941000D02*
X123368600Y-85941000D01*
D12*
X206713700Y-94157800D02*
X206713700Y-100634800D01*
X206713700Y-100634800D02*
X209545800Y-100634800D01*
X207130260Y-94157800D02*
X206713700Y-94157800D01*
X209545800Y-100634800D02*
X209545800Y-101650800D01*
X209545800Y-101650800D02*
X210942800Y-101650800D01*
X210942800Y-100634800D02*
X213774900Y-100634800D01*
X210942800Y-101650800D02*
X210942800Y-100634800D01*
X213774900Y-94157800D02*
X213358340Y-94157800D01*
X213774900Y-100634800D02*
X213774900Y-94157800D01*
D11*
X135640000Y-32060000D02*
G75*
G02*
X127400000Y-32060000I-4120000J0D01*
G01*
X127400000Y-32060000D02*
G75*
G02*
X135640000Y-32060000I4120000J0D01*
G01*
X200743000Y-40049000D02*
X200743000Y-38989000D01*
X201803000Y-40049000D02*
X200743000Y-40049000D01*
X202803000Y-37929000D02*
X206863000Y-37929000D01*
X202803000Y-40049000D02*
X202803000Y-37929000D01*
X202803000Y-40049000D02*
X206863000Y-40049000D01*
X206863000Y-40049000D02*
X206863000Y-37929000D01*
X169358000Y-35246000D02*
X189798000Y-35246000D01*
X169358000Y-37846000D02*
X169358000Y-35246000D01*
X169358000Y-40446000D02*
X169358000Y-39116000D01*
X170688000Y-40446000D02*
X169358000Y-40446000D01*
X171958000Y-37846000D02*
X169358000Y-37846000D01*
X171958000Y-40446000D02*
X171958000Y-37846000D01*
X171958000Y-40446000D02*
X189798000Y-40446000D01*
X189798000Y-40446000D02*
X189798000Y-35246000D01*
D12*
X107272700Y-94157800D02*
X107272700Y-100634800D01*
X107272700Y-100634800D02*
X110104800Y-100634800D01*
X107689260Y-94157800D02*
X107272700Y-94157800D01*
X110104800Y-100634800D02*
X110104800Y-101650800D01*
X110104800Y-101650800D02*
X111501800Y-101650800D01*
X111501800Y-100634800D02*
X114333900Y-100634800D01*
X111501800Y-101650800D02*
X111501800Y-100634800D01*
X114333900Y-94157800D02*
X113917340Y-94157800D01*
X114333900Y-100634800D02*
X114333900Y-94157800D01*
X137287000Y-29654500D02*
X137287000Y-34505900D01*
X137287000Y-34505900D02*
X147955000Y-34505900D01*
X147955000Y-29654500D02*
X137287000Y-29654500D01*
X147955000Y-34505900D02*
X147955000Y-29654500D01*
X135712200Y-32512000D02*
G75*
G02*
X135305800Y-32512000I-203200J0D01*
G01*
X135305800Y-32512000D02*
G75*
G02*
X135712200Y-32512000I203200J0D01*
G01*
D11*
X152652600Y-55499000D02*
X153422600Y-55499000D01*
X153422600Y-54129000D02*
X153422600Y-56869000D01*
X153422600Y-56869000D02*
X159962600Y-56869000D01*
X159962600Y-54129000D02*
X153422600Y-54129000D01*
X159962600Y-56869000D02*
X159962600Y-54129000D01*
X160732600Y-55499000D02*
X159962600Y-55499000D01*
X209955000Y-55499000D02*
X210725000Y-55499000D01*
X210725000Y-54129000D02*
X210725000Y-56869000D01*
X210725000Y-56869000D02*
X217265000Y-56869000D01*
X217265000Y-54129000D02*
X210725000Y-54129000D01*
X217265000Y-56869000D02*
X217265000Y-54129000D01*
X218035000Y-55499000D02*
X217265000Y-55499000D01*
D12*
X189106000Y-137377998D02*
X189106000Y-145831999D01*
X189106000Y-145831999D02*
X201289999Y-145831999D01*
X201289999Y-137377998D02*
X189106000Y-137377998D01*
X201289999Y-145831999D02*
X201289999Y-137377998D01*
D13*
X202305999Y-141605000D02*
G75*
G02*
X201543999Y-141605000I-381000J0D01*
G01*
X201543999Y-141605000D02*
G75*
G02*
X202305999Y-141605000I381000J0D01*
G01*
D14*
X181204400Y-81191000D02*
X181204400Y-82566000D01*
X181204400Y-81191000D02*
X195884400Y-81191000D01*
X181204400Y-84566000D02*
X181204400Y-85941000D01*
X195884400Y-81191000D02*
X195884400Y-82566000D01*
X195884400Y-84566000D02*
X195884400Y-85941000D01*
X195884400Y-85941000D02*
X181204400Y-85941000D01*
D12*
X134063001Y-137203001D02*
X134063001Y-145657002D01*
X134063001Y-145657002D02*
X146247000Y-145657002D01*
X146247000Y-137203001D02*
X134063001Y-137203001D01*
X146247000Y-145657002D02*
X146247000Y-137203001D01*
D13*
X133809001Y-141430000D02*
G75*
G02*
X133047001Y-141430000I-381000J0D01*
G01*
X133047001Y-141430000D02*
G75*
G02*
X133809001Y-141430000I381000J0D01*
G01*
D11*
X133551800Y-55499000D02*
X134321800Y-55499000D01*
X134321800Y-54129000D02*
X134321800Y-56869000D01*
X134321800Y-56869000D02*
X140861800Y-56869000D01*
X140861800Y-54129000D02*
X134321800Y-54129000D01*
X140861800Y-56869000D02*
X140861800Y-54129000D01*
X141631800Y-55499000D02*
X140861800Y-55499000D01*
X101058000Y-126615000D02*
X101458000Y-126615000D01*
X101058000Y-127735000D02*
X101058000Y-126615000D01*
X101458000Y-126615000D02*
X101458000Y-127735000D01*
X101458000Y-127735000D02*
X101058000Y-127735000D01*
X101458000Y-127735000D02*
X101458000Y-121575000D01*
X102748000Y-127735000D02*
X102748000Y-127735000D01*
X102748000Y-127735000D02*
X102748000Y-132945000D01*
X102748000Y-132945000D02*
X102748000Y-127735000D01*
X102748000Y-132945000D02*
X102748000Y-132945000D01*
X105288000Y-127735000D02*
X105288000Y-127735000D01*
X105288000Y-127735000D02*
X105288000Y-132945000D01*
X105288000Y-132945000D02*
X105288000Y-127735000D01*
X105288000Y-132945000D02*
X105288000Y-132945000D01*
X106578000Y-127735000D02*
X101458000Y-127735000D01*
X106578000Y-127735000D02*
X106578000Y-121575000D01*
X101458000Y-121575000D02*
G75*
G02*
X106578000Y-121575000I2560000J0D01*
G01*
D14*
X142647200Y-81191000D02*
X142647200Y-82566000D01*
X142647200Y-81191000D02*
X157327200Y-81191000D01*
X142647200Y-84566000D02*
X142647200Y-85941000D01*
X157327200Y-81191000D02*
X157327200Y-82566000D01*
X157327200Y-84566000D02*
X157327200Y-85941000D01*
X157327200Y-85941000D02*
X142647200Y-85941000D01*
D11*
X112422000Y-133255000D02*
X112422000Y-139795000D01*
X112422000Y-139795000D02*
X115162000Y-139795000D01*
X113792000Y-132485000D02*
X113792000Y-133255000D01*
X113792000Y-140565000D02*
X113792000Y-139795000D01*
X115162000Y-133255000D02*
X112422000Y-133255000D01*
X115162000Y-139795000D02*
X115162000Y-133255000D01*
%LPC*%
D15*
X214122000Y-140716000D03*
D16*
X171802800Y-121208800D03*
D17*
X164602800Y-121208800D03*
D18*
X152340000Y-142290000D03*
D19*
X154880000Y-142290000D03*
X157420000Y-142290000D03*
D20*
X120523000Y-141224000D03*
X124333000Y-141224000D03*
X128143000Y-141224000D03*
D21*
X148293700Y-102743000D03*
D22*
X150579700Y-95961200D03*
D21*
X152865700Y-102743000D03*
D16*
X121333000Y-43280000D03*
D17*
X114133000Y-43280000D03*
D23*
X165100000Y-143256000D03*
D24*
X185420000Y-143256000D03*
D25*
X163370800Y-83566000D03*
X167030800Y-83566000D03*
X171500800Y-83566000D03*
X175160800Y-83566000D03*
D26*
X103773000Y-48133000D03*
D27*
X103773000Y-58293000D03*
D20*
X216027000Y-38735000D03*
X216027000Y-42545000D03*
X216027000Y-46355000D03*
D26*
X107823000Y-48133000D03*
D27*
X107823000Y-58293000D03*
D23*
X174620000Y-48387000D03*
D24*
X205100000Y-48387000D03*
D26*
X154850000Y-32060000D03*
X151350000Y-32060000D03*
D21*
X168181900Y-102743000D03*
D22*
X170467900Y-95961200D03*
D21*
X172753900Y-102743000D03*
D26*
X170713400Y-55499000D03*
D27*
X180873400Y-55499000D03*
D25*
X105535000Y-83566000D03*
X109195000Y-83566000D03*
X113665000Y-83566000D03*
X117325000Y-83566000D03*
D28*
X135524000Y-48631000D03*
D29*
X145684000Y-48631000D03*
X153304000Y-48631000D03*
X135524000Y-41011000D03*
D21*
X128405500Y-102743000D03*
D22*
X130691500Y-95961200D03*
D21*
X132977500Y-102743000D03*
D26*
X189814200Y-55499000D03*
D27*
X199974200Y-55499000D03*
D16*
X121412000Y-31623000D03*
D17*
X114212000Y-31623000D03*
D26*
X113411000Y-55499000D03*
D27*
X123571000Y-55499000D03*
D25*
X201928000Y-83566000D03*
X205588000Y-83566000D03*
X210058000Y-83566000D03*
X213718000Y-83566000D03*
D21*
X188070100Y-102743000D03*
D22*
X190356100Y-95961200D03*
D21*
X192642100Y-102743000D03*
D25*
X124813600Y-83566000D03*
X128473600Y-83566000D03*
X132943600Y-83566000D03*
X136603600Y-83566000D03*
D21*
X207958300Y-102743000D03*
D22*
X210244300Y-95961200D03*
D21*
X212530300Y-102743000D03*
D15*
X105156000Y-140716000D03*
D26*
X133270000Y-32060000D03*
X129770000Y-32060000D03*
D30*
X201803000Y-38989000D03*
D31*
X203803000Y-38989000D03*
X205803000Y-38989000D03*
D18*
X170688000Y-39116000D03*
D19*
X170688000Y-36576000D03*
X173228000Y-39116000D03*
X173228000Y-36576000D03*
X175768000Y-39116000D03*
X175768000Y-36576000D03*
X178308000Y-39116000D03*
X178308000Y-36576000D03*
X180848000Y-39116000D03*
X180848000Y-36576000D03*
X183388000Y-39116000D03*
X183388000Y-36576000D03*
X185928000Y-39116000D03*
X185928000Y-36576000D03*
X188468000Y-39116000D03*
X188468000Y-36576000D03*
D21*
X108517300Y-102743000D03*
D22*
X110803300Y-95961200D03*
D21*
X113089300Y-102743000D03*
D32*
X140081000Y-32512000D03*
D33*
X142621000Y-32512000D03*
X145161000Y-32512000D03*
D26*
X151612600Y-55499000D03*
D27*
X161772600Y-55499000D03*
D26*
X208915000Y-55499000D03*
D27*
X219075000Y-55499000D03*
D20*
X199263000Y-141605000D03*
X195453000Y-141605000D03*
X191643000Y-141605000D03*
D25*
X182649400Y-83566000D03*
X186309400Y-83566000D03*
X190779400Y-83566000D03*
X194439400Y-83566000D03*
D15*
X105156000Y-32131000D03*
D20*
X136090000Y-141430000D03*
X139900000Y-141430000D03*
X143710000Y-141430000D03*
D26*
X132511800Y-55499000D03*
D27*
X142671800Y-55499000D03*
D34*
X105288000Y-134025000D03*
D35*
X102748000Y-134025000D03*
D25*
X144092200Y-83566000D03*
X147752200Y-83566000D03*
X152222200Y-83566000D03*
X155882200Y-83566000D03*
D26*
X113792000Y-141605000D03*
D27*
X113792000Y-131445000D03*
D36*
X216535000Y-69850000D03*
D15*
X212575000Y-69850000D03*
D36*
X117602000Y-69850000D03*
D15*
X113642000Y-69850000D03*
D30*
X159068000Y-29210000D03*
D31*
X161068000Y-29210000D03*
X163068000Y-29210000D03*
D36*
X137388600Y-69850000D03*
D15*
X133428600Y-69850000D03*
D30*
X169786400Y-29210000D03*
D31*
X171786400Y-29210000D03*
X173786400Y-29210000D03*
D36*
X157175200Y-69850000D03*
D15*
X153215200Y-69850000D03*
D30*
X180504800Y-29210000D03*
D31*
X182504800Y-29210000D03*
X184504800Y-29210000D03*
D30*
X191223200Y-29210000D03*
D31*
X193223200Y-29210000D03*
X195223200Y-29210000D03*
D36*
X176961800Y-69850000D03*
D15*
X173001800Y-69850000D03*
D30*
X201941600Y-29210000D03*
D31*
X203941600Y-29210000D03*
X205941600Y-29210000D03*
D36*
X196748400Y-69850000D03*
D15*
X192788400Y-69850000D03*
D30*
X212660000Y-29210000D03*
D31*
X214660000Y-29210000D03*
X216660000Y-29210000D03*
%LPD*%
M02*
