G04 #@! TF.GenerationSoftware,KiCad,Pcbnew,9.0.0*
G04 #@! TF.CreationDate,2025-03-26T20:46:31-05:00*
G04 #@! TF.ProjectId,SubCircuitV3,53756243-6972-4637-9569-7456332e6b69,rev?*
G04 #@! TF.SameCoordinates,Original*
G04 #@! TF.FileFunction,Copper,L1,Top*
G04 #@! TF.FilePolarity,Positive*
%FSLAX46Y46*%
G04 Gerber Fmt 4.6, Leading zero omitted, Abs format (unit mm)*
G04 Created by KiCad (PCBNEW 9.0.0) date 2025-03-26 20:46:31*
%MOMM*%
%LPD*%
G01*
G04 APERTURE LIST*
G04 Aperture macros list*
%AMRoundRect*
0 Rectangle with rounded corners*
0 $1 Rounding radius*
0 $2 $3 $4 $5 $6 $7 $8 $9 X,Y pos of 4 corners*
0 Add a 4 corners polygon primitive as box body*
4,1,4,$2,$3,$4,$5,$6,$7,$8,$9,$2,$3,0*
0 Add four circle primitives for the rounded corners*
1,1,$1+$1,$2,$3*
1,1,$1+$1,$4,$5*
1,1,$1+$1,$6,$7*
1,1,$1+$1,$8,$9*
0 Add four rect primitives between the rounded corners*
20,1,$1+$1,$2,$3,$4,$5,0*
20,1,$1+$1,$4,$5,$6,$7,0*
20,1,$1+$1,$6,$7,$8,$9,0*
20,1,$1+$1,$8,$9,$2,$3,0*%
G04 Aperture macros list end*
G04 #@! TA.AperFunction,ComponentPad*
%ADD10C,2.400000*%
G04 #@! TD*
G04 #@! TA.AperFunction,ComponentPad*
%ADD11O,2.400000X2.400000*%
G04 #@! TD*
G04 #@! TA.AperFunction,ComponentPad*
%ADD12RoundRect,1.800000X1.800000X1.800000X-1.800000X1.800000X-1.800000X-1.800000X1.800000X-1.800000X0*%
G04 #@! TD*
G04 #@! TA.AperFunction,ComponentPad*
%ADD13C,7.200000*%
G04 #@! TD*
G04 #@! TA.AperFunction,ComponentPad*
%ADD14R,1.600000X2.400000*%
G04 #@! TD*
G04 #@! TA.AperFunction,ComponentPad*
%ADD15C,1.727200*%
G04 #@! TD*
G04 #@! TA.AperFunction,SMDPad,CuDef*
%ADD16R,0.939800X2.743200*%
G04 #@! TD*
G04 #@! TA.AperFunction,SMDPad,CuDef*
%ADD17R,5.562600X6.096000*%
G04 #@! TD*
G04 #@! TA.AperFunction,ComponentPad*
%ADD18RoundRect,1.800000X-1.800000X-1.800000X1.800000X-1.800000X1.800000X1.800000X-1.800000X1.800000X0*%
G04 #@! TD*
G04 #@! TA.AperFunction,ComponentPad*
%ADD19C,2.550000*%
G04 #@! TD*
G04 #@! TA.AperFunction,ComponentPad*
%ADD20C,1.600000*%
G04 #@! TD*
G04 #@! TA.AperFunction,ComponentPad*
%ADD21O,1.600000X1.600000*%
G04 #@! TD*
G04 #@! TA.AperFunction,ComponentPad*
%ADD22R,1.320800X1.320800*%
G04 #@! TD*
G04 #@! TA.AperFunction,ComponentPad*
%ADD23C,1.320800*%
G04 #@! TD*
G04 #@! TA.AperFunction,ComponentPad*
%ADD24R,2.300000X2.300000*%
G04 #@! TD*
G04 #@! TA.AperFunction,ComponentPad*
%ADD25C,2.300000*%
G04 #@! TD*
G04 #@! TA.AperFunction,ComponentPad*
%ADD26RoundRect,1.500000X-1.500000X-1.500000X1.500000X-1.500000X1.500000X1.500000X-1.500000X1.500000X0*%
G04 #@! TD*
G04 #@! TA.AperFunction,ComponentPad*
%ADD27C,6.000000*%
G04 #@! TD*
G04 #@! TA.AperFunction,ComponentPad*
%ADD28R,1.350000X1.350000*%
G04 #@! TD*
G04 #@! TA.AperFunction,ComponentPad*
%ADD29O,1.350000X1.350000*%
G04 #@! TD*
G04 #@! TA.AperFunction,ComponentPad*
%ADD30R,1.651000X1.651000*%
G04 #@! TD*
G04 #@! TA.AperFunction,ComponentPad*
%ADD31C,1.651000*%
G04 #@! TD*
G04 #@! TA.AperFunction,ComponentPad*
%ADD32R,1.800000X1.800000*%
G04 #@! TD*
G04 #@! TA.AperFunction,ComponentPad*
%ADD33C,1.800000*%
G04 #@! TD*
G04 #@! TA.AperFunction,ComponentPad*
%ADD34RoundRect,0.250001X1.099999X1.099999X-1.099999X1.099999X-1.099999X-1.099999X1.099999X-1.099999X0*%
G04 #@! TD*
G04 #@! TA.AperFunction,ComponentPad*
%ADD35C,2.700000*%
G04 #@! TD*
G04 #@! TA.AperFunction,Conductor*
%ADD36C,0.250000*%
G04 #@! TD*
G04 APERTURE END LIST*
D10*
X119126000Y-129921000D03*
D11*
X139446000Y-129921000D03*
D10*
X197358000Y-133477000D03*
D11*
X217678000Y-133477000D03*
D12*
X160771000Y-118829000D03*
D13*
X149871002Y-118829000D03*
D14*
X164771000Y-128229000D03*
X145871000Y-128229000D03*
D15*
X125476000Y-140589000D03*
X129286000Y-140589000D03*
X133096000Y-140589000D03*
D16*
X116078000Y-38366700D03*
D17*
X118364000Y-31584900D03*
D16*
X120650000Y-38366700D03*
D18*
X177378000Y-139829000D03*
D13*
X188277998Y-139829000D03*
D14*
X173378000Y-130429000D03*
X192278000Y-130429000D03*
D19*
X166261000Y-46736000D03*
X169921000Y-46736000D03*
X174391000Y-46736000D03*
X178051000Y-46736000D03*
D20*
X107315000Y-124079000D03*
D21*
X107315000Y-134239000D03*
D15*
X200406000Y-119253000D03*
X204216000Y-119253000D03*
X208026000Y-119253000D03*
D20*
X111365000Y-124079000D03*
D21*
X111365000Y-134239000D03*
D22*
X177720750Y-104140000D03*
D23*
X179720750Y-104140000D03*
D16*
X169545000Y-38366700D03*
D17*
X171831000Y-31584900D03*
D16*
X174117000Y-38366700D03*
D20*
X163814800Y-72009000D03*
D21*
X173974800Y-72009000D03*
D19*
X147907000Y-46736000D03*
X151567000Y-46736000D03*
X156037000Y-46736000D03*
X159697000Y-46736000D03*
D24*
X120015000Y-107950000D03*
D25*
X130175000Y-107950000D03*
X137795000Y-107950000D03*
X120015000Y-100330000D03*
D16*
X131826000Y-38366700D03*
D17*
X134112000Y-31584900D03*
D16*
X136398000Y-38366700D03*
D20*
X180332400Y-72009000D03*
D21*
X190492400Y-72009000D03*
D26*
X198159000Y-103378000D03*
D27*
X205359000Y-103378000D03*
D20*
X147297201Y-72009000D03*
D21*
X157457201Y-72009000D03*
D19*
X202969000Y-46736000D03*
X206629000Y-46736000D03*
X211099000Y-46736000D03*
X214759000Y-46736000D03*
D16*
X186309000Y-38366700D03*
D17*
X188595000Y-31584900D03*
D16*
X190881000Y-38366700D03*
D19*
X129553000Y-46736000D03*
X133213000Y-46736000D03*
X137683000Y-46736000D03*
X141343000Y-46736000D03*
D16*
X204724000Y-38366700D03*
D17*
X207010000Y-31584900D03*
D16*
X209296000Y-38366700D03*
D22*
X146336000Y-104140000D03*
D23*
X148336000Y-104140000D03*
D28*
X196533000Y-88519000D03*
D29*
X198533000Y-88519000D03*
X200533000Y-88519000D03*
D28*
X154148000Y-93091000D03*
D29*
X154148000Y-91091000D03*
X156148000Y-93091000D03*
X156148000Y-91091000D03*
X158148000Y-93091000D03*
X158148000Y-91091000D03*
X160148000Y-93091000D03*
X160148000Y-91091000D03*
X162148000Y-93091000D03*
X162148000Y-91091000D03*
X164148000Y-93091000D03*
X164148000Y-91091000D03*
X166148000Y-93091000D03*
X166148000Y-91091000D03*
X168148000Y-93091000D03*
X168148000Y-91091000D03*
D16*
X150495000Y-38366700D03*
D17*
X152781000Y-31584900D03*
D16*
X155067000Y-38366700D03*
D30*
X160274000Y-103759000D03*
D31*
X162814000Y-103759000D03*
X165354000Y-103759000D03*
D20*
X114262001Y-72009000D03*
D21*
X124422001Y-72009000D03*
D20*
X196850000Y-72009000D03*
D21*
X207010000Y-72009000D03*
D15*
X125476000Y-119253000D03*
X129286000Y-119253000D03*
X133096000Y-119253000D03*
D19*
X184615000Y-46736000D03*
X188275000Y-46736000D03*
X192745000Y-46736000D03*
X196405000Y-46736000D03*
D20*
X130779601Y-72009000D03*
D21*
X140939601Y-72009000D03*
D32*
X110358000Y-94194000D03*
D33*
X112898000Y-94194000D03*
D19*
X111199000Y-46736000D03*
X114859000Y-46736000D03*
X119329000Y-46736000D03*
X122989000Y-46736000D03*
D20*
X133477000Y-93472000D03*
D21*
X123317000Y-93472000D03*
D34*
X208176000Y-60071000D03*
D35*
X204216000Y-60071000D03*
D34*
X153947000Y-60071000D03*
D35*
X149987000Y-60071000D03*
D28*
X112173000Y-81026000D03*
D29*
X114173000Y-81026000D03*
X116173000Y-81026000D03*
D34*
X135278000Y-60071000D03*
D35*
X131318000Y-60071000D03*
D28*
X131248400Y-81026000D03*
D29*
X133248400Y-81026000D03*
X135248400Y-81026000D03*
D34*
X119530000Y-60071000D03*
D35*
X115570000Y-60071000D03*
D28*
X150323800Y-81026000D03*
D29*
X152323800Y-81026000D03*
X154323800Y-81026000D03*
D28*
X169399200Y-81026000D03*
D29*
X171399200Y-81026000D03*
X173399200Y-81026000D03*
D34*
X172997000Y-60071000D03*
D35*
X169037000Y-60071000D03*
D28*
X188474600Y-81026000D03*
D29*
X190474600Y-81026000D03*
X192474600Y-81026000D03*
D34*
X189761000Y-60071000D03*
D35*
X185801000Y-60071000D03*
D28*
X207550000Y-81026000D03*
D29*
X209550000Y-81026000D03*
X211550000Y-81026000D03*
D36*
X153829000Y-111887000D02*
X138684000Y-111887000D01*
X217678000Y-128905000D02*
X208026000Y-119253000D01*
X217678000Y-133477000D02*
X217678000Y-128905000D01*
X197358000Y-131779944D02*
X197358000Y-133477000D01*
X190800056Y-125222000D02*
X197358000Y-131779944D01*
X186649000Y-125222000D02*
X190800056Y-125222000D01*
X138684000Y-135001000D02*
X133096000Y-140589000D01*
X139573000Y-135001000D02*
X124206000Y-135001000D01*
X139573000Y-135001000D02*
X138684000Y-135001000D01*
X124206000Y-135001000D02*
X119126000Y-129921000D01*
X148463000Y-135001000D02*
X139573000Y-135001000D01*
X160771000Y-122693000D02*
X148463000Y-135001000D01*
X160771000Y-118829000D02*
X160771000Y-122693000D01*
X139446000Y-125603000D02*
X133096000Y-119253000D01*
X139446000Y-129921000D02*
X139446000Y-125603000D01*
X137795000Y-107950000D02*
X137922000Y-107950000D01*
X146336000Y-104140000D02*
X150654000Y-99822000D01*
X150654000Y-99822000D02*
X161417000Y-99822000D01*
X141732000Y-104140000D02*
X146336000Y-104140000D01*
X161417000Y-99822000D02*
X165354000Y-103759000D01*
X137922000Y-107950000D02*
X141732000Y-104140000D01*
X159893000Y-104140000D02*
X160274000Y-103759000D01*
X148717000Y-103759000D02*
X148336000Y-104140000D01*
X160274000Y-103759000D02*
X148717000Y-103759000D01*
X205359000Y-104902000D02*
X205359000Y-103378000D01*
X162814000Y-103759000D02*
X163965500Y-104910500D01*
X163965500Y-104910500D02*
X176950250Y-104910500D01*
X178707150Y-103153600D02*
X177720750Y-104140000D01*
X166148000Y-91091000D02*
X167719000Y-89520000D01*
X197532000Y-89520000D02*
X198533000Y-88519000D01*
X176950250Y-104910500D02*
X177720750Y-104140000D01*
X197934600Y-103153600D02*
X178707150Y-103153600D01*
X167719000Y-89520000D02*
X197532000Y-89520000D01*
X198159000Y-103378000D02*
X197934600Y-103153600D01*
X125476000Y-105791000D02*
X120015000Y-100330000D01*
X125476000Y-119253000D02*
X125476000Y-105791000D01*
X112898000Y-94194000D02*
X122595000Y-94194000D01*
X122595000Y-94194000D02*
X123317000Y-93472000D01*
X112173000Y-81026000D02*
X122238000Y-91091000D01*
X122238000Y-91091000D02*
X154148000Y-91091000D01*
X131248400Y-81026000D02*
X131248400Y-81701000D01*
X131248400Y-81026000D02*
X137852400Y-87630000D01*
X137852400Y-87630000D02*
X152687000Y-87630000D01*
X152687000Y-87630000D02*
X156148000Y-91091000D01*
X150323800Y-83266800D02*
X158148000Y-91091000D01*
X150323800Y-81026000D02*
X150323800Y-83266800D01*
X126238000Y-43942000D02*
X126238000Y-50673000D01*
X133477000Y-93472000D02*
X133477000Y-106680000D01*
X133477000Y-106680000D02*
X138684000Y-111887000D01*
X153829000Y-111887000D02*
X160771000Y-118829000D01*
X147193000Y-52832000D02*
X167005000Y-52832000D01*
X113525300Y-38366700D02*
X107950000Y-43942000D01*
X164211000Y-111887000D02*
X210693000Y-111887000D01*
X210693000Y-111887000D02*
X216281000Y-106299000D01*
X169545000Y-38366700D02*
X163207700Y-44704000D01*
X110871000Y-52832000D02*
X128397000Y-52832000D01*
X126250700Y-43942000D02*
X126238000Y-43942000D01*
X167005000Y-52832000D02*
X184404000Y-52832000D01*
X126238000Y-50673000D02*
X128397000Y-52832000D01*
X160771000Y-115327000D02*
X164211000Y-111887000D01*
X181483000Y-43192700D02*
X181483000Y-49911000D01*
X107950000Y-49911000D02*
X110871000Y-52832000D01*
X116078000Y-38366700D02*
X113525300Y-38366700D01*
X160771000Y-118829000D02*
X160771000Y-115327000D01*
X181483000Y-49911000D02*
X184404000Y-52832000D01*
X163195000Y-49022000D02*
X167005000Y-52832000D01*
X150495000Y-38366700D02*
X144653000Y-44208700D01*
X199517000Y-49784000D02*
X202565000Y-52832000D01*
X199517000Y-43573700D02*
X199517000Y-49784000D01*
X210185000Y-52832000D02*
X216281000Y-58928000D01*
X163207700Y-44704000D02*
X163195000Y-44704000D01*
X163195000Y-44704000D02*
X163195000Y-49022000D01*
X128397000Y-52832000D02*
X147193000Y-52832000D01*
X144653000Y-44208700D02*
X144653000Y-50292000D01*
X216281000Y-58928000D02*
X216281000Y-106299000D01*
X144653000Y-50292000D02*
X147193000Y-52832000D01*
X107950000Y-43942000D02*
X107950000Y-49911000D01*
X186309000Y-38366700D02*
X181483000Y-43192700D01*
X131826000Y-38366700D02*
X126250700Y-43942000D01*
X202565000Y-52832000D02*
X210185000Y-52832000D01*
X184404000Y-52832000D02*
X202565000Y-52832000D01*
X204724000Y-38366700D02*
X199517000Y-43573700D01*
X111365000Y-112795000D02*
X111365000Y-124079000D01*
X116210000Y-107950000D02*
X120015000Y-107950000D01*
X107315000Y-124079000D02*
X111365000Y-124079000D01*
X111365000Y-112795000D02*
X116210000Y-107950000D01*
X177378000Y-139829000D02*
X177378000Y-134493000D01*
X177378000Y-134493000D02*
X186649000Y-125222000D01*
X169399200Y-81839800D02*
X160148000Y-91091000D01*
X169399200Y-81026000D02*
X169399200Y-81839800D01*
X188468000Y-81026000D02*
X182372000Y-87122000D01*
X182245000Y-86995000D02*
X166244000Y-86995000D01*
X182372000Y-87122000D02*
X182245000Y-86995000D01*
X188474600Y-81026000D02*
X188468000Y-81026000D01*
X166244000Y-86995000D02*
X162148000Y-91091000D01*
X207550000Y-81026000D02*
X197104000Y-81026000D01*
X166593000Y-88646000D02*
X164148000Y-91091000D01*
X197104000Y-81026000D02*
X189484000Y-88646000D01*
X189484000Y-88646000D02*
X166593000Y-88646000D01*
X197961000Y-91091000D02*
X200533000Y-88519000D01*
X168148000Y-91091000D02*
X197961000Y-91091000D01*
X112687100Y-31584900D02*
X105847000Y-38425000D01*
X111365000Y-136257000D02*
X115697000Y-140589000D01*
X105847000Y-38425000D02*
X105847000Y-132771000D01*
X111365000Y-134239000D02*
X107315000Y-134239000D01*
X111365000Y-134239000D02*
X111365000Y-136257000D01*
X118364000Y-32258000D02*
X118364000Y-31584900D01*
X118364000Y-31584900D02*
X134112000Y-31584900D01*
X105847000Y-132771000D02*
X107315000Y-134239000D01*
X134112000Y-31584900D02*
X152781000Y-31584900D01*
X188595000Y-31584900D02*
X207010000Y-31584900D01*
X152781000Y-31584900D02*
X171831000Y-31584900D01*
X115697000Y-140589000D02*
X125476000Y-140589000D01*
X118364000Y-31584900D02*
X112687100Y-31584900D01*
X171831000Y-31584900D02*
X188595000Y-31584900D01*
X204216000Y-60071000D02*
X196850000Y-67437000D01*
X196850000Y-67437000D02*
X196850000Y-72009000D01*
X185801000Y-60071000D02*
X185801000Y-66540400D01*
X185801000Y-66540400D02*
X180332400Y-72009000D01*
X169037000Y-66786800D02*
X163814800Y-72009000D01*
X169037000Y-60071000D02*
X169037000Y-66786800D01*
X149987000Y-69319201D02*
X147297201Y-72009000D01*
X149987000Y-60071000D02*
X149987000Y-69319201D01*
X131318000Y-71470601D02*
X130779601Y-72009000D01*
X131318000Y-60071000D02*
X131318000Y-71470601D01*
X115570000Y-60071000D02*
X115570000Y-70701001D01*
X115570000Y-70701001D02*
X114262001Y-72009000D01*
X209296000Y-38366700D02*
X209296000Y-44933000D01*
X209296000Y-44933000D02*
X211099000Y-46736000D01*
X190881000Y-44872000D02*
X192745000Y-46736000D01*
X190881000Y-38366700D02*
X190881000Y-44872000D01*
X174117000Y-46462000D02*
X174391000Y-46736000D01*
X174117000Y-38366700D02*
X174117000Y-46462000D01*
X147907000Y-45526700D02*
X147907000Y-46736000D01*
X155067000Y-38366700D02*
X147907000Y-45526700D01*
X136398000Y-39891000D02*
X129553000Y-46736000D01*
X136398000Y-38366700D02*
X136398000Y-39891000D01*
X112280700Y-46736000D02*
X111199000Y-46736000D01*
X120650000Y-38366700D02*
X112280700Y-46736000D01*
M02*
