M48
; DRILL file {KiCad 9.0.0} date 2025-03-26T20:46:49-0500
; FORMAT={-:-/ absolute / metric / decimal}
; #@! TF.CreationDate,2025-03-26T20:46:49-05:00
; #@! TF.GenerationSoftware,Kicad,Pcbnew,9.0.0
; #@! TF.FileFunction,Plated,1,2,PTH
FMAT,2
METRIC
; #@! TA.AperFunction,Plated,PTH,ComponentDrill
T1C0.600
; #@! TA.AperFunction,Plated,PTH,ComponentDrill
T2C0.800
; #@! TA.AperFunction,Plated,PTH,ComponentDrill
T3C0.813
; #@! TA.AperFunction,Plated,PTH,ComponentDrill
T4C0.900
; #@! TA.AperFunction,Plated,PTH,ComponentDrill
T5C1.143
; #@! TA.AperFunction,Plated,PTH,ComponentDrill
T6C1.200
; #@! TA.AperFunction,Plated,PTH,ComponentDrill
T7C1.219
; #@! TA.AperFunction,Plated,PTH,ComponentDrill
T8C1.300
; #@! TA.AperFunction,Plated,PTH,ComponentDrill
T9C1.700
; #@! TA.AperFunction,Plated,PTH,ComponentDrill
T10C3.800
; #@! TA.AperFunction,Plated,PTH,ComponentDrill
T11C4.500
%
G90
G05
T2
X107.315Y-124.079
X107.315Y-134.239
X111.365Y-124.079
X111.365Y-134.239
X112.173Y-81.026
X114.173Y-81.026
X114.262Y-72.009
X116.173Y-81.026
X123.317Y-93.472
X124.422Y-72.009
X130.78Y-72.009
X131.248Y-81.026
X133.248Y-81.026
X133.477Y-93.472
X135.248Y-81.026
X140.94Y-72.009
X147.297Y-72.009
X150.324Y-81.026
X152.324Y-81.026
X154.148Y-91.091
X154.148Y-93.091
X154.324Y-81.026
X156.148Y-91.091
X156.148Y-93.091
X157.457Y-72.009
X158.148Y-91.091
X158.148Y-93.091
X160.148Y-91.091
X160.148Y-93.091
X162.148Y-91.091
X162.148Y-93.091
X163.815Y-72.009
X164.148Y-91.091
X164.148Y-93.091
X166.148Y-91.091
X166.148Y-93.091
X168.148Y-91.091
X168.148Y-93.091
X169.399Y-81.026
X171.399Y-81.026
X173.399Y-81.026
X173.975Y-72.009
X180.332Y-72.009
X188.475Y-81.026
X190.475Y-81.026
X190.492Y-72.009
X192.475Y-81.026
X196.533Y-88.519
X196.85Y-72.009
X198.533Y-88.519
X200.533Y-88.519
X207.01Y-72.009
X207.55Y-81.026
X209.55Y-81.026
X211.55Y-81.026
T3
X146.336Y-104.14
X148.336Y-104.14
X177.721Y-104.14
X179.721Y-104.14
T4
X110.358Y-94.194
X112.898Y-94.194
T5
X160.274Y-103.759
X162.814Y-103.759
X165.354Y-103.759
T6
X119.126Y-129.921
X139.446Y-129.921
X197.358Y-133.477
X217.678Y-133.477
T7
X125.476Y-119.253
X125.476Y-140.589
X129.286Y-119.253
X129.286Y-140.589
X133.096Y-119.253
X133.096Y-140.589
X200.406Y-119.253
X204.216Y-119.253
X208.026Y-119.253
T8
X120.015Y-100.33
X120.015Y-107.95
X130.175Y-107.95
X137.795Y-107.95
T9
X111.199Y-46.736
X114.859Y-46.736
X115.57Y-60.071
X119.329Y-46.736
X119.53Y-60.071
X122.989Y-46.736
X129.553Y-46.736
X131.318Y-60.071
X133.213Y-46.736
X135.278Y-60.071
X137.683Y-46.736
X141.343Y-46.736
X147.907Y-46.736
X149.987Y-60.071
X151.567Y-46.736
X153.947Y-60.071
X156.037Y-46.736
X159.697Y-46.736
X166.261Y-46.736
X169.037Y-60.071
X169.921Y-46.736
X172.997Y-60.071
X174.391Y-46.736
X178.051Y-46.736
X184.615Y-46.736
X185.801Y-60.071
X188.275Y-46.736
X189.761Y-60.071
X192.745Y-46.736
X196.405Y-46.736
X202.969Y-46.736
X204.216Y-60.071
X206.629Y-46.736
X208.176Y-60.071
X211.099Y-46.736
X214.759Y-46.736
T10
X149.871Y-118.829
X160.771Y-118.829
X177.378Y-139.829
X188.278Y-139.829
T11
X198.159Y-103.378
X205.359Y-103.378
T1
X145.871Y-128.629G85X145.871Y-127.829
G05
X164.771Y-128.629G85X164.771Y-127.829
G05
X173.378Y-130.029G85X173.378Y-130.829
G05
X192.278Y-130.029G85X192.278Y-130.829
G05
M30
