%TF.GenerationSoftware,KiCad,Pcbnew,9.0.0*%
%TF.CreationDate,2025-03-26T11:50:40-05:00*%
%TF.ProjectId,SubCircuitV3,53756243-6972-4637-9569-7456332e6b69,rev?*%
%TF.SameCoordinates,Original*%
%TF.FileFunction,Drillmap*%
%TF.FilePolarity,Positive*%
%FSLAX45Y45*%
G04 Gerber Fmt 4.5, Leading zero omitted, Abs format (unit mm)*
G04 Created by KiCad (PCBNEW 9.0.0) date 2025-03-26 11:50:40*
%MOMM*%
%LPD*%
G01*
G04 APERTURE LIST*
%ADD10C,0.100000*%
%ADD11C,0.200000*%
%ADD12C,0.114300*%
%ADD13C,0.121920*%
%ADD14C,0.130000*%
%ADD15C,0.170000*%
%ADD16C,0.380000*%
%ADD17C,0.450000*%
G04 APERTURE END LIST*
D10*
X9969500Y-2552700D02*
X22110700Y-2552700D01*
X22110700Y-14668500D01*
X9969500Y-14668500D01*
X9969500Y-2552700D01*
D11*
D10*
X14557100Y-12792900D02*
X14617100Y-12852900D01*
X14617100Y-12792900D02*
X14557100Y-12852900D01*
X14617100Y-12862900D02*
X14617100Y-12782900D01*
X14557100Y-12782900D02*
G75*
G02*
X14617100Y-12782900I30000J0D01*
G01*
X14557100Y-12782900D02*
X14557100Y-12862900D01*
X14557100Y-12862900D02*
G75*
G03*
X14617100Y-12862900I30000J0D01*
G01*
X16447100Y-12792900D02*
X16507100Y-12852900D01*
X16507100Y-12792900D02*
X16447100Y-12852900D01*
X16507100Y-12862900D02*
X16507100Y-12782900D01*
X16447100Y-12782900D02*
G75*
G02*
X16507100Y-12782900I30000J0D01*
G01*
X16447100Y-12782900D02*
X16447100Y-12862900D01*
X16447100Y-12862900D02*
G75*
G03*
X16507100Y-12862900I30000J0D01*
G01*
X17307800Y-13012900D02*
X17367800Y-13072900D01*
X17367800Y-13012900D02*
X17307800Y-13072900D01*
X17307800Y-13002900D02*
X17307800Y-13082900D01*
X17367800Y-13082900D02*
G75*
G02*
X17307800Y-13082900I-30000J0D01*
G01*
X17367800Y-13082900D02*
X17367800Y-13002900D01*
X17367800Y-13002900D02*
G75*
G03*
X17307800Y-13002900I-30000J0D01*
G01*
X19197800Y-13012900D02*
X19257800Y-13072900D01*
X19257800Y-13012900D02*
X19197800Y-13072900D01*
X19197800Y-13002900D02*
X19197800Y-13082900D01*
X19257800Y-13082900D02*
G75*
G02*
X19197800Y-13082900I-30000J0D01*
G01*
X19257800Y-13082900D02*
X19257800Y-13002900D01*
X19257800Y-13002900D02*
G75*
G03*
X19197800Y-13002900I-30000J0D01*
G01*
X10771500Y-12407900D02*
G75*
G02*
X10691500Y-12407900I-40000J0D01*
G01*
X10691500Y-12407900D02*
G75*
G02*
X10771500Y-12407900I40000J0D01*
G01*
X10771500Y-13423900D02*
G75*
G02*
X10691500Y-13423900I-40000J0D01*
G01*
X10691500Y-13423900D02*
G75*
G02*
X10771500Y-13423900I40000J0D01*
G01*
X11176500Y-12407900D02*
G75*
G02*
X11096500Y-12407900I-40000J0D01*
G01*
X11096500Y-12407900D02*
G75*
G02*
X11176500Y-12407900I40000J0D01*
G01*
X11176500Y-13423900D02*
G75*
G02*
X11096500Y-13423900I-40000J0D01*
G01*
X11096500Y-13423900D02*
G75*
G02*
X11176500Y-13423900I40000J0D01*
G01*
X11257300Y-8102600D02*
G75*
G02*
X11177300Y-8102600I-40000J0D01*
G01*
X11177300Y-8102600D02*
G75*
G02*
X11257300Y-8102600I40000J0D01*
G01*
X11457300Y-8102600D02*
G75*
G02*
X11377300Y-8102600I-40000J0D01*
G01*
X11377300Y-8102600D02*
G75*
G02*
X11457300Y-8102600I40000J0D01*
G01*
X11466200Y-7200900D02*
G75*
G02*
X11386200Y-7200900I-40000J0D01*
G01*
X11386200Y-7200900D02*
G75*
G02*
X11466200Y-7200900I40000J0D01*
G01*
X11657300Y-8102600D02*
G75*
G02*
X11577300Y-8102600I-40000J0D01*
G01*
X11577300Y-8102600D02*
G75*
G02*
X11657300Y-8102600I40000J0D01*
G01*
X12371700Y-9347200D02*
G75*
G02*
X12291700Y-9347200I-40000J0D01*
G01*
X12291700Y-9347200D02*
G75*
G02*
X12371700Y-9347200I40000J0D01*
G01*
X12482200Y-7200900D02*
G75*
G02*
X12402200Y-7200900I-40000J0D01*
G01*
X12402200Y-7200900D02*
G75*
G02*
X12482200Y-7200900I40000J0D01*
G01*
X13117960Y-7200900D02*
G75*
G02*
X13037960Y-7200900I-40000J0D01*
G01*
X13037960Y-7200900D02*
G75*
G02*
X13117960Y-7200900I40000J0D01*
G01*
X13164840Y-8102600D02*
G75*
G02*
X13084840Y-8102600I-40000J0D01*
G01*
X13084840Y-8102600D02*
G75*
G02*
X13164840Y-8102600I40000J0D01*
G01*
X13364840Y-8102600D02*
G75*
G02*
X13284840Y-8102600I-40000J0D01*
G01*
X13284840Y-8102600D02*
G75*
G02*
X13364840Y-8102600I40000J0D01*
G01*
X13387700Y-9347200D02*
G75*
G02*
X13307700Y-9347200I-40000J0D01*
G01*
X13307700Y-9347200D02*
G75*
G02*
X13387700Y-9347200I40000J0D01*
G01*
X13564840Y-8102600D02*
G75*
G02*
X13484840Y-8102600I-40000J0D01*
G01*
X13484840Y-8102600D02*
G75*
G02*
X13564840Y-8102600I40000J0D01*
G01*
X14133960Y-7200900D02*
G75*
G02*
X14053960Y-7200900I-40000J0D01*
G01*
X14053960Y-7200900D02*
G75*
G02*
X14133960Y-7200900I40000J0D01*
G01*
X14769720Y-7200900D02*
G75*
G02*
X14689720Y-7200900I-40000J0D01*
G01*
X14689720Y-7200900D02*
G75*
G02*
X14769720Y-7200900I40000J0D01*
G01*
X15072380Y-8102600D02*
G75*
G02*
X14992380Y-8102600I-40000J0D01*
G01*
X14992380Y-8102600D02*
G75*
G02*
X15072380Y-8102600I40000J0D01*
G01*
X15272380Y-8102600D02*
G75*
G02*
X15192380Y-8102600I-40000J0D01*
G01*
X15192380Y-8102600D02*
G75*
G02*
X15272380Y-8102600I40000J0D01*
G01*
X15454800Y-9109100D02*
G75*
G02*
X15374800Y-9109100I-40000J0D01*
G01*
X15374800Y-9109100D02*
G75*
G02*
X15454800Y-9109100I40000J0D01*
G01*
X15454800Y-9309100D02*
G75*
G02*
X15374800Y-9309100I-40000J0D01*
G01*
X15374800Y-9309100D02*
G75*
G02*
X15454800Y-9309100I40000J0D01*
G01*
X15472380Y-8102600D02*
G75*
G02*
X15392380Y-8102600I-40000J0D01*
G01*
X15392380Y-8102600D02*
G75*
G02*
X15472380Y-8102600I40000J0D01*
G01*
X15654800Y-9109100D02*
G75*
G02*
X15574800Y-9109100I-40000J0D01*
G01*
X15574800Y-9109100D02*
G75*
G02*
X15654800Y-9109100I40000J0D01*
G01*
X15654800Y-9309100D02*
G75*
G02*
X15574800Y-9309100I-40000J0D01*
G01*
X15574800Y-9309100D02*
G75*
G02*
X15654800Y-9309100I40000J0D01*
G01*
X15785720Y-7200900D02*
G75*
G02*
X15705720Y-7200900I-40000J0D01*
G01*
X15705720Y-7200900D02*
G75*
G02*
X15785720Y-7200900I40000J0D01*
G01*
X15854800Y-9109100D02*
G75*
G02*
X15774800Y-9109100I-40000J0D01*
G01*
X15774800Y-9109100D02*
G75*
G02*
X15854800Y-9109100I40000J0D01*
G01*
X15854800Y-9309100D02*
G75*
G02*
X15774800Y-9309100I-40000J0D01*
G01*
X15774800Y-9309100D02*
G75*
G02*
X15854800Y-9309100I40000J0D01*
G01*
X16054800Y-9109100D02*
G75*
G02*
X15974800Y-9109100I-40000J0D01*
G01*
X15974800Y-9109100D02*
G75*
G02*
X16054800Y-9109100I40000J0D01*
G01*
X16054800Y-9309100D02*
G75*
G02*
X15974800Y-9309100I-40000J0D01*
G01*
X15974800Y-9309100D02*
G75*
G02*
X16054800Y-9309100I40000J0D01*
G01*
X16254800Y-9109100D02*
G75*
G02*
X16174800Y-9109100I-40000J0D01*
G01*
X16174800Y-9109100D02*
G75*
G02*
X16254800Y-9109100I40000J0D01*
G01*
X16254800Y-9309100D02*
G75*
G02*
X16174800Y-9309100I-40000J0D01*
G01*
X16174800Y-9309100D02*
G75*
G02*
X16254800Y-9309100I40000J0D01*
G01*
X16421480Y-7200900D02*
G75*
G02*
X16341480Y-7200900I-40000J0D01*
G01*
X16341480Y-7200900D02*
G75*
G02*
X16421480Y-7200900I40000J0D01*
G01*
X16454800Y-9109100D02*
G75*
G02*
X16374800Y-9109100I-40000J0D01*
G01*
X16374800Y-9109100D02*
G75*
G02*
X16454800Y-9109100I40000J0D01*
G01*
X16454800Y-9309100D02*
G75*
G02*
X16374800Y-9309100I-40000J0D01*
G01*
X16374800Y-9309100D02*
G75*
G02*
X16454800Y-9309100I40000J0D01*
G01*
X16654800Y-9109100D02*
G75*
G02*
X16574800Y-9109100I-40000J0D01*
G01*
X16574800Y-9109100D02*
G75*
G02*
X16654800Y-9109100I40000J0D01*
G01*
X16654800Y-9309100D02*
G75*
G02*
X16574800Y-9309100I-40000J0D01*
G01*
X16574800Y-9309100D02*
G75*
G02*
X16654800Y-9309100I40000J0D01*
G01*
X16854800Y-9109100D02*
G75*
G02*
X16774800Y-9109100I-40000J0D01*
G01*
X16774800Y-9109100D02*
G75*
G02*
X16854800Y-9109100I40000J0D01*
G01*
X16854800Y-9309100D02*
G75*
G02*
X16774800Y-9309100I-40000J0D01*
G01*
X16774800Y-9309100D02*
G75*
G02*
X16854800Y-9309100I40000J0D01*
G01*
X16979920Y-8102600D02*
G75*
G02*
X16899920Y-8102600I-40000J0D01*
G01*
X16899920Y-8102600D02*
G75*
G02*
X16979920Y-8102600I40000J0D01*
G01*
X17179920Y-8102600D02*
G75*
G02*
X17099920Y-8102600I-40000J0D01*
G01*
X17099920Y-8102600D02*
G75*
G02*
X17179920Y-8102600I40000J0D01*
G01*
X17379920Y-8102600D02*
G75*
G02*
X17299920Y-8102600I-40000J0D01*
G01*
X17299920Y-8102600D02*
G75*
G02*
X17379920Y-8102600I40000J0D01*
G01*
X17437480Y-7200900D02*
G75*
G02*
X17357480Y-7200900I-40000J0D01*
G01*
X17357480Y-7200900D02*
G75*
G02*
X17437480Y-7200900I40000J0D01*
G01*
X18073240Y-7200900D02*
G75*
G02*
X17993240Y-7200900I-40000J0D01*
G01*
X17993240Y-7200900D02*
G75*
G02*
X18073240Y-7200900I40000J0D01*
G01*
X18887460Y-8102600D02*
G75*
G02*
X18807460Y-8102600I-40000J0D01*
G01*
X18807460Y-8102600D02*
G75*
G02*
X18887460Y-8102600I40000J0D01*
G01*
X19087460Y-8102600D02*
G75*
G02*
X19007460Y-8102600I-40000J0D01*
G01*
X19007460Y-8102600D02*
G75*
G02*
X19087460Y-8102600I40000J0D01*
G01*
X19089240Y-7200900D02*
G75*
G02*
X19009240Y-7200900I-40000J0D01*
G01*
X19009240Y-7200900D02*
G75*
G02*
X19089240Y-7200900I40000J0D01*
G01*
X19287460Y-8102600D02*
G75*
G02*
X19207460Y-8102600I-40000J0D01*
G01*
X19207460Y-8102600D02*
G75*
G02*
X19287460Y-8102600I40000J0D01*
G01*
X19693300Y-8851900D02*
G75*
G02*
X19613300Y-8851900I-40000J0D01*
G01*
X19613300Y-8851900D02*
G75*
G02*
X19693300Y-8851900I40000J0D01*
G01*
X19725000Y-7200900D02*
G75*
G02*
X19645000Y-7200900I-40000J0D01*
G01*
X19645000Y-7200900D02*
G75*
G02*
X19725000Y-7200900I40000J0D01*
G01*
X19893300Y-8851900D02*
G75*
G02*
X19813300Y-8851900I-40000J0D01*
G01*
X19813300Y-8851900D02*
G75*
G02*
X19893300Y-8851900I40000J0D01*
G01*
X20093300Y-8851900D02*
G75*
G02*
X20013300Y-8851900I-40000J0D01*
G01*
X20013300Y-8851900D02*
G75*
G02*
X20093300Y-8851900I40000J0D01*
G01*
X20741000Y-7200900D02*
G75*
G02*
X20661000Y-7200900I-40000J0D01*
G01*
X20661000Y-7200900D02*
G75*
G02*
X20741000Y-7200900I40000J0D01*
G01*
X20795000Y-8102600D02*
G75*
G02*
X20715000Y-8102600I-40000J0D01*
G01*
X20715000Y-8102600D02*
G75*
G02*
X20795000Y-8102600I40000J0D01*
G01*
X20995000Y-8102600D02*
G75*
G02*
X20915000Y-8102600I-40000J0D01*
G01*
X20915000Y-8102600D02*
G75*
G02*
X20995000Y-8102600I40000J0D01*
G01*
X21195000Y-8102600D02*
G75*
G02*
X21115000Y-8102600I-40000J0D01*
G01*
X21115000Y-8102600D02*
G75*
G02*
X21195000Y-8102600I40000J0D01*
G01*
X14633600Y-10373360D02*
X14633600Y-10454640D01*
X14592960Y-10414000D02*
X14674240Y-10414000D01*
X14833600Y-10373360D02*
X14833600Y-10454640D01*
X14792960Y-10414000D02*
X14874240Y-10414000D01*
X17772075Y-10373360D02*
X17772075Y-10454640D01*
X17731435Y-10414000D02*
X17812715Y-10414000D01*
X17972075Y-10373360D02*
X17972075Y-10454640D01*
X17931435Y-10414000D02*
X18012715Y-10414000D01*
X11067620Y-9451220D02*
X11067620Y-9387580D01*
X11003980Y-9387580D01*
X11003980Y-9451220D01*
X11067620Y-9451220D01*
X11321620Y-9451220D02*
X11321620Y-9387580D01*
X11257980Y-9387580D01*
X11257980Y-9451220D01*
X11321620Y-9451220D01*
D12*
X16027400Y-10433050D02*
X16084550Y-10375900D01*
X16027400Y-10318750D01*
X15970250Y-10375900D01*
X16027400Y-10433050D01*
X16281400Y-10433050D02*
X16338550Y-10375900D01*
X16281400Y-10318750D01*
X16224250Y-10375900D01*
X16281400Y-10433050D01*
X16535400Y-10433050D02*
X16592550Y-10375900D01*
X16535400Y-10318750D01*
X16478250Y-10375900D01*
X16535400Y-10433050D01*
D13*
X12486640Y-11864340D02*
X12608560Y-11986260D01*
X12608560Y-11864340D02*
X12486640Y-11986260D01*
X12608560Y-11925300D02*
G75*
G02*
X12486640Y-11925300I-60960J0D01*
G01*
X12486640Y-11925300D02*
G75*
G02*
X12608560Y-11925300I60960J0D01*
G01*
X12486640Y-13997940D02*
X12608560Y-14119860D01*
X12608560Y-13997940D02*
X12486640Y-14119860D01*
X12608560Y-14058900D02*
G75*
G02*
X12486640Y-14058900I-60960J0D01*
G01*
X12486640Y-14058900D02*
G75*
G02*
X12608560Y-14058900I60960J0D01*
G01*
X12867640Y-11864340D02*
X12989560Y-11986260D01*
X12989560Y-11864340D02*
X12867640Y-11986260D01*
X12989560Y-11925300D02*
G75*
G02*
X12867640Y-11925300I-60960J0D01*
G01*
X12867640Y-11925300D02*
G75*
G02*
X12989560Y-11925300I60960J0D01*
G01*
X12867640Y-13997940D02*
X12989560Y-14119860D01*
X12989560Y-13997940D02*
X12867640Y-14119860D01*
X12989560Y-14058900D02*
G75*
G02*
X12867640Y-14058900I-60960J0D01*
G01*
X12867640Y-14058900D02*
G75*
G02*
X12989560Y-14058900I60960J0D01*
G01*
X13248640Y-11864340D02*
X13370560Y-11986260D01*
X13370560Y-11864340D02*
X13248640Y-11986260D01*
X13370560Y-11925300D02*
G75*
G02*
X13248640Y-11925300I-60960J0D01*
G01*
X13248640Y-11925300D02*
G75*
G02*
X13370560Y-11925300I60960J0D01*
G01*
X13248640Y-13997940D02*
X13370560Y-14119860D01*
X13370560Y-13997940D02*
X13248640Y-14119860D01*
X13370560Y-14058900D02*
G75*
G02*
X13248640Y-14058900I-60960J0D01*
G01*
X13248640Y-14058900D02*
G75*
G02*
X13370560Y-14058900I60960J0D01*
G01*
X19979640Y-11864340D02*
X20101560Y-11986260D01*
X20101560Y-11864340D02*
X19979640Y-11986260D01*
X20101560Y-11925300D02*
G75*
G02*
X19979640Y-11925300I-60960J0D01*
G01*
X19979640Y-11925300D02*
G75*
G02*
X20101560Y-11925300I60960J0D01*
G01*
X20360640Y-11864340D02*
X20482560Y-11986260D01*
X20482560Y-11864340D02*
X20360640Y-11986260D01*
X20482560Y-11925300D02*
G75*
G02*
X20360640Y-11925300I-60960J0D01*
G01*
X20360640Y-11925300D02*
G75*
G02*
X20482560Y-11925300I60960J0D01*
G01*
X20741640Y-11864340D02*
X20863560Y-11986260D01*
X20863560Y-11864340D02*
X20741640Y-11986260D01*
X20863560Y-11925300D02*
G75*
G02*
X20741640Y-11925300I-60960J0D01*
G01*
X20741640Y-11925300D02*
G75*
G02*
X20863560Y-11925300I60960J0D01*
G01*
D14*
X11936500Y-9968000D02*
X12066500Y-10098000D01*
X12066500Y-9968000D02*
X11936500Y-10098000D01*
X12001500Y-9968000D02*
X12001500Y-10098000D01*
X11936500Y-10033000D02*
X12066500Y-10033000D01*
X11936500Y-10730000D02*
X12066500Y-10860000D01*
X12066500Y-10730000D02*
X11936500Y-10860000D01*
X12001500Y-10730000D02*
X12001500Y-10860000D01*
X11936500Y-10795000D02*
X12066500Y-10795000D01*
X12952500Y-10730000D02*
X13082500Y-10860000D01*
X13082500Y-10730000D02*
X12952500Y-10860000D01*
X13017500Y-10730000D02*
X13017500Y-10860000D01*
X12952500Y-10795000D02*
X13082500Y-10795000D01*
X13714500Y-10730000D02*
X13844500Y-10860000D01*
X13844500Y-10730000D02*
X13714500Y-10860000D01*
X13779500Y-10730000D02*
X13779500Y-10860000D01*
X13714500Y-10795000D02*
X13844500Y-10795000D01*
D15*
X11034900Y-4588600D02*
X11204900Y-4758600D01*
X11204900Y-4588600D02*
X11034900Y-4758600D01*
X11180005Y-4733705D02*
X11180005Y-4613495D01*
X11059795Y-4613495D01*
X11059795Y-4733705D01*
X11180005Y-4733705D01*
X11400900Y-4588600D02*
X11570900Y-4758600D01*
X11570900Y-4588600D02*
X11400900Y-4758600D01*
X11546005Y-4733705D02*
X11546005Y-4613495D01*
X11425795Y-4613495D01*
X11425795Y-4733705D01*
X11546005Y-4733705D01*
X11472000Y-5922100D02*
X11642000Y-6092100D01*
X11642000Y-5922100D02*
X11472000Y-6092100D01*
X11617105Y-6067205D02*
X11617105Y-5946995D01*
X11496895Y-5946995D01*
X11496895Y-6067205D01*
X11617105Y-6067205D01*
X11847900Y-4588600D02*
X12017900Y-4758600D01*
X12017900Y-4588600D02*
X11847900Y-4758600D01*
X11993005Y-4733705D02*
X11993005Y-4613495D01*
X11872795Y-4613495D01*
X11872795Y-4733705D01*
X11993005Y-4733705D01*
X11868000Y-5922100D02*
X12038000Y-6092100D01*
X12038000Y-5922100D02*
X11868000Y-6092100D01*
X12013105Y-6067205D02*
X12013105Y-5946995D01*
X11892895Y-5946995D01*
X11892895Y-6067205D01*
X12013105Y-6067205D01*
X12213900Y-4588600D02*
X12383900Y-4758600D01*
X12383900Y-4588600D02*
X12213900Y-4758600D01*
X12359005Y-4733705D02*
X12359005Y-4613495D01*
X12238795Y-4613495D01*
X12238795Y-4733705D01*
X12359005Y-4733705D01*
X12870300Y-4588600D02*
X13040300Y-4758600D01*
X13040300Y-4588600D02*
X12870300Y-4758600D01*
X13015405Y-4733705D02*
X13015405Y-4613495D01*
X12895195Y-4613495D01*
X12895195Y-4733705D01*
X13015405Y-4733705D01*
X13046800Y-5922100D02*
X13216800Y-6092100D01*
X13216800Y-5922100D02*
X13046800Y-6092100D01*
X13191905Y-6067205D02*
X13191905Y-5946995D01*
X13071695Y-5946995D01*
X13071695Y-6067205D01*
X13191905Y-6067205D01*
X13236300Y-4588600D02*
X13406300Y-4758600D01*
X13406300Y-4588600D02*
X13236300Y-4758600D01*
X13381405Y-4733705D02*
X13381405Y-4613495D01*
X13261195Y-4613495D01*
X13261195Y-4733705D01*
X13381405Y-4733705D01*
X13442800Y-5922100D02*
X13612800Y-6092100D01*
X13612800Y-5922100D02*
X13442800Y-6092100D01*
X13587905Y-6067205D02*
X13587905Y-5946995D01*
X13467695Y-5946995D01*
X13467695Y-6067205D01*
X13587905Y-6067205D01*
X13683300Y-4588600D02*
X13853300Y-4758600D01*
X13853300Y-4588600D02*
X13683300Y-4758600D01*
X13828405Y-4733705D02*
X13828405Y-4613495D01*
X13708195Y-4613495D01*
X13708195Y-4733705D01*
X13828405Y-4733705D01*
X14049300Y-4588600D02*
X14219300Y-4758600D01*
X14219300Y-4588600D02*
X14049300Y-4758600D01*
X14194405Y-4733705D02*
X14194405Y-4613495D01*
X14074195Y-4613495D01*
X14074195Y-4733705D01*
X14194405Y-4733705D01*
X14705700Y-4588600D02*
X14875700Y-4758600D01*
X14875700Y-4588600D02*
X14705700Y-4758600D01*
X14850805Y-4733705D02*
X14850805Y-4613495D01*
X14730595Y-4613495D01*
X14730595Y-4733705D01*
X14850805Y-4733705D01*
X14913700Y-5922100D02*
X15083700Y-6092100D01*
X15083700Y-5922100D02*
X14913700Y-6092100D01*
X15058805Y-6067205D02*
X15058805Y-5946995D01*
X14938595Y-5946995D01*
X14938595Y-6067205D01*
X15058805Y-6067205D01*
X15071700Y-4588600D02*
X15241700Y-4758600D01*
X15241700Y-4588600D02*
X15071700Y-4758600D01*
X15216805Y-4733705D02*
X15216805Y-4613495D01*
X15096595Y-4613495D01*
X15096595Y-4733705D01*
X15216805Y-4733705D01*
X15309700Y-5922100D02*
X15479700Y-6092100D01*
X15479700Y-5922100D02*
X15309700Y-6092100D01*
X15454805Y-6067205D02*
X15454805Y-5946995D01*
X15334595Y-5946995D01*
X15334595Y-6067205D01*
X15454805Y-6067205D01*
X15518700Y-4588600D02*
X15688700Y-4758600D01*
X15688700Y-4588600D02*
X15518700Y-4758600D01*
X15663805Y-4733705D02*
X15663805Y-4613495D01*
X15543595Y-4613495D01*
X15543595Y-4733705D01*
X15663805Y-4733705D01*
X15884700Y-4588600D02*
X16054700Y-4758600D01*
X16054700Y-4588600D02*
X15884700Y-4758600D01*
X16029805Y-4733705D02*
X16029805Y-4613495D01*
X15909595Y-4613495D01*
X15909595Y-4733705D01*
X16029805Y-4733705D01*
X16541100Y-4588600D02*
X16711100Y-4758600D01*
X16711100Y-4588600D02*
X16541100Y-4758600D01*
X16686205Y-4733705D02*
X16686205Y-4613495D01*
X16565995Y-4613495D01*
X16565995Y-4733705D01*
X16686205Y-4733705D01*
X16818700Y-5922100D02*
X16988700Y-6092100D01*
X16988700Y-5922100D02*
X16818700Y-6092100D01*
X16963805Y-6067205D02*
X16963805Y-5946995D01*
X16843595Y-5946995D01*
X16843595Y-6067205D01*
X16963805Y-6067205D01*
X16907100Y-4588600D02*
X17077100Y-4758600D01*
X17077100Y-4588600D02*
X16907100Y-4758600D01*
X17052205Y-4733705D02*
X17052205Y-4613495D01*
X16931995Y-4613495D01*
X16931995Y-4733705D01*
X17052205Y-4733705D01*
X17214700Y-5922100D02*
X17384700Y-6092100D01*
X17384700Y-5922100D02*
X17214700Y-6092100D01*
X17359805Y-6067205D02*
X17359805Y-5946995D01*
X17239595Y-5946995D01*
X17239595Y-6067205D01*
X17359805Y-6067205D01*
X17354100Y-4588600D02*
X17524100Y-4758600D01*
X17524100Y-4588600D02*
X17354100Y-4758600D01*
X17499205Y-4733705D02*
X17499205Y-4613495D01*
X17378995Y-4613495D01*
X17378995Y-4733705D01*
X17499205Y-4733705D01*
X17720100Y-4588600D02*
X17890100Y-4758600D01*
X17890100Y-4588600D02*
X17720100Y-4758600D01*
X17865205Y-4733705D02*
X17865205Y-4613495D01*
X17744995Y-4613495D01*
X17744995Y-4733705D01*
X17865205Y-4733705D01*
X18376500Y-4588600D02*
X18546500Y-4758600D01*
X18546500Y-4588600D02*
X18376500Y-4758600D01*
X18521605Y-4733705D02*
X18521605Y-4613495D01*
X18401395Y-4613495D01*
X18401395Y-4733705D01*
X18521605Y-4733705D01*
X18495100Y-5922100D02*
X18665100Y-6092100D01*
X18665100Y-5922100D02*
X18495100Y-6092100D01*
X18640205Y-6067205D02*
X18640205Y-5946995D01*
X18519995Y-5946995D01*
X18519995Y-6067205D01*
X18640205Y-6067205D01*
X18742500Y-4588600D02*
X18912500Y-4758600D01*
X18912500Y-4588600D02*
X18742500Y-4758600D01*
X18887605Y-4733705D02*
X18887605Y-4613495D01*
X18767395Y-4613495D01*
X18767395Y-4733705D01*
X18887605Y-4733705D01*
X18891100Y-5922100D02*
X19061100Y-6092100D01*
X19061100Y-5922100D02*
X18891100Y-6092100D01*
X19036205Y-6067205D02*
X19036205Y-5946995D01*
X18915995Y-5946995D01*
X18915995Y-6067205D01*
X19036205Y-6067205D01*
X19189500Y-4588600D02*
X19359500Y-4758600D01*
X19359500Y-4588600D02*
X19189500Y-4758600D01*
X19334605Y-4733705D02*
X19334605Y-4613495D01*
X19214395Y-4613495D01*
X19214395Y-4733705D01*
X19334605Y-4733705D01*
X19555500Y-4588600D02*
X19725500Y-4758600D01*
X19725500Y-4588600D02*
X19555500Y-4758600D01*
X19700605Y-4733705D02*
X19700605Y-4613495D01*
X19580395Y-4613495D01*
X19580395Y-4733705D01*
X19700605Y-4733705D01*
X20211900Y-4588600D02*
X20381900Y-4758600D01*
X20381900Y-4588600D02*
X20211900Y-4758600D01*
X20357005Y-4733705D02*
X20357005Y-4613495D01*
X20236795Y-4613495D01*
X20236795Y-4733705D01*
X20357005Y-4733705D01*
X20336600Y-5922100D02*
X20506600Y-6092100D01*
X20506600Y-5922100D02*
X20336600Y-6092100D01*
X20481705Y-6067205D02*
X20481705Y-5946995D01*
X20361495Y-5946995D01*
X20361495Y-6067205D01*
X20481705Y-6067205D01*
X20577900Y-4588600D02*
X20747900Y-4758600D01*
X20747900Y-4588600D02*
X20577900Y-4758600D01*
X20723005Y-4733705D02*
X20723005Y-4613495D01*
X20602795Y-4613495D01*
X20602795Y-4733705D01*
X20723005Y-4733705D01*
X20732600Y-5922100D02*
X20902600Y-6092100D01*
X20902600Y-5922100D02*
X20732600Y-6092100D01*
X20877705Y-6067205D02*
X20877705Y-5946995D01*
X20757495Y-5946995D01*
X20757495Y-6067205D01*
X20877705Y-6067205D01*
X21024900Y-4588600D02*
X21194900Y-4758600D01*
X21194900Y-4588600D02*
X21024900Y-4758600D01*
X21170005Y-4733705D02*
X21170005Y-4613495D01*
X21049795Y-4613495D01*
X21049795Y-4733705D01*
X21170005Y-4733705D01*
X21390900Y-4588600D02*
X21560900Y-4758600D01*
X21560900Y-4588600D02*
X21390900Y-4758600D01*
X21536005Y-4733705D02*
X21536005Y-4613495D01*
X21415795Y-4613495D01*
X21415795Y-4733705D01*
X21536005Y-4733705D01*
D16*
X14797100Y-11692900D02*
X15177100Y-12072900D01*
X15177100Y-11692900D02*
X14797100Y-12072900D01*
X14987100Y-12072900D02*
X15177100Y-11882900D01*
X14987100Y-11692900D01*
X14797100Y-11882900D01*
X14987100Y-12072900D01*
X15887100Y-11692900D02*
X16267100Y-12072900D01*
X16267100Y-11692900D02*
X15887100Y-12072900D01*
X16077100Y-12072900D02*
X16267100Y-11882900D01*
X16077100Y-11692900D01*
X15887100Y-11882900D01*
X16077100Y-12072900D01*
X17547800Y-13792900D02*
X17927800Y-14172900D01*
X17927800Y-13792900D02*
X17547800Y-14172900D01*
X17737800Y-14172900D02*
X17927800Y-13982900D01*
X17737800Y-13792900D01*
X17547800Y-13982900D01*
X17737800Y-14172900D01*
X18637800Y-13792900D02*
X19017800Y-14172900D01*
X19017800Y-13792900D02*
X18637800Y-14172900D01*
X18827800Y-14172900D02*
X19017800Y-13982900D01*
X18827800Y-13792900D01*
X18637800Y-13982900D01*
X18827800Y-14172900D01*
D17*
X19815900Y-10112800D02*
X19815900Y-10562800D01*
X19590900Y-10337800D02*
X20040900Y-10337800D01*
X20040900Y-10337800D02*
G75*
G02*
X19590900Y-10337800I-225000J0D01*
G01*
X19590900Y-10337800D02*
G75*
G02*
X20040900Y-10337800I225000J0D01*
G01*
X20535900Y-10112800D02*
X20535900Y-10562800D01*
X20310900Y-10337800D02*
X20760900Y-10337800D01*
X20760900Y-10337800D02*
G75*
G02*
X20310900Y-10337800I-225000J0D01*
G01*
X20310900Y-10337800D02*
G75*
G02*
X20760900Y-10337800I225000J0D01*
G01*
D11*
X10225277Y-14984984D02*
X10225277Y-14784984D01*
X10225277Y-14784984D02*
X10272896Y-14784984D01*
X10272896Y-14784984D02*
X10301467Y-14794508D01*
X10301467Y-14794508D02*
X10320515Y-14813555D01*
X10320515Y-14813555D02*
X10330039Y-14832603D01*
X10330039Y-14832603D02*
X10339563Y-14870698D01*
X10339563Y-14870698D02*
X10339563Y-14899269D01*
X10339563Y-14899269D02*
X10330039Y-14937365D01*
X10330039Y-14937365D02*
X10320515Y-14956412D01*
X10320515Y-14956412D02*
X10301467Y-14975460D01*
X10301467Y-14975460D02*
X10272896Y-14984984D01*
X10272896Y-14984984D02*
X10225277Y-14984984D01*
X10425277Y-14984984D02*
X10425277Y-14851650D01*
X10425277Y-14889746D02*
X10434801Y-14870698D01*
X10434801Y-14870698D02*
X10444324Y-14861174D01*
X10444324Y-14861174D02*
X10463372Y-14851650D01*
X10463372Y-14851650D02*
X10482420Y-14851650D01*
X10549086Y-14984984D02*
X10549086Y-14851650D01*
X10549086Y-14784984D02*
X10539563Y-14794508D01*
X10539563Y-14794508D02*
X10549086Y-14804031D01*
X10549086Y-14804031D02*
X10558610Y-14794508D01*
X10558610Y-14794508D02*
X10549086Y-14784984D01*
X10549086Y-14784984D02*
X10549086Y-14804031D01*
X10672896Y-14984984D02*
X10653848Y-14975460D01*
X10653848Y-14975460D02*
X10644324Y-14956412D01*
X10644324Y-14956412D02*
X10644324Y-14784984D01*
X10777658Y-14984984D02*
X10758610Y-14975460D01*
X10758610Y-14975460D02*
X10749086Y-14956412D01*
X10749086Y-14956412D02*
X10749086Y-14784984D01*
X11006229Y-14984984D02*
X11006229Y-14784984D01*
X11006229Y-14784984D02*
X11072896Y-14927841D01*
X11072896Y-14927841D02*
X11139563Y-14784984D01*
X11139563Y-14784984D02*
X11139563Y-14984984D01*
X11320515Y-14984984D02*
X11320515Y-14880222D01*
X11320515Y-14880222D02*
X11310991Y-14861174D01*
X11310991Y-14861174D02*
X11291943Y-14851650D01*
X11291943Y-14851650D02*
X11253848Y-14851650D01*
X11253848Y-14851650D02*
X11234801Y-14861174D01*
X11320515Y-14975460D02*
X11301467Y-14984984D01*
X11301467Y-14984984D02*
X11253848Y-14984984D01*
X11253848Y-14984984D02*
X11234801Y-14975460D01*
X11234801Y-14975460D02*
X11225277Y-14956412D01*
X11225277Y-14956412D02*
X11225277Y-14937365D01*
X11225277Y-14937365D02*
X11234801Y-14918317D01*
X11234801Y-14918317D02*
X11253848Y-14908793D01*
X11253848Y-14908793D02*
X11301467Y-14908793D01*
X11301467Y-14908793D02*
X11320515Y-14899269D01*
X11415753Y-14851650D02*
X11415753Y-15051650D01*
X11415753Y-14861174D02*
X11434801Y-14851650D01*
X11434801Y-14851650D02*
X11472896Y-14851650D01*
X11472896Y-14851650D02*
X11491943Y-14861174D01*
X11491943Y-14861174D02*
X11501467Y-14870698D01*
X11501467Y-14870698D02*
X11510991Y-14889746D01*
X11510991Y-14889746D02*
X11510991Y-14946888D01*
X11510991Y-14946888D02*
X11501467Y-14965936D01*
X11501467Y-14965936D02*
X11491943Y-14975460D01*
X11491943Y-14975460D02*
X11472896Y-14984984D01*
X11472896Y-14984984D02*
X11434801Y-14984984D01*
X11434801Y-14984984D02*
X11415753Y-14975460D01*
X11596705Y-14965936D02*
X11606229Y-14975460D01*
X11606229Y-14975460D02*
X11596705Y-14984984D01*
X11596705Y-14984984D02*
X11587182Y-14975460D01*
X11587182Y-14975460D02*
X11596705Y-14965936D01*
X11596705Y-14965936D02*
X11596705Y-14984984D01*
X11596705Y-14861174D02*
X11606229Y-14870698D01*
X11606229Y-14870698D02*
X11596705Y-14880222D01*
X11596705Y-14880222D02*
X11587182Y-14870698D01*
X11587182Y-14870698D02*
X11596705Y-14861174D01*
X11596705Y-14861174D02*
X11596705Y-14880222D01*
D10*
X9904500Y-15283500D02*
X9964500Y-15343500D01*
X9964500Y-15283500D02*
X9904500Y-15343500D01*
D11*
X10263372Y-15204984D02*
X10282420Y-15204984D01*
X10282420Y-15204984D02*
X10301467Y-15214508D01*
X10301467Y-15214508D02*
X10310991Y-15224031D01*
X10310991Y-15224031D02*
X10320515Y-15243079D01*
X10320515Y-15243079D02*
X10330039Y-15281174D01*
X10330039Y-15281174D02*
X10330039Y-15328793D01*
X10330039Y-15328793D02*
X10320515Y-15366888D01*
X10320515Y-15366888D02*
X10310991Y-15385936D01*
X10310991Y-15385936D02*
X10301467Y-15395460D01*
X10301467Y-15395460D02*
X10282420Y-15404984D01*
X10282420Y-15404984D02*
X10263372Y-15404984D01*
X10263372Y-15404984D02*
X10244324Y-15395460D01*
X10244324Y-15395460D02*
X10234801Y-15385936D01*
X10234801Y-15385936D02*
X10225277Y-15366888D01*
X10225277Y-15366888D02*
X10215753Y-15328793D01*
X10215753Y-15328793D02*
X10215753Y-15281174D01*
X10215753Y-15281174D02*
X10225277Y-15243079D01*
X10225277Y-15243079D02*
X10234801Y-15224031D01*
X10234801Y-15224031D02*
X10244324Y-15214508D01*
X10244324Y-15214508D02*
X10263372Y-15204984D01*
X10415753Y-15385936D02*
X10425277Y-15395460D01*
X10425277Y-15395460D02*
X10415753Y-15404984D01*
X10415753Y-15404984D02*
X10406229Y-15395460D01*
X10406229Y-15395460D02*
X10415753Y-15385936D01*
X10415753Y-15385936D02*
X10415753Y-15404984D01*
X10596705Y-15204984D02*
X10558610Y-15204984D01*
X10558610Y-15204984D02*
X10539563Y-15214508D01*
X10539563Y-15214508D02*
X10530039Y-15224031D01*
X10530039Y-15224031D02*
X10510991Y-15252603D01*
X10510991Y-15252603D02*
X10501467Y-15290698D01*
X10501467Y-15290698D02*
X10501467Y-15366888D01*
X10501467Y-15366888D02*
X10510991Y-15385936D01*
X10510991Y-15385936D02*
X10520515Y-15395460D01*
X10520515Y-15395460D02*
X10539563Y-15404984D01*
X10539563Y-15404984D02*
X10577658Y-15404984D01*
X10577658Y-15404984D02*
X10596705Y-15395460D01*
X10596705Y-15395460D02*
X10606229Y-15385936D01*
X10606229Y-15385936D02*
X10615753Y-15366888D01*
X10615753Y-15366888D02*
X10615753Y-15319269D01*
X10615753Y-15319269D02*
X10606229Y-15300222D01*
X10606229Y-15300222D02*
X10596705Y-15290698D01*
X10596705Y-15290698D02*
X10577658Y-15281174D01*
X10577658Y-15281174D02*
X10539563Y-15281174D01*
X10539563Y-15281174D02*
X10520515Y-15290698D01*
X10520515Y-15290698D02*
X10510991Y-15300222D01*
X10510991Y-15300222D02*
X10501467Y-15319269D01*
X10739563Y-15204984D02*
X10758610Y-15204984D01*
X10758610Y-15204984D02*
X10777658Y-15214508D01*
X10777658Y-15214508D02*
X10787182Y-15224031D01*
X10787182Y-15224031D02*
X10796705Y-15243079D01*
X10796705Y-15243079D02*
X10806229Y-15281174D01*
X10806229Y-15281174D02*
X10806229Y-15328793D01*
X10806229Y-15328793D02*
X10796705Y-15366888D01*
X10796705Y-15366888D02*
X10787182Y-15385936D01*
X10787182Y-15385936D02*
X10777658Y-15395460D01*
X10777658Y-15395460D02*
X10758610Y-15404984D01*
X10758610Y-15404984D02*
X10739563Y-15404984D01*
X10739563Y-15404984D02*
X10720515Y-15395460D01*
X10720515Y-15395460D02*
X10710991Y-15385936D01*
X10710991Y-15385936D02*
X10701467Y-15366888D01*
X10701467Y-15366888D02*
X10691944Y-15328793D01*
X10691944Y-15328793D02*
X10691944Y-15281174D01*
X10691944Y-15281174D02*
X10701467Y-15243079D01*
X10701467Y-15243079D02*
X10710991Y-15224031D01*
X10710991Y-15224031D02*
X10720515Y-15214508D01*
X10720515Y-15214508D02*
X10739563Y-15204984D01*
X10930039Y-15204984D02*
X10949086Y-15204984D01*
X10949086Y-15204984D02*
X10968134Y-15214508D01*
X10968134Y-15214508D02*
X10977658Y-15224031D01*
X10977658Y-15224031D02*
X10987182Y-15243079D01*
X10987182Y-15243079D02*
X10996705Y-15281174D01*
X10996705Y-15281174D02*
X10996705Y-15328793D01*
X10996705Y-15328793D02*
X10987182Y-15366888D01*
X10987182Y-15366888D02*
X10977658Y-15385936D01*
X10977658Y-15385936D02*
X10968134Y-15395460D01*
X10968134Y-15395460D02*
X10949086Y-15404984D01*
X10949086Y-15404984D02*
X10930039Y-15404984D01*
X10930039Y-15404984D02*
X10910991Y-15395460D01*
X10910991Y-15395460D02*
X10901467Y-15385936D01*
X10901467Y-15385936D02*
X10891944Y-15366888D01*
X10891944Y-15366888D02*
X10882420Y-15328793D01*
X10882420Y-15328793D02*
X10882420Y-15281174D01*
X10882420Y-15281174D02*
X10891944Y-15243079D01*
X10891944Y-15243079D02*
X10901467Y-15224031D01*
X10901467Y-15224031D02*
X10910991Y-15214508D01*
X10910991Y-15214508D02*
X10930039Y-15204984D01*
X11082420Y-15404984D02*
X11082420Y-15271650D01*
X11082420Y-15290698D02*
X11091944Y-15281174D01*
X11091944Y-15281174D02*
X11110991Y-15271650D01*
X11110991Y-15271650D02*
X11139563Y-15271650D01*
X11139563Y-15271650D02*
X11158610Y-15281174D01*
X11158610Y-15281174D02*
X11168134Y-15300222D01*
X11168134Y-15300222D02*
X11168134Y-15404984D01*
X11168134Y-15300222D02*
X11177658Y-15281174D01*
X11177658Y-15281174D02*
X11196705Y-15271650D01*
X11196705Y-15271650D02*
X11225277Y-15271650D01*
X11225277Y-15271650D02*
X11244324Y-15281174D01*
X11244324Y-15281174D02*
X11253848Y-15300222D01*
X11253848Y-15300222D02*
X11253848Y-15404984D01*
X11349086Y-15404984D02*
X11349086Y-15271650D01*
X11349086Y-15290698D02*
X11358610Y-15281174D01*
X11358610Y-15281174D02*
X11377658Y-15271650D01*
X11377658Y-15271650D02*
X11406229Y-15271650D01*
X11406229Y-15271650D02*
X11425277Y-15281174D01*
X11425277Y-15281174D02*
X11434801Y-15300222D01*
X11434801Y-15300222D02*
X11434801Y-15404984D01*
X11434801Y-15300222D02*
X11444324Y-15281174D01*
X11444324Y-15281174D02*
X11463372Y-15271650D01*
X11463372Y-15271650D02*
X11491943Y-15271650D01*
X11491943Y-15271650D02*
X11510991Y-15281174D01*
X11510991Y-15281174D02*
X11520515Y-15300222D01*
X11520515Y-15300222D02*
X11520515Y-15404984D01*
X11910991Y-15195460D02*
X11739563Y-15452603D01*
X12168134Y-15204984D02*
X12187182Y-15204984D01*
X12187182Y-15204984D02*
X12206229Y-15214508D01*
X12206229Y-15214508D02*
X12215753Y-15224031D01*
X12215753Y-15224031D02*
X12225277Y-15243079D01*
X12225277Y-15243079D02*
X12234801Y-15281174D01*
X12234801Y-15281174D02*
X12234801Y-15328793D01*
X12234801Y-15328793D02*
X12225277Y-15366888D01*
X12225277Y-15366888D02*
X12215753Y-15385936D01*
X12215753Y-15385936D02*
X12206229Y-15395460D01*
X12206229Y-15395460D02*
X12187182Y-15404984D01*
X12187182Y-15404984D02*
X12168134Y-15404984D01*
X12168134Y-15404984D02*
X12149086Y-15395460D01*
X12149086Y-15395460D02*
X12139563Y-15385936D01*
X12139563Y-15385936D02*
X12130039Y-15366888D01*
X12130039Y-15366888D02*
X12120515Y-15328793D01*
X12120515Y-15328793D02*
X12120515Y-15281174D01*
X12120515Y-15281174D02*
X12130039Y-15243079D01*
X12130039Y-15243079D02*
X12139563Y-15224031D01*
X12139563Y-15224031D02*
X12149086Y-15214508D01*
X12149086Y-15214508D02*
X12168134Y-15204984D01*
X12320515Y-15385936D02*
X12330039Y-15395460D01*
X12330039Y-15395460D02*
X12320515Y-15404984D01*
X12320515Y-15404984D02*
X12310991Y-15395460D01*
X12310991Y-15395460D02*
X12320515Y-15385936D01*
X12320515Y-15385936D02*
X12320515Y-15404984D01*
X12453848Y-15204984D02*
X12472896Y-15204984D01*
X12472896Y-15204984D02*
X12491944Y-15214508D01*
X12491944Y-15214508D02*
X12501467Y-15224031D01*
X12501467Y-15224031D02*
X12510991Y-15243079D01*
X12510991Y-15243079D02*
X12520515Y-15281174D01*
X12520515Y-15281174D02*
X12520515Y-15328793D01*
X12520515Y-15328793D02*
X12510991Y-15366888D01*
X12510991Y-15366888D02*
X12501467Y-15385936D01*
X12501467Y-15385936D02*
X12491944Y-15395460D01*
X12491944Y-15395460D02*
X12472896Y-15404984D01*
X12472896Y-15404984D02*
X12453848Y-15404984D01*
X12453848Y-15404984D02*
X12434801Y-15395460D01*
X12434801Y-15395460D02*
X12425277Y-15385936D01*
X12425277Y-15385936D02*
X12415753Y-15366888D01*
X12415753Y-15366888D02*
X12406229Y-15328793D01*
X12406229Y-15328793D02*
X12406229Y-15281174D01*
X12406229Y-15281174D02*
X12415753Y-15243079D01*
X12415753Y-15243079D02*
X12425277Y-15224031D01*
X12425277Y-15224031D02*
X12434801Y-15214508D01*
X12434801Y-15214508D02*
X12453848Y-15204984D01*
X12596706Y-15224031D02*
X12606229Y-15214508D01*
X12606229Y-15214508D02*
X12625277Y-15204984D01*
X12625277Y-15204984D02*
X12672896Y-15204984D01*
X12672896Y-15204984D02*
X12691944Y-15214508D01*
X12691944Y-15214508D02*
X12701467Y-15224031D01*
X12701467Y-15224031D02*
X12710991Y-15243079D01*
X12710991Y-15243079D02*
X12710991Y-15262127D01*
X12710991Y-15262127D02*
X12701467Y-15290698D01*
X12701467Y-15290698D02*
X12587182Y-15404984D01*
X12587182Y-15404984D02*
X12710991Y-15404984D01*
X12777658Y-15204984D02*
X12901467Y-15204984D01*
X12901467Y-15204984D02*
X12834801Y-15281174D01*
X12834801Y-15281174D02*
X12863372Y-15281174D01*
X12863372Y-15281174D02*
X12882420Y-15290698D01*
X12882420Y-15290698D02*
X12891944Y-15300222D01*
X12891944Y-15300222D02*
X12901467Y-15319269D01*
X12901467Y-15319269D02*
X12901467Y-15366888D01*
X12901467Y-15366888D02*
X12891944Y-15385936D01*
X12891944Y-15385936D02*
X12882420Y-15395460D01*
X12882420Y-15395460D02*
X12863372Y-15404984D01*
X12863372Y-15404984D02*
X12806229Y-15404984D01*
X12806229Y-15404984D02*
X12787182Y-15395460D01*
X12787182Y-15395460D02*
X12777658Y-15385936D01*
X13072896Y-15204984D02*
X13034801Y-15204984D01*
X13034801Y-15204984D02*
X13015753Y-15214508D01*
X13015753Y-15214508D02*
X13006229Y-15224031D01*
X13006229Y-15224031D02*
X12987182Y-15252603D01*
X12987182Y-15252603D02*
X12977658Y-15290698D01*
X12977658Y-15290698D02*
X12977658Y-15366888D01*
X12977658Y-15366888D02*
X12987182Y-15385936D01*
X12987182Y-15385936D02*
X12996706Y-15395460D01*
X12996706Y-15395460D02*
X13015753Y-15404984D01*
X13015753Y-15404984D02*
X13053848Y-15404984D01*
X13053848Y-15404984D02*
X13072896Y-15395460D01*
X13072896Y-15395460D02*
X13082420Y-15385936D01*
X13082420Y-15385936D02*
X13091944Y-15366888D01*
X13091944Y-15366888D02*
X13091944Y-15319269D01*
X13091944Y-15319269D02*
X13082420Y-15300222D01*
X13082420Y-15300222D02*
X13072896Y-15290698D01*
X13072896Y-15290698D02*
X13053848Y-15281174D01*
X13053848Y-15281174D02*
X13015753Y-15281174D01*
X13015753Y-15281174D02*
X12996706Y-15290698D01*
X12996706Y-15290698D02*
X12987182Y-15300222D01*
X12987182Y-15300222D02*
X12977658Y-15319269D01*
X13168134Y-15204984D02*
X13168134Y-15243079D01*
X13244325Y-15204984D02*
X13244325Y-15243079D01*
X13539563Y-15481174D02*
X13530039Y-15471650D01*
X13530039Y-15471650D02*
X13510991Y-15443079D01*
X13510991Y-15443079D02*
X13501468Y-15424031D01*
X13501468Y-15424031D02*
X13491944Y-15395460D01*
X13491944Y-15395460D02*
X13482420Y-15347841D01*
X13482420Y-15347841D02*
X13482420Y-15309746D01*
X13482420Y-15309746D02*
X13491944Y-15262127D01*
X13491944Y-15262127D02*
X13501468Y-15233555D01*
X13501468Y-15233555D02*
X13510991Y-15214508D01*
X13510991Y-15214508D02*
X13530039Y-15185936D01*
X13530039Y-15185936D02*
X13539563Y-15176412D01*
X13653848Y-15204984D02*
X13672896Y-15204984D01*
X13672896Y-15204984D02*
X13691944Y-15214508D01*
X13691944Y-15214508D02*
X13701468Y-15224031D01*
X13701468Y-15224031D02*
X13710991Y-15243079D01*
X13710991Y-15243079D02*
X13720515Y-15281174D01*
X13720515Y-15281174D02*
X13720515Y-15328793D01*
X13720515Y-15328793D02*
X13710991Y-15366888D01*
X13710991Y-15366888D02*
X13701468Y-15385936D01*
X13701468Y-15385936D02*
X13691944Y-15395460D01*
X13691944Y-15395460D02*
X13672896Y-15404984D01*
X13672896Y-15404984D02*
X13653848Y-15404984D01*
X13653848Y-15404984D02*
X13634801Y-15395460D01*
X13634801Y-15395460D02*
X13625277Y-15385936D01*
X13625277Y-15385936D02*
X13615753Y-15366888D01*
X13615753Y-15366888D02*
X13606229Y-15328793D01*
X13606229Y-15328793D02*
X13606229Y-15281174D01*
X13606229Y-15281174D02*
X13615753Y-15243079D01*
X13615753Y-15243079D02*
X13625277Y-15224031D01*
X13625277Y-15224031D02*
X13634801Y-15214508D01*
X13634801Y-15214508D02*
X13653848Y-15204984D01*
X13958610Y-15404984D02*
X13958610Y-15204984D01*
X14044325Y-15404984D02*
X14044325Y-15300222D01*
X14044325Y-15300222D02*
X14034801Y-15281174D01*
X14034801Y-15281174D02*
X14015753Y-15271650D01*
X14015753Y-15271650D02*
X13987182Y-15271650D01*
X13987182Y-15271650D02*
X13968134Y-15281174D01*
X13968134Y-15281174D02*
X13958610Y-15290698D01*
X14168134Y-15404984D02*
X14149087Y-15395460D01*
X14149087Y-15395460D02*
X14139563Y-15385936D01*
X14139563Y-15385936D02*
X14130039Y-15366888D01*
X14130039Y-15366888D02*
X14130039Y-15309746D01*
X14130039Y-15309746D02*
X14139563Y-15290698D01*
X14139563Y-15290698D02*
X14149087Y-15281174D01*
X14149087Y-15281174D02*
X14168134Y-15271650D01*
X14168134Y-15271650D02*
X14196706Y-15271650D01*
X14196706Y-15271650D02*
X14215753Y-15281174D01*
X14215753Y-15281174D02*
X14225277Y-15290698D01*
X14225277Y-15290698D02*
X14234801Y-15309746D01*
X14234801Y-15309746D02*
X14234801Y-15366888D01*
X14234801Y-15366888D02*
X14225277Y-15385936D01*
X14225277Y-15385936D02*
X14215753Y-15395460D01*
X14215753Y-15395460D02*
X14196706Y-15404984D01*
X14196706Y-15404984D02*
X14168134Y-15404984D01*
X14349087Y-15404984D02*
X14330039Y-15395460D01*
X14330039Y-15395460D02*
X14320515Y-15376412D01*
X14320515Y-15376412D02*
X14320515Y-15204984D01*
X14501468Y-15395460D02*
X14482420Y-15404984D01*
X14482420Y-15404984D02*
X14444325Y-15404984D01*
X14444325Y-15404984D02*
X14425277Y-15395460D01*
X14425277Y-15395460D02*
X14415753Y-15376412D01*
X14415753Y-15376412D02*
X14415753Y-15300222D01*
X14415753Y-15300222D02*
X14425277Y-15281174D01*
X14425277Y-15281174D02*
X14444325Y-15271650D01*
X14444325Y-15271650D02*
X14482420Y-15271650D01*
X14482420Y-15271650D02*
X14501468Y-15281174D01*
X14501468Y-15281174D02*
X14510991Y-15300222D01*
X14510991Y-15300222D02*
X14510991Y-15319269D01*
X14510991Y-15319269D02*
X14415753Y-15338317D01*
X14587182Y-15395460D02*
X14606230Y-15404984D01*
X14606230Y-15404984D02*
X14644325Y-15404984D01*
X14644325Y-15404984D02*
X14663372Y-15395460D01*
X14663372Y-15395460D02*
X14672896Y-15376412D01*
X14672896Y-15376412D02*
X14672896Y-15366888D01*
X14672896Y-15366888D02*
X14663372Y-15347841D01*
X14663372Y-15347841D02*
X14644325Y-15338317D01*
X14644325Y-15338317D02*
X14615753Y-15338317D01*
X14615753Y-15338317D02*
X14596706Y-15328793D01*
X14596706Y-15328793D02*
X14587182Y-15309746D01*
X14587182Y-15309746D02*
X14587182Y-15300222D01*
X14587182Y-15300222D02*
X14596706Y-15281174D01*
X14596706Y-15281174D02*
X14615753Y-15271650D01*
X14615753Y-15271650D02*
X14644325Y-15271650D01*
X14644325Y-15271650D02*
X14663372Y-15281174D01*
X14910992Y-15328793D02*
X15063373Y-15328793D01*
X14987182Y-15404984D02*
X14987182Y-15252603D01*
X15396706Y-15271650D02*
X15396706Y-15404984D01*
X15349087Y-15195460D02*
X15301468Y-15338317D01*
X15301468Y-15338317D02*
X15425277Y-15338317D01*
X15644325Y-15395460D02*
X15663373Y-15404984D01*
X15663373Y-15404984D02*
X15701468Y-15404984D01*
X15701468Y-15404984D02*
X15720515Y-15395460D01*
X15720515Y-15395460D02*
X15730039Y-15376412D01*
X15730039Y-15376412D02*
X15730039Y-15366888D01*
X15730039Y-15366888D02*
X15720515Y-15347841D01*
X15720515Y-15347841D02*
X15701468Y-15338317D01*
X15701468Y-15338317D02*
X15672896Y-15338317D01*
X15672896Y-15338317D02*
X15653849Y-15328793D01*
X15653849Y-15328793D02*
X15644325Y-15309746D01*
X15644325Y-15309746D02*
X15644325Y-15300222D01*
X15644325Y-15300222D02*
X15653849Y-15281174D01*
X15653849Y-15281174D02*
X15672896Y-15271650D01*
X15672896Y-15271650D02*
X15701468Y-15271650D01*
X15701468Y-15271650D02*
X15720515Y-15281174D01*
X15844325Y-15404984D02*
X15825277Y-15395460D01*
X15825277Y-15395460D02*
X15815754Y-15376412D01*
X15815754Y-15376412D02*
X15815754Y-15204984D01*
X15949087Y-15404984D02*
X15930039Y-15395460D01*
X15930039Y-15395460D02*
X15920515Y-15385936D01*
X15920515Y-15385936D02*
X15910992Y-15366888D01*
X15910992Y-15366888D02*
X15910992Y-15309746D01*
X15910992Y-15309746D02*
X15920515Y-15290698D01*
X15920515Y-15290698D02*
X15930039Y-15281174D01*
X15930039Y-15281174D02*
X15949087Y-15271650D01*
X15949087Y-15271650D02*
X15977658Y-15271650D01*
X15977658Y-15271650D02*
X15996706Y-15281174D01*
X15996706Y-15281174D02*
X16006230Y-15290698D01*
X16006230Y-15290698D02*
X16015754Y-15309746D01*
X16015754Y-15309746D02*
X16015754Y-15366888D01*
X16015754Y-15366888D02*
X16006230Y-15385936D01*
X16006230Y-15385936D02*
X15996706Y-15395460D01*
X15996706Y-15395460D02*
X15977658Y-15404984D01*
X15977658Y-15404984D02*
X15949087Y-15404984D01*
X16072896Y-15271650D02*
X16149087Y-15271650D01*
X16101468Y-15204984D02*
X16101468Y-15376412D01*
X16101468Y-15376412D02*
X16110992Y-15395460D01*
X16110992Y-15395460D02*
X16130039Y-15404984D01*
X16130039Y-15404984D02*
X16149087Y-15404984D01*
X16206230Y-15395460D02*
X16225277Y-15404984D01*
X16225277Y-15404984D02*
X16263373Y-15404984D01*
X16263373Y-15404984D02*
X16282420Y-15395460D01*
X16282420Y-15395460D02*
X16291944Y-15376412D01*
X16291944Y-15376412D02*
X16291944Y-15366888D01*
X16291944Y-15366888D02*
X16282420Y-15347841D01*
X16282420Y-15347841D02*
X16263373Y-15338317D01*
X16263373Y-15338317D02*
X16234801Y-15338317D01*
X16234801Y-15338317D02*
X16215754Y-15328793D01*
X16215754Y-15328793D02*
X16206230Y-15309746D01*
X16206230Y-15309746D02*
X16206230Y-15300222D01*
X16206230Y-15300222D02*
X16215754Y-15281174D01*
X16215754Y-15281174D02*
X16234801Y-15271650D01*
X16234801Y-15271650D02*
X16263373Y-15271650D01*
X16263373Y-15271650D02*
X16282420Y-15281174D01*
X16358611Y-15481174D02*
X16368135Y-15471650D01*
X16368135Y-15471650D02*
X16387182Y-15443079D01*
X16387182Y-15443079D02*
X16396706Y-15424031D01*
X16396706Y-15424031D02*
X16406230Y-15395460D01*
X16406230Y-15395460D02*
X16415754Y-15347841D01*
X16415754Y-15347841D02*
X16415754Y-15309746D01*
X16415754Y-15309746D02*
X16406230Y-15262127D01*
X16406230Y-15262127D02*
X16396706Y-15233555D01*
X16396706Y-15233555D02*
X16387182Y-15214508D01*
X16387182Y-15214508D02*
X16368135Y-15185936D01*
X16368135Y-15185936D02*
X16358611Y-15176412D01*
D10*
X9964500Y-15577500D02*
G75*
G02*
X9884500Y-15577500I-40000J0D01*
G01*
X9884500Y-15577500D02*
G75*
G02*
X9964500Y-15577500I40000J0D01*
G01*
D11*
X10263372Y-15468984D02*
X10282420Y-15468984D01*
X10282420Y-15468984D02*
X10301467Y-15478508D01*
X10301467Y-15478508D02*
X10310991Y-15488031D01*
X10310991Y-15488031D02*
X10320515Y-15507079D01*
X10320515Y-15507079D02*
X10330039Y-15545174D01*
X10330039Y-15545174D02*
X10330039Y-15592793D01*
X10330039Y-15592793D02*
X10320515Y-15630888D01*
X10320515Y-15630888D02*
X10310991Y-15649936D01*
X10310991Y-15649936D02*
X10301467Y-15659460D01*
X10301467Y-15659460D02*
X10282420Y-15668984D01*
X10282420Y-15668984D02*
X10263372Y-15668984D01*
X10263372Y-15668984D02*
X10244324Y-15659460D01*
X10244324Y-15659460D02*
X10234801Y-15649936D01*
X10234801Y-15649936D02*
X10225277Y-15630888D01*
X10225277Y-15630888D02*
X10215753Y-15592793D01*
X10215753Y-15592793D02*
X10215753Y-15545174D01*
X10215753Y-15545174D02*
X10225277Y-15507079D01*
X10225277Y-15507079D02*
X10234801Y-15488031D01*
X10234801Y-15488031D02*
X10244324Y-15478508D01*
X10244324Y-15478508D02*
X10263372Y-15468984D01*
X10415753Y-15649936D02*
X10425277Y-15659460D01*
X10425277Y-15659460D02*
X10415753Y-15668984D01*
X10415753Y-15668984D02*
X10406229Y-15659460D01*
X10406229Y-15659460D02*
X10415753Y-15649936D01*
X10415753Y-15649936D02*
X10415753Y-15668984D01*
X10539563Y-15554698D02*
X10520515Y-15545174D01*
X10520515Y-15545174D02*
X10510991Y-15535650D01*
X10510991Y-15535650D02*
X10501467Y-15516603D01*
X10501467Y-15516603D02*
X10501467Y-15507079D01*
X10501467Y-15507079D02*
X10510991Y-15488031D01*
X10510991Y-15488031D02*
X10520515Y-15478508D01*
X10520515Y-15478508D02*
X10539563Y-15468984D01*
X10539563Y-15468984D02*
X10577658Y-15468984D01*
X10577658Y-15468984D02*
X10596705Y-15478508D01*
X10596705Y-15478508D02*
X10606229Y-15488031D01*
X10606229Y-15488031D02*
X10615753Y-15507079D01*
X10615753Y-15507079D02*
X10615753Y-15516603D01*
X10615753Y-15516603D02*
X10606229Y-15535650D01*
X10606229Y-15535650D02*
X10596705Y-15545174D01*
X10596705Y-15545174D02*
X10577658Y-15554698D01*
X10577658Y-15554698D02*
X10539563Y-15554698D01*
X10539563Y-15554698D02*
X10520515Y-15564222D01*
X10520515Y-15564222D02*
X10510991Y-15573746D01*
X10510991Y-15573746D02*
X10501467Y-15592793D01*
X10501467Y-15592793D02*
X10501467Y-15630888D01*
X10501467Y-15630888D02*
X10510991Y-15649936D01*
X10510991Y-15649936D02*
X10520515Y-15659460D01*
X10520515Y-15659460D02*
X10539563Y-15668984D01*
X10539563Y-15668984D02*
X10577658Y-15668984D01*
X10577658Y-15668984D02*
X10596705Y-15659460D01*
X10596705Y-15659460D02*
X10606229Y-15649936D01*
X10606229Y-15649936D02*
X10615753Y-15630888D01*
X10615753Y-15630888D02*
X10615753Y-15592793D01*
X10615753Y-15592793D02*
X10606229Y-15573746D01*
X10606229Y-15573746D02*
X10596705Y-15564222D01*
X10596705Y-15564222D02*
X10577658Y-15554698D01*
X10739563Y-15468984D02*
X10758610Y-15468984D01*
X10758610Y-15468984D02*
X10777658Y-15478508D01*
X10777658Y-15478508D02*
X10787182Y-15488031D01*
X10787182Y-15488031D02*
X10796705Y-15507079D01*
X10796705Y-15507079D02*
X10806229Y-15545174D01*
X10806229Y-15545174D02*
X10806229Y-15592793D01*
X10806229Y-15592793D02*
X10796705Y-15630888D01*
X10796705Y-15630888D02*
X10787182Y-15649936D01*
X10787182Y-15649936D02*
X10777658Y-15659460D01*
X10777658Y-15659460D02*
X10758610Y-15668984D01*
X10758610Y-15668984D02*
X10739563Y-15668984D01*
X10739563Y-15668984D02*
X10720515Y-15659460D01*
X10720515Y-15659460D02*
X10710991Y-15649936D01*
X10710991Y-15649936D02*
X10701467Y-15630888D01*
X10701467Y-15630888D02*
X10691944Y-15592793D01*
X10691944Y-15592793D02*
X10691944Y-15545174D01*
X10691944Y-15545174D02*
X10701467Y-15507079D01*
X10701467Y-15507079D02*
X10710991Y-15488031D01*
X10710991Y-15488031D02*
X10720515Y-15478508D01*
X10720515Y-15478508D02*
X10739563Y-15468984D01*
X10930039Y-15468984D02*
X10949086Y-15468984D01*
X10949086Y-15468984D02*
X10968134Y-15478508D01*
X10968134Y-15478508D02*
X10977658Y-15488031D01*
X10977658Y-15488031D02*
X10987182Y-15507079D01*
X10987182Y-15507079D02*
X10996705Y-15545174D01*
X10996705Y-15545174D02*
X10996705Y-15592793D01*
X10996705Y-15592793D02*
X10987182Y-15630888D01*
X10987182Y-15630888D02*
X10977658Y-15649936D01*
X10977658Y-15649936D02*
X10968134Y-15659460D01*
X10968134Y-15659460D02*
X10949086Y-15668984D01*
X10949086Y-15668984D02*
X10930039Y-15668984D01*
X10930039Y-15668984D02*
X10910991Y-15659460D01*
X10910991Y-15659460D02*
X10901467Y-15649936D01*
X10901467Y-15649936D02*
X10891944Y-15630888D01*
X10891944Y-15630888D02*
X10882420Y-15592793D01*
X10882420Y-15592793D02*
X10882420Y-15545174D01*
X10882420Y-15545174D02*
X10891944Y-15507079D01*
X10891944Y-15507079D02*
X10901467Y-15488031D01*
X10901467Y-15488031D02*
X10910991Y-15478508D01*
X10910991Y-15478508D02*
X10930039Y-15468984D01*
X11082420Y-15668984D02*
X11082420Y-15535650D01*
X11082420Y-15554698D02*
X11091944Y-15545174D01*
X11091944Y-15545174D02*
X11110991Y-15535650D01*
X11110991Y-15535650D02*
X11139563Y-15535650D01*
X11139563Y-15535650D02*
X11158610Y-15545174D01*
X11158610Y-15545174D02*
X11168134Y-15564222D01*
X11168134Y-15564222D02*
X11168134Y-15668984D01*
X11168134Y-15564222D02*
X11177658Y-15545174D01*
X11177658Y-15545174D02*
X11196705Y-15535650D01*
X11196705Y-15535650D02*
X11225277Y-15535650D01*
X11225277Y-15535650D02*
X11244324Y-15545174D01*
X11244324Y-15545174D02*
X11253848Y-15564222D01*
X11253848Y-15564222D02*
X11253848Y-15668984D01*
X11349086Y-15668984D02*
X11349086Y-15535650D01*
X11349086Y-15554698D02*
X11358610Y-15545174D01*
X11358610Y-15545174D02*
X11377658Y-15535650D01*
X11377658Y-15535650D02*
X11406229Y-15535650D01*
X11406229Y-15535650D02*
X11425277Y-15545174D01*
X11425277Y-15545174D02*
X11434801Y-15564222D01*
X11434801Y-15564222D02*
X11434801Y-15668984D01*
X11434801Y-15564222D02*
X11444324Y-15545174D01*
X11444324Y-15545174D02*
X11463372Y-15535650D01*
X11463372Y-15535650D02*
X11491943Y-15535650D01*
X11491943Y-15535650D02*
X11510991Y-15545174D01*
X11510991Y-15545174D02*
X11520515Y-15564222D01*
X11520515Y-15564222D02*
X11520515Y-15668984D01*
X11910991Y-15459460D02*
X11739563Y-15716603D01*
X12168134Y-15468984D02*
X12187182Y-15468984D01*
X12187182Y-15468984D02*
X12206229Y-15478508D01*
X12206229Y-15478508D02*
X12215753Y-15488031D01*
X12215753Y-15488031D02*
X12225277Y-15507079D01*
X12225277Y-15507079D02*
X12234801Y-15545174D01*
X12234801Y-15545174D02*
X12234801Y-15592793D01*
X12234801Y-15592793D02*
X12225277Y-15630888D01*
X12225277Y-15630888D02*
X12215753Y-15649936D01*
X12215753Y-15649936D02*
X12206229Y-15659460D01*
X12206229Y-15659460D02*
X12187182Y-15668984D01*
X12187182Y-15668984D02*
X12168134Y-15668984D01*
X12168134Y-15668984D02*
X12149086Y-15659460D01*
X12149086Y-15659460D02*
X12139563Y-15649936D01*
X12139563Y-15649936D02*
X12130039Y-15630888D01*
X12130039Y-15630888D02*
X12120515Y-15592793D01*
X12120515Y-15592793D02*
X12120515Y-15545174D01*
X12120515Y-15545174D02*
X12130039Y-15507079D01*
X12130039Y-15507079D02*
X12139563Y-15488031D01*
X12139563Y-15488031D02*
X12149086Y-15478508D01*
X12149086Y-15478508D02*
X12168134Y-15468984D01*
X12320515Y-15649936D02*
X12330039Y-15659460D01*
X12330039Y-15659460D02*
X12320515Y-15668984D01*
X12320515Y-15668984D02*
X12310991Y-15659460D01*
X12310991Y-15659460D02*
X12320515Y-15649936D01*
X12320515Y-15649936D02*
X12320515Y-15668984D01*
X12453848Y-15468984D02*
X12472896Y-15468984D01*
X12472896Y-15468984D02*
X12491944Y-15478508D01*
X12491944Y-15478508D02*
X12501467Y-15488031D01*
X12501467Y-15488031D02*
X12510991Y-15507079D01*
X12510991Y-15507079D02*
X12520515Y-15545174D01*
X12520515Y-15545174D02*
X12520515Y-15592793D01*
X12520515Y-15592793D02*
X12510991Y-15630888D01*
X12510991Y-15630888D02*
X12501467Y-15649936D01*
X12501467Y-15649936D02*
X12491944Y-15659460D01*
X12491944Y-15659460D02*
X12472896Y-15668984D01*
X12472896Y-15668984D02*
X12453848Y-15668984D01*
X12453848Y-15668984D02*
X12434801Y-15659460D01*
X12434801Y-15659460D02*
X12425277Y-15649936D01*
X12425277Y-15649936D02*
X12415753Y-15630888D01*
X12415753Y-15630888D02*
X12406229Y-15592793D01*
X12406229Y-15592793D02*
X12406229Y-15545174D01*
X12406229Y-15545174D02*
X12415753Y-15507079D01*
X12415753Y-15507079D02*
X12425277Y-15488031D01*
X12425277Y-15488031D02*
X12434801Y-15478508D01*
X12434801Y-15478508D02*
X12453848Y-15468984D01*
X12587182Y-15468984D02*
X12710991Y-15468984D01*
X12710991Y-15468984D02*
X12644325Y-15545174D01*
X12644325Y-15545174D02*
X12672896Y-15545174D01*
X12672896Y-15545174D02*
X12691944Y-15554698D01*
X12691944Y-15554698D02*
X12701467Y-15564222D01*
X12701467Y-15564222D02*
X12710991Y-15583269D01*
X12710991Y-15583269D02*
X12710991Y-15630888D01*
X12710991Y-15630888D02*
X12701467Y-15649936D01*
X12701467Y-15649936D02*
X12691944Y-15659460D01*
X12691944Y-15659460D02*
X12672896Y-15668984D01*
X12672896Y-15668984D02*
X12615753Y-15668984D01*
X12615753Y-15668984D02*
X12596706Y-15659460D01*
X12596706Y-15659460D02*
X12587182Y-15649936D01*
X12901467Y-15668984D02*
X12787182Y-15668984D01*
X12844325Y-15668984D02*
X12844325Y-15468984D01*
X12844325Y-15468984D02*
X12825277Y-15497555D01*
X12825277Y-15497555D02*
X12806229Y-15516603D01*
X12806229Y-15516603D02*
X12787182Y-15526127D01*
X13082420Y-15468984D02*
X12987182Y-15468984D01*
X12987182Y-15468984D02*
X12977658Y-15564222D01*
X12977658Y-15564222D02*
X12987182Y-15554698D01*
X12987182Y-15554698D02*
X13006229Y-15545174D01*
X13006229Y-15545174D02*
X13053848Y-15545174D01*
X13053848Y-15545174D02*
X13072896Y-15554698D01*
X13072896Y-15554698D02*
X13082420Y-15564222D01*
X13082420Y-15564222D02*
X13091944Y-15583269D01*
X13091944Y-15583269D02*
X13091944Y-15630888D01*
X13091944Y-15630888D02*
X13082420Y-15649936D01*
X13082420Y-15649936D02*
X13072896Y-15659460D01*
X13072896Y-15659460D02*
X13053848Y-15668984D01*
X13053848Y-15668984D02*
X13006229Y-15668984D01*
X13006229Y-15668984D02*
X12987182Y-15659460D01*
X12987182Y-15659460D02*
X12977658Y-15649936D01*
X13168134Y-15468984D02*
X13168134Y-15507079D01*
X13244325Y-15468984D02*
X13244325Y-15507079D01*
X13539563Y-15745174D02*
X13530039Y-15735650D01*
X13530039Y-15735650D02*
X13510991Y-15707079D01*
X13510991Y-15707079D02*
X13501468Y-15688031D01*
X13501468Y-15688031D02*
X13491944Y-15659460D01*
X13491944Y-15659460D02*
X13482420Y-15611841D01*
X13482420Y-15611841D02*
X13482420Y-15573746D01*
X13482420Y-15573746D02*
X13491944Y-15526127D01*
X13491944Y-15526127D02*
X13501468Y-15497555D01*
X13501468Y-15497555D02*
X13510991Y-15478508D01*
X13510991Y-15478508D02*
X13530039Y-15449936D01*
X13530039Y-15449936D02*
X13539563Y-15440412D01*
X13710991Y-15468984D02*
X13615753Y-15468984D01*
X13615753Y-15468984D02*
X13606229Y-15564222D01*
X13606229Y-15564222D02*
X13615753Y-15554698D01*
X13615753Y-15554698D02*
X13634801Y-15545174D01*
X13634801Y-15545174D02*
X13682420Y-15545174D01*
X13682420Y-15545174D02*
X13701468Y-15554698D01*
X13701468Y-15554698D02*
X13710991Y-15564222D01*
X13710991Y-15564222D02*
X13720515Y-15583269D01*
X13720515Y-15583269D02*
X13720515Y-15630888D01*
X13720515Y-15630888D02*
X13710991Y-15649936D01*
X13710991Y-15649936D02*
X13701468Y-15659460D01*
X13701468Y-15659460D02*
X13682420Y-15668984D01*
X13682420Y-15668984D02*
X13634801Y-15668984D01*
X13634801Y-15668984D02*
X13615753Y-15659460D01*
X13615753Y-15659460D02*
X13606229Y-15649936D01*
X13901468Y-15468984D02*
X13806229Y-15468984D01*
X13806229Y-15468984D02*
X13796706Y-15564222D01*
X13796706Y-15564222D02*
X13806229Y-15554698D01*
X13806229Y-15554698D02*
X13825277Y-15545174D01*
X13825277Y-15545174D02*
X13872896Y-15545174D01*
X13872896Y-15545174D02*
X13891944Y-15554698D01*
X13891944Y-15554698D02*
X13901468Y-15564222D01*
X13901468Y-15564222D02*
X13910991Y-15583269D01*
X13910991Y-15583269D02*
X13910991Y-15630888D01*
X13910991Y-15630888D02*
X13901468Y-15649936D01*
X13901468Y-15649936D02*
X13891944Y-15659460D01*
X13891944Y-15659460D02*
X13872896Y-15668984D01*
X13872896Y-15668984D02*
X13825277Y-15668984D01*
X13825277Y-15668984D02*
X13806229Y-15659460D01*
X13806229Y-15659460D02*
X13796706Y-15649936D01*
X14149087Y-15668984D02*
X14149087Y-15468984D01*
X14234801Y-15668984D02*
X14234801Y-15564222D01*
X14234801Y-15564222D02*
X14225277Y-15545174D01*
X14225277Y-15545174D02*
X14206230Y-15535650D01*
X14206230Y-15535650D02*
X14177658Y-15535650D01*
X14177658Y-15535650D02*
X14158610Y-15545174D01*
X14158610Y-15545174D02*
X14149087Y-15554698D01*
X14358610Y-15668984D02*
X14339563Y-15659460D01*
X14339563Y-15659460D02*
X14330039Y-15649936D01*
X14330039Y-15649936D02*
X14320515Y-15630888D01*
X14320515Y-15630888D02*
X14320515Y-15573746D01*
X14320515Y-15573746D02*
X14330039Y-15554698D01*
X14330039Y-15554698D02*
X14339563Y-15545174D01*
X14339563Y-15545174D02*
X14358610Y-15535650D01*
X14358610Y-15535650D02*
X14387182Y-15535650D01*
X14387182Y-15535650D02*
X14406230Y-15545174D01*
X14406230Y-15545174D02*
X14415753Y-15554698D01*
X14415753Y-15554698D02*
X14425277Y-15573746D01*
X14425277Y-15573746D02*
X14425277Y-15630888D01*
X14425277Y-15630888D02*
X14415753Y-15649936D01*
X14415753Y-15649936D02*
X14406230Y-15659460D01*
X14406230Y-15659460D02*
X14387182Y-15668984D01*
X14387182Y-15668984D02*
X14358610Y-15668984D01*
X14539563Y-15668984D02*
X14520515Y-15659460D01*
X14520515Y-15659460D02*
X14510991Y-15640412D01*
X14510991Y-15640412D02*
X14510991Y-15468984D01*
X14691944Y-15659460D02*
X14672896Y-15668984D01*
X14672896Y-15668984D02*
X14634801Y-15668984D01*
X14634801Y-15668984D02*
X14615753Y-15659460D01*
X14615753Y-15659460D02*
X14606230Y-15640412D01*
X14606230Y-15640412D02*
X14606230Y-15564222D01*
X14606230Y-15564222D02*
X14615753Y-15545174D01*
X14615753Y-15545174D02*
X14634801Y-15535650D01*
X14634801Y-15535650D02*
X14672896Y-15535650D01*
X14672896Y-15535650D02*
X14691944Y-15545174D01*
X14691944Y-15545174D02*
X14701468Y-15564222D01*
X14701468Y-15564222D02*
X14701468Y-15583269D01*
X14701468Y-15583269D02*
X14606230Y-15602317D01*
X14777658Y-15659460D02*
X14796706Y-15668984D01*
X14796706Y-15668984D02*
X14834801Y-15668984D01*
X14834801Y-15668984D02*
X14853849Y-15659460D01*
X14853849Y-15659460D02*
X14863372Y-15640412D01*
X14863372Y-15640412D02*
X14863372Y-15630888D01*
X14863372Y-15630888D02*
X14853849Y-15611841D01*
X14853849Y-15611841D02*
X14834801Y-15602317D01*
X14834801Y-15602317D02*
X14806230Y-15602317D01*
X14806230Y-15602317D02*
X14787182Y-15592793D01*
X14787182Y-15592793D02*
X14777658Y-15573746D01*
X14777658Y-15573746D02*
X14777658Y-15564222D01*
X14777658Y-15564222D02*
X14787182Y-15545174D01*
X14787182Y-15545174D02*
X14806230Y-15535650D01*
X14806230Y-15535650D02*
X14834801Y-15535650D01*
X14834801Y-15535650D02*
X14853849Y-15545174D01*
X14930039Y-15745174D02*
X14939563Y-15735650D01*
X14939563Y-15735650D02*
X14958611Y-15707079D01*
X14958611Y-15707079D02*
X14968134Y-15688031D01*
X14968134Y-15688031D02*
X14977658Y-15659460D01*
X14977658Y-15659460D02*
X14987182Y-15611841D01*
X14987182Y-15611841D02*
X14987182Y-15573746D01*
X14987182Y-15573746D02*
X14977658Y-15526127D01*
X14977658Y-15526127D02*
X14968134Y-15497555D01*
X14968134Y-15497555D02*
X14958611Y-15478508D01*
X14958611Y-15478508D02*
X14939563Y-15449936D01*
X14939563Y-15449936D02*
X14930039Y-15440412D01*
D10*
X9923860Y-15800860D02*
X9923860Y-15882140D01*
X9883220Y-15841500D02*
X9964500Y-15841500D01*
D11*
X10263372Y-15732984D02*
X10282420Y-15732984D01*
X10282420Y-15732984D02*
X10301467Y-15742508D01*
X10301467Y-15742508D02*
X10310991Y-15752031D01*
X10310991Y-15752031D02*
X10320515Y-15771079D01*
X10320515Y-15771079D02*
X10330039Y-15809174D01*
X10330039Y-15809174D02*
X10330039Y-15856793D01*
X10330039Y-15856793D02*
X10320515Y-15894888D01*
X10320515Y-15894888D02*
X10310991Y-15913936D01*
X10310991Y-15913936D02*
X10301467Y-15923460D01*
X10301467Y-15923460D02*
X10282420Y-15932984D01*
X10282420Y-15932984D02*
X10263372Y-15932984D01*
X10263372Y-15932984D02*
X10244324Y-15923460D01*
X10244324Y-15923460D02*
X10234801Y-15913936D01*
X10234801Y-15913936D02*
X10225277Y-15894888D01*
X10225277Y-15894888D02*
X10215753Y-15856793D01*
X10215753Y-15856793D02*
X10215753Y-15809174D01*
X10215753Y-15809174D02*
X10225277Y-15771079D01*
X10225277Y-15771079D02*
X10234801Y-15752031D01*
X10234801Y-15752031D02*
X10244324Y-15742508D01*
X10244324Y-15742508D02*
X10263372Y-15732984D01*
X10415753Y-15913936D02*
X10425277Y-15923460D01*
X10425277Y-15923460D02*
X10415753Y-15932984D01*
X10415753Y-15932984D02*
X10406229Y-15923460D01*
X10406229Y-15923460D02*
X10415753Y-15913936D01*
X10415753Y-15913936D02*
X10415753Y-15932984D01*
X10539563Y-15818698D02*
X10520515Y-15809174D01*
X10520515Y-15809174D02*
X10510991Y-15799650D01*
X10510991Y-15799650D02*
X10501467Y-15780603D01*
X10501467Y-15780603D02*
X10501467Y-15771079D01*
X10501467Y-15771079D02*
X10510991Y-15752031D01*
X10510991Y-15752031D02*
X10520515Y-15742508D01*
X10520515Y-15742508D02*
X10539563Y-15732984D01*
X10539563Y-15732984D02*
X10577658Y-15732984D01*
X10577658Y-15732984D02*
X10596705Y-15742508D01*
X10596705Y-15742508D02*
X10606229Y-15752031D01*
X10606229Y-15752031D02*
X10615753Y-15771079D01*
X10615753Y-15771079D02*
X10615753Y-15780603D01*
X10615753Y-15780603D02*
X10606229Y-15799650D01*
X10606229Y-15799650D02*
X10596705Y-15809174D01*
X10596705Y-15809174D02*
X10577658Y-15818698D01*
X10577658Y-15818698D02*
X10539563Y-15818698D01*
X10539563Y-15818698D02*
X10520515Y-15828222D01*
X10520515Y-15828222D02*
X10510991Y-15837746D01*
X10510991Y-15837746D02*
X10501467Y-15856793D01*
X10501467Y-15856793D02*
X10501467Y-15894888D01*
X10501467Y-15894888D02*
X10510991Y-15913936D01*
X10510991Y-15913936D02*
X10520515Y-15923460D01*
X10520515Y-15923460D02*
X10539563Y-15932984D01*
X10539563Y-15932984D02*
X10577658Y-15932984D01*
X10577658Y-15932984D02*
X10596705Y-15923460D01*
X10596705Y-15923460D02*
X10606229Y-15913936D01*
X10606229Y-15913936D02*
X10615753Y-15894888D01*
X10615753Y-15894888D02*
X10615753Y-15856793D01*
X10615753Y-15856793D02*
X10606229Y-15837746D01*
X10606229Y-15837746D02*
X10596705Y-15828222D01*
X10596705Y-15828222D02*
X10577658Y-15818698D01*
X10806229Y-15932984D02*
X10691944Y-15932984D01*
X10749086Y-15932984D02*
X10749086Y-15732984D01*
X10749086Y-15732984D02*
X10730039Y-15761555D01*
X10730039Y-15761555D02*
X10710991Y-15780603D01*
X10710991Y-15780603D02*
X10691944Y-15790127D01*
X10872896Y-15732984D02*
X10996705Y-15732984D01*
X10996705Y-15732984D02*
X10930039Y-15809174D01*
X10930039Y-15809174D02*
X10958610Y-15809174D01*
X10958610Y-15809174D02*
X10977658Y-15818698D01*
X10977658Y-15818698D02*
X10987182Y-15828222D01*
X10987182Y-15828222D02*
X10996705Y-15847269D01*
X10996705Y-15847269D02*
X10996705Y-15894888D01*
X10996705Y-15894888D02*
X10987182Y-15913936D01*
X10987182Y-15913936D02*
X10977658Y-15923460D01*
X10977658Y-15923460D02*
X10958610Y-15932984D01*
X10958610Y-15932984D02*
X10901467Y-15932984D01*
X10901467Y-15932984D02*
X10882420Y-15923460D01*
X10882420Y-15923460D02*
X10872896Y-15913936D01*
X11082420Y-15932984D02*
X11082420Y-15799650D01*
X11082420Y-15818698D02*
X11091944Y-15809174D01*
X11091944Y-15809174D02*
X11110991Y-15799650D01*
X11110991Y-15799650D02*
X11139563Y-15799650D01*
X11139563Y-15799650D02*
X11158610Y-15809174D01*
X11158610Y-15809174D02*
X11168134Y-15828222D01*
X11168134Y-15828222D02*
X11168134Y-15932984D01*
X11168134Y-15828222D02*
X11177658Y-15809174D01*
X11177658Y-15809174D02*
X11196705Y-15799650D01*
X11196705Y-15799650D02*
X11225277Y-15799650D01*
X11225277Y-15799650D02*
X11244324Y-15809174D01*
X11244324Y-15809174D02*
X11253848Y-15828222D01*
X11253848Y-15828222D02*
X11253848Y-15932984D01*
X11349086Y-15932984D02*
X11349086Y-15799650D01*
X11349086Y-15818698D02*
X11358610Y-15809174D01*
X11358610Y-15809174D02*
X11377658Y-15799650D01*
X11377658Y-15799650D02*
X11406229Y-15799650D01*
X11406229Y-15799650D02*
X11425277Y-15809174D01*
X11425277Y-15809174D02*
X11434801Y-15828222D01*
X11434801Y-15828222D02*
X11434801Y-15932984D01*
X11434801Y-15828222D02*
X11444324Y-15809174D01*
X11444324Y-15809174D02*
X11463372Y-15799650D01*
X11463372Y-15799650D02*
X11491943Y-15799650D01*
X11491943Y-15799650D02*
X11510991Y-15809174D01*
X11510991Y-15809174D02*
X11520515Y-15828222D01*
X11520515Y-15828222D02*
X11520515Y-15932984D01*
X11910991Y-15723460D02*
X11739563Y-15980603D01*
X12168134Y-15732984D02*
X12187182Y-15732984D01*
X12187182Y-15732984D02*
X12206229Y-15742508D01*
X12206229Y-15742508D02*
X12215753Y-15752031D01*
X12215753Y-15752031D02*
X12225277Y-15771079D01*
X12225277Y-15771079D02*
X12234801Y-15809174D01*
X12234801Y-15809174D02*
X12234801Y-15856793D01*
X12234801Y-15856793D02*
X12225277Y-15894888D01*
X12225277Y-15894888D02*
X12215753Y-15913936D01*
X12215753Y-15913936D02*
X12206229Y-15923460D01*
X12206229Y-15923460D02*
X12187182Y-15932984D01*
X12187182Y-15932984D02*
X12168134Y-15932984D01*
X12168134Y-15932984D02*
X12149086Y-15923460D01*
X12149086Y-15923460D02*
X12139563Y-15913936D01*
X12139563Y-15913936D02*
X12130039Y-15894888D01*
X12130039Y-15894888D02*
X12120515Y-15856793D01*
X12120515Y-15856793D02*
X12120515Y-15809174D01*
X12120515Y-15809174D02*
X12130039Y-15771079D01*
X12130039Y-15771079D02*
X12139563Y-15752031D01*
X12139563Y-15752031D02*
X12149086Y-15742508D01*
X12149086Y-15742508D02*
X12168134Y-15732984D01*
X12320515Y-15913936D02*
X12330039Y-15923460D01*
X12330039Y-15923460D02*
X12320515Y-15932984D01*
X12320515Y-15932984D02*
X12310991Y-15923460D01*
X12310991Y-15923460D02*
X12320515Y-15913936D01*
X12320515Y-15913936D02*
X12320515Y-15932984D01*
X12453848Y-15732984D02*
X12472896Y-15732984D01*
X12472896Y-15732984D02*
X12491944Y-15742508D01*
X12491944Y-15742508D02*
X12501467Y-15752031D01*
X12501467Y-15752031D02*
X12510991Y-15771079D01*
X12510991Y-15771079D02*
X12520515Y-15809174D01*
X12520515Y-15809174D02*
X12520515Y-15856793D01*
X12520515Y-15856793D02*
X12510991Y-15894888D01*
X12510991Y-15894888D02*
X12501467Y-15913936D01*
X12501467Y-15913936D02*
X12491944Y-15923460D01*
X12491944Y-15923460D02*
X12472896Y-15932984D01*
X12472896Y-15932984D02*
X12453848Y-15932984D01*
X12453848Y-15932984D02*
X12434801Y-15923460D01*
X12434801Y-15923460D02*
X12425277Y-15913936D01*
X12425277Y-15913936D02*
X12415753Y-15894888D01*
X12415753Y-15894888D02*
X12406229Y-15856793D01*
X12406229Y-15856793D02*
X12406229Y-15809174D01*
X12406229Y-15809174D02*
X12415753Y-15771079D01*
X12415753Y-15771079D02*
X12425277Y-15752031D01*
X12425277Y-15752031D02*
X12434801Y-15742508D01*
X12434801Y-15742508D02*
X12453848Y-15732984D01*
X12587182Y-15732984D02*
X12710991Y-15732984D01*
X12710991Y-15732984D02*
X12644325Y-15809174D01*
X12644325Y-15809174D02*
X12672896Y-15809174D01*
X12672896Y-15809174D02*
X12691944Y-15818698D01*
X12691944Y-15818698D02*
X12701467Y-15828222D01*
X12701467Y-15828222D02*
X12710991Y-15847269D01*
X12710991Y-15847269D02*
X12710991Y-15894888D01*
X12710991Y-15894888D02*
X12701467Y-15913936D01*
X12701467Y-15913936D02*
X12691944Y-15923460D01*
X12691944Y-15923460D02*
X12672896Y-15932984D01*
X12672896Y-15932984D02*
X12615753Y-15932984D01*
X12615753Y-15932984D02*
X12596706Y-15923460D01*
X12596706Y-15923460D02*
X12587182Y-15913936D01*
X12787182Y-15752031D02*
X12796706Y-15742508D01*
X12796706Y-15742508D02*
X12815753Y-15732984D01*
X12815753Y-15732984D02*
X12863372Y-15732984D01*
X12863372Y-15732984D02*
X12882420Y-15742508D01*
X12882420Y-15742508D02*
X12891944Y-15752031D01*
X12891944Y-15752031D02*
X12901467Y-15771079D01*
X12901467Y-15771079D02*
X12901467Y-15790127D01*
X12901467Y-15790127D02*
X12891944Y-15818698D01*
X12891944Y-15818698D02*
X12777658Y-15932984D01*
X12777658Y-15932984D02*
X12901467Y-15932984D01*
X13025277Y-15732984D02*
X13044325Y-15732984D01*
X13044325Y-15732984D02*
X13063372Y-15742508D01*
X13063372Y-15742508D02*
X13072896Y-15752031D01*
X13072896Y-15752031D02*
X13082420Y-15771079D01*
X13082420Y-15771079D02*
X13091944Y-15809174D01*
X13091944Y-15809174D02*
X13091944Y-15856793D01*
X13091944Y-15856793D02*
X13082420Y-15894888D01*
X13082420Y-15894888D02*
X13072896Y-15913936D01*
X13072896Y-15913936D02*
X13063372Y-15923460D01*
X13063372Y-15923460D02*
X13044325Y-15932984D01*
X13044325Y-15932984D02*
X13025277Y-15932984D01*
X13025277Y-15932984D02*
X13006229Y-15923460D01*
X13006229Y-15923460D02*
X12996706Y-15913936D01*
X12996706Y-15913936D02*
X12987182Y-15894888D01*
X12987182Y-15894888D02*
X12977658Y-15856793D01*
X12977658Y-15856793D02*
X12977658Y-15809174D01*
X12977658Y-15809174D02*
X12987182Y-15771079D01*
X12987182Y-15771079D02*
X12996706Y-15752031D01*
X12996706Y-15752031D02*
X13006229Y-15742508D01*
X13006229Y-15742508D02*
X13025277Y-15732984D01*
X13168134Y-15732984D02*
X13168134Y-15771079D01*
X13244325Y-15732984D02*
X13244325Y-15771079D01*
X13539563Y-16009174D02*
X13530039Y-15999650D01*
X13530039Y-15999650D02*
X13510991Y-15971079D01*
X13510991Y-15971079D02*
X13501468Y-15952031D01*
X13501468Y-15952031D02*
X13491944Y-15923460D01*
X13491944Y-15923460D02*
X13482420Y-15875841D01*
X13482420Y-15875841D02*
X13482420Y-15837746D01*
X13482420Y-15837746D02*
X13491944Y-15790127D01*
X13491944Y-15790127D02*
X13501468Y-15761555D01*
X13501468Y-15761555D02*
X13510991Y-15742508D01*
X13510991Y-15742508D02*
X13530039Y-15713936D01*
X13530039Y-15713936D02*
X13539563Y-15704412D01*
X13701468Y-15799650D02*
X13701468Y-15932984D01*
X13653848Y-15723460D02*
X13606229Y-15866317D01*
X13606229Y-15866317D02*
X13730039Y-15866317D01*
X13958610Y-15932984D02*
X13958610Y-15732984D01*
X14044325Y-15932984D02*
X14044325Y-15828222D01*
X14044325Y-15828222D02*
X14034801Y-15809174D01*
X14034801Y-15809174D02*
X14015753Y-15799650D01*
X14015753Y-15799650D02*
X13987182Y-15799650D01*
X13987182Y-15799650D02*
X13968134Y-15809174D01*
X13968134Y-15809174D02*
X13958610Y-15818698D01*
X14168134Y-15932984D02*
X14149087Y-15923460D01*
X14149087Y-15923460D02*
X14139563Y-15913936D01*
X14139563Y-15913936D02*
X14130039Y-15894888D01*
X14130039Y-15894888D02*
X14130039Y-15837746D01*
X14130039Y-15837746D02*
X14139563Y-15818698D01*
X14139563Y-15818698D02*
X14149087Y-15809174D01*
X14149087Y-15809174D02*
X14168134Y-15799650D01*
X14168134Y-15799650D02*
X14196706Y-15799650D01*
X14196706Y-15799650D02*
X14215753Y-15809174D01*
X14215753Y-15809174D02*
X14225277Y-15818698D01*
X14225277Y-15818698D02*
X14234801Y-15837746D01*
X14234801Y-15837746D02*
X14234801Y-15894888D01*
X14234801Y-15894888D02*
X14225277Y-15913936D01*
X14225277Y-15913936D02*
X14215753Y-15923460D01*
X14215753Y-15923460D02*
X14196706Y-15932984D01*
X14196706Y-15932984D02*
X14168134Y-15932984D01*
X14349087Y-15932984D02*
X14330039Y-15923460D01*
X14330039Y-15923460D02*
X14320515Y-15904412D01*
X14320515Y-15904412D02*
X14320515Y-15732984D01*
X14501468Y-15923460D02*
X14482420Y-15932984D01*
X14482420Y-15932984D02*
X14444325Y-15932984D01*
X14444325Y-15932984D02*
X14425277Y-15923460D01*
X14425277Y-15923460D02*
X14415753Y-15904412D01*
X14415753Y-15904412D02*
X14415753Y-15828222D01*
X14415753Y-15828222D02*
X14425277Y-15809174D01*
X14425277Y-15809174D02*
X14444325Y-15799650D01*
X14444325Y-15799650D02*
X14482420Y-15799650D01*
X14482420Y-15799650D02*
X14501468Y-15809174D01*
X14501468Y-15809174D02*
X14510991Y-15828222D01*
X14510991Y-15828222D02*
X14510991Y-15847269D01*
X14510991Y-15847269D02*
X14415753Y-15866317D01*
X14587182Y-15923460D02*
X14606230Y-15932984D01*
X14606230Y-15932984D02*
X14644325Y-15932984D01*
X14644325Y-15932984D02*
X14663372Y-15923460D01*
X14663372Y-15923460D02*
X14672896Y-15904412D01*
X14672896Y-15904412D02*
X14672896Y-15894888D01*
X14672896Y-15894888D02*
X14663372Y-15875841D01*
X14663372Y-15875841D02*
X14644325Y-15866317D01*
X14644325Y-15866317D02*
X14615753Y-15866317D01*
X14615753Y-15866317D02*
X14596706Y-15856793D01*
X14596706Y-15856793D02*
X14587182Y-15837746D01*
X14587182Y-15837746D02*
X14587182Y-15828222D01*
X14587182Y-15828222D02*
X14596706Y-15809174D01*
X14596706Y-15809174D02*
X14615753Y-15799650D01*
X14615753Y-15799650D02*
X14644325Y-15799650D01*
X14644325Y-15799650D02*
X14663372Y-15809174D01*
X14739563Y-16009174D02*
X14749087Y-15999650D01*
X14749087Y-15999650D02*
X14768134Y-15971079D01*
X14768134Y-15971079D02*
X14777658Y-15952031D01*
X14777658Y-15952031D02*
X14787182Y-15923460D01*
X14787182Y-15923460D02*
X14796706Y-15875841D01*
X14796706Y-15875841D02*
X14796706Y-15837746D01*
X14796706Y-15837746D02*
X14787182Y-15790127D01*
X14787182Y-15790127D02*
X14777658Y-15761555D01*
X14777658Y-15761555D02*
X14768134Y-15742508D01*
X14768134Y-15742508D02*
X14749087Y-15713936D01*
X14749087Y-15713936D02*
X14739563Y-15704412D01*
D10*
X9951320Y-16137320D02*
X9951320Y-16073680D01*
X9887680Y-16073680D01*
X9887680Y-16137320D01*
X9951320Y-16137320D01*
D11*
X10263372Y-15996984D02*
X10282420Y-15996984D01*
X10282420Y-15996984D02*
X10301467Y-16006508D01*
X10301467Y-16006508D02*
X10310991Y-16016031D01*
X10310991Y-16016031D02*
X10320515Y-16035079D01*
X10320515Y-16035079D02*
X10330039Y-16073174D01*
X10330039Y-16073174D02*
X10330039Y-16120793D01*
X10330039Y-16120793D02*
X10320515Y-16158888D01*
X10320515Y-16158888D02*
X10310991Y-16177936D01*
X10310991Y-16177936D02*
X10301467Y-16187460D01*
X10301467Y-16187460D02*
X10282420Y-16196984D01*
X10282420Y-16196984D02*
X10263372Y-16196984D01*
X10263372Y-16196984D02*
X10244324Y-16187460D01*
X10244324Y-16187460D02*
X10234801Y-16177936D01*
X10234801Y-16177936D02*
X10225277Y-16158888D01*
X10225277Y-16158888D02*
X10215753Y-16120793D01*
X10215753Y-16120793D02*
X10215753Y-16073174D01*
X10215753Y-16073174D02*
X10225277Y-16035079D01*
X10225277Y-16035079D02*
X10234801Y-16016031D01*
X10234801Y-16016031D02*
X10244324Y-16006508D01*
X10244324Y-16006508D02*
X10263372Y-15996984D01*
X10415753Y-16177936D02*
X10425277Y-16187460D01*
X10425277Y-16187460D02*
X10415753Y-16196984D01*
X10415753Y-16196984D02*
X10406229Y-16187460D01*
X10406229Y-16187460D02*
X10415753Y-16177936D01*
X10415753Y-16177936D02*
X10415753Y-16196984D01*
X10520515Y-16196984D02*
X10558610Y-16196984D01*
X10558610Y-16196984D02*
X10577658Y-16187460D01*
X10577658Y-16187460D02*
X10587182Y-16177936D01*
X10587182Y-16177936D02*
X10606229Y-16149365D01*
X10606229Y-16149365D02*
X10615753Y-16111269D01*
X10615753Y-16111269D02*
X10615753Y-16035079D01*
X10615753Y-16035079D02*
X10606229Y-16016031D01*
X10606229Y-16016031D02*
X10596705Y-16006508D01*
X10596705Y-16006508D02*
X10577658Y-15996984D01*
X10577658Y-15996984D02*
X10539563Y-15996984D01*
X10539563Y-15996984D02*
X10520515Y-16006508D01*
X10520515Y-16006508D02*
X10510991Y-16016031D01*
X10510991Y-16016031D02*
X10501467Y-16035079D01*
X10501467Y-16035079D02*
X10501467Y-16082698D01*
X10501467Y-16082698D02*
X10510991Y-16101746D01*
X10510991Y-16101746D02*
X10520515Y-16111269D01*
X10520515Y-16111269D02*
X10539563Y-16120793D01*
X10539563Y-16120793D02*
X10577658Y-16120793D01*
X10577658Y-16120793D02*
X10596705Y-16111269D01*
X10596705Y-16111269D02*
X10606229Y-16101746D01*
X10606229Y-16101746D02*
X10615753Y-16082698D01*
X10739563Y-15996984D02*
X10758610Y-15996984D01*
X10758610Y-15996984D02*
X10777658Y-16006508D01*
X10777658Y-16006508D02*
X10787182Y-16016031D01*
X10787182Y-16016031D02*
X10796705Y-16035079D01*
X10796705Y-16035079D02*
X10806229Y-16073174D01*
X10806229Y-16073174D02*
X10806229Y-16120793D01*
X10806229Y-16120793D02*
X10796705Y-16158888D01*
X10796705Y-16158888D02*
X10787182Y-16177936D01*
X10787182Y-16177936D02*
X10777658Y-16187460D01*
X10777658Y-16187460D02*
X10758610Y-16196984D01*
X10758610Y-16196984D02*
X10739563Y-16196984D01*
X10739563Y-16196984D02*
X10720515Y-16187460D01*
X10720515Y-16187460D02*
X10710991Y-16177936D01*
X10710991Y-16177936D02*
X10701467Y-16158888D01*
X10701467Y-16158888D02*
X10691944Y-16120793D01*
X10691944Y-16120793D02*
X10691944Y-16073174D01*
X10691944Y-16073174D02*
X10701467Y-16035079D01*
X10701467Y-16035079D02*
X10710991Y-16016031D01*
X10710991Y-16016031D02*
X10720515Y-16006508D01*
X10720515Y-16006508D02*
X10739563Y-15996984D01*
X10930039Y-15996984D02*
X10949086Y-15996984D01*
X10949086Y-15996984D02*
X10968134Y-16006508D01*
X10968134Y-16006508D02*
X10977658Y-16016031D01*
X10977658Y-16016031D02*
X10987182Y-16035079D01*
X10987182Y-16035079D02*
X10996705Y-16073174D01*
X10996705Y-16073174D02*
X10996705Y-16120793D01*
X10996705Y-16120793D02*
X10987182Y-16158888D01*
X10987182Y-16158888D02*
X10977658Y-16177936D01*
X10977658Y-16177936D02*
X10968134Y-16187460D01*
X10968134Y-16187460D02*
X10949086Y-16196984D01*
X10949086Y-16196984D02*
X10930039Y-16196984D01*
X10930039Y-16196984D02*
X10910991Y-16187460D01*
X10910991Y-16187460D02*
X10901467Y-16177936D01*
X10901467Y-16177936D02*
X10891944Y-16158888D01*
X10891944Y-16158888D02*
X10882420Y-16120793D01*
X10882420Y-16120793D02*
X10882420Y-16073174D01*
X10882420Y-16073174D02*
X10891944Y-16035079D01*
X10891944Y-16035079D02*
X10901467Y-16016031D01*
X10901467Y-16016031D02*
X10910991Y-16006508D01*
X10910991Y-16006508D02*
X10930039Y-15996984D01*
X11082420Y-16196984D02*
X11082420Y-16063650D01*
X11082420Y-16082698D02*
X11091944Y-16073174D01*
X11091944Y-16073174D02*
X11110991Y-16063650D01*
X11110991Y-16063650D02*
X11139563Y-16063650D01*
X11139563Y-16063650D02*
X11158610Y-16073174D01*
X11158610Y-16073174D02*
X11168134Y-16092222D01*
X11168134Y-16092222D02*
X11168134Y-16196984D01*
X11168134Y-16092222D02*
X11177658Y-16073174D01*
X11177658Y-16073174D02*
X11196705Y-16063650D01*
X11196705Y-16063650D02*
X11225277Y-16063650D01*
X11225277Y-16063650D02*
X11244324Y-16073174D01*
X11244324Y-16073174D02*
X11253848Y-16092222D01*
X11253848Y-16092222D02*
X11253848Y-16196984D01*
X11349086Y-16196984D02*
X11349086Y-16063650D01*
X11349086Y-16082698D02*
X11358610Y-16073174D01*
X11358610Y-16073174D02*
X11377658Y-16063650D01*
X11377658Y-16063650D02*
X11406229Y-16063650D01*
X11406229Y-16063650D02*
X11425277Y-16073174D01*
X11425277Y-16073174D02*
X11434801Y-16092222D01*
X11434801Y-16092222D02*
X11434801Y-16196984D01*
X11434801Y-16092222D02*
X11444324Y-16073174D01*
X11444324Y-16073174D02*
X11463372Y-16063650D01*
X11463372Y-16063650D02*
X11491943Y-16063650D01*
X11491943Y-16063650D02*
X11510991Y-16073174D01*
X11510991Y-16073174D02*
X11520515Y-16092222D01*
X11520515Y-16092222D02*
X11520515Y-16196984D01*
X11910991Y-15987460D02*
X11739563Y-16244603D01*
X12168134Y-15996984D02*
X12187182Y-15996984D01*
X12187182Y-15996984D02*
X12206229Y-16006508D01*
X12206229Y-16006508D02*
X12215753Y-16016031D01*
X12215753Y-16016031D02*
X12225277Y-16035079D01*
X12225277Y-16035079D02*
X12234801Y-16073174D01*
X12234801Y-16073174D02*
X12234801Y-16120793D01*
X12234801Y-16120793D02*
X12225277Y-16158888D01*
X12225277Y-16158888D02*
X12215753Y-16177936D01*
X12215753Y-16177936D02*
X12206229Y-16187460D01*
X12206229Y-16187460D02*
X12187182Y-16196984D01*
X12187182Y-16196984D02*
X12168134Y-16196984D01*
X12168134Y-16196984D02*
X12149086Y-16187460D01*
X12149086Y-16187460D02*
X12139563Y-16177936D01*
X12139563Y-16177936D02*
X12130039Y-16158888D01*
X12130039Y-16158888D02*
X12120515Y-16120793D01*
X12120515Y-16120793D02*
X12120515Y-16073174D01*
X12120515Y-16073174D02*
X12130039Y-16035079D01*
X12130039Y-16035079D02*
X12139563Y-16016031D01*
X12139563Y-16016031D02*
X12149086Y-16006508D01*
X12149086Y-16006508D02*
X12168134Y-15996984D01*
X12320515Y-16177936D02*
X12330039Y-16187460D01*
X12330039Y-16187460D02*
X12320515Y-16196984D01*
X12320515Y-16196984D02*
X12310991Y-16187460D01*
X12310991Y-16187460D02*
X12320515Y-16177936D01*
X12320515Y-16177936D02*
X12320515Y-16196984D01*
X12453848Y-15996984D02*
X12472896Y-15996984D01*
X12472896Y-15996984D02*
X12491944Y-16006508D01*
X12491944Y-16006508D02*
X12501467Y-16016031D01*
X12501467Y-16016031D02*
X12510991Y-16035079D01*
X12510991Y-16035079D02*
X12520515Y-16073174D01*
X12520515Y-16073174D02*
X12520515Y-16120793D01*
X12520515Y-16120793D02*
X12510991Y-16158888D01*
X12510991Y-16158888D02*
X12501467Y-16177936D01*
X12501467Y-16177936D02*
X12491944Y-16187460D01*
X12491944Y-16187460D02*
X12472896Y-16196984D01*
X12472896Y-16196984D02*
X12453848Y-16196984D01*
X12453848Y-16196984D02*
X12434801Y-16187460D01*
X12434801Y-16187460D02*
X12425277Y-16177936D01*
X12425277Y-16177936D02*
X12415753Y-16158888D01*
X12415753Y-16158888D02*
X12406229Y-16120793D01*
X12406229Y-16120793D02*
X12406229Y-16073174D01*
X12406229Y-16073174D02*
X12415753Y-16035079D01*
X12415753Y-16035079D02*
X12425277Y-16016031D01*
X12425277Y-16016031D02*
X12434801Y-16006508D01*
X12434801Y-16006508D02*
X12453848Y-15996984D01*
X12587182Y-15996984D02*
X12710991Y-15996984D01*
X12710991Y-15996984D02*
X12644325Y-16073174D01*
X12644325Y-16073174D02*
X12672896Y-16073174D01*
X12672896Y-16073174D02*
X12691944Y-16082698D01*
X12691944Y-16082698D02*
X12701467Y-16092222D01*
X12701467Y-16092222D02*
X12710991Y-16111269D01*
X12710991Y-16111269D02*
X12710991Y-16158888D01*
X12710991Y-16158888D02*
X12701467Y-16177936D01*
X12701467Y-16177936D02*
X12691944Y-16187460D01*
X12691944Y-16187460D02*
X12672896Y-16196984D01*
X12672896Y-16196984D02*
X12615753Y-16196984D01*
X12615753Y-16196984D02*
X12596706Y-16187460D01*
X12596706Y-16187460D02*
X12587182Y-16177936D01*
X12891944Y-15996984D02*
X12796706Y-15996984D01*
X12796706Y-15996984D02*
X12787182Y-16092222D01*
X12787182Y-16092222D02*
X12796706Y-16082698D01*
X12796706Y-16082698D02*
X12815753Y-16073174D01*
X12815753Y-16073174D02*
X12863372Y-16073174D01*
X12863372Y-16073174D02*
X12882420Y-16082698D01*
X12882420Y-16082698D02*
X12891944Y-16092222D01*
X12891944Y-16092222D02*
X12901467Y-16111269D01*
X12901467Y-16111269D02*
X12901467Y-16158888D01*
X12901467Y-16158888D02*
X12891944Y-16177936D01*
X12891944Y-16177936D02*
X12882420Y-16187460D01*
X12882420Y-16187460D02*
X12863372Y-16196984D01*
X12863372Y-16196984D02*
X12815753Y-16196984D01*
X12815753Y-16196984D02*
X12796706Y-16187460D01*
X12796706Y-16187460D02*
X12787182Y-16177936D01*
X13072896Y-16063650D02*
X13072896Y-16196984D01*
X13025277Y-15987460D02*
X12977658Y-16130317D01*
X12977658Y-16130317D02*
X13101467Y-16130317D01*
X13168134Y-15996984D02*
X13168134Y-16035079D01*
X13244325Y-15996984D02*
X13244325Y-16035079D01*
X13539563Y-16273174D02*
X13530039Y-16263650D01*
X13530039Y-16263650D02*
X13510991Y-16235079D01*
X13510991Y-16235079D02*
X13501468Y-16216031D01*
X13501468Y-16216031D02*
X13491944Y-16187460D01*
X13491944Y-16187460D02*
X13482420Y-16139841D01*
X13482420Y-16139841D02*
X13482420Y-16101746D01*
X13482420Y-16101746D02*
X13491944Y-16054127D01*
X13491944Y-16054127D02*
X13501468Y-16025555D01*
X13501468Y-16025555D02*
X13510991Y-16006508D01*
X13510991Y-16006508D02*
X13530039Y-15977936D01*
X13530039Y-15977936D02*
X13539563Y-15968412D01*
X13606229Y-16016031D02*
X13615753Y-16006508D01*
X13615753Y-16006508D02*
X13634801Y-15996984D01*
X13634801Y-15996984D02*
X13682420Y-15996984D01*
X13682420Y-15996984D02*
X13701468Y-16006508D01*
X13701468Y-16006508D02*
X13710991Y-16016031D01*
X13710991Y-16016031D02*
X13720515Y-16035079D01*
X13720515Y-16035079D02*
X13720515Y-16054127D01*
X13720515Y-16054127D02*
X13710991Y-16082698D01*
X13710991Y-16082698D02*
X13596706Y-16196984D01*
X13596706Y-16196984D02*
X13720515Y-16196984D01*
X13958610Y-16196984D02*
X13958610Y-15996984D01*
X14044325Y-16196984D02*
X14044325Y-16092222D01*
X14044325Y-16092222D02*
X14034801Y-16073174D01*
X14034801Y-16073174D02*
X14015753Y-16063650D01*
X14015753Y-16063650D02*
X13987182Y-16063650D01*
X13987182Y-16063650D02*
X13968134Y-16073174D01*
X13968134Y-16073174D02*
X13958610Y-16082698D01*
X14168134Y-16196984D02*
X14149087Y-16187460D01*
X14149087Y-16187460D02*
X14139563Y-16177936D01*
X14139563Y-16177936D02*
X14130039Y-16158888D01*
X14130039Y-16158888D02*
X14130039Y-16101746D01*
X14130039Y-16101746D02*
X14139563Y-16082698D01*
X14139563Y-16082698D02*
X14149087Y-16073174D01*
X14149087Y-16073174D02*
X14168134Y-16063650D01*
X14168134Y-16063650D02*
X14196706Y-16063650D01*
X14196706Y-16063650D02*
X14215753Y-16073174D01*
X14215753Y-16073174D02*
X14225277Y-16082698D01*
X14225277Y-16082698D02*
X14234801Y-16101746D01*
X14234801Y-16101746D02*
X14234801Y-16158888D01*
X14234801Y-16158888D02*
X14225277Y-16177936D01*
X14225277Y-16177936D02*
X14215753Y-16187460D01*
X14215753Y-16187460D02*
X14196706Y-16196984D01*
X14196706Y-16196984D02*
X14168134Y-16196984D01*
X14349087Y-16196984D02*
X14330039Y-16187460D01*
X14330039Y-16187460D02*
X14320515Y-16168412D01*
X14320515Y-16168412D02*
X14320515Y-15996984D01*
X14501468Y-16187460D02*
X14482420Y-16196984D01*
X14482420Y-16196984D02*
X14444325Y-16196984D01*
X14444325Y-16196984D02*
X14425277Y-16187460D01*
X14425277Y-16187460D02*
X14415753Y-16168412D01*
X14415753Y-16168412D02*
X14415753Y-16092222D01*
X14415753Y-16092222D02*
X14425277Y-16073174D01*
X14425277Y-16073174D02*
X14444325Y-16063650D01*
X14444325Y-16063650D02*
X14482420Y-16063650D01*
X14482420Y-16063650D02*
X14501468Y-16073174D01*
X14501468Y-16073174D02*
X14510991Y-16092222D01*
X14510991Y-16092222D02*
X14510991Y-16111269D01*
X14510991Y-16111269D02*
X14415753Y-16130317D01*
X14587182Y-16187460D02*
X14606230Y-16196984D01*
X14606230Y-16196984D02*
X14644325Y-16196984D01*
X14644325Y-16196984D02*
X14663372Y-16187460D01*
X14663372Y-16187460D02*
X14672896Y-16168412D01*
X14672896Y-16168412D02*
X14672896Y-16158888D01*
X14672896Y-16158888D02*
X14663372Y-16139841D01*
X14663372Y-16139841D02*
X14644325Y-16130317D01*
X14644325Y-16130317D02*
X14615753Y-16130317D01*
X14615753Y-16130317D02*
X14596706Y-16120793D01*
X14596706Y-16120793D02*
X14587182Y-16101746D01*
X14587182Y-16101746D02*
X14587182Y-16092222D01*
X14587182Y-16092222D02*
X14596706Y-16073174D01*
X14596706Y-16073174D02*
X14615753Y-16063650D01*
X14615753Y-16063650D02*
X14644325Y-16063650D01*
X14644325Y-16063650D02*
X14663372Y-16073174D01*
X14739563Y-16273174D02*
X14749087Y-16263650D01*
X14749087Y-16263650D02*
X14768134Y-16235079D01*
X14768134Y-16235079D02*
X14777658Y-16216031D01*
X14777658Y-16216031D02*
X14787182Y-16187460D01*
X14787182Y-16187460D02*
X14796706Y-16139841D01*
X14796706Y-16139841D02*
X14796706Y-16101746D01*
X14796706Y-16101746D02*
X14787182Y-16054127D01*
X14787182Y-16054127D02*
X14777658Y-16025555D01*
X14777658Y-16025555D02*
X14768134Y-16006508D01*
X14768134Y-16006508D02*
X14749087Y-15977936D01*
X14749087Y-15977936D02*
X14739563Y-15968412D01*
D12*
X9907350Y-16426650D02*
X9964500Y-16369500D01*
X9907350Y-16312350D01*
X9850200Y-16369500D01*
X9907350Y-16426650D01*
D11*
X10330039Y-16460984D02*
X10215753Y-16460984D01*
X10272896Y-16460984D02*
X10272896Y-16260984D01*
X10272896Y-16260984D02*
X10253848Y-16289555D01*
X10253848Y-16289555D02*
X10234801Y-16308603D01*
X10234801Y-16308603D02*
X10215753Y-16318127D01*
X10415753Y-16441936D02*
X10425277Y-16451460D01*
X10425277Y-16451460D02*
X10415753Y-16460984D01*
X10415753Y-16460984D02*
X10406229Y-16451460D01*
X10406229Y-16451460D02*
X10415753Y-16441936D01*
X10415753Y-16441936D02*
X10415753Y-16460984D01*
X10615753Y-16460984D02*
X10501467Y-16460984D01*
X10558610Y-16460984D02*
X10558610Y-16260984D01*
X10558610Y-16260984D02*
X10539563Y-16289555D01*
X10539563Y-16289555D02*
X10520515Y-16308603D01*
X10520515Y-16308603D02*
X10501467Y-16318127D01*
X10787182Y-16327650D02*
X10787182Y-16460984D01*
X10739563Y-16251460D02*
X10691944Y-16394317D01*
X10691944Y-16394317D02*
X10815753Y-16394317D01*
X10872896Y-16260984D02*
X10996705Y-16260984D01*
X10996705Y-16260984D02*
X10930039Y-16337174D01*
X10930039Y-16337174D02*
X10958610Y-16337174D01*
X10958610Y-16337174D02*
X10977658Y-16346698D01*
X10977658Y-16346698D02*
X10987182Y-16356222D01*
X10987182Y-16356222D02*
X10996705Y-16375269D01*
X10996705Y-16375269D02*
X10996705Y-16422888D01*
X10996705Y-16422888D02*
X10987182Y-16441936D01*
X10987182Y-16441936D02*
X10977658Y-16451460D01*
X10977658Y-16451460D02*
X10958610Y-16460984D01*
X10958610Y-16460984D02*
X10901467Y-16460984D01*
X10901467Y-16460984D02*
X10882420Y-16451460D01*
X10882420Y-16451460D02*
X10872896Y-16441936D01*
X11082420Y-16460984D02*
X11082420Y-16327650D01*
X11082420Y-16346698D02*
X11091944Y-16337174D01*
X11091944Y-16337174D02*
X11110991Y-16327650D01*
X11110991Y-16327650D02*
X11139563Y-16327650D01*
X11139563Y-16327650D02*
X11158610Y-16337174D01*
X11158610Y-16337174D02*
X11168134Y-16356222D01*
X11168134Y-16356222D02*
X11168134Y-16460984D01*
X11168134Y-16356222D02*
X11177658Y-16337174D01*
X11177658Y-16337174D02*
X11196705Y-16327650D01*
X11196705Y-16327650D02*
X11225277Y-16327650D01*
X11225277Y-16327650D02*
X11244324Y-16337174D01*
X11244324Y-16337174D02*
X11253848Y-16356222D01*
X11253848Y-16356222D02*
X11253848Y-16460984D01*
X11349086Y-16460984D02*
X11349086Y-16327650D01*
X11349086Y-16346698D02*
X11358610Y-16337174D01*
X11358610Y-16337174D02*
X11377658Y-16327650D01*
X11377658Y-16327650D02*
X11406229Y-16327650D01*
X11406229Y-16327650D02*
X11425277Y-16337174D01*
X11425277Y-16337174D02*
X11434801Y-16356222D01*
X11434801Y-16356222D02*
X11434801Y-16460984D01*
X11434801Y-16356222D02*
X11444324Y-16337174D01*
X11444324Y-16337174D02*
X11463372Y-16327650D01*
X11463372Y-16327650D02*
X11491943Y-16327650D01*
X11491943Y-16327650D02*
X11510991Y-16337174D01*
X11510991Y-16337174D02*
X11520515Y-16356222D01*
X11520515Y-16356222D02*
X11520515Y-16460984D01*
X11910991Y-16251460D02*
X11739563Y-16508603D01*
X12168134Y-16260984D02*
X12187182Y-16260984D01*
X12187182Y-16260984D02*
X12206229Y-16270508D01*
X12206229Y-16270508D02*
X12215753Y-16280031D01*
X12215753Y-16280031D02*
X12225277Y-16299079D01*
X12225277Y-16299079D02*
X12234801Y-16337174D01*
X12234801Y-16337174D02*
X12234801Y-16384793D01*
X12234801Y-16384793D02*
X12225277Y-16422888D01*
X12225277Y-16422888D02*
X12215753Y-16441936D01*
X12215753Y-16441936D02*
X12206229Y-16451460D01*
X12206229Y-16451460D02*
X12187182Y-16460984D01*
X12187182Y-16460984D02*
X12168134Y-16460984D01*
X12168134Y-16460984D02*
X12149086Y-16451460D01*
X12149086Y-16451460D02*
X12139563Y-16441936D01*
X12139563Y-16441936D02*
X12130039Y-16422888D01*
X12130039Y-16422888D02*
X12120515Y-16384793D01*
X12120515Y-16384793D02*
X12120515Y-16337174D01*
X12120515Y-16337174D02*
X12130039Y-16299079D01*
X12130039Y-16299079D02*
X12139563Y-16280031D01*
X12139563Y-16280031D02*
X12149086Y-16270508D01*
X12149086Y-16270508D02*
X12168134Y-16260984D01*
X12320515Y-16441936D02*
X12330039Y-16451460D01*
X12330039Y-16451460D02*
X12320515Y-16460984D01*
X12320515Y-16460984D02*
X12310991Y-16451460D01*
X12310991Y-16451460D02*
X12320515Y-16441936D01*
X12320515Y-16441936D02*
X12320515Y-16460984D01*
X12453848Y-16260984D02*
X12472896Y-16260984D01*
X12472896Y-16260984D02*
X12491944Y-16270508D01*
X12491944Y-16270508D02*
X12501467Y-16280031D01*
X12501467Y-16280031D02*
X12510991Y-16299079D01*
X12510991Y-16299079D02*
X12520515Y-16337174D01*
X12520515Y-16337174D02*
X12520515Y-16384793D01*
X12520515Y-16384793D02*
X12510991Y-16422888D01*
X12510991Y-16422888D02*
X12501467Y-16441936D01*
X12501467Y-16441936D02*
X12491944Y-16451460D01*
X12491944Y-16451460D02*
X12472896Y-16460984D01*
X12472896Y-16460984D02*
X12453848Y-16460984D01*
X12453848Y-16460984D02*
X12434801Y-16451460D01*
X12434801Y-16451460D02*
X12425277Y-16441936D01*
X12425277Y-16441936D02*
X12415753Y-16422888D01*
X12415753Y-16422888D02*
X12406229Y-16384793D01*
X12406229Y-16384793D02*
X12406229Y-16337174D01*
X12406229Y-16337174D02*
X12415753Y-16299079D01*
X12415753Y-16299079D02*
X12425277Y-16280031D01*
X12425277Y-16280031D02*
X12434801Y-16270508D01*
X12434801Y-16270508D02*
X12453848Y-16260984D01*
X12691944Y-16327650D02*
X12691944Y-16460984D01*
X12644325Y-16251460D02*
X12596706Y-16394317D01*
X12596706Y-16394317D02*
X12720515Y-16394317D01*
X12891944Y-16260984D02*
X12796706Y-16260984D01*
X12796706Y-16260984D02*
X12787182Y-16356222D01*
X12787182Y-16356222D02*
X12796706Y-16346698D01*
X12796706Y-16346698D02*
X12815753Y-16337174D01*
X12815753Y-16337174D02*
X12863372Y-16337174D01*
X12863372Y-16337174D02*
X12882420Y-16346698D01*
X12882420Y-16346698D02*
X12891944Y-16356222D01*
X12891944Y-16356222D02*
X12901467Y-16375269D01*
X12901467Y-16375269D02*
X12901467Y-16422888D01*
X12901467Y-16422888D02*
X12891944Y-16441936D01*
X12891944Y-16441936D02*
X12882420Y-16451460D01*
X12882420Y-16451460D02*
X12863372Y-16460984D01*
X12863372Y-16460984D02*
X12815753Y-16460984D01*
X12815753Y-16460984D02*
X12796706Y-16451460D01*
X12796706Y-16451460D02*
X12787182Y-16441936D01*
X13025277Y-16260984D02*
X13044325Y-16260984D01*
X13044325Y-16260984D02*
X13063372Y-16270508D01*
X13063372Y-16270508D02*
X13072896Y-16280031D01*
X13072896Y-16280031D02*
X13082420Y-16299079D01*
X13082420Y-16299079D02*
X13091944Y-16337174D01*
X13091944Y-16337174D02*
X13091944Y-16384793D01*
X13091944Y-16384793D02*
X13082420Y-16422888D01*
X13082420Y-16422888D02*
X13072896Y-16441936D01*
X13072896Y-16441936D02*
X13063372Y-16451460D01*
X13063372Y-16451460D02*
X13044325Y-16460984D01*
X13044325Y-16460984D02*
X13025277Y-16460984D01*
X13025277Y-16460984D02*
X13006229Y-16451460D01*
X13006229Y-16451460D02*
X12996706Y-16441936D01*
X12996706Y-16441936D02*
X12987182Y-16422888D01*
X12987182Y-16422888D02*
X12977658Y-16384793D01*
X12977658Y-16384793D02*
X12977658Y-16337174D01*
X12977658Y-16337174D02*
X12987182Y-16299079D01*
X12987182Y-16299079D02*
X12996706Y-16280031D01*
X12996706Y-16280031D02*
X13006229Y-16270508D01*
X13006229Y-16270508D02*
X13025277Y-16260984D01*
X13168134Y-16260984D02*
X13168134Y-16299079D01*
X13244325Y-16260984D02*
X13244325Y-16299079D01*
X13539563Y-16537174D02*
X13530039Y-16527650D01*
X13530039Y-16527650D02*
X13510991Y-16499079D01*
X13510991Y-16499079D02*
X13501468Y-16480031D01*
X13501468Y-16480031D02*
X13491944Y-16451460D01*
X13491944Y-16451460D02*
X13482420Y-16403841D01*
X13482420Y-16403841D02*
X13482420Y-16365746D01*
X13482420Y-16365746D02*
X13491944Y-16318127D01*
X13491944Y-16318127D02*
X13501468Y-16289555D01*
X13501468Y-16289555D02*
X13510991Y-16270508D01*
X13510991Y-16270508D02*
X13530039Y-16241936D01*
X13530039Y-16241936D02*
X13539563Y-16232412D01*
X13596706Y-16260984D02*
X13720515Y-16260984D01*
X13720515Y-16260984D02*
X13653848Y-16337174D01*
X13653848Y-16337174D02*
X13682420Y-16337174D01*
X13682420Y-16337174D02*
X13701468Y-16346698D01*
X13701468Y-16346698D02*
X13710991Y-16356222D01*
X13710991Y-16356222D02*
X13720515Y-16375269D01*
X13720515Y-16375269D02*
X13720515Y-16422888D01*
X13720515Y-16422888D02*
X13710991Y-16441936D01*
X13710991Y-16441936D02*
X13701468Y-16451460D01*
X13701468Y-16451460D02*
X13682420Y-16460984D01*
X13682420Y-16460984D02*
X13625277Y-16460984D01*
X13625277Y-16460984D02*
X13606229Y-16451460D01*
X13606229Y-16451460D02*
X13596706Y-16441936D01*
X13958610Y-16460984D02*
X13958610Y-16260984D01*
X14044325Y-16460984D02*
X14044325Y-16356222D01*
X14044325Y-16356222D02*
X14034801Y-16337174D01*
X14034801Y-16337174D02*
X14015753Y-16327650D01*
X14015753Y-16327650D02*
X13987182Y-16327650D01*
X13987182Y-16327650D02*
X13968134Y-16337174D01*
X13968134Y-16337174D02*
X13958610Y-16346698D01*
X14168134Y-16460984D02*
X14149087Y-16451460D01*
X14149087Y-16451460D02*
X14139563Y-16441936D01*
X14139563Y-16441936D02*
X14130039Y-16422888D01*
X14130039Y-16422888D02*
X14130039Y-16365746D01*
X14130039Y-16365746D02*
X14139563Y-16346698D01*
X14139563Y-16346698D02*
X14149087Y-16337174D01*
X14149087Y-16337174D02*
X14168134Y-16327650D01*
X14168134Y-16327650D02*
X14196706Y-16327650D01*
X14196706Y-16327650D02*
X14215753Y-16337174D01*
X14215753Y-16337174D02*
X14225277Y-16346698D01*
X14225277Y-16346698D02*
X14234801Y-16365746D01*
X14234801Y-16365746D02*
X14234801Y-16422888D01*
X14234801Y-16422888D02*
X14225277Y-16441936D01*
X14225277Y-16441936D02*
X14215753Y-16451460D01*
X14215753Y-16451460D02*
X14196706Y-16460984D01*
X14196706Y-16460984D02*
X14168134Y-16460984D01*
X14349087Y-16460984D02*
X14330039Y-16451460D01*
X14330039Y-16451460D02*
X14320515Y-16432412D01*
X14320515Y-16432412D02*
X14320515Y-16260984D01*
X14501468Y-16451460D02*
X14482420Y-16460984D01*
X14482420Y-16460984D02*
X14444325Y-16460984D01*
X14444325Y-16460984D02*
X14425277Y-16451460D01*
X14425277Y-16451460D02*
X14415753Y-16432412D01*
X14415753Y-16432412D02*
X14415753Y-16356222D01*
X14415753Y-16356222D02*
X14425277Y-16337174D01*
X14425277Y-16337174D02*
X14444325Y-16327650D01*
X14444325Y-16327650D02*
X14482420Y-16327650D01*
X14482420Y-16327650D02*
X14501468Y-16337174D01*
X14501468Y-16337174D02*
X14510991Y-16356222D01*
X14510991Y-16356222D02*
X14510991Y-16375269D01*
X14510991Y-16375269D02*
X14415753Y-16394317D01*
X14587182Y-16451460D02*
X14606230Y-16460984D01*
X14606230Y-16460984D02*
X14644325Y-16460984D01*
X14644325Y-16460984D02*
X14663372Y-16451460D01*
X14663372Y-16451460D02*
X14672896Y-16432412D01*
X14672896Y-16432412D02*
X14672896Y-16422888D01*
X14672896Y-16422888D02*
X14663372Y-16403841D01*
X14663372Y-16403841D02*
X14644325Y-16394317D01*
X14644325Y-16394317D02*
X14615753Y-16394317D01*
X14615753Y-16394317D02*
X14596706Y-16384793D01*
X14596706Y-16384793D02*
X14587182Y-16365746D01*
X14587182Y-16365746D02*
X14587182Y-16356222D01*
X14587182Y-16356222D02*
X14596706Y-16337174D01*
X14596706Y-16337174D02*
X14615753Y-16327650D01*
X14615753Y-16327650D02*
X14644325Y-16327650D01*
X14644325Y-16327650D02*
X14663372Y-16337174D01*
X14739563Y-16537174D02*
X14749087Y-16527650D01*
X14749087Y-16527650D02*
X14768134Y-16499079D01*
X14768134Y-16499079D02*
X14777658Y-16480031D01*
X14777658Y-16480031D02*
X14787182Y-16451460D01*
X14787182Y-16451460D02*
X14796706Y-16403841D01*
X14796706Y-16403841D02*
X14796706Y-16365746D01*
X14796706Y-16365746D02*
X14787182Y-16318127D01*
X14787182Y-16318127D02*
X14777658Y-16289555D01*
X14777658Y-16289555D02*
X14768134Y-16270508D01*
X14768134Y-16270508D02*
X14749087Y-16241936D01*
X14749087Y-16241936D02*
X14739563Y-16232412D01*
D13*
X9842580Y-16572540D02*
X9964500Y-16694460D01*
X9964500Y-16572540D02*
X9842580Y-16694460D01*
X9964500Y-16633500D02*
G75*
G02*
X9842580Y-16633500I-60960J0D01*
G01*
X9842580Y-16633500D02*
G75*
G02*
X9964500Y-16633500I60960J0D01*
G01*
D11*
X10330039Y-16724984D02*
X10215753Y-16724984D01*
X10272896Y-16724984D02*
X10272896Y-16524984D01*
X10272896Y-16524984D02*
X10253848Y-16553555D01*
X10253848Y-16553555D02*
X10234801Y-16572603D01*
X10234801Y-16572603D02*
X10215753Y-16582127D01*
X10415753Y-16705936D02*
X10425277Y-16715460D01*
X10425277Y-16715460D02*
X10415753Y-16724984D01*
X10415753Y-16724984D02*
X10406229Y-16715460D01*
X10406229Y-16715460D02*
X10415753Y-16705936D01*
X10415753Y-16705936D02*
X10415753Y-16724984D01*
X10501467Y-16544031D02*
X10510991Y-16534508D01*
X10510991Y-16534508D02*
X10530039Y-16524984D01*
X10530039Y-16524984D02*
X10577658Y-16524984D01*
X10577658Y-16524984D02*
X10596705Y-16534508D01*
X10596705Y-16534508D02*
X10606229Y-16544031D01*
X10606229Y-16544031D02*
X10615753Y-16563079D01*
X10615753Y-16563079D02*
X10615753Y-16582127D01*
X10615753Y-16582127D02*
X10606229Y-16610698D01*
X10606229Y-16610698D02*
X10491944Y-16724984D01*
X10491944Y-16724984D02*
X10615753Y-16724984D01*
X10806229Y-16724984D02*
X10691944Y-16724984D01*
X10749086Y-16724984D02*
X10749086Y-16524984D01*
X10749086Y-16524984D02*
X10730039Y-16553555D01*
X10730039Y-16553555D02*
X10710991Y-16572603D01*
X10710991Y-16572603D02*
X10691944Y-16582127D01*
X10901467Y-16724984D02*
X10939563Y-16724984D01*
X10939563Y-16724984D02*
X10958610Y-16715460D01*
X10958610Y-16715460D02*
X10968134Y-16705936D01*
X10968134Y-16705936D02*
X10987182Y-16677365D01*
X10987182Y-16677365D02*
X10996705Y-16639269D01*
X10996705Y-16639269D02*
X10996705Y-16563079D01*
X10996705Y-16563079D02*
X10987182Y-16544031D01*
X10987182Y-16544031D02*
X10977658Y-16534508D01*
X10977658Y-16534508D02*
X10958610Y-16524984D01*
X10958610Y-16524984D02*
X10920515Y-16524984D01*
X10920515Y-16524984D02*
X10901467Y-16534508D01*
X10901467Y-16534508D02*
X10891944Y-16544031D01*
X10891944Y-16544031D02*
X10882420Y-16563079D01*
X10882420Y-16563079D02*
X10882420Y-16610698D01*
X10882420Y-16610698D02*
X10891944Y-16629746D01*
X10891944Y-16629746D02*
X10901467Y-16639269D01*
X10901467Y-16639269D02*
X10920515Y-16648793D01*
X10920515Y-16648793D02*
X10958610Y-16648793D01*
X10958610Y-16648793D02*
X10977658Y-16639269D01*
X10977658Y-16639269D02*
X10987182Y-16629746D01*
X10987182Y-16629746D02*
X10996705Y-16610698D01*
X11082420Y-16724984D02*
X11082420Y-16591650D01*
X11082420Y-16610698D02*
X11091944Y-16601174D01*
X11091944Y-16601174D02*
X11110991Y-16591650D01*
X11110991Y-16591650D02*
X11139563Y-16591650D01*
X11139563Y-16591650D02*
X11158610Y-16601174D01*
X11158610Y-16601174D02*
X11168134Y-16620222D01*
X11168134Y-16620222D02*
X11168134Y-16724984D01*
X11168134Y-16620222D02*
X11177658Y-16601174D01*
X11177658Y-16601174D02*
X11196705Y-16591650D01*
X11196705Y-16591650D02*
X11225277Y-16591650D01*
X11225277Y-16591650D02*
X11244324Y-16601174D01*
X11244324Y-16601174D02*
X11253848Y-16620222D01*
X11253848Y-16620222D02*
X11253848Y-16724984D01*
X11349086Y-16724984D02*
X11349086Y-16591650D01*
X11349086Y-16610698D02*
X11358610Y-16601174D01*
X11358610Y-16601174D02*
X11377658Y-16591650D01*
X11377658Y-16591650D02*
X11406229Y-16591650D01*
X11406229Y-16591650D02*
X11425277Y-16601174D01*
X11425277Y-16601174D02*
X11434801Y-16620222D01*
X11434801Y-16620222D02*
X11434801Y-16724984D01*
X11434801Y-16620222D02*
X11444324Y-16601174D01*
X11444324Y-16601174D02*
X11463372Y-16591650D01*
X11463372Y-16591650D02*
X11491943Y-16591650D01*
X11491943Y-16591650D02*
X11510991Y-16601174D01*
X11510991Y-16601174D02*
X11520515Y-16620222D01*
X11520515Y-16620222D02*
X11520515Y-16724984D01*
X11910991Y-16515460D02*
X11739563Y-16772603D01*
X12168134Y-16524984D02*
X12187182Y-16524984D01*
X12187182Y-16524984D02*
X12206229Y-16534508D01*
X12206229Y-16534508D02*
X12215753Y-16544031D01*
X12215753Y-16544031D02*
X12225277Y-16563079D01*
X12225277Y-16563079D02*
X12234801Y-16601174D01*
X12234801Y-16601174D02*
X12234801Y-16648793D01*
X12234801Y-16648793D02*
X12225277Y-16686888D01*
X12225277Y-16686888D02*
X12215753Y-16705936D01*
X12215753Y-16705936D02*
X12206229Y-16715460D01*
X12206229Y-16715460D02*
X12187182Y-16724984D01*
X12187182Y-16724984D02*
X12168134Y-16724984D01*
X12168134Y-16724984D02*
X12149086Y-16715460D01*
X12149086Y-16715460D02*
X12139563Y-16705936D01*
X12139563Y-16705936D02*
X12130039Y-16686888D01*
X12130039Y-16686888D02*
X12120515Y-16648793D01*
X12120515Y-16648793D02*
X12120515Y-16601174D01*
X12120515Y-16601174D02*
X12130039Y-16563079D01*
X12130039Y-16563079D02*
X12139563Y-16544031D01*
X12139563Y-16544031D02*
X12149086Y-16534508D01*
X12149086Y-16534508D02*
X12168134Y-16524984D01*
X12320515Y-16705936D02*
X12330039Y-16715460D01*
X12330039Y-16715460D02*
X12320515Y-16724984D01*
X12320515Y-16724984D02*
X12310991Y-16715460D01*
X12310991Y-16715460D02*
X12320515Y-16705936D01*
X12320515Y-16705936D02*
X12320515Y-16724984D01*
X12453848Y-16524984D02*
X12472896Y-16524984D01*
X12472896Y-16524984D02*
X12491944Y-16534508D01*
X12491944Y-16534508D02*
X12501467Y-16544031D01*
X12501467Y-16544031D02*
X12510991Y-16563079D01*
X12510991Y-16563079D02*
X12520515Y-16601174D01*
X12520515Y-16601174D02*
X12520515Y-16648793D01*
X12520515Y-16648793D02*
X12510991Y-16686888D01*
X12510991Y-16686888D02*
X12501467Y-16705936D01*
X12501467Y-16705936D02*
X12491944Y-16715460D01*
X12491944Y-16715460D02*
X12472896Y-16724984D01*
X12472896Y-16724984D02*
X12453848Y-16724984D01*
X12453848Y-16724984D02*
X12434801Y-16715460D01*
X12434801Y-16715460D02*
X12425277Y-16705936D01*
X12425277Y-16705936D02*
X12415753Y-16686888D01*
X12415753Y-16686888D02*
X12406229Y-16648793D01*
X12406229Y-16648793D02*
X12406229Y-16601174D01*
X12406229Y-16601174D02*
X12415753Y-16563079D01*
X12415753Y-16563079D02*
X12425277Y-16544031D01*
X12425277Y-16544031D02*
X12434801Y-16534508D01*
X12434801Y-16534508D02*
X12453848Y-16524984D01*
X12691944Y-16591650D02*
X12691944Y-16724984D01*
X12644325Y-16515460D02*
X12596706Y-16658317D01*
X12596706Y-16658317D02*
X12720515Y-16658317D01*
X12825277Y-16610698D02*
X12806229Y-16601174D01*
X12806229Y-16601174D02*
X12796706Y-16591650D01*
X12796706Y-16591650D02*
X12787182Y-16572603D01*
X12787182Y-16572603D02*
X12787182Y-16563079D01*
X12787182Y-16563079D02*
X12796706Y-16544031D01*
X12796706Y-16544031D02*
X12806229Y-16534508D01*
X12806229Y-16534508D02*
X12825277Y-16524984D01*
X12825277Y-16524984D02*
X12863372Y-16524984D01*
X12863372Y-16524984D02*
X12882420Y-16534508D01*
X12882420Y-16534508D02*
X12891944Y-16544031D01*
X12891944Y-16544031D02*
X12901467Y-16563079D01*
X12901467Y-16563079D02*
X12901467Y-16572603D01*
X12901467Y-16572603D02*
X12891944Y-16591650D01*
X12891944Y-16591650D02*
X12882420Y-16601174D01*
X12882420Y-16601174D02*
X12863372Y-16610698D01*
X12863372Y-16610698D02*
X12825277Y-16610698D01*
X12825277Y-16610698D02*
X12806229Y-16620222D01*
X12806229Y-16620222D02*
X12796706Y-16629746D01*
X12796706Y-16629746D02*
X12787182Y-16648793D01*
X12787182Y-16648793D02*
X12787182Y-16686888D01*
X12787182Y-16686888D02*
X12796706Y-16705936D01*
X12796706Y-16705936D02*
X12806229Y-16715460D01*
X12806229Y-16715460D02*
X12825277Y-16724984D01*
X12825277Y-16724984D02*
X12863372Y-16724984D01*
X12863372Y-16724984D02*
X12882420Y-16715460D01*
X12882420Y-16715460D02*
X12891944Y-16705936D01*
X12891944Y-16705936D02*
X12901467Y-16686888D01*
X12901467Y-16686888D02*
X12901467Y-16648793D01*
X12901467Y-16648793D02*
X12891944Y-16629746D01*
X12891944Y-16629746D02*
X12882420Y-16620222D01*
X12882420Y-16620222D02*
X12863372Y-16610698D01*
X13025277Y-16524984D02*
X13044325Y-16524984D01*
X13044325Y-16524984D02*
X13063372Y-16534508D01*
X13063372Y-16534508D02*
X13072896Y-16544031D01*
X13072896Y-16544031D02*
X13082420Y-16563079D01*
X13082420Y-16563079D02*
X13091944Y-16601174D01*
X13091944Y-16601174D02*
X13091944Y-16648793D01*
X13091944Y-16648793D02*
X13082420Y-16686888D01*
X13082420Y-16686888D02*
X13072896Y-16705936D01*
X13072896Y-16705936D02*
X13063372Y-16715460D01*
X13063372Y-16715460D02*
X13044325Y-16724984D01*
X13044325Y-16724984D02*
X13025277Y-16724984D01*
X13025277Y-16724984D02*
X13006229Y-16715460D01*
X13006229Y-16715460D02*
X12996706Y-16705936D01*
X12996706Y-16705936D02*
X12987182Y-16686888D01*
X12987182Y-16686888D02*
X12977658Y-16648793D01*
X12977658Y-16648793D02*
X12977658Y-16601174D01*
X12977658Y-16601174D02*
X12987182Y-16563079D01*
X12987182Y-16563079D02*
X12996706Y-16544031D01*
X12996706Y-16544031D02*
X13006229Y-16534508D01*
X13006229Y-16534508D02*
X13025277Y-16524984D01*
X13168134Y-16524984D02*
X13168134Y-16563079D01*
X13244325Y-16524984D02*
X13244325Y-16563079D01*
X13539563Y-16801174D02*
X13530039Y-16791650D01*
X13530039Y-16791650D02*
X13510991Y-16763079D01*
X13510991Y-16763079D02*
X13501468Y-16744031D01*
X13501468Y-16744031D02*
X13491944Y-16715460D01*
X13491944Y-16715460D02*
X13482420Y-16667841D01*
X13482420Y-16667841D02*
X13482420Y-16629746D01*
X13482420Y-16629746D02*
X13491944Y-16582127D01*
X13491944Y-16582127D02*
X13501468Y-16553555D01*
X13501468Y-16553555D02*
X13510991Y-16534508D01*
X13510991Y-16534508D02*
X13530039Y-16505936D01*
X13530039Y-16505936D02*
X13539563Y-16496412D01*
X13625277Y-16724984D02*
X13663372Y-16724984D01*
X13663372Y-16724984D02*
X13682420Y-16715460D01*
X13682420Y-16715460D02*
X13691944Y-16705936D01*
X13691944Y-16705936D02*
X13710991Y-16677365D01*
X13710991Y-16677365D02*
X13720515Y-16639269D01*
X13720515Y-16639269D02*
X13720515Y-16563079D01*
X13720515Y-16563079D02*
X13710991Y-16544031D01*
X13710991Y-16544031D02*
X13701468Y-16534508D01*
X13701468Y-16534508D02*
X13682420Y-16524984D01*
X13682420Y-16524984D02*
X13644325Y-16524984D01*
X13644325Y-16524984D02*
X13625277Y-16534508D01*
X13625277Y-16534508D02*
X13615753Y-16544031D01*
X13615753Y-16544031D02*
X13606229Y-16563079D01*
X13606229Y-16563079D02*
X13606229Y-16610698D01*
X13606229Y-16610698D02*
X13615753Y-16629746D01*
X13615753Y-16629746D02*
X13625277Y-16639269D01*
X13625277Y-16639269D02*
X13644325Y-16648793D01*
X13644325Y-16648793D02*
X13682420Y-16648793D01*
X13682420Y-16648793D02*
X13701468Y-16639269D01*
X13701468Y-16639269D02*
X13710991Y-16629746D01*
X13710991Y-16629746D02*
X13720515Y-16610698D01*
X13958610Y-16724984D02*
X13958610Y-16524984D01*
X14044325Y-16724984D02*
X14044325Y-16620222D01*
X14044325Y-16620222D02*
X14034801Y-16601174D01*
X14034801Y-16601174D02*
X14015753Y-16591650D01*
X14015753Y-16591650D02*
X13987182Y-16591650D01*
X13987182Y-16591650D02*
X13968134Y-16601174D01*
X13968134Y-16601174D02*
X13958610Y-16610698D01*
X14168134Y-16724984D02*
X14149087Y-16715460D01*
X14149087Y-16715460D02*
X14139563Y-16705936D01*
X14139563Y-16705936D02*
X14130039Y-16686888D01*
X14130039Y-16686888D02*
X14130039Y-16629746D01*
X14130039Y-16629746D02*
X14139563Y-16610698D01*
X14139563Y-16610698D02*
X14149087Y-16601174D01*
X14149087Y-16601174D02*
X14168134Y-16591650D01*
X14168134Y-16591650D02*
X14196706Y-16591650D01*
X14196706Y-16591650D02*
X14215753Y-16601174D01*
X14215753Y-16601174D02*
X14225277Y-16610698D01*
X14225277Y-16610698D02*
X14234801Y-16629746D01*
X14234801Y-16629746D02*
X14234801Y-16686888D01*
X14234801Y-16686888D02*
X14225277Y-16705936D01*
X14225277Y-16705936D02*
X14215753Y-16715460D01*
X14215753Y-16715460D02*
X14196706Y-16724984D01*
X14196706Y-16724984D02*
X14168134Y-16724984D01*
X14349087Y-16724984D02*
X14330039Y-16715460D01*
X14330039Y-16715460D02*
X14320515Y-16696412D01*
X14320515Y-16696412D02*
X14320515Y-16524984D01*
X14501468Y-16715460D02*
X14482420Y-16724984D01*
X14482420Y-16724984D02*
X14444325Y-16724984D01*
X14444325Y-16724984D02*
X14425277Y-16715460D01*
X14425277Y-16715460D02*
X14415753Y-16696412D01*
X14415753Y-16696412D02*
X14415753Y-16620222D01*
X14415753Y-16620222D02*
X14425277Y-16601174D01*
X14425277Y-16601174D02*
X14444325Y-16591650D01*
X14444325Y-16591650D02*
X14482420Y-16591650D01*
X14482420Y-16591650D02*
X14501468Y-16601174D01*
X14501468Y-16601174D02*
X14510991Y-16620222D01*
X14510991Y-16620222D02*
X14510991Y-16639269D01*
X14510991Y-16639269D02*
X14415753Y-16658317D01*
X14587182Y-16715460D02*
X14606230Y-16724984D01*
X14606230Y-16724984D02*
X14644325Y-16724984D01*
X14644325Y-16724984D02*
X14663372Y-16715460D01*
X14663372Y-16715460D02*
X14672896Y-16696412D01*
X14672896Y-16696412D02*
X14672896Y-16686888D01*
X14672896Y-16686888D02*
X14663372Y-16667841D01*
X14663372Y-16667841D02*
X14644325Y-16658317D01*
X14644325Y-16658317D02*
X14615753Y-16658317D01*
X14615753Y-16658317D02*
X14596706Y-16648793D01*
X14596706Y-16648793D02*
X14587182Y-16629746D01*
X14587182Y-16629746D02*
X14587182Y-16620222D01*
X14587182Y-16620222D02*
X14596706Y-16601174D01*
X14596706Y-16601174D02*
X14615753Y-16591650D01*
X14615753Y-16591650D02*
X14644325Y-16591650D01*
X14644325Y-16591650D02*
X14663372Y-16601174D01*
X14739563Y-16801174D02*
X14749087Y-16791650D01*
X14749087Y-16791650D02*
X14768134Y-16763079D01*
X14768134Y-16763079D02*
X14777658Y-16744031D01*
X14777658Y-16744031D02*
X14787182Y-16715460D01*
X14787182Y-16715460D02*
X14796706Y-16667841D01*
X14796706Y-16667841D02*
X14796706Y-16629746D01*
X14796706Y-16629746D02*
X14787182Y-16582127D01*
X14787182Y-16582127D02*
X14777658Y-16553555D01*
X14777658Y-16553555D02*
X14768134Y-16534508D01*
X14768134Y-16534508D02*
X14749087Y-16505936D01*
X14749087Y-16505936D02*
X14739563Y-16496412D01*
D14*
X9834500Y-16832500D02*
X9964500Y-16962500D01*
X9964500Y-16832500D02*
X9834500Y-16962500D01*
X9899500Y-16832500D02*
X9899500Y-16962500D01*
X9834500Y-16897500D02*
X9964500Y-16897500D01*
D11*
X10330039Y-16988984D02*
X10215753Y-16988984D01*
X10272896Y-16988984D02*
X10272896Y-16788984D01*
X10272896Y-16788984D02*
X10253848Y-16817555D01*
X10253848Y-16817555D02*
X10234801Y-16836603D01*
X10234801Y-16836603D02*
X10215753Y-16846127D01*
X10415753Y-16969936D02*
X10425277Y-16979460D01*
X10425277Y-16979460D02*
X10415753Y-16988984D01*
X10415753Y-16988984D02*
X10406229Y-16979460D01*
X10406229Y-16979460D02*
X10415753Y-16969936D01*
X10415753Y-16969936D02*
X10415753Y-16988984D01*
X10491944Y-16788984D02*
X10615753Y-16788984D01*
X10615753Y-16788984D02*
X10549086Y-16865174D01*
X10549086Y-16865174D02*
X10577658Y-16865174D01*
X10577658Y-16865174D02*
X10596705Y-16874698D01*
X10596705Y-16874698D02*
X10606229Y-16884222D01*
X10606229Y-16884222D02*
X10615753Y-16903270D01*
X10615753Y-16903270D02*
X10615753Y-16950889D01*
X10615753Y-16950889D02*
X10606229Y-16969936D01*
X10606229Y-16969936D02*
X10596705Y-16979460D01*
X10596705Y-16979460D02*
X10577658Y-16988984D01*
X10577658Y-16988984D02*
X10520515Y-16988984D01*
X10520515Y-16988984D02*
X10501467Y-16979460D01*
X10501467Y-16979460D02*
X10491944Y-16969936D01*
X10739563Y-16788984D02*
X10758610Y-16788984D01*
X10758610Y-16788984D02*
X10777658Y-16798508D01*
X10777658Y-16798508D02*
X10787182Y-16808031D01*
X10787182Y-16808031D02*
X10796705Y-16827079D01*
X10796705Y-16827079D02*
X10806229Y-16865174D01*
X10806229Y-16865174D02*
X10806229Y-16912793D01*
X10806229Y-16912793D02*
X10796705Y-16950889D01*
X10796705Y-16950889D02*
X10787182Y-16969936D01*
X10787182Y-16969936D02*
X10777658Y-16979460D01*
X10777658Y-16979460D02*
X10758610Y-16988984D01*
X10758610Y-16988984D02*
X10739563Y-16988984D01*
X10739563Y-16988984D02*
X10720515Y-16979460D01*
X10720515Y-16979460D02*
X10710991Y-16969936D01*
X10710991Y-16969936D02*
X10701467Y-16950889D01*
X10701467Y-16950889D02*
X10691944Y-16912793D01*
X10691944Y-16912793D02*
X10691944Y-16865174D01*
X10691944Y-16865174D02*
X10701467Y-16827079D01*
X10701467Y-16827079D02*
X10710991Y-16808031D01*
X10710991Y-16808031D02*
X10720515Y-16798508D01*
X10720515Y-16798508D02*
X10739563Y-16788984D01*
X10930039Y-16788984D02*
X10949086Y-16788984D01*
X10949086Y-16788984D02*
X10968134Y-16798508D01*
X10968134Y-16798508D02*
X10977658Y-16808031D01*
X10977658Y-16808031D02*
X10987182Y-16827079D01*
X10987182Y-16827079D02*
X10996705Y-16865174D01*
X10996705Y-16865174D02*
X10996705Y-16912793D01*
X10996705Y-16912793D02*
X10987182Y-16950889D01*
X10987182Y-16950889D02*
X10977658Y-16969936D01*
X10977658Y-16969936D02*
X10968134Y-16979460D01*
X10968134Y-16979460D02*
X10949086Y-16988984D01*
X10949086Y-16988984D02*
X10930039Y-16988984D01*
X10930039Y-16988984D02*
X10910991Y-16979460D01*
X10910991Y-16979460D02*
X10901467Y-16969936D01*
X10901467Y-16969936D02*
X10891944Y-16950889D01*
X10891944Y-16950889D02*
X10882420Y-16912793D01*
X10882420Y-16912793D02*
X10882420Y-16865174D01*
X10882420Y-16865174D02*
X10891944Y-16827079D01*
X10891944Y-16827079D02*
X10901467Y-16808031D01*
X10901467Y-16808031D02*
X10910991Y-16798508D01*
X10910991Y-16798508D02*
X10930039Y-16788984D01*
X11082420Y-16988984D02*
X11082420Y-16855650D01*
X11082420Y-16874698D02*
X11091944Y-16865174D01*
X11091944Y-16865174D02*
X11110991Y-16855650D01*
X11110991Y-16855650D02*
X11139563Y-16855650D01*
X11139563Y-16855650D02*
X11158610Y-16865174D01*
X11158610Y-16865174D02*
X11168134Y-16884222D01*
X11168134Y-16884222D02*
X11168134Y-16988984D01*
X11168134Y-16884222D02*
X11177658Y-16865174D01*
X11177658Y-16865174D02*
X11196705Y-16855650D01*
X11196705Y-16855650D02*
X11225277Y-16855650D01*
X11225277Y-16855650D02*
X11244324Y-16865174D01*
X11244324Y-16865174D02*
X11253848Y-16884222D01*
X11253848Y-16884222D02*
X11253848Y-16988984D01*
X11349086Y-16988984D02*
X11349086Y-16855650D01*
X11349086Y-16874698D02*
X11358610Y-16865174D01*
X11358610Y-16865174D02*
X11377658Y-16855650D01*
X11377658Y-16855650D02*
X11406229Y-16855650D01*
X11406229Y-16855650D02*
X11425277Y-16865174D01*
X11425277Y-16865174D02*
X11434801Y-16884222D01*
X11434801Y-16884222D02*
X11434801Y-16988984D01*
X11434801Y-16884222D02*
X11444324Y-16865174D01*
X11444324Y-16865174D02*
X11463372Y-16855650D01*
X11463372Y-16855650D02*
X11491943Y-16855650D01*
X11491943Y-16855650D02*
X11510991Y-16865174D01*
X11510991Y-16865174D02*
X11520515Y-16884222D01*
X11520515Y-16884222D02*
X11520515Y-16988984D01*
X11910991Y-16779460D02*
X11739563Y-17036603D01*
X12168134Y-16788984D02*
X12187182Y-16788984D01*
X12187182Y-16788984D02*
X12206229Y-16798508D01*
X12206229Y-16798508D02*
X12215753Y-16808031D01*
X12215753Y-16808031D02*
X12225277Y-16827079D01*
X12225277Y-16827079D02*
X12234801Y-16865174D01*
X12234801Y-16865174D02*
X12234801Y-16912793D01*
X12234801Y-16912793D02*
X12225277Y-16950889D01*
X12225277Y-16950889D02*
X12215753Y-16969936D01*
X12215753Y-16969936D02*
X12206229Y-16979460D01*
X12206229Y-16979460D02*
X12187182Y-16988984D01*
X12187182Y-16988984D02*
X12168134Y-16988984D01*
X12168134Y-16988984D02*
X12149086Y-16979460D01*
X12149086Y-16979460D02*
X12139563Y-16969936D01*
X12139563Y-16969936D02*
X12130039Y-16950889D01*
X12130039Y-16950889D02*
X12120515Y-16912793D01*
X12120515Y-16912793D02*
X12120515Y-16865174D01*
X12120515Y-16865174D02*
X12130039Y-16827079D01*
X12130039Y-16827079D02*
X12139563Y-16808031D01*
X12139563Y-16808031D02*
X12149086Y-16798508D01*
X12149086Y-16798508D02*
X12168134Y-16788984D01*
X12320515Y-16969936D02*
X12330039Y-16979460D01*
X12330039Y-16979460D02*
X12320515Y-16988984D01*
X12320515Y-16988984D02*
X12310991Y-16979460D01*
X12310991Y-16979460D02*
X12320515Y-16969936D01*
X12320515Y-16969936D02*
X12320515Y-16988984D01*
X12453848Y-16788984D02*
X12472896Y-16788984D01*
X12472896Y-16788984D02*
X12491944Y-16798508D01*
X12491944Y-16798508D02*
X12501467Y-16808031D01*
X12501467Y-16808031D02*
X12510991Y-16827079D01*
X12510991Y-16827079D02*
X12520515Y-16865174D01*
X12520515Y-16865174D02*
X12520515Y-16912793D01*
X12520515Y-16912793D02*
X12510991Y-16950889D01*
X12510991Y-16950889D02*
X12501467Y-16969936D01*
X12501467Y-16969936D02*
X12491944Y-16979460D01*
X12491944Y-16979460D02*
X12472896Y-16988984D01*
X12472896Y-16988984D02*
X12453848Y-16988984D01*
X12453848Y-16988984D02*
X12434801Y-16979460D01*
X12434801Y-16979460D02*
X12425277Y-16969936D01*
X12425277Y-16969936D02*
X12415753Y-16950889D01*
X12415753Y-16950889D02*
X12406229Y-16912793D01*
X12406229Y-16912793D02*
X12406229Y-16865174D01*
X12406229Y-16865174D02*
X12415753Y-16827079D01*
X12415753Y-16827079D02*
X12425277Y-16808031D01*
X12425277Y-16808031D02*
X12434801Y-16798508D01*
X12434801Y-16798508D02*
X12453848Y-16788984D01*
X12701467Y-16788984D02*
X12606229Y-16788984D01*
X12606229Y-16788984D02*
X12596706Y-16884222D01*
X12596706Y-16884222D02*
X12606229Y-16874698D01*
X12606229Y-16874698D02*
X12625277Y-16865174D01*
X12625277Y-16865174D02*
X12672896Y-16865174D01*
X12672896Y-16865174D02*
X12691944Y-16874698D01*
X12691944Y-16874698D02*
X12701467Y-16884222D01*
X12701467Y-16884222D02*
X12710991Y-16903270D01*
X12710991Y-16903270D02*
X12710991Y-16950889D01*
X12710991Y-16950889D02*
X12701467Y-16969936D01*
X12701467Y-16969936D02*
X12691944Y-16979460D01*
X12691944Y-16979460D02*
X12672896Y-16988984D01*
X12672896Y-16988984D02*
X12625277Y-16988984D01*
X12625277Y-16988984D02*
X12606229Y-16979460D01*
X12606229Y-16979460D02*
X12596706Y-16969936D01*
X12901467Y-16988984D02*
X12787182Y-16988984D01*
X12844325Y-16988984D02*
X12844325Y-16788984D01*
X12844325Y-16788984D02*
X12825277Y-16817555D01*
X12825277Y-16817555D02*
X12806229Y-16836603D01*
X12806229Y-16836603D02*
X12787182Y-16846127D01*
X12977658Y-16808031D02*
X12987182Y-16798508D01*
X12987182Y-16798508D02*
X13006229Y-16788984D01*
X13006229Y-16788984D02*
X13053848Y-16788984D01*
X13053848Y-16788984D02*
X13072896Y-16798508D01*
X13072896Y-16798508D02*
X13082420Y-16808031D01*
X13082420Y-16808031D02*
X13091944Y-16827079D01*
X13091944Y-16827079D02*
X13091944Y-16846127D01*
X13091944Y-16846127D02*
X13082420Y-16874698D01*
X13082420Y-16874698D02*
X12968134Y-16988984D01*
X12968134Y-16988984D02*
X13091944Y-16988984D01*
X13168134Y-16788984D02*
X13168134Y-16827079D01*
X13244325Y-16788984D02*
X13244325Y-16827079D01*
X13539563Y-17065174D02*
X13530039Y-17055650D01*
X13530039Y-17055650D02*
X13510991Y-17027079D01*
X13510991Y-17027079D02*
X13501468Y-17008031D01*
X13501468Y-17008031D02*
X13491944Y-16979460D01*
X13491944Y-16979460D02*
X13482420Y-16931841D01*
X13482420Y-16931841D02*
X13482420Y-16893746D01*
X13482420Y-16893746D02*
X13491944Y-16846127D01*
X13491944Y-16846127D02*
X13501468Y-16817555D01*
X13501468Y-16817555D02*
X13510991Y-16798508D01*
X13510991Y-16798508D02*
X13530039Y-16769936D01*
X13530039Y-16769936D02*
X13539563Y-16760412D01*
X13701468Y-16855650D02*
X13701468Y-16988984D01*
X13653848Y-16779460D02*
X13606229Y-16922317D01*
X13606229Y-16922317D02*
X13730039Y-16922317D01*
X13958610Y-16988984D02*
X13958610Y-16788984D01*
X14044325Y-16988984D02*
X14044325Y-16884222D01*
X14044325Y-16884222D02*
X14034801Y-16865174D01*
X14034801Y-16865174D02*
X14015753Y-16855650D01*
X14015753Y-16855650D02*
X13987182Y-16855650D01*
X13987182Y-16855650D02*
X13968134Y-16865174D01*
X13968134Y-16865174D02*
X13958610Y-16874698D01*
X14168134Y-16988984D02*
X14149087Y-16979460D01*
X14149087Y-16979460D02*
X14139563Y-16969936D01*
X14139563Y-16969936D02*
X14130039Y-16950889D01*
X14130039Y-16950889D02*
X14130039Y-16893746D01*
X14130039Y-16893746D02*
X14139563Y-16874698D01*
X14139563Y-16874698D02*
X14149087Y-16865174D01*
X14149087Y-16865174D02*
X14168134Y-16855650D01*
X14168134Y-16855650D02*
X14196706Y-16855650D01*
X14196706Y-16855650D02*
X14215753Y-16865174D01*
X14215753Y-16865174D02*
X14225277Y-16874698D01*
X14225277Y-16874698D02*
X14234801Y-16893746D01*
X14234801Y-16893746D02*
X14234801Y-16950889D01*
X14234801Y-16950889D02*
X14225277Y-16969936D01*
X14225277Y-16969936D02*
X14215753Y-16979460D01*
X14215753Y-16979460D02*
X14196706Y-16988984D01*
X14196706Y-16988984D02*
X14168134Y-16988984D01*
X14349087Y-16988984D02*
X14330039Y-16979460D01*
X14330039Y-16979460D02*
X14320515Y-16960412D01*
X14320515Y-16960412D02*
X14320515Y-16788984D01*
X14501468Y-16979460D02*
X14482420Y-16988984D01*
X14482420Y-16988984D02*
X14444325Y-16988984D01*
X14444325Y-16988984D02*
X14425277Y-16979460D01*
X14425277Y-16979460D02*
X14415753Y-16960412D01*
X14415753Y-16960412D02*
X14415753Y-16884222D01*
X14415753Y-16884222D02*
X14425277Y-16865174D01*
X14425277Y-16865174D02*
X14444325Y-16855650D01*
X14444325Y-16855650D02*
X14482420Y-16855650D01*
X14482420Y-16855650D02*
X14501468Y-16865174D01*
X14501468Y-16865174D02*
X14510991Y-16884222D01*
X14510991Y-16884222D02*
X14510991Y-16903270D01*
X14510991Y-16903270D02*
X14415753Y-16922317D01*
X14587182Y-16979460D02*
X14606230Y-16988984D01*
X14606230Y-16988984D02*
X14644325Y-16988984D01*
X14644325Y-16988984D02*
X14663372Y-16979460D01*
X14663372Y-16979460D02*
X14672896Y-16960412D01*
X14672896Y-16960412D02*
X14672896Y-16950889D01*
X14672896Y-16950889D02*
X14663372Y-16931841D01*
X14663372Y-16931841D02*
X14644325Y-16922317D01*
X14644325Y-16922317D02*
X14615753Y-16922317D01*
X14615753Y-16922317D02*
X14596706Y-16912793D01*
X14596706Y-16912793D02*
X14587182Y-16893746D01*
X14587182Y-16893746D02*
X14587182Y-16884222D01*
X14587182Y-16884222D02*
X14596706Y-16865174D01*
X14596706Y-16865174D02*
X14615753Y-16855650D01*
X14615753Y-16855650D02*
X14644325Y-16855650D01*
X14644325Y-16855650D02*
X14663372Y-16865174D01*
X14739563Y-17065174D02*
X14749087Y-17055650D01*
X14749087Y-17055650D02*
X14768134Y-17027079D01*
X14768134Y-17027079D02*
X14777658Y-17008031D01*
X14777658Y-17008031D02*
X14787182Y-16979460D01*
X14787182Y-16979460D02*
X14796706Y-16931841D01*
X14796706Y-16931841D02*
X14796706Y-16893746D01*
X14796706Y-16893746D02*
X14787182Y-16846127D01*
X14787182Y-16846127D02*
X14777658Y-16817555D01*
X14777658Y-16817555D02*
X14768134Y-16798508D01*
X14768134Y-16798508D02*
X14749087Y-16769936D01*
X14749087Y-16769936D02*
X14739563Y-16760412D01*
D15*
X9794500Y-17076500D02*
X9964500Y-17246500D01*
X9964500Y-17076500D02*
X9794500Y-17246500D01*
X9939605Y-17221605D02*
X9939605Y-17101395D01*
X9819395Y-17101395D01*
X9819395Y-17221605D01*
X9939605Y-17221605D01*
D11*
X10330039Y-17252984D02*
X10215753Y-17252984D01*
X10272896Y-17252984D02*
X10272896Y-17052984D01*
X10272896Y-17052984D02*
X10253848Y-17081555D01*
X10253848Y-17081555D02*
X10234801Y-17100603D01*
X10234801Y-17100603D02*
X10215753Y-17110127D01*
X10415753Y-17233936D02*
X10425277Y-17243460D01*
X10425277Y-17243460D02*
X10415753Y-17252984D01*
X10415753Y-17252984D02*
X10406229Y-17243460D01*
X10406229Y-17243460D02*
X10415753Y-17233936D01*
X10415753Y-17233936D02*
X10415753Y-17252984D01*
X10491944Y-17052984D02*
X10625277Y-17052984D01*
X10625277Y-17052984D02*
X10539563Y-17252984D01*
X10739563Y-17052984D02*
X10758610Y-17052984D01*
X10758610Y-17052984D02*
X10777658Y-17062508D01*
X10777658Y-17062508D02*
X10787182Y-17072031D01*
X10787182Y-17072031D02*
X10796705Y-17091079D01*
X10796705Y-17091079D02*
X10806229Y-17129174D01*
X10806229Y-17129174D02*
X10806229Y-17176793D01*
X10806229Y-17176793D02*
X10796705Y-17214889D01*
X10796705Y-17214889D02*
X10787182Y-17233936D01*
X10787182Y-17233936D02*
X10777658Y-17243460D01*
X10777658Y-17243460D02*
X10758610Y-17252984D01*
X10758610Y-17252984D02*
X10739563Y-17252984D01*
X10739563Y-17252984D02*
X10720515Y-17243460D01*
X10720515Y-17243460D02*
X10710991Y-17233936D01*
X10710991Y-17233936D02*
X10701467Y-17214889D01*
X10701467Y-17214889D02*
X10691944Y-17176793D01*
X10691944Y-17176793D02*
X10691944Y-17129174D01*
X10691944Y-17129174D02*
X10701467Y-17091079D01*
X10701467Y-17091079D02*
X10710991Y-17072031D01*
X10710991Y-17072031D02*
X10720515Y-17062508D01*
X10720515Y-17062508D02*
X10739563Y-17052984D01*
X10930039Y-17052984D02*
X10949086Y-17052984D01*
X10949086Y-17052984D02*
X10968134Y-17062508D01*
X10968134Y-17062508D02*
X10977658Y-17072031D01*
X10977658Y-17072031D02*
X10987182Y-17091079D01*
X10987182Y-17091079D02*
X10996705Y-17129174D01*
X10996705Y-17129174D02*
X10996705Y-17176793D01*
X10996705Y-17176793D02*
X10987182Y-17214889D01*
X10987182Y-17214889D02*
X10977658Y-17233936D01*
X10977658Y-17233936D02*
X10968134Y-17243460D01*
X10968134Y-17243460D02*
X10949086Y-17252984D01*
X10949086Y-17252984D02*
X10930039Y-17252984D01*
X10930039Y-17252984D02*
X10910991Y-17243460D01*
X10910991Y-17243460D02*
X10901467Y-17233936D01*
X10901467Y-17233936D02*
X10891944Y-17214889D01*
X10891944Y-17214889D02*
X10882420Y-17176793D01*
X10882420Y-17176793D02*
X10882420Y-17129174D01*
X10882420Y-17129174D02*
X10891944Y-17091079D01*
X10891944Y-17091079D02*
X10901467Y-17072031D01*
X10901467Y-17072031D02*
X10910991Y-17062508D01*
X10910991Y-17062508D02*
X10930039Y-17052984D01*
X11082420Y-17252984D02*
X11082420Y-17119650D01*
X11082420Y-17138698D02*
X11091944Y-17129174D01*
X11091944Y-17129174D02*
X11110991Y-17119650D01*
X11110991Y-17119650D02*
X11139563Y-17119650D01*
X11139563Y-17119650D02*
X11158610Y-17129174D01*
X11158610Y-17129174D02*
X11168134Y-17148222D01*
X11168134Y-17148222D02*
X11168134Y-17252984D01*
X11168134Y-17148222D02*
X11177658Y-17129174D01*
X11177658Y-17129174D02*
X11196705Y-17119650D01*
X11196705Y-17119650D02*
X11225277Y-17119650D01*
X11225277Y-17119650D02*
X11244324Y-17129174D01*
X11244324Y-17129174D02*
X11253848Y-17148222D01*
X11253848Y-17148222D02*
X11253848Y-17252984D01*
X11349086Y-17252984D02*
X11349086Y-17119650D01*
X11349086Y-17138698D02*
X11358610Y-17129174D01*
X11358610Y-17129174D02*
X11377658Y-17119650D01*
X11377658Y-17119650D02*
X11406229Y-17119650D01*
X11406229Y-17119650D02*
X11425277Y-17129174D01*
X11425277Y-17129174D02*
X11434801Y-17148222D01*
X11434801Y-17148222D02*
X11434801Y-17252984D01*
X11434801Y-17148222D02*
X11444324Y-17129174D01*
X11444324Y-17129174D02*
X11463372Y-17119650D01*
X11463372Y-17119650D02*
X11491943Y-17119650D01*
X11491943Y-17119650D02*
X11510991Y-17129174D01*
X11510991Y-17129174D02*
X11520515Y-17148222D01*
X11520515Y-17148222D02*
X11520515Y-17252984D01*
X11910991Y-17043460D02*
X11739563Y-17300603D01*
X12168134Y-17052984D02*
X12187182Y-17052984D01*
X12187182Y-17052984D02*
X12206229Y-17062508D01*
X12206229Y-17062508D02*
X12215753Y-17072031D01*
X12215753Y-17072031D02*
X12225277Y-17091079D01*
X12225277Y-17091079D02*
X12234801Y-17129174D01*
X12234801Y-17129174D02*
X12234801Y-17176793D01*
X12234801Y-17176793D02*
X12225277Y-17214889D01*
X12225277Y-17214889D02*
X12215753Y-17233936D01*
X12215753Y-17233936D02*
X12206229Y-17243460D01*
X12206229Y-17243460D02*
X12187182Y-17252984D01*
X12187182Y-17252984D02*
X12168134Y-17252984D01*
X12168134Y-17252984D02*
X12149086Y-17243460D01*
X12149086Y-17243460D02*
X12139563Y-17233936D01*
X12139563Y-17233936D02*
X12130039Y-17214889D01*
X12130039Y-17214889D02*
X12120515Y-17176793D01*
X12120515Y-17176793D02*
X12120515Y-17129174D01*
X12120515Y-17129174D02*
X12130039Y-17091079D01*
X12130039Y-17091079D02*
X12139563Y-17072031D01*
X12139563Y-17072031D02*
X12149086Y-17062508D01*
X12149086Y-17062508D02*
X12168134Y-17052984D01*
X12320515Y-17233936D02*
X12330039Y-17243460D01*
X12330039Y-17243460D02*
X12320515Y-17252984D01*
X12320515Y-17252984D02*
X12310991Y-17243460D01*
X12310991Y-17243460D02*
X12320515Y-17233936D01*
X12320515Y-17233936D02*
X12320515Y-17252984D01*
X12453848Y-17052984D02*
X12472896Y-17052984D01*
X12472896Y-17052984D02*
X12491944Y-17062508D01*
X12491944Y-17062508D02*
X12501467Y-17072031D01*
X12501467Y-17072031D02*
X12510991Y-17091079D01*
X12510991Y-17091079D02*
X12520515Y-17129174D01*
X12520515Y-17129174D02*
X12520515Y-17176793D01*
X12520515Y-17176793D02*
X12510991Y-17214889D01*
X12510991Y-17214889D02*
X12501467Y-17233936D01*
X12501467Y-17233936D02*
X12491944Y-17243460D01*
X12491944Y-17243460D02*
X12472896Y-17252984D01*
X12472896Y-17252984D02*
X12453848Y-17252984D01*
X12453848Y-17252984D02*
X12434801Y-17243460D01*
X12434801Y-17243460D02*
X12425277Y-17233936D01*
X12425277Y-17233936D02*
X12415753Y-17214889D01*
X12415753Y-17214889D02*
X12406229Y-17176793D01*
X12406229Y-17176793D02*
X12406229Y-17129174D01*
X12406229Y-17129174D02*
X12415753Y-17091079D01*
X12415753Y-17091079D02*
X12425277Y-17072031D01*
X12425277Y-17072031D02*
X12434801Y-17062508D01*
X12434801Y-17062508D02*
X12453848Y-17052984D01*
X12691944Y-17052984D02*
X12653848Y-17052984D01*
X12653848Y-17052984D02*
X12634801Y-17062508D01*
X12634801Y-17062508D02*
X12625277Y-17072031D01*
X12625277Y-17072031D02*
X12606229Y-17100603D01*
X12606229Y-17100603D02*
X12596706Y-17138698D01*
X12596706Y-17138698D02*
X12596706Y-17214889D01*
X12596706Y-17214889D02*
X12606229Y-17233936D01*
X12606229Y-17233936D02*
X12615753Y-17243460D01*
X12615753Y-17243460D02*
X12634801Y-17252984D01*
X12634801Y-17252984D02*
X12672896Y-17252984D01*
X12672896Y-17252984D02*
X12691944Y-17243460D01*
X12691944Y-17243460D02*
X12701467Y-17233936D01*
X12701467Y-17233936D02*
X12710991Y-17214889D01*
X12710991Y-17214889D02*
X12710991Y-17167270D01*
X12710991Y-17167270D02*
X12701467Y-17148222D01*
X12701467Y-17148222D02*
X12691944Y-17138698D01*
X12691944Y-17138698D02*
X12672896Y-17129174D01*
X12672896Y-17129174D02*
X12634801Y-17129174D01*
X12634801Y-17129174D02*
X12615753Y-17138698D01*
X12615753Y-17138698D02*
X12606229Y-17148222D01*
X12606229Y-17148222D02*
X12596706Y-17167270D01*
X12882420Y-17052984D02*
X12844325Y-17052984D01*
X12844325Y-17052984D02*
X12825277Y-17062508D01*
X12825277Y-17062508D02*
X12815753Y-17072031D01*
X12815753Y-17072031D02*
X12796706Y-17100603D01*
X12796706Y-17100603D02*
X12787182Y-17138698D01*
X12787182Y-17138698D02*
X12787182Y-17214889D01*
X12787182Y-17214889D02*
X12796706Y-17233936D01*
X12796706Y-17233936D02*
X12806229Y-17243460D01*
X12806229Y-17243460D02*
X12825277Y-17252984D01*
X12825277Y-17252984D02*
X12863372Y-17252984D01*
X12863372Y-17252984D02*
X12882420Y-17243460D01*
X12882420Y-17243460D02*
X12891944Y-17233936D01*
X12891944Y-17233936D02*
X12901467Y-17214889D01*
X12901467Y-17214889D02*
X12901467Y-17167270D01*
X12901467Y-17167270D02*
X12891944Y-17148222D01*
X12891944Y-17148222D02*
X12882420Y-17138698D01*
X12882420Y-17138698D02*
X12863372Y-17129174D01*
X12863372Y-17129174D02*
X12825277Y-17129174D01*
X12825277Y-17129174D02*
X12806229Y-17138698D01*
X12806229Y-17138698D02*
X12796706Y-17148222D01*
X12796706Y-17148222D02*
X12787182Y-17167270D01*
X12996706Y-17252984D02*
X13034801Y-17252984D01*
X13034801Y-17252984D02*
X13053848Y-17243460D01*
X13053848Y-17243460D02*
X13063372Y-17233936D01*
X13063372Y-17233936D02*
X13082420Y-17205365D01*
X13082420Y-17205365D02*
X13091944Y-17167270D01*
X13091944Y-17167270D02*
X13091944Y-17091079D01*
X13091944Y-17091079D02*
X13082420Y-17072031D01*
X13082420Y-17072031D02*
X13072896Y-17062508D01*
X13072896Y-17062508D02*
X13053848Y-17052984D01*
X13053848Y-17052984D02*
X13015753Y-17052984D01*
X13015753Y-17052984D02*
X12996706Y-17062508D01*
X12996706Y-17062508D02*
X12987182Y-17072031D01*
X12987182Y-17072031D02*
X12977658Y-17091079D01*
X12977658Y-17091079D02*
X12977658Y-17138698D01*
X12977658Y-17138698D02*
X12987182Y-17157746D01*
X12987182Y-17157746D02*
X12996706Y-17167270D01*
X12996706Y-17167270D02*
X13015753Y-17176793D01*
X13015753Y-17176793D02*
X13053848Y-17176793D01*
X13053848Y-17176793D02*
X13072896Y-17167270D01*
X13072896Y-17167270D02*
X13082420Y-17157746D01*
X13082420Y-17157746D02*
X13091944Y-17138698D01*
X13168134Y-17052984D02*
X13168134Y-17091079D01*
X13244325Y-17052984D02*
X13244325Y-17091079D01*
X13539563Y-17329174D02*
X13530039Y-17319650D01*
X13530039Y-17319650D02*
X13510991Y-17291079D01*
X13510991Y-17291079D02*
X13501468Y-17272031D01*
X13501468Y-17272031D02*
X13491944Y-17243460D01*
X13491944Y-17243460D02*
X13482420Y-17195841D01*
X13482420Y-17195841D02*
X13482420Y-17157746D01*
X13482420Y-17157746D02*
X13491944Y-17110127D01*
X13491944Y-17110127D02*
X13501468Y-17081555D01*
X13501468Y-17081555D02*
X13510991Y-17062508D01*
X13510991Y-17062508D02*
X13530039Y-17033936D01*
X13530039Y-17033936D02*
X13539563Y-17024412D01*
X13596706Y-17052984D02*
X13720515Y-17052984D01*
X13720515Y-17052984D02*
X13653848Y-17129174D01*
X13653848Y-17129174D02*
X13682420Y-17129174D01*
X13682420Y-17129174D02*
X13701468Y-17138698D01*
X13701468Y-17138698D02*
X13710991Y-17148222D01*
X13710991Y-17148222D02*
X13720515Y-17167270D01*
X13720515Y-17167270D02*
X13720515Y-17214889D01*
X13720515Y-17214889D02*
X13710991Y-17233936D01*
X13710991Y-17233936D02*
X13701468Y-17243460D01*
X13701468Y-17243460D02*
X13682420Y-17252984D01*
X13682420Y-17252984D02*
X13625277Y-17252984D01*
X13625277Y-17252984D02*
X13606229Y-17243460D01*
X13606229Y-17243460D02*
X13596706Y-17233936D01*
X13891944Y-17052984D02*
X13853848Y-17052984D01*
X13853848Y-17052984D02*
X13834801Y-17062508D01*
X13834801Y-17062508D02*
X13825277Y-17072031D01*
X13825277Y-17072031D02*
X13806229Y-17100603D01*
X13806229Y-17100603D02*
X13796706Y-17138698D01*
X13796706Y-17138698D02*
X13796706Y-17214889D01*
X13796706Y-17214889D02*
X13806229Y-17233936D01*
X13806229Y-17233936D02*
X13815753Y-17243460D01*
X13815753Y-17243460D02*
X13834801Y-17252984D01*
X13834801Y-17252984D02*
X13872896Y-17252984D01*
X13872896Y-17252984D02*
X13891944Y-17243460D01*
X13891944Y-17243460D02*
X13901468Y-17233936D01*
X13901468Y-17233936D02*
X13910991Y-17214889D01*
X13910991Y-17214889D02*
X13910991Y-17167270D01*
X13910991Y-17167270D02*
X13901468Y-17148222D01*
X13901468Y-17148222D02*
X13891944Y-17138698D01*
X13891944Y-17138698D02*
X13872896Y-17129174D01*
X13872896Y-17129174D02*
X13834801Y-17129174D01*
X13834801Y-17129174D02*
X13815753Y-17138698D01*
X13815753Y-17138698D02*
X13806229Y-17148222D01*
X13806229Y-17148222D02*
X13796706Y-17167270D01*
X14149087Y-17252984D02*
X14149087Y-17052984D01*
X14234801Y-17252984D02*
X14234801Y-17148222D01*
X14234801Y-17148222D02*
X14225277Y-17129174D01*
X14225277Y-17129174D02*
X14206230Y-17119650D01*
X14206230Y-17119650D02*
X14177658Y-17119650D01*
X14177658Y-17119650D02*
X14158610Y-17129174D01*
X14158610Y-17129174D02*
X14149087Y-17138698D01*
X14358610Y-17252984D02*
X14339563Y-17243460D01*
X14339563Y-17243460D02*
X14330039Y-17233936D01*
X14330039Y-17233936D02*
X14320515Y-17214889D01*
X14320515Y-17214889D02*
X14320515Y-17157746D01*
X14320515Y-17157746D02*
X14330039Y-17138698D01*
X14330039Y-17138698D02*
X14339563Y-17129174D01*
X14339563Y-17129174D02*
X14358610Y-17119650D01*
X14358610Y-17119650D02*
X14387182Y-17119650D01*
X14387182Y-17119650D02*
X14406230Y-17129174D01*
X14406230Y-17129174D02*
X14415753Y-17138698D01*
X14415753Y-17138698D02*
X14425277Y-17157746D01*
X14425277Y-17157746D02*
X14425277Y-17214889D01*
X14425277Y-17214889D02*
X14415753Y-17233936D01*
X14415753Y-17233936D02*
X14406230Y-17243460D01*
X14406230Y-17243460D02*
X14387182Y-17252984D01*
X14387182Y-17252984D02*
X14358610Y-17252984D01*
X14539563Y-17252984D02*
X14520515Y-17243460D01*
X14520515Y-17243460D02*
X14510991Y-17224412D01*
X14510991Y-17224412D02*
X14510991Y-17052984D01*
X14691944Y-17243460D02*
X14672896Y-17252984D01*
X14672896Y-17252984D02*
X14634801Y-17252984D01*
X14634801Y-17252984D02*
X14615753Y-17243460D01*
X14615753Y-17243460D02*
X14606230Y-17224412D01*
X14606230Y-17224412D02*
X14606230Y-17148222D01*
X14606230Y-17148222D02*
X14615753Y-17129174D01*
X14615753Y-17129174D02*
X14634801Y-17119650D01*
X14634801Y-17119650D02*
X14672896Y-17119650D01*
X14672896Y-17119650D02*
X14691944Y-17129174D01*
X14691944Y-17129174D02*
X14701468Y-17148222D01*
X14701468Y-17148222D02*
X14701468Y-17167270D01*
X14701468Y-17167270D02*
X14606230Y-17186317D01*
X14777658Y-17243460D02*
X14796706Y-17252984D01*
X14796706Y-17252984D02*
X14834801Y-17252984D01*
X14834801Y-17252984D02*
X14853849Y-17243460D01*
X14853849Y-17243460D02*
X14863372Y-17224412D01*
X14863372Y-17224412D02*
X14863372Y-17214889D01*
X14863372Y-17214889D02*
X14853849Y-17195841D01*
X14853849Y-17195841D02*
X14834801Y-17186317D01*
X14834801Y-17186317D02*
X14806230Y-17186317D01*
X14806230Y-17186317D02*
X14787182Y-17176793D01*
X14787182Y-17176793D02*
X14777658Y-17157746D01*
X14777658Y-17157746D02*
X14777658Y-17148222D01*
X14777658Y-17148222D02*
X14787182Y-17129174D01*
X14787182Y-17129174D02*
X14806230Y-17119650D01*
X14806230Y-17119650D02*
X14834801Y-17119650D01*
X14834801Y-17119650D02*
X14853849Y-17129174D01*
X14930039Y-17329174D02*
X14939563Y-17319650D01*
X14939563Y-17319650D02*
X14958611Y-17291079D01*
X14958611Y-17291079D02*
X14968134Y-17272031D01*
X14968134Y-17272031D02*
X14977658Y-17243460D01*
X14977658Y-17243460D02*
X14987182Y-17195841D01*
X14987182Y-17195841D02*
X14987182Y-17157746D01*
X14987182Y-17157746D02*
X14977658Y-17110127D01*
X14977658Y-17110127D02*
X14968134Y-17081555D01*
X14968134Y-17081555D02*
X14958611Y-17062508D01*
X14958611Y-17062508D02*
X14939563Y-17033936D01*
X14939563Y-17033936D02*
X14930039Y-17024412D01*
X9764500Y-17351500D02*
X9964500Y-17551500D01*
X9964500Y-17351500D02*
X9764500Y-17551500D01*
X9864500Y-17551500D02*
X9964500Y-17451500D01*
X9864500Y-17351500D01*
X9764500Y-17451500D01*
X9864500Y-17551500D01*
X10206229Y-17342984D02*
X10330039Y-17342984D01*
X10330039Y-17342984D02*
X10263372Y-17419174D01*
X10263372Y-17419174D02*
X10291944Y-17419174D01*
X10291944Y-17419174D02*
X10310991Y-17428698D01*
X10310991Y-17428698D02*
X10320515Y-17438222D01*
X10320515Y-17438222D02*
X10330039Y-17457270D01*
X10330039Y-17457270D02*
X10330039Y-17504889D01*
X10330039Y-17504889D02*
X10320515Y-17523936D01*
X10320515Y-17523936D02*
X10310991Y-17533460D01*
X10310991Y-17533460D02*
X10291944Y-17542984D01*
X10291944Y-17542984D02*
X10234801Y-17542984D01*
X10234801Y-17542984D02*
X10215753Y-17533460D01*
X10215753Y-17533460D02*
X10206229Y-17523936D01*
X10415753Y-17523936D02*
X10425277Y-17533460D01*
X10425277Y-17533460D02*
X10415753Y-17542984D01*
X10415753Y-17542984D02*
X10406229Y-17533460D01*
X10406229Y-17533460D02*
X10415753Y-17523936D01*
X10415753Y-17523936D02*
X10415753Y-17542984D01*
X10539563Y-17428698D02*
X10520515Y-17419174D01*
X10520515Y-17419174D02*
X10510991Y-17409650D01*
X10510991Y-17409650D02*
X10501467Y-17390603D01*
X10501467Y-17390603D02*
X10501467Y-17381079D01*
X10501467Y-17381079D02*
X10510991Y-17362031D01*
X10510991Y-17362031D02*
X10520515Y-17352508D01*
X10520515Y-17352508D02*
X10539563Y-17342984D01*
X10539563Y-17342984D02*
X10577658Y-17342984D01*
X10577658Y-17342984D02*
X10596705Y-17352508D01*
X10596705Y-17352508D02*
X10606229Y-17362031D01*
X10606229Y-17362031D02*
X10615753Y-17381079D01*
X10615753Y-17381079D02*
X10615753Y-17390603D01*
X10615753Y-17390603D02*
X10606229Y-17409650D01*
X10606229Y-17409650D02*
X10596705Y-17419174D01*
X10596705Y-17419174D02*
X10577658Y-17428698D01*
X10577658Y-17428698D02*
X10539563Y-17428698D01*
X10539563Y-17428698D02*
X10520515Y-17438222D01*
X10520515Y-17438222D02*
X10510991Y-17447746D01*
X10510991Y-17447746D02*
X10501467Y-17466793D01*
X10501467Y-17466793D02*
X10501467Y-17504889D01*
X10501467Y-17504889D02*
X10510991Y-17523936D01*
X10510991Y-17523936D02*
X10520515Y-17533460D01*
X10520515Y-17533460D02*
X10539563Y-17542984D01*
X10539563Y-17542984D02*
X10577658Y-17542984D01*
X10577658Y-17542984D02*
X10596705Y-17533460D01*
X10596705Y-17533460D02*
X10606229Y-17523936D01*
X10606229Y-17523936D02*
X10615753Y-17504889D01*
X10615753Y-17504889D02*
X10615753Y-17466793D01*
X10615753Y-17466793D02*
X10606229Y-17447746D01*
X10606229Y-17447746D02*
X10596705Y-17438222D01*
X10596705Y-17438222D02*
X10577658Y-17428698D01*
X10739563Y-17342984D02*
X10758610Y-17342984D01*
X10758610Y-17342984D02*
X10777658Y-17352508D01*
X10777658Y-17352508D02*
X10787182Y-17362031D01*
X10787182Y-17362031D02*
X10796705Y-17381079D01*
X10796705Y-17381079D02*
X10806229Y-17419174D01*
X10806229Y-17419174D02*
X10806229Y-17466793D01*
X10806229Y-17466793D02*
X10796705Y-17504889D01*
X10796705Y-17504889D02*
X10787182Y-17523936D01*
X10787182Y-17523936D02*
X10777658Y-17533460D01*
X10777658Y-17533460D02*
X10758610Y-17542984D01*
X10758610Y-17542984D02*
X10739563Y-17542984D01*
X10739563Y-17542984D02*
X10720515Y-17533460D01*
X10720515Y-17533460D02*
X10710991Y-17523936D01*
X10710991Y-17523936D02*
X10701467Y-17504889D01*
X10701467Y-17504889D02*
X10691944Y-17466793D01*
X10691944Y-17466793D02*
X10691944Y-17419174D01*
X10691944Y-17419174D02*
X10701467Y-17381079D01*
X10701467Y-17381079D02*
X10710991Y-17362031D01*
X10710991Y-17362031D02*
X10720515Y-17352508D01*
X10720515Y-17352508D02*
X10739563Y-17342984D01*
X10930039Y-17342984D02*
X10949086Y-17342984D01*
X10949086Y-17342984D02*
X10968134Y-17352508D01*
X10968134Y-17352508D02*
X10977658Y-17362031D01*
X10977658Y-17362031D02*
X10987182Y-17381079D01*
X10987182Y-17381079D02*
X10996705Y-17419174D01*
X10996705Y-17419174D02*
X10996705Y-17466793D01*
X10996705Y-17466793D02*
X10987182Y-17504889D01*
X10987182Y-17504889D02*
X10977658Y-17523936D01*
X10977658Y-17523936D02*
X10968134Y-17533460D01*
X10968134Y-17533460D02*
X10949086Y-17542984D01*
X10949086Y-17542984D02*
X10930039Y-17542984D01*
X10930039Y-17542984D02*
X10910991Y-17533460D01*
X10910991Y-17533460D02*
X10901467Y-17523936D01*
X10901467Y-17523936D02*
X10891944Y-17504889D01*
X10891944Y-17504889D02*
X10882420Y-17466793D01*
X10882420Y-17466793D02*
X10882420Y-17419174D01*
X10882420Y-17419174D02*
X10891944Y-17381079D01*
X10891944Y-17381079D02*
X10901467Y-17362031D01*
X10901467Y-17362031D02*
X10910991Y-17352508D01*
X10910991Y-17352508D02*
X10930039Y-17342984D01*
X11082420Y-17542984D02*
X11082420Y-17409650D01*
X11082420Y-17428698D02*
X11091944Y-17419174D01*
X11091944Y-17419174D02*
X11110991Y-17409650D01*
X11110991Y-17409650D02*
X11139563Y-17409650D01*
X11139563Y-17409650D02*
X11158610Y-17419174D01*
X11158610Y-17419174D02*
X11168134Y-17438222D01*
X11168134Y-17438222D02*
X11168134Y-17542984D01*
X11168134Y-17438222D02*
X11177658Y-17419174D01*
X11177658Y-17419174D02*
X11196705Y-17409650D01*
X11196705Y-17409650D02*
X11225277Y-17409650D01*
X11225277Y-17409650D02*
X11244324Y-17419174D01*
X11244324Y-17419174D02*
X11253848Y-17438222D01*
X11253848Y-17438222D02*
X11253848Y-17542984D01*
X11349086Y-17542984D02*
X11349086Y-17409650D01*
X11349086Y-17428698D02*
X11358610Y-17419174D01*
X11358610Y-17419174D02*
X11377658Y-17409650D01*
X11377658Y-17409650D02*
X11406229Y-17409650D01*
X11406229Y-17409650D02*
X11425277Y-17419174D01*
X11425277Y-17419174D02*
X11434801Y-17438222D01*
X11434801Y-17438222D02*
X11434801Y-17542984D01*
X11434801Y-17438222D02*
X11444324Y-17419174D01*
X11444324Y-17419174D02*
X11463372Y-17409650D01*
X11463372Y-17409650D02*
X11491943Y-17409650D01*
X11491943Y-17409650D02*
X11510991Y-17419174D01*
X11510991Y-17419174D02*
X11520515Y-17438222D01*
X11520515Y-17438222D02*
X11520515Y-17542984D01*
X11910991Y-17333460D02*
X11739563Y-17590603D01*
X12168134Y-17342984D02*
X12187182Y-17342984D01*
X12187182Y-17342984D02*
X12206229Y-17352508D01*
X12206229Y-17352508D02*
X12215753Y-17362031D01*
X12215753Y-17362031D02*
X12225277Y-17381079D01*
X12225277Y-17381079D02*
X12234801Y-17419174D01*
X12234801Y-17419174D02*
X12234801Y-17466793D01*
X12234801Y-17466793D02*
X12225277Y-17504889D01*
X12225277Y-17504889D02*
X12215753Y-17523936D01*
X12215753Y-17523936D02*
X12206229Y-17533460D01*
X12206229Y-17533460D02*
X12187182Y-17542984D01*
X12187182Y-17542984D02*
X12168134Y-17542984D01*
X12168134Y-17542984D02*
X12149086Y-17533460D01*
X12149086Y-17533460D02*
X12139563Y-17523936D01*
X12139563Y-17523936D02*
X12130039Y-17504889D01*
X12130039Y-17504889D02*
X12120515Y-17466793D01*
X12120515Y-17466793D02*
X12120515Y-17419174D01*
X12120515Y-17419174D02*
X12130039Y-17381079D01*
X12130039Y-17381079D02*
X12139563Y-17362031D01*
X12139563Y-17362031D02*
X12149086Y-17352508D01*
X12149086Y-17352508D02*
X12168134Y-17342984D01*
X12320515Y-17523936D02*
X12330039Y-17533460D01*
X12330039Y-17533460D02*
X12320515Y-17542984D01*
X12320515Y-17542984D02*
X12310991Y-17533460D01*
X12310991Y-17533460D02*
X12320515Y-17523936D01*
X12320515Y-17523936D02*
X12320515Y-17542984D01*
X12520515Y-17542984D02*
X12406229Y-17542984D01*
X12463372Y-17542984D02*
X12463372Y-17342984D01*
X12463372Y-17342984D02*
X12444325Y-17371555D01*
X12444325Y-17371555D02*
X12425277Y-17390603D01*
X12425277Y-17390603D02*
X12406229Y-17400127D01*
X12691944Y-17409650D02*
X12691944Y-17542984D01*
X12644325Y-17333460D02*
X12596706Y-17476317D01*
X12596706Y-17476317D02*
X12720515Y-17476317D01*
X12806229Y-17542984D02*
X12844325Y-17542984D01*
X12844325Y-17542984D02*
X12863372Y-17533460D01*
X12863372Y-17533460D02*
X12872896Y-17523936D01*
X12872896Y-17523936D02*
X12891944Y-17495365D01*
X12891944Y-17495365D02*
X12901467Y-17457270D01*
X12901467Y-17457270D02*
X12901467Y-17381079D01*
X12901467Y-17381079D02*
X12891944Y-17362031D01*
X12891944Y-17362031D02*
X12882420Y-17352508D01*
X12882420Y-17352508D02*
X12863372Y-17342984D01*
X12863372Y-17342984D02*
X12825277Y-17342984D01*
X12825277Y-17342984D02*
X12806229Y-17352508D01*
X12806229Y-17352508D02*
X12796706Y-17362031D01*
X12796706Y-17362031D02*
X12787182Y-17381079D01*
X12787182Y-17381079D02*
X12787182Y-17428698D01*
X12787182Y-17428698D02*
X12796706Y-17447746D01*
X12796706Y-17447746D02*
X12806229Y-17457270D01*
X12806229Y-17457270D02*
X12825277Y-17466793D01*
X12825277Y-17466793D02*
X12863372Y-17466793D01*
X12863372Y-17466793D02*
X12882420Y-17457270D01*
X12882420Y-17457270D02*
X12891944Y-17447746D01*
X12891944Y-17447746D02*
X12901467Y-17428698D01*
X13072896Y-17342984D02*
X13034801Y-17342984D01*
X13034801Y-17342984D02*
X13015753Y-17352508D01*
X13015753Y-17352508D02*
X13006229Y-17362031D01*
X13006229Y-17362031D02*
X12987182Y-17390603D01*
X12987182Y-17390603D02*
X12977658Y-17428698D01*
X12977658Y-17428698D02*
X12977658Y-17504889D01*
X12977658Y-17504889D02*
X12987182Y-17523936D01*
X12987182Y-17523936D02*
X12996706Y-17533460D01*
X12996706Y-17533460D02*
X13015753Y-17542984D01*
X13015753Y-17542984D02*
X13053848Y-17542984D01*
X13053848Y-17542984D02*
X13072896Y-17533460D01*
X13072896Y-17533460D02*
X13082420Y-17523936D01*
X13082420Y-17523936D02*
X13091944Y-17504889D01*
X13091944Y-17504889D02*
X13091944Y-17457270D01*
X13091944Y-17457270D02*
X13082420Y-17438222D01*
X13082420Y-17438222D02*
X13072896Y-17428698D01*
X13072896Y-17428698D02*
X13053848Y-17419174D01*
X13053848Y-17419174D02*
X13015753Y-17419174D01*
X13015753Y-17419174D02*
X12996706Y-17428698D01*
X12996706Y-17428698D02*
X12987182Y-17438222D01*
X12987182Y-17438222D02*
X12977658Y-17457270D01*
X13168134Y-17342984D02*
X13168134Y-17381079D01*
X13244325Y-17342984D02*
X13244325Y-17381079D01*
X13539563Y-17619174D02*
X13530039Y-17609650D01*
X13530039Y-17609650D02*
X13510991Y-17581079D01*
X13510991Y-17581079D02*
X13501468Y-17562031D01*
X13501468Y-17562031D02*
X13491944Y-17533460D01*
X13491944Y-17533460D02*
X13482420Y-17485841D01*
X13482420Y-17485841D02*
X13482420Y-17447746D01*
X13482420Y-17447746D02*
X13491944Y-17400127D01*
X13491944Y-17400127D02*
X13501468Y-17371555D01*
X13501468Y-17371555D02*
X13510991Y-17352508D01*
X13510991Y-17352508D02*
X13530039Y-17323936D01*
X13530039Y-17323936D02*
X13539563Y-17314412D01*
X13701468Y-17409650D02*
X13701468Y-17542984D01*
X13653848Y-17333460D02*
X13606229Y-17476317D01*
X13606229Y-17476317D02*
X13730039Y-17476317D01*
X13958610Y-17542984D02*
X13958610Y-17342984D01*
X14044325Y-17542984D02*
X14044325Y-17438222D01*
X14044325Y-17438222D02*
X14034801Y-17419174D01*
X14034801Y-17419174D02*
X14015753Y-17409650D01*
X14015753Y-17409650D02*
X13987182Y-17409650D01*
X13987182Y-17409650D02*
X13968134Y-17419174D01*
X13968134Y-17419174D02*
X13958610Y-17428698D01*
X14168134Y-17542984D02*
X14149087Y-17533460D01*
X14149087Y-17533460D02*
X14139563Y-17523936D01*
X14139563Y-17523936D02*
X14130039Y-17504889D01*
X14130039Y-17504889D02*
X14130039Y-17447746D01*
X14130039Y-17447746D02*
X14139563Y-17428698D01*
X14139563Y-17428698D02*
X14149087Y-17419174D01*
X14149087Y-17419174D02*
X14168134Y-17409650D01*
X14168134Y-17409650D02*
X14196706Y-17409650D01*
X14196706Y-17409650D02*
X14215753Y-17419174D01*
X14215753Y-17419174D02*
X14225277Y-17428698D01*
X14225277Y-17428698D02*
X14234801Y-17447746D01*
X14234801Y-17447746D02*
X14234801Y-17504889D01*
X14234801Y-17504889D02*
X14225277Y-17523936D01*
X14225277Y-17523936D02*
X14215753Y-17533460D01*
X14215753Y-17533460D02*
X14196706Y-17542984D01*
X14196706Y-17542984D02*
X14168134Y-17542984D01*
X14349087Y-17542984D02*
X14330039Y-17533460D01*
X14330039Y-17533460D02*
X14320515Y-17514412D01*
X14320515Y-17514412D02*
X14320515Y-17342984D01*
X14501468Y-17533460D02*
X14482420Y-17542984D01*
X14482420Y-17542984D02*
X14444325Y-17542984D01*
X14444325Y-17542984D02*
X14425277Y-17533460D01*
X14425277Y-17533460D02*
X14415753Y-17514412D01*
X14415753Y-17514412D02*
X14415753Y-17438222D01*
X14415753Y-17438222D02*
X14425277Y-17419174D01*
X14425277Y-17419174D02*
X14444325Y-17409650D01*
X14444325Y-17409650D02*
X14482420Y-17409650D01*
X14482420Y-17409650D02*
X14501468Y-17419174D01*
X14501468Y-17419174D02*
X14510991Y-17438222D01*
X14510991Y-17438222D02*
X14510991Y-17457270D01*
X14510991Y-17457270D02*
X14415753Y-17476317D01*
X14587182Y-17533460D02*
X14606230Y-17542984D01*
X14606230Y-17542984D02*
X14644325Y-17542984D01*
X14644325Y-17542984D02*
X14663372Y-17533460D01*
X14663372Y-17533460D02*
X14672896Y-17514412D01*
X14672896Y-17514412D02*
X14672896Y-17504889D01*
X14672896Y-17504889D02*
X14663372Y-17485841D01*
X14663372Y-17485841D02*
X14644325Y-17476317D01*
X14644325Y-17476317D02*
X14615753Y-17476317D01*
X14615753Y-17476317D02*
X14596706Y-17466793D01*
X14596706Y-17466793D02*
X14587182Y-17447746D01*
X14587182Y-17447746D02*
X14587182Y-17438222D01*
X14587182Y-17438222D02*
X14596706Y-17419174D01*
X14596706Y-17419174D02*
X14615753Y-17409650D01*
X14615753Y-17409650D02*
X14644325Y-17409650D01*
X14644325Y-17409650D02*
X14663372Y-17419174D01*
X14739563Y-17619174D02*
X14749087Y-17609650D01*
X14749087Y-17609650D02*
X14768134Y-17581079D01*
X14768134Y-17581079D02*
X14777658Y-17562031D01*
X14777658Y-17562031D02*
X14787182Y-17533460D01*
X14787182Y-17533460D02*
X14796706Y-17485841D01*
X14796706Y-17485841D02*
X14796706Y-17447746D01*
X14796706Y-17447746D02*
X14787182Y-17400127D01*
X14787182Y-17400127D02*
X14777658Y-17371555D01*
X14777658Y-17371555D02*
X14768134Y-17352508D01*
X14768134Y-17352508D02*
X14749087Y-17323936D01*
X14749087Y-17323936D02*
X14739563Y-17314412D01*
X9864500Y-17671500D02*
X9864500Y-17871500D01*
X9764500Y-17771500D02*
X9964500Y-17771500D01*
X9964500Y-17771500D02*
G75*
G02*
X9764500Y-17771500I-100000J0D01*
G01*
X9764500Y-17771500D02*
G75*
G02*
X9964500Y-17771500I100000J0D01*
G01*
X10310991Y-17729650D02*
X10310991Y-17862984D01*
X10263372Y-17653460D02*
X10215753Y-17796317D01*
X10215753Y-17796317D02*
X10339563Y-17796317D01*
X10415753Y-17843936D02*
X10425277Y-17853460D01*
X10425277Y-17853460D02*
X10415753Y-17862984D01*
X10415753Y-17862984D02*
X10406229Y-17853460D01*
X10406229Y-17853460D02*
X10415753Y-17843936D01*
X10415753Y-17843936D02*
X10415753Y-17862984D01*
X10606229Y-17662984D02*
X10510991Y-17662984D01*
X10510991Y-17662984D02*
X10501467Y-17758222D01*
X10501467Y-17758222D02*
X10510991Y-17748698D01*
X10510991Y-17748698D02*
X10530039Y-17739174D01*
X10530039Y-17739174D02*
X10577658Y-17739174D01*
X10577658Y-17739174D02*
X10596705Y-17748698D01*
X10596705Y-17748698D02*
X10606229Y-17758222D01*
X10606229Y-17758222D02*
X10615753Y-17777270D01*
X10615753Y-17777270D02*
X10615753Y-17824889D01*
X10615753Y-17824889D02*
X10606229Y-17843936D01*
X10606229Y-17843936D02*
X10596705Y-17853460D01*
X10596705Y-17853460D02*
X10577658Y-17862984D01*
X10577658Y-17862984D02*
X10530039Y-17862984D01*
X10530039Y-17862984D02*
X10510991Y-17853460D01*
X10510991Y-17853460D02*
X10501467Y-17843936D01*
X10739563Y-17662984D02*
X10758610Y-17662984D01*
X10758610Y-17662984D02*
X10777658Y-17672508D01*
X10777658Y-17672508D02*
X10787182Y-17682031D01*
X10787182Y-17682031D02*
X10796705Y-17701079D01*
X10796705Y-17701079D02*
X10806229Y-17739174D01*
X10806229Y-17739174D02*
X10806229Y-17786793D01*
X10806229Y-17786793D02*
X10796705Y-17824889D01*
X10796705Y-17824889D02*
X10787182Y-17843936D01*
X10787182Y-17843936D02*
X10777658Y-17853460D01*
X10777658Y-17853460D02*
X10758610Y-17862984D01*
X10758610Y-17862984D02*
X10739563Y-17862984D01*
X10739563Y-17862984D02*
X10720515Y-17853460D01*
X10720515Y-17853460D02*
X10710991Y-17843936D01*
X10710991Y-17843936D02*
X10701467Y-17824889D01*
X10701467Y-17824889D02*
X10691944Y-17786793D01*
X10691944Y-17786793D02*
X10691944Y-17739174D01*
X10691944Y-17739174D02*
X10701467Y-17701079D01*
X10701467Y-17701079D02*
X10710991Y-17682031D01*
X10710991Y-17682031D02*
X10720515Y-17672508D01*
X10720515Y-17672508D02*
X10739563Y-17662984D01*
X10930039Y-17662984D02*
X10949086Y-17662984D01*
X10949086Y-17662984D02*
X10968134Y-17672508D01*
X10968134Y-17672508D02*
X10977658Y-17682031D01*
X10977658Y-17682031D02*
X10987182Y-17701079D01*
X10987182Y-17701079D02*
X10996705Y-17739174D01*
X10996705Y-17739174D02*
X10996705Y-17786793D01*
X10996705Y-17786793D02*
X10987182Y-17824889D01*
X10987182Y-17824889D02*
X10977658Y-17843936D01*
X10977658Y-17843936D02*
X10968134Y-17853460D01*
X10968134Y-17853460D02*
X10949086Y-17862984D01*
X10949086Y-17862984D02*
X10930039Y-17862984D01*
X10930039Y-17862984D02*
X10910991Y-17853460D01*
X10910991Y-17853460D02*
X10901467Y-17843936D01*
X10901467Y-17843936D02*
X10891944Y-17824889D01*
X10891944Y-17824889D02*
X10882420Y-17786793D01*
X10882420Y-17786793D02*
X10882420Y-17739174D01*
X10882420Y-17739174D02*
X10891944Y-17701079D01*
X10891944Y-17701079D02*
X10901467Y-17682031D01*
X10901467Y-17682031D02*
X10910991Y-17672508D01*
X10910991Y-17672508D02*
X10930039Y-17662984D01*
X11082420Y-17862984D02*
X11082420Y-17729650D01*
X11082420Y-17748698D02*
X11091944Y-17739174D01*
X11091944Y-17739174D02*
X11110991Y-17729650D01*
X11110991Y-17729650D02*
X11139563Y-17729650D01*
X11139563Y-17729650D02*
X11158610Y-17739174D01*
X11158610Y-17739174D02*
X11168134Y-17758222D01*
X11168134Y-17758222D02*
X11168134Y-17862984D01*
X11168134Y-17758222D02*
X11177658Y-17739174D01*
X11177658Y-17739174D02*
X11196705Y-17729650D01*
X11196705Y-17729650D02*
X11225277Y-17729650D01*
X11225277Y-17729650D02*
X11244324Y-17739174D01*
X11244324Y-17739174D02*
X11253848Y-17758222D01*
X11253848Y-17758222D02*
X11253848Y-17862984D01*
X11349086Y-17862984D02*
X11349086Y-17729650D01*
X11349086Y-17748698D02*
X11358610Y-17739174D01*
X11358610Y-17739174D02*
X11377658Y-17729650D01*
X11377658Y-17729650D02*
X11406229Y-17729650D01*
X11406229Y-17729650D02*
X11425277Y-17739174D01*
X11425277Y-17739174D02*
X11434801Y-17758222D01*
X11434801Y-17758222D02*
X11434801Y-17862984D01*
X11434801Y-17758222D02*
X11444324Y-17739174D01*
X11444324Y-17739174D02*
X11463372Y-17729650D01*
X11463372Y-17729650D02*
X11491943Y-17729650D01*
X11491943Y-17729650D02*
X11510991Y-17739174D01*
X11510991Y-17739174D02*
X11520515Y-17758222D01*
X11520515Y-17758222D02*
X11520515Y-17862984D01*
X11910991Y-17653460D02*
X11739563Y-17910603D01*
X12168134Y-17662984D02*
X12187182Y-17662984D01*
X12187182Y-17662984D02*
X12206229Y-17672508D01*
X12206229Y-17672508D02*
X12215753Y-17682031D01*
X12215753Y-17682031D02*
X12225277Y-17701079D01*
X12225277Y-17701079D02*
X12234801Y-17739174D01*
X12234801Y-17739174D02*
X12234801Y-17786793D01*
X12234801Y-17786793D02*
X12225277Y-17824889D01*
X12225277Y-17824889D02*
X12215753Y-17843936D01*
X12215753Y-17843936D02*
X12206229Y-17853460D01*
X12206229Y-17853460D02*
X12187182Y-17862984D01*
X12187182Y-17862984D02*
X12168134Y-17862984D01*
X12168134Y-17862984D02*
X12149086Y-17853460D01*
X12149086Y-17853460D02*
X12139563Y-17843936D01*
X12139563Y-17843936D02*
X12130039Y-17824889D01*
X12130039Y-17824889D02*
X12120515Y-17786793D01*
X12120515Y-17786793D02*
X12120515Y-17739174D01*
X12120515Y-17739174D02*
X12130039Y-17701079D01*
X12130039Y-17701079D02*
X12139563Y-17682031D01*
X12139563Y-17682031D02*
X12149086Y-17672508D01*
X12149086Y-17672508D02*
X12168134Y-17662984D01*
X12320515Y-17843936D02*
X12330039Y-17853460D01*
X12330039Y-17853460D02*
X12320515Y-17862984D01*
X12320515Y-17862984D02*
X12310991Y-17853460D01*
X12310991Y-17853460D02*
X12320515Y-17843936D01*
X12320515Y-17843936D02*
X12320515Y-17862984D01*
X12520515Y-17862984D02*
X12406229Y-17862984D01*
X12463372Y-17862984D02*
X12463372Y-17662984D01*
X12463372Y-17662984D02*
X12444325Y-17691555D01*
X12444325Y-17691555D02*
X12425277Y-17710603D01*
X12425277Y-17710603D02*
X12406229Y-17720127D01*
X12587182Y-17662984D02*
X12720515Y-17662984D01*
X12720515Y-17662984D02*
X12634801Y-17862984D01*
X12777658Y-17662984D02*
X12910991Y-17662984D01*
X12910991Y-17662984D02*
X12825277Y-17862984D01*
X12977658Y-17682031D02*
X12987182Y-17672508D01*
X12987182Y-17672508D02*
X13006229Y-17662984D01*
X13006229Y-17662984D02*
X13053848Y-17662984D01*
X13053848Y-17662984D02*
X13072896Y-17672508D01*
X13072896Y-17672508D02*
X13082420Y-17682031D01*
X13082420Y-17682031D02*
X13091944Y-17701079D01*
X13091944Y-17701079D02*
X13091944Y-17720127D01*
X13091944Y-17720127D02*
X13082420Y-17748698D01*
X13082420Y-17748698D02*
X12968134Y-17862984D01*
X12968134Y-17862984D02*
X13091944Y-17862984D01*
X13168134Y-17662984D02*
X13168134Y-17701079D01*
X13244325Y-17662984D02*
X13244325Y-17701079D01*
X13539563Y-17939174D02*
X13530039Y-17929650D01*
X13530039Y-17929650D02*
X13510991Y-17901079D01*
X13510991Y-17901079D02*
X13501468Y-17882031D01*
X13501468Y-17882031D02*
X13491944Y-17853460D01*
X13491944Y-17853460D02*
X13482420Y-17805841D01*
X13482420Y-17805841D02*
X13482420Y-17767746D01*
X13482420Y-17767746D02*
X13491944Y-17720127D01*
X13491944Y-17720127D02*
X13501468Y-17691555D01*
X13501468Y-17691555D02*
X13510991Y-17672508D01*
X13510991Y-17672508D02*
X13530039Y-17643936D01*
X13530039Y-17643936D02*
X13539563Y-17634412D01*
X13606229Y-17682031D02*
X13615753Y-17672508D01*
X13615753Y-17672508D02*
X13634801Y-17662984D01*
X13634801Y-17662984D02*
X13682420Y-17662984D01*
X13682420Y-17662984D02*
X13701468Y-17672508D01*
X13701468Y-17672508D02*
X13710991Y-17682031D01*
X13710991Y-17682031D02*
X13720515Y-17701079D01*
X13720515Y-17701079D02*
X13720515Y-17720127D01*
X13720515Y-17720127D02*
X13710991Y-17748698D01*
X13710991Y-17748698D02*
X13596706Y-17862984D01*
X13596706Y-17862984D02*
X13720515Y-17862984D01*
X13958610Y-17862984D02*
X13958610Y-17662984D01*
X14044325Y-17862984D02*
X14044325Y-17758222D01*
X14044325Y-17758222D02*
X14034801Y-17739174D01*
X14034801Y-17739174D02*
X14015753Y-17729650D01*
X14015753Y-17729650D02*
X13987182Y-17729650D01*
X13987182Y-17729650D02*
X13968134Y-17739174D01*
X13968134Y-17739174D02*
X13958610Y-17748698D01*
X14168134Y-17862984D02*
X14149087Y-17853460D01*
X14149087Y-17853460D02*
X14139563Y-17843936D01*
X14139563Y-17843936D02*
X14130039Y-17824889D01*
X14130039Y-17824889D02*
X14130039Y-17767746D01*
X14130039Y-17767746D02*
X14139563Y-17748698D01*
X14139563Y-17748698D02*
X14149087Y-17739174D01*
X14149087Y-17739174D02*
X14168134Y-17729650D01*
X14168134Y-17729650D02*
X14196706Y-17729650D01*
X14196706Y-17729650D02*
X14215753Y-17739174D01*
X14215753Y-17739174D02*
X14225277Y-17748698D01*
X14225277Y-17748698D02*
X14234801Y-17767746D01*
X14234801Y-17767746D02*
X14234801Y-17824889D01*
X14234801Y-17824889D02*
X14225277Y-17843936D01*
X14225277Y-17843936D02*
X14215753Y-17853460D01*
X14215753Y-17853460D02*
X14196706Y-17862984D01*
X14196706Y-17862984D02*
X14168134Y-17862984D01*
X14349087Y-17862984D02*
X14330039Y-17853460D01*
X14330039Y-17853460D02*
X14320515Y-17834412D01*
X14320515Y-17834412D02*
X14320515Y-17662984D01*
X14501468Y-17853460D02*
X14482420Y-17862984D01*
X14482420Y-17862984D02*
X14444325Y-17862984D01*
X14444325Y-17862984D02*
X14425277Y-17853460D01*
X14425277Y-17853460D02*
X14415753Y-17834412D01*
X14415753Y-17834412D02*
X14415753Y-17758222D01*
X14415753Y-17758222D02*
X14425277Y-17739174D01*
X14425277Y-17739174D02*
X14444325Y-17729650D01*
X14444325Y-17729650D02*
X14482420Y-17729650D01*
X14482420Y-17729650D02*
X14501468Y-17739174D01*
X14501468Y-17739174D02*
X14510991Y-17758222D01*
X14510991Y-17758222D02*
X14510991Y-17777270D01*
X14510991Y-17777270D02*
X14415753Y-17796317D01*
X14587182Y-17853460D02*
X14606230Y-17862984D01*
X14606230Y-17862984D02*
X14644325Y-17862984D01*
X14644325Y-17862984D02*
X14663372Y-17853460D01*
X14663372Y-17853460D02*
X14672896Y-17834412D01*
X14672896Y-17834412D02*
X14672896Y-17824889D01*
X14672896Y-17824889D02*
X14663372Y-17805841D01*
X14663372Y-17805841D02*
X14644325Y-17796317D01*
X14644325Y-17796317D02*
X14615753Y-17796317D01*
X14615753Y-17796317D02*
X14596706Y-17786793D01*
X14596706Y-17786793D02*
X14587182Y-17767746D01*
X14587182Y-17767746D02*
X14587182Y-17758222D01*
X14587182Y-17758222D02*
X14596706Y-17739174D01*
X14596706Y-17739174D02*
X14615753Y-17729650D01*
X14615753Y-17729650D02*
X14644325Y-17729650D01*
X14644325Y-17729650D02*
X14663372Y-17739174D01*
X14739563Y-17939174D02*
X14749087Y-17929650D01*
X14749087Y-17929650D02*
X14768134Y-17901079D01*
X14768134Y-17901079D02*
X14777658Y-17882031D01*
X14777658Y-17882031D02*
X14787182Y-17853460D01*
X14787182Y-17853460D02*
X14796706Y-17805841D01*
X14796706Y-17805841D02*
X14796706Y-17767746D01*
X14796706Y-17767746D02*
X14787182Y-17720127D01*
X14787182Y-17720127D02*
X14777658Y-17691555D01*
X14777658Y-17691555D02*
X14768134Y-17672508D01*
X14768134Y-17672508D02*
X14749087Y-17643936D01*
X14749087Y-17643936D02*
X14739563Y-17634412D01*
M02*
