G04 #@! TF.GenerationSoftware,KiCad,Pcbnew,9.0.0*
G04 #@! TF.CreationDate,2025-03-26T20:46:31-05:00*
G04 #@! TF.ProjectId,SubCircuitV3,53756243-6972-4637-9569-7456332e6b69,rev?*
G04 #@! TF.SameCoordinates,Original*
G04 #@! TF.FileFunction,Soldermask,Bot*
G04 #@! TF.FilePolarity,Negative*
%FSLAX46Y46*%
G04 Gerber Fmt 4.6, Leading zero omitted, Abs format (unit mm)*
G04 Created by KiCad (PCBNEW 9.0.0) date 2025-03-26 20:46:31*
%MOMM*%
%LPD*%
G01*
G04 APERTURE LIST*
G04 Aperture macros list*
%AMRoundRect*
0 Rectangle with rounded corners*
0 $1 Rounding radius*
0 $2 $3 $4 $5 $6 $7 $8 $9 X,Y pos of 4 corners*
0 Add a 4 corners polygon primitive as box body*
4,1,4,$2,$3,$4,$5,$6,$7,$8,$9,$2,$3,0*
0 Add four circle primitives for the rounded corners*
1,1,$1+$1,$2,$3*
1,1,$1+$1,$4,$5*
1,1,$1+$1,$6,$7*
1,1,$1+$1,$8,$9*
0 Add four rect primitives between the rounded corners*
20,1,$1+$1,$2,$3,$4,$5,0*
20,1,$1+$1,$4,$5,$6,$7,0*
20,1,$1+$1,$6,$7,$8,$9,0*
20,1,$1+$1,$8,$9,$2,$3,0*%
G04 Aperture macros list end*
%ADD10C,2.400000*%
%ADD11O,2.400000X2.400000*%
%ADD12C,2.700000*%
%ADD13RoundRect,1.800000X1.800000X1.800000X-1.800000X1.800000X-1.800000X-1.800000X1.800000X-1.800000X0*%
%ADD14C,7.200000*%
%ADD15R,1.600000X2.400000*%
%ADD16C,1.727200*%
%ADD17RoundRect,1.800000X-1.800000X-1.800000X1.800000X-1.800000X1.800000X1.800000X-1.800000X1.800000X0*%
%ADD18C,2.550000*%
%ADD19C,1.600000*%
%ADD20O,1.600000X1.600000*%
%ADD21R,1.320800X1.320800*%
%ADD22C,1.320800*%
%ADD23R,2.300000X2.300000*%
%ADD24C,2.300000*%
%ADD25RoundRect,1.500000X-1.500000X-1.500000X1.500000X-1.500000X1.500000X1.500000X-1.500000X1.500000X0*%
%ADD26C,6.000000*%
%ADD27R,1.350000X1.350000*%
%ADD28O,1.350000X1.350000*%
%ADD29R,1.651000X1.651000*%
%ADD30C,1.651000*%
%ADD31R,1.800000X1.800000*%
%ADD32C,1.800000*%
%ADD33RoundRect,0.250001X1.099999X1.099999X-1.099999X1.099999X-1.099999X-1.099999X1.099999X-1.099999X0*%
G04 APERTURE END LIST*
D10*
X119126000Y-129921000D03*
D11*
X139446000Y-129921000D03*
D10*
X197358000Y-133477000D03*
D11*
X217678000Y-133477000D03*
D12*
X214122000Y-140716000D03*
D13*
X160771000Y-118829000D03*
D14*
X149871002Y-118829000D03*
D15*
X164771000Y-128229000D03*
X145871000Y-128229000D03*
D16*
X125476000Y-140589000D03*
X129286000Y-140589000D03*
X133096000Y-140589000D03*
D17*
X177378000Y-139829000D03*
D14*
X188277998Y-139829000D03*
D15*
X173378000Y-130429000D03*
X192278000Y-130429000D03*
D18*
X166261000Y-46736000D03*
X169921000Y-46736000D03*
X174391000Y-46736000D03*
X178051000Y-46736000D03*
D19*
X107315000Y-124079000D03*
D20*
X107315000Y-134239000D03*
D16*
X200406000Y-119253000D03*
X204216000Y-119253000D03*
X208026000Y-119253000D03*
D19*
X111365000Y-124079000D03*
D20*
X111365000Y-134239000D03*
D21*
X177720750Y-104140000D03*
D22*
X179720750Y-104140000D03*
D19*
X163814800Y-72009000D03*
D20*
X173974800Y-72009000D03*
D18*
X147907000Y-46736000D03*
X151567000Y-46736000D03*
X156037000Y-46736000D03*
X159697000Y-46736000D03*
D23*
X120015000Y-107950000D03*
D24*
X130175000Y-107950000D03*
X137795000Y-107950000D03*
X120015000Y-100330000D03*
D19*
X180332400Y-72009000D03*
D20*
X190492400Y-72009000D03*
D25*
X198159000Y-103378000D03*
D26*
X205359000Y-103378000D03*
D19*
X147297201Y-72009000D03*
D20*
X157457201Y-72009000D03*
D18*
X202969000Y-46736000D03*
X206629000Y-46736000D03*
X211099000Y-46736000D03*
X214759000Y-46736000D03*
X129553000Y-46736000D03*
X133213000Y-46736000D03*
X137683000Y-46736000D03*
X141343000Y-46736000D03*
D12*
X105156000Y-140716000D03*
D21*
X146336000Y-104140000D03*
D22*
X148336000Y-104140000D03*
D27*
X196533000Y-88519000D03*
D28*
X198533000Y-88519000D03*
X200533000Y-88519000D03*
D27*
X154148000Y-93091000D03*
D28*
X154148000Y-91091000D03*
X156148000Y-93091000D03*
X156148000Y-91091000D03*
X158148000Y-93091000D03*
X158148000Y-91091000D03*
X160148000Y-93091000D03*
X160148000Y-91091000D03*
X162148000Y-93091000D03*
X162148000Y-91091000D03*
X164148000Y-93091000D03*
X164148000Y-91091000D03*
X166148000Y-93091000D03*
X166148000Y-91091000D03*
X168148000Y-93091000D03*
X168148000Y-91091000D03*
D29*
X160274000Y-103759000D03*
D30*
X162814000Y-103759000D03*
X165354000Y-103759000D03*
D19*
X114262001Y-72009000D03*
D20*
X124422001Y-72009000D03*
D19*
X196850000Y-72009000D03*
D20*
X207010000Y-72009000D03*
D16*
X125476000Y-119253000D03*
X129286000Y-119253000D03*
X133096000Y-119253000D03*
D18*
X184615000Y-46736000D03*
X188275000Y-46736000D03*
X192745000Y-46736000D03*
X196405000Y-46736000D03*
D12*
X105156000Y-32131000D03*
D19*
X130779601Y-72009000D03*
D20*
X140939601Y-72009000D03*
D31*
X110358000Y-94194000D03*
D32*
X112898000Y-94194000D03*
D18*
X111199000Y-46736000D03*
X114859000Y-46736000D03*
X119329000Y-46736000D03*
X122989000Y-46736000D03*
D19*
X133477000Y-93472000D03*
D20*
X123317000Y-93472000D03*
D33*
X208176000Y-60071000D03*
D12*
X204216000Y-60071000D03*
D33*
X153947000Y-60071000D03*
D12*
X149987000Y-60071000D03*
D27*
X112173000Y-81026000D03*
D28*
X114173000Y-81026000D03*
X116173000Y-81026000D03*
D33*
X135278000Y-60071000D03*
D12*
X131318000Y-60071000D03*
D27*
X131248400Y-81026000D03*
D28*
X133248400Y-81026000D03*
X135248400Y-81026000D03*
D33*
X119530000Y-60071000D03*
D12*
X115570000Y-60071000D03*
D27*
X150323800Y-81026000D03*
D28*
X152323800Y-81026000D03*
X154323800Y-81026000D03*
D27*
X169399200Y-81026000D03*
D28*
X171399200Y-81026000D03*
X173399200Y-81026000D03*
D33*
X172997000Y-60071000D03*
D12*
X169037000Y-60071000D03*
D27*
X188474600Y-81026000D03*
D28*
X190474600Y-81026000D03*
X192474600Y-81026000D03*
D33*
X189761000Y-60071000D03*
D12*
X185801000Y-60071000D03*
D27*
X207550000Y-81026000D03*
D28*
X209550000Y-81026000D03*
X211550000Y-81026000D03*
M02*
