G04 #@! TF.GenerationSoftware,KiCad,Pcbnew,9.0.0*
G04 #@! TF.CreationDate,2025-10-15T21:43:40-05:00*
G04 #@! TF.ProjectId,SubCircuitV3,53756243-6972-4637-9569-7456332e6b69,rev?*
G04 #@! TF.SameCoordinates,Original*
G04 #@! TF.FileFunction,Copper,L2,Bot*
G04 #@! TF.FilePolarity,Positive*
%FSLAX46Y46*%
G04 Gerber Fmt 4.6, Leading zero omitted, Abs format (unit mm)*
G04 Created by KiCad (PCBNEW 9.0.0) date 2025-10-15 21:43:40*
%MOMM*%
%LPD*%
G01*
G04 APERTURE LIST*
G04 Aperture macros list*
%AMRoundRect*
0 Rectangle with rounded corners*
0 $1 Rounding radius*
0 $2 $3 $4 $5 $6 $7 $8 $9 X,Y pos of 4 corners*
0 Add a 4 corners polygon primitive as box body*
4,1,4,$2,$3,$4,$5,$6,$7,$8,$9,$2,$3,0*
0 Add four circle primitives for the rounded corners*
1,1,$1+$1,$2,$3*
1,1,$1+$1,$4,$5*
1,1,$1+$1,$6,$7*
1,1,$1+$1,$8,$9*
0 Add four rect primitives between the rounded corners*
20,1,$1+$1,$2,$3,$4,$5,0*
20,1,$1+$1,$4,$5,$6,$7,0*
20,1,$1+$1,$6,$7,$8,$9,0*
20,1,$1+$1,$8,$9,$2,$3,0*%
G04 Aperture macros list end*
G04 #@! TA.AperFunction,ComponentPad*
%ADD10RoundRect,1.500000X1.500000X1.500000X-1.500000X1.500000X-1.500000X-1.500000X1.500000X-1.500000X0*%
G04 #@! TD*
G04 #@! TA.AperFunction,ComponentPad*
%ADD11C,6.000000*%
G04 #@! TD*
G04 #@! TA.AperFunction,ComponentPad*
%ADD12R,1.700000X1.700000*%
G04 #@! TD*
G04 #@! TA.AperFunction,ComponentPad*
%ADD13O,1.700000X1.700000*%
G04 #@! TD*
G04 #@! TA.AperFunction,ComponentPad*
%ADD14C,1.727200*%
G04 #@! TD*
G04 #@! TA.AperFunction,ComponentPad*
%ADD15C,2.550000*%
G04 #@! TD*
G04 #@! TA.AperFunction,ComponentPad*
%ADD16C,1.600000*%
G04 #@! TD*
G04 #@! TA.AperFunction,ComponentPad*
%ADD17O,1.600000X1.600000*%
G04 #@! TD*
G04 #@! TA.AperFunction,ComponentPad*
%ADD18R,2.300000X2.300000*%
G04 #@! TD*
G04 #@! TA.AperFunction,ComponentPad*
%ADD19C,2.300000*%
G04 #@! TD*
G04 #@! TA.AperFunction,ComponentPad*
%ADD20R,1.651000X1.651000*%
G04 #@! TD*
G04 #@! TA.AperFunction,ComponentPad*
%ADD21C,1.651000*%
G04 #@! TD*
G04 #@! TA.AperFunction,ComponentPad*
%ADD22R,1.800000X1.800000*%
G04 #@! TD*
G04 #@! TA.AperFunction,ComponentPad*
%ADD23C,1.800000*%
G04 #@! TD*
G04 #@! TA.AperFunction,Conductor*
%ADD24C,2.000000*%
G04 #@! TD*
G04 #@! TA.AperFunction,Conductor*
%ADD25C,3.000000*%
G04 #@! TD*
G04 #@! TA.AperFunction,Conductor*
%ADD26C,4.000000*%
G04 #@! TD*
G04 #@! TA.AperFunction,Conductor*
%ADD27C,0.500000*%
G04 #@! TD*
G04 APERTURE END LIST*
D10*
X171802800Y-121208800D03*
D11*
X164602800Y-121208800D03*
D12*
X143500000Y-138470000D03*
D13*
X143500000Y-141010000D03*
X143500000Y-143550000D03*
D14*
X113468400Y-140999999D03*
X117278400Y-140999999D03*
X121088400Y-140999999D03*
D10*
X121333000Y-43280000D03*
D11*
X114133000Y-43280000D03*
D15*
X163370800Y-83566000D03*
X167030800Y-83566000D03*
X171500800Y-83566000D03*
X175160800Y-83566000D03*
D16*
X103773000Y-48133000D03*
D17*
X103773000Y-58293000D03*
D14*
X215930000Y-46380000D03*
X215930000Y-42570000D03*
X215930000Y-38760000D03*
D16*
X107823000Y-48133000D03*
D17*
X107823000Y-58293000D03*
D16*
X154850000Y-32060000D03*
X151350000Y-32060000D03*
X170713400Y-55499000D03*
D17*
X180873400Y-55499000D03*
D15*
X105535000Y-83566000D03*
X109195000Y-83566000D03*
X113665000Y-83566000D03*
X117325000Y-83566000D03*
D18*
X135524000Y-48631000D03*
D19*
X145684000Y-48631000D03*
X153304000Y-48631000D03*
X135524000Y-41011000D03*
D16*
X189814200Y-55499000D03*
D17*
X199974200Y-55499000D03*
D10*
X121412000Y-31623000D03*
D11*
X114212000Y-31623000D03*
D16*
X113411000Y-55499000D03*
D17*
X123571000Y-55499000D03*
D15*
X201928000Y-83566000D03*
X205588000Y-83566000D03*
X210058000Y-83566000D03*
X213718000Y-83566000D03*
X124813600Y-83566000D03*
X128473600Y-83566000D03*
X132943600Y-83566000D03*
X136603600Y-83566000D03*
D16*
X133270000Y-32060000D03*
X129770000Y-32060000D03*
D12*
X202080000Y-36010000D03*
D13*
X204620000Y-36010000D03*
X207160000Y-36010000D03*
D12*
X170688000Y-39116000D03*
D13*
X170688000Y-36576000D03*
X173228000Y-39116000D03*
X173228000Y-36576000D03*
X175768000Y-39116000D03*
X175768000Y-36576000D03*
X178308000Y-39116000D03*
X178308000Y-36576000D03*
X180848000Y-39116000D03*
X180848000Y-36576000D03*
X183388000Y-39116000D03*
X183388000Y-36576000D03*
X185928000Y-39116000D03*
X185928000Y-36576000D03*
X188468000Y-39116000D03*
X188468000Y-36576000D03*
D20*
X140081000Y-32512000D03*
D21*
X142621000Y-32512000D03*
X145161000Y-32512000D03*
D16*
X151612600Y-55499000D03*
D17*
X161772600Y-55499000D03*
D16*
X208915000Y-55499000D03*
D17*
X219075000Y-55499000D03*
D14*
X213500000Y-115000000D03*
X213500000Y-118810000D03*
X213500000Y-122620000D03*
D15*
X182649400Y-83566000D03*
X186309400Y-83566000D03*
X190779400Y-83566000D03*
X194439400Y-83566000D03*
D12*
X179790000Y-138470000D03*
D13*
X179790000Y-141010000D03*
X179790000Y-143550000D03*
D14*
X128880000Y-141000000D03*
X132690000Y-141000000D03*
X136500000Y-141000000D03*
D16*
X132511800Y-55499000D03*
D17*
X142671800Y-55499000D03*
D22*
X105288000Y-134025000D03*
D23*
X102748000Y-134025000D03*
D15*
X144092200Y-83566000D03*
X147752200Y-83566000D03*
X152222200Y-83566000D03*
X155882200Y-83566000D03*
X195370000Y-141500000D03*
X199030000Y-141500000D03*
X203500000Y-141500000D03*
X207160000Y-141500000D03*
D16*
X110000000Y-131580000D03*
D17*
X110000000Y-121420000D03*
D10*
X215500000Y-69850000D03*
D11*
X208300000Y-69850000D03*
D10*
X117602000Y-69850000D03*
D11*
X110402000Y-69850000D03*
D12*
X159068000Y-29210000D03*
D13*
X161608000Y-29210000D03*
X164148000Y-29210000D03*
D10*
X137388600Y-69850000D03*
D11*
X130188600Y-69850000D03*
D12*
X169786400Y-29210000D03*
D13*
X172326400Y-29210000D03*
X174866400Y-29210000D03*
D10*
X157175200Y-69850000D03*
D11*
X149975200Y-69850000D03*
D12*
X180504800Y-29210000D03*
D13*
X183044800Y-29210000D03*
X185584800Y-29210000D03*
D12*
X191223200Y-29210000D03*
D13*
X193763200Y-29210000D03*
X196303200Y-29210000D03*
D10*
X176961800Y-69850000D03*
D11*
X169761800Y-69850000D03*
D12*
X201941600Y-29210000D03*
D13*
X204481600Y-29210000D03*
X207021600Y-29210000D03*
D10*
X196748400Y-69850000D03*
D11*
X189548400Y-69850000D03*
D12*
X212660000Y-29210000D03*
D13*
X215200000Y-29210000D03*
X217740000Y-29210000D03*
D24*
X153304000Y-48631000D02*
X153304000Y-40655000D01*
X153304000Y-40655000D02*
X145161000Y-32512000D01*
X140081000Y-32512000D02*
X140081000Y-29972000D01*
X200994092Y-37095908D02*
X202080000Y-36010000D01*
X137668000Y-27559000D02*
X130941000Y-27559000D01*
X130941000Y-27559000D02*
X129770000Y-28730000D01*
X129770000Y-28730000D02*
X129770000Y-32060000D01*
X149759000Y-27559000D02*
X151350000Y-29150000D01*
D25*
X114212000Y-43201000D02*
X114133000Y-43280000D01*
D24*
X151350000Y-29150000D02*
X151350000Y-32060000D01*
X200994092Y-39116000D02*
X200994092Y-37095908D01*
X129770000Y-34890000D02*
X129770000Y-32060000D01*
X200994092Y-39116000D02*
X188468000Y-39116000D01*
X140081000Y-29718000D02*
X142240000Y-27559000D01*
X114212000Y-31623000D02*
X114212000Y-35726000D01*
X115951000Y-37465000D02*
X127195000Y-37465000D01*
X215930000Y-46380000D02*
X208258092Y-46380000D01*
X140081000Y-29972000D02*
X137668000Y-27559000D01*
X142240000Y-27559000D02*
X149759000Y-27559000D01*
X127195000Y-37465000D02*
X129770000Y-34890000D01*
X114133000Y-43280000D02*
X114133000Y-44156000D01*
X113157000Y-44256000D02*
X114133000Y-43280000D01*
X208258092Y-46380000D02*
X200994092Y-39116000D01*
X114212000Y-35726000D02*
X115951000Y-37465000D01*
X140081000Y-32512000D02*
X140081000Y-29718000D01*
D26*
X164602800Y-125451440D02*
X166151360Y-127000000D01*
X217737300Y-71052300D02*
X216535000Y-69850000D01*
D24*
X149479000Y-43180000D02*
X149479000Y-52324000D01*
X140335000Y-76835000D02*
X140335000Y-79629000D01*
D26*
X156701100Y-121208800D02*
X140335000Y-104842700D01*
D25*
X144959836Y-123698850D02*
X150301150Y-123698850D01*
D26*
X164602800Y-121208800D02*
X164602800Y-125451440D01*
D24*
X154237300Y-134762700D02*
X154237300Y-127635000D01*
D26*
X121158000Y-73406000D02*
X117602000Y-69850000D01*
D24*
X145445000Y-143555000D02*
X143500000Y-143555000D01*
X135524000Y-41011000D02*
X147310000Y-41011000D01*
D25*
X128880000Y-139778686D02*
X144959836Y-123698850D01*
D26*
X196748400Y-75531100D02*
X196748400Y-69850000D01*
X164602800Y-121208800D02*
X156701100Y-121208800D01*
D24*
X177928000Y-141010000D02*
X170452650Y-133534650D01*
D26*
X185606300Y-127000000D02*
X198179300Y-114427000D01*
D27*
X161772600Y-55499000D02*
X161772600Y-65252600D01*
D26*
X137388600Y-76682600D02*
X137388600Y-69850000D01*
X217737300Y-117500000D02*
X215237300Y-115000000D01*
D27*
X199974200Y-66624200D02*
X196748400Y-69850000D01*
D26*
X214348950Y-132547350D02*
X217737300Y-129159000D01*
D27*
X219075000Y-55499000D02*
X219075000Y-67310000D01*
D24*
X145000000Y-72170000D02*
X140335000Y-76835000D01*
X170452650Y-133534650D02*
X170452650Y-132547350D01*
X145000000Y-56803000D02*
X145000000Y-72170000D01*
D26*
X217737300Y-117500000D02*
X217737300Y-71052300D01*
X158572100Y-115178100D02*
X164602800Y-121208800D01*
D27*
X161772600Y-65252600D02*
X157175200Y-69850000D01*
D26*
X140335000Y-79629000D02*
X137388600Y-76682600D01*
D27*
X123571000Y-63881000D02*
X117602000Y-69850000D01*
D26*
X170452650Y-132547350D02*
X189500000Y-132547350D01*
X158572100Y-89458900D02*
X159512000Y-88519000D01*
X178910000Y-102658960D02*
X178910000Y-78961000D01*
X170452650Y-132547350D02*
X164602800Y-126697500D01*
X140335000Y-104842700D02*
X140335000Y-79629000D01*
D27*
X199974200Y-55499000D02*
X199974200Y-66624200D01*
D26*
X164602800Y-121208800D02*
X164602800Y-116966160D01*
D27*
X105288000Y-110425700D02*
X121158000Y-94555700D01*
D26*
X217737300Y-129159000D02*
X217737300Y-117500000D01*
D24*
X179790000Y-141010000D02*
X177928000Y-141010000D01*
D26*
X164602800Y-126697500D02*
X164602800Y-121208800D01*
X121158000Y-94555700D02*
X121158000Y-73406000D01*
X198179300Y-114427000D02*
X198179300Y-76962000D01*
D27*
X142671800Y-64566800D02*
X137388600Y-69850000D01*
D26*
X158176600Y-127635000D02*
X154237300Y-127635000D01*
D27*
X142671800Y-55499000D02*
X142671800Y-64566800D01*
D26*
X159512000Y-72186800D02*
X157175200Y-69850000D01*
D24*
X154237300Y-134762700D02*
X145445000Y-143555000D01*
D26*
X150301150Y-123698850D02*
X121158000Y-94555700D01*
X166151360Y-127000000D02*
X185606300Y-127000000D01*
D24*
X149479000Y-52324000D02*
X145000000Y-56803000D01*
D26*
X154237300Y-127635000D02*
X150301150Y-123698850D01*
D24*
X147310000Y-41011000D02*
X149479000Y-43180000D01*
D27*
X123571000Y-55499000D02*
X123571000Y-63881000D01*
X219075000Y-67310000D02*
X216535000Y-69850000D01*
X105288000Y-134025000D02*
X105288000Y-110425700D01*
D26*
X198179300Y-76962000D02*
X196748400Y-75531100D01*
D25*
X128880000Y-141000000D02*
X128880000Y-139778686D01*
D26*
X178910000Y-78961000D02*
X176961800Y-77012800D01*
D27*
X180873400Y-65938400D02*
X176961800Y-69850000D01*
X180873400Y-55499000D02*
X180873400Y-65938400D01*
D26*
X158572100Y-115178100D02*
X158572100Y-89458900D01*
X164602800Y-116966160D02*
X178910000Y-102658960D01*
X176961800Y-77012800D02*
X176961800Y-69850000D01*
X159512000Y-88519000D02*
X159512000Y-72186800D01*
X189500000Y-132547350D02*
X214348950Y-132547350D01*
X164602800Y-121208800D02*
X158176600Y-127635000D01*
X215237300Y-115000000D02*
X213500000Y-115000000D01*
D27*
X118080000Y-131580000D02*
X121088400Y-134588400D01*
X121088400Y-134588400D02*
X121088400Y-140999999D01*
X110000000Y-131580000D02*
X118080000Y-131580000D01*
D24*
X103773000Y-48133000D02*
X103759000Y-48119000D01*
X103773000Y-48133000D02*
X107823000Y-48133000D01*
X135026000Y-48133000D02*
X135524000Y-48631000D01*
X107823000Y-48133000D02*
X135026000Y-48133000D01*
D27*
X208915000Y-69430000D02*
X209335000Y-69850000D01*
X208915000Y-55499000D02*
X208915000Y-69430000D01*
X189814200Y-69584200D02*
X189548400Y-69850000D01*
X189814200Y-55499000D02*
X189814200Y-69584200D01*
X170713400Y-55499000D02*
X170713400Y-67561600D01*
X113411000Y-55499000D02*
X113411000Y-66841000D01*
X113411000Y-66841000D02*
X110402000Y-69850000D01*
X132511800Y-67526800D02*
X130188600Y-69850000D01*
X132511800Y-55499000D02*
X132511800Y-67526800D01*
X151612600Y-55499000D02*
X151612600Y-68212600D01*
X151612600Y-68212600D02*
X149975200Y-69850000D01*
X164148000Y-35243000D02*
X164148000Y-29210000D01*
D24*
X171958000Y-32766000D02*
X167005000Y-32766000D01*
D27*
X214184000Y-32766000D02*
X217740000Y-29210000D01*
D24*
X178308000Y-39116000D02*
X180848000Y-39116000D01*
D27*
X203327000Y-32766000D02*
X214184000Y-32766000D01*
D24*
X164846000Y-34925000D02*
X164846000Y-35941000D01*
D27*
X203327000Y-32766000D02*
X203465600Y-32766000D01*
X193040000Y-32473200D02*
X196303200Y-29210000D01*
D24*
X175768000Y-39116000D02*
X178308000Y-39116000D01*
D27*
X171958000Y-32766000D02*
X171958000Y-32118400D01*
D24*
X166878000Y-39116000D02*
X170688000Y-39116000D01*
X164846000Y-37084000D02*
X166878000Y-39116000D01*
X203327000Y-32766000D02*
X193040000Y-32766000D01*
X182245000Y-32766000D02*
X171958000Y-32766000D01*
X164846000Y-35941000D02*
X164846000Y-37084000D01*
X170688000Y-39116000D02*
X173228000Y-39116000D01*
D27*
X171958000Y-32118400D02*
X174866400Y-29210000D01*
X182245000Y-32549800D02*
X185584800Y-29210000D01*
D24*
X167005000Y-32766000D02*
X164846000Y-34925000D01*
D27*
X203465600Y-32766000D02*
X207021600Y-29210000D01*
X193040000Y-32766000D02*
X193040000Y-32473200D01*
X182245000Y-32766000D02*
X182245000Y-32549800D01*
D24*
X193040000Y-32766000D02*
X182245000Y-32766000D01*
D27*
X164846000Y-35941000D02*
X164148000Y-35243000D01*
D24*
X180848000Y-39116000D02*
X183388000Y-39116000D01*
X173228000Y-39116000D02*
X175768000Y-39116000D01*
M02*
