M48
; DRILL file {KiCad 9.0.0} date 2025-10-15T21:44:28-0500
; FORMAT={-:-/ absolute / metric / decimal}
; #@! TF.CreationDate,2025-10-15T21:44:28-05:00
; #@! TF.GenerationSoftware,Kicad,Pcbnew,9.0.0
; #@! TF.FileFunction,Plated,1,2,PTH
FMAT,2
METRIC
; #@! TA.AperFunction,Plated,PTH,ComponentDrill
T1C0.800
; #@! TA.AperFunction,Plated,PTH,ComponentDrill
T2C0.900
; #@! TA.AperFunction,Plated,PTH,ComponentDrill
T3C1.000
; #@! TA.AperFunction,Plated,PTH,ComponentDrill
T4C1.143
; #@! TA.AperFunction,Plated,PTH,ComponentDrill
T5C1.219
; #@! TA.AperFunction,Plated,PTH,ComponentDrill
T6C1.300
; #@! TA.AperFunction,Plated,PTH,ComponentDrill
T7C1.700
; #@! TA.AperFunction,Plated,PTH,ComponentDrill
T8C4.500
; #@! TA.AperFunction,Plated,PTH,ComponentDrill
T9C5.000
%
G90
G05
T1
X103.773Y-48.133
X103.773Y-58.293
X107.823Y-48.133
X107.823Y-58.293
X110.0Y-121.42
X110.0Y-131.58
X113.411Y-55.499
X123.571Y-55.499
X129.77Y-32.06
X132.512Y-55.499
X133.27Y-32.06
X142.672Y-55.499
X151.35Y-32.06
X151.613Y-55.499
X154.85Y-32.06
X161.773Y-55.499
X170.713Y-55.499
X180.873Y-55.499
X189.814Y-55.499
X199.974Y-55.499
X208.915Y-55.499
X219.075Y-55.499
T2
X102.748Y-134.025
X105.288Y-134.025
T3
X143.5Y-138.47
X143.5Y-141.01
X143.5Y-143.55
X159.068Y-29.21
X161.608Y-29.21
X164.148Y-29.21
X169.786Y-29.21
X170.688Y-36.576
X170.688Y-39.116
X172.326Y-29.21
X173.228Y-36.576
X173.228Y-39.116
X174.866Y-29.21
X175.768Y-36.576
X175.768Y-39.116
X178.308Y-36.576
X178.308Y-39.116
X179.79Y-138.47
X179.79Y-141.01
X179.79Y-143.55
X180.505Y-29.21
X180.848Y-36.576
X180.848Y-39.116
X183.045Y-29.21
X183.388Y-36.576
X183.388Y-39.116
X185.585Y-29.21
X185.928Y-36.576
X185.928Y-39.116
X188.468Y-36.576
X188.468Y-39.116
X191.223Y-29.21
X193.763Y-29.21
X196.303Y-29.21
X201.942Y-29.21
X202.08Y-36.01
X204.482Y-29.21
X204.62Y-36.01
X207.022Y-29.21
X207.16Y-36.01
X212.66Y-29.21
X215.2Y-29.21
X217.74Y-29.21
T4
X140.081Y-32.512
X142.621Y-32.512
X145.161Y-32.512
T5
X113.468Y-141.0
X117.278Y-141.0
X121.088Y-141.0
X128.88Y-141.0
X132.69Y-141.0
X136.5Y-141.0
X213.5Y-115.0
X213.5Y-118.81
X213.5Y-122.62
X215.93Y-38.76
X215.93Y-42.57
X215.93Y-46.38
T6
X135.524Y-41.011
X135.524Y-48.631
X145.684Y-48.631
X153.304Y-48.631
T7
X105.535Y-83.566
X109.195Y-83.566
X113.665Y-83.566
X117.325Y-83.566
X124.814Y-83.566
X128.474Y-83.566
X132.944Y-83.566
X136.604Y-83.566
X144.092Y-83.566
X147.752Y-83.566
X152.222Y-83.566
X155.882Y-83.566
X163.371Y-83.566
X167.031Y-83.566
X171.501Y-83.566
X175.161Y-83.566
X182.649Y-83.566
X186.309Y-83.566
X190.779Y-83.566
X194.439Y-83.566
X195.37Y-141.5
X199.03Y-141.5
X201.928Y-83.566
X203.5Y-141.5
X205.588Y-83.566
X207.16Y-141.5
X210.058Y-83.566
X213.718Y-83.566
T8
X110.402Y-69.85
X114.212Y-31.623
X117.602Y-69.85
X121.412Y-31.623
X130.189Y-69.85
X137.389Y-69.85
X149.975Y-69.85
X157.175Y-69.85
X169.762Y-69.85
X176.962Y-69.85
X189.548Y-69.85
X196.748Y-69.85
X208.3Y-69.85
X215.5Y-69.85
T9
X114.133Y-43.28
X121.333Y-43.28
X164.603Y-121.209
X171.803Y-121.209
M30
