G04 #@! TF.GenerationSoftware,KiCad,Pcbnew,9.0.0*
G04 #@! TF.CreationDate,2025-10-15T21:43:40-05:00*
G04 #@! TF.ProjectId,SubCircuitV3,53756243-6972-4637-9569-7456332e6b69,rev?*
G04 #@! TF.SameCoordinates,Original*
G04 #@! TF.FileFunction,Copper,L1,Top*
G04 #@! TF.FilePolarity,Positive*
%FSLAX46Y46*%
G04 Gerber Fmt 4.6, Leading zero omitted, Abs format (unit mm)*
G04 Created by KiCad (PCBNEW 9.0.0) date 2025-10-15 21:43:40*
%MOMM*%
%LPD*%
G01*
G04 APERTURE LIST*
G04 Aperture macros list*
%AMRoundRect*
0 Rectangle with rounded corners*
0 $1 Rounding radius*
0 $2 $3 $4 $5 $6 $7 $8 $9 X,Y pos of 4 corners*
0 Add a 4 corners polygon primitive as box body*
4,1,4,$2,$3,$4,$5,$6,$7,$8,$9,$2,$3,0*
0 Add four circle primitives for the rounded corners*
1,1,$1+$1,$2,$3*
1,1,$1+$1,$4,$5*
1,1,$1+$1,$6,$7*
1,1,$1+$1,$8,$9*
0 Add four rect primitives between the rounded corners*
20,1,$1+$1,$2,$3,$4,$5,0*
20,1,$1+$1,$4,$5,$6,$7,0*
20,1,$1+$1,$6,$7,$8,$9,0*
20,1,$1+$1,$8,$9,$2,$3,0*%
G04 Aperture macros list end*
G04 #@! TA.AperFunction,ComponentPad*
%ADD10RoundRect,1.500000X1.500000X1.500000X-1.500000X1.500000X-1.500000X-1.500000X1.500000X-1.500000X0*%
G04 #@! TD*
G04 #@! TA.AperFunction,ComponentPad*
%ADD11C,6.000000*%
G04 #@! TD*
G04 #@! TA.AperFunction,ComponentPad*
%ADD12R,1.700000X1.700000*%
G04 #@! TD*
G04 #@! TA.AperFunction,ComponentPad*
%ADD13O,1.700000X1.700000*%
G04 #@! TD*
G04 #@! TA.AperFunction,ComponentPad*
%ADD14C,1.727200*%
G04 #@! TD*
G04 #@! TA.AperFunction,SMDPad,CuDef*
%ADD15R,0.939800X2.743200*%
G04 #@! TD*
G04 #@! TA.AperFunction,SMDPad,CuDef*
%ADD16R,5.562600X6.096000*%
G04 #@! TD*
G04 #@! TA.AperFunction,ComponentPad*
%ADD17C,2.550000*%
G04 #@! TD*
G04 #@! TA.AperFunction,ComponentPad*
%ADD18C,1.600000*%
G04 #@! TD*
G04 #@! TA.AperFunction,ComponentPad*
%ADD19O,1.600000X1.600000*%
G04 #@! TD*
G04 #@! TA.AperFunction,ComponentPad*
%ADD20R,2.300000X2.300000*%
G04 #@! TD*
G04 #@! TA.AperFunction,ComponentPad*
%ADD21C,2.300000*%
G04 #@! TD*
G04 #@! TA.AperFunction,ComponentPad*
%ADD22R,1.651000X1.651000*%
G04 #@! TD*
G04 #@! TA.AperFunction,ComponentPad*
%ADD23C,1.651000*%
G04 #@! TD*
G04 #@! TA.AperFunction,ComponentPad*
%ADD24R,1.800000X1.800000*%
G04 #@! TD*
G04 #@! TA.AperFunction,ComponentPad*
%ADD25C,1.800000*%
G04 #@! TD*
G04 #@! TA.AperFunction,Conductor*
%ADD26C,2.000000*%
G04 #@! TD*
G04 #@! TA.AperFunction,Conductor*
%ADD27C,3.000000*%
G04 #@! TD*
G04 #@! TA.AperFunction,Conductor*
%ADD28C,0.500000*%
G04 #@! TD*
G04 #@! TA.AperFunction,Conductor*
%ADD29C,0.250000*%
G04 #@! TD*
G04 #@! TA.AperFunction,Conductor*
%ADD30C,4.000000*%
G04 #@! TD*
G04 APERTURE END LIST*
D10*
X171802800Y-121208800D03*
D11*
X164602800Y-121208800D03*
D12*
X143500000Y-138470000D03*
D13*
X143500000Y-141010000D03*
X143500000Y-143550000D03*
D14*
X113468400Y-140999999D03*
X117278400Y-140999999D03*
X121088400Y-140999999D03*
D15*
X148293700Y-102743000D03*
D16*
X150579700Y-95961200D03*
D15*
X152865700Y-102743000D03*
D10*
X121333000Y-43280000D03*
D11*
X114133000Y-43280000D03*
D17*
X163370800Y-83566000D03*
X167030800Y-83566000D03*
X171500800Y-83566000D03*
X175160800Y-83566000D03*
D18*
X103773000Y-48133000D03*
D19*
X103773000Y-58293000D03*
D14*
X215930000Y-46380000D03*
X215930000Y-42570000D03*
X215930000Y-38760000D03*
D18*
X107823000Y-48133000D03*
D19*
X107823000Y-58293000D03*
D18*
X154850000Y-32060000D03*
X151350000Y-32060000D03*
D15*
X168181900Y-102743000D03*
D16*
X170467900Y-95961200D03*
D15*
X172753900Y-102743000D03*
D18*
X170713400Y-55499000D03*
D19*
X180873400Y-55499000D03*
D17*
X105535000Y-83566000D03*
X109195000Y-83566000D03*
X113665000Y-83566000D03*
X117325000Y-83566000D03*
D20*
X135524000Y-48631000D03*
D21*
X145684000Y-48631000D03*
X153304000Y-48631000D03*
X135524000Y-41011000D03*
D15*
X128405500Y-102743000D03*
D16*
X130691500Y-95961200D03*
D15*
X132977500Y-102743000D03*
D18*
X189814200Y-55499000D03*
D19*
X199974200Y-55499000D03*
D10*
X121412000Y-31623000D03*
D11*
X114212000Y-31623000D03*
D18*
X113411000Y-55499000D03*
D19*
X123571000Y-55499000D03*
D17*
X201928000Y-83566000D03*
X205588000Y-83566000D03*
X210058000Y-83566000D03*
X213718000Y-83566000D03*
D15*
X188070100Y-102743000D03*
D16*
X190356100Y-95961200D03*
D15*
X192642100Y-102743000D03*
D17*
X124813600Y-83566000D03*
X128473600Y-83566000D03*
X132943600Y-83566000D03*
X136603600Y-83566000D03*
D15*
X207958300Y-102743000D03*
D16*
X210244300Y-95961200D03*
D15*
X212530300Y-102743000D03*
D18*
X133270000Y-32060000D03*
X129770000Y-32060000D03*
D12*
X202080000Y-36010000D03*
D13*
X204620000Y-36010000D03*
X207160000Y-36010000D03*
D12*
X170688000Y-39116000D03*
D13*
X170688000Y-36576000D03*
X173228000Y-39116000D03*
X173228000Y-36576000D03*
X175768000Y-39116000D03*
X175768000Y-36576000D03*
X178308000Y-39116000D03*
X178308000Y-36576000D03*
X180848000Y-39116000D03*
X180848000Y-36576000D03*
X183388000Y-39116000D03*
X183388000Y-36576000D03*
X185928000Y-39116000D03*
X185928000Y-36576000D03*
X188468000Y-39116000D03*
X188468000Y-36576000D03*
D15*
X108517300Y-102743000D03*
D16*
X110803300Y-95961200D03*
D15*
X113089300Y-102743000D03*
D22*
X140081000Y-32512000D03*
D23*
X142621000Y-32512000D03*
X145161000Y-32512000D03*
D18*
X151612600Y-55499000D03*
D19*
X161772600Y-55499000D03*
D18*
X208915000Y-55499000D03*
D19*
X219075000Y-55499000D03*
D14*
X213500000Y-115000000D03*
X213500000Y-118810000D03*
X213500000Y-122620000D03*
D17*
X182649400Y-83566000D03*
X186309400Y-83566000D03*
X190779400Y-83566000D03*
X194439400Y-83566000D03*
D12*
X179790000Y-138470000D03*
D13*
X179790000Y-141010000D03*
X179790000Y-143550000D03*
D14*
X128880000Y-141000000D03*
X132690000Y-141000000D03*
X136500000Y-141000000D03*
D18*
X132511800Y-55499000D03*
D19*
X142671800Y-55499000D03*
D24*
X105288000Y-134025000D03*
D25*
X102748000Y-134025000D03*
D17*
X144092200Y-83566000D03*
X147752200Y-83566000D03*
X152222200Y-83566000D03*
X155882200Y-83566000D03*
X195370000Y-141500000D03*
X199030000Y-141500000D03*
X203500000Y-141500000D03*
X207160000Y-141500000D03*
D18*
X110000000Y-131580000D03*
D19*
X110000000Y-121420000D03*
D10*
X215500000Y-69850000D03*
D11*
X208300000Y-69850000D03*
D10*
X117602000Y-69850000D03*
D11*
X110402000Y-69850000D03*
D12*
X159068000Y-29210000D03*
D13*
X161608000Y-29210000D03*
X164148000Y-29210000D03*
D10*
X137388600Y-69850000D03*
D11*
X130188600Y-69850000D03*
D12*
X169786400Y-29210000D03*
D13*
X172326400Y-29210000D03*
X174866400Y-29210000D03*
D10*
X157175200Y-69850000D03*
D11*
X149975200Y-69850000D03*
D12*
X180504800Y-29210000D03*
D13*
X183044800Y-29210000D03*
X185584800Y-29210000D03*
D12*
X191223200Y-29210000D03*
D13*
X193763200Y-29210000D03*
X196303200Y-29210000D03*
D10*
X176961800Y-69850000D03*
D11*
X169761800Y-69850000D03*
D12*
X201941600Y-29210000D03*
D13*
X204481600Y-29210000D03*
X207021600Y-29210000D03*
D10*
X196748400Y-69850000D03*
D11*
X189548400Y-69850000D03*
D12*
X212660000Y-29210000D03*
D13*
X215200000Y-29210000D03*
X217740000Y-29210000D03*
D26*
X136779000Y-36906200D02*
X133270000Y-33397200D01*
X144322800Y-36906200D02*
X145161000Y-36068000D01*
X136779000Y-36906200D02*
X144322800Y-36906200D01*
X133270000Y-33397200D02*
X133270000Y-32060000D01*
X145161000Y-32512000D02*
X145161000Y-36068000D01*
D27*
X114133000Y-47522640D02*
X114133000Y-43280000D01*
X213923000Y-48387000D02*
X215930000Y-46380000D01*
X114212000Y-43201000D02*
X114133000Y-43280000D01*
X205100000Y-48387000D02*
X200909000Y-52578000D01*
D26*
X185928000Y-39116000D02*
X188468000Y-39116000D01*
D27*
X205100000Y-48387000D02*
X213923000Y-48387000D01*
X200909000Y-52578000D02*
X119188360Y-52578000D01*
X119188360Y-52578000D02*
X114133000Y-47522640D01*
X114212000Y-31623000D02*
X114212000Y-43201000D01*
D26*
X192405000Y-43053000D02*
X193802000Y-41656000D01*
X190881000Y-36576000D02*
X188468000Y-36576000D01*
X193802000Y-38989000D02*
X191389000Y-36576000D01*
X193802000Y-41656000D02*
X193802000Y-38989000D01*
X142621000Y-30999000D02*
X142621000Y-32512000D01*
X154850000Y-28780000D02*
X154850000Y-32060000D01*
D28*
X203050000Y-38800000D02*
X204620000Y-37230000D01*
D26*
X165227000Y-43053000D02*
X192405000Y-43053000D01*
D28*
X191783000Y-36970000D02*
X197690000Y-36970000D01*
D26*
X125349000Y-27686000D02*
X125349000Y-27559000D01*
D28*
X191389000Y-36576000D02*
X191783000Y-36970000D01*
D26*
X139181000Y-27559000D02*
X142621000Y-30999000D01*
X153629000Y-27559000D02*
X154850000Y-28780000D01*
D28*
X204620000Y-37230000D02*
X204620000Y-36010000D01*
D26*
X154850000Y-32060000D02*
X154850000Y-32676000D01*
X125349000Y-27559000D02*
X139181000Y-27559000D01*
D28*
X199520000Y-38800000D02*
X203050000Y-38800000D01*
D26*
X191389000Y-36576000D02*
X190881000Y-36576000D01*
X121412000Y-31623000D02*
X125349000Y-27686000D01*
X139181000Y-27559000D02*
X153629000Y-27559000D01*
D28*
X197690000Y-36970000D02*
X199520000Y-38800000D01*
D26*
X154850000Y-32676000D02*
X165227000Y-43053000D01*
D28*
X102748000Y-128672000D02*
X110000000Y-121420000D01*
D29*
X102748000Y-134025000D02*
X102748000Y-133752000D01*
D28*
X102748000Y-134025000D02*
X102748000Y-128672000D01*
X166434000Y-36576000D02*
X159068000Y-29210000D01*
X170688000Y-36576000D02*
X166434000Y-36576000D01*
X169786400Y-29210000D02*
X169786400Y-33134400D01*
X169786400Y-33134400D02*
X173228000Y-36576000D01*
X176784000Y-35560000D02*
X176784000Y-32930800D01*
X179959000Y-29210000D02*
X180504800Y-29210000D01*
X175768000Y-36576000D02*
X176784000Y-35560000D01*
X176784000Y-32930800D02*
X180504800Y-29210000D01*
D30*
X117407300Y-113284000D02*
X112801300Y-113284000D01*
X144331300Y-128016000D02*
X128405500Y-112090200D01*
D26*
X136323300Y-132200000D02*
X137491650Y-133368350D01*
D30*
X137491650Y-133368350D02*
X133811650Y-129688350D01*
X188000000Y-129032000D02*
X197671300Y-129032000D01*
X171802800Y-121208800D02*
X171802800Y-118208800D01*
X171802800Y-120864500D02*
X176970300Y-115697000D01*
X197671300Y-129032000D02*
X197671300Y-128905000D01*
X171802800Y-129000000D02*
X171802800Y-131500000D01*
X188070100Y-113614200D02*
X188070100Y-102743000D01*
X171802800Y-121208800D02*
X180475500Y-121208800D01*
X170747300Y-109093000D02*
X168181900Y-106527600D01*
D26*
X122800000Y-132200000D02*
X136323300Y-132200000D01*
D30*
X133811650Y-129688350D02*
X137524700Y-133401400D01*
D26*
X121088400Y-133911600D02*
X122800000Y-132200000D01*
D30*
X175065300Y-109093000D02*
X170747300Y-109093000D01*
X179764300Y-129032000D02*
X188000000Y-129032000D01*
X133811650Y-129688350D02*
X117407300Y-113284000D01*
X195370000Y-136402000D02*
X188000000Y-129032000D01*
X197671300Y-128905000D02*
X207958300Y-118618000D01*
X171802800Y-121208800D02*
X171941100Y-121208800D01*
X176970300Y-110998000D02*
X175065300Y-109093000D01*
X167995600Y-128016000D02*
X171802800Y-124208800D01*
X148293700Y-108102400D02*
X148293700Y-102743000D01*
X128405500Y-112090200D02*
X128405500Y-102743000D01*
X171802800Y-124208800D02*
X171802800Y-121208800D01*
X195370000Y-141500000D02*
X195370000Y-136402000D01*
D26*
X171802800Y-130482800D02*
X179790000Y-138470000D01*
D30*
X171941100Y-121208800D02*
X179764300Y-129032000D01*
X176970300Y-115697000D02*
X176970300Y-110998000D01*
X171802800Y-118208800D02*
X164465000Y-110871000D01*
X137524700Y-133401400D02*
X169901400Y-133401400D01*
X180475500Y-121208800D02*
X188070100Y-113614200D01*
D26*
X171802800Y-129000000D02*
X171802800Y-130482800D01*
D30*
X108517300Y-109000000D02*
X108517300Y-102743000D01*
X207958300Y-118618000D02*
X207958300Y-102743000D01*
X144331300Y-128016000D02*
X167995600Y-128016000D01*
X112801300Y-113284000D02*
X108517300Y-109000000D01*
D26*
X121088400Y-140999999D02*
X121088400Y-133911600D01*
D30*
X171802800Y-121208800D02*
X171802800Y-129000000D01*
X151062300Y-110871000D02*
X148293700Y-108102400D01*
X171802800Y-121208800D02*
X171802800Y-120864500D01*
X168181900Y-106527600D02*
X168181900Y-102743000D01*
X164465000Y-110871000D02*
X151062300Y-110871000D01*
X169901400Y-133401400D02*
X171802800Y-131500000D01*
D27*
X198113000Y-48387000D02*
X202500000Y-44000000D01*
X130021000Y-43280000D02*
X130937000Y-44196000D01*
X121333000Y-43280000D02*
X130021000Y-43280000D01*
X130937000Y-44196000D02*
X141249000Y-44196000D01*
X213740000Y-38760000D02*
X215930000Y-38760000D01*
X160782000Y-48387000D02*
X198113000Y-48387000D01*
X202500000Y-44000000D02*
X208500000Y-44000000D01*
X141249000Y-44196000D02*
X145684000Y-48631000D01*
X208500000Y-44000000D02*
X213740000Y-38760000D01*
X141249000Y-44196000D02*
X156591000Y-44196000D01*
X156591000Y-44196000D02*
X160782000Y-48387000D01*
D28*
X188783200Y-31650000D02*
X191223200Y-29210000D01*
X178308000Y-36576000D02*
X178308000Y-34562000D01*
X178308000Y-34562000D02*
X181220000Y-31650000D01*
X181220000Y-31650000D02*
X188783200Y-31650000D01*
X180848000Y-36576000D02*
X180848000Y-35560000D01*
X183896000Y-32512000D02*
X198639600Y-32512000D01*
X199141800Y-32009800D02*
X201941600Y-29210000D01*
X198639600Y-32512000D02*
X199141800Y-32009800D01*
X180848000Y-35560000D02*
X183896000Y-32512000D01*
X200279000Y-33274000D02*
X208596000Y-33274000D01*
X184531000Y-33528000D02*
X200025000Y-33528000D01*
X183388000Y-34671000D02*
X184531000Y-33528000D01*
X183388000Y-36576000D02*
X183388000Y-34671000D01*
X200025000Y-33528000D02*
X200279000Y-33274000D01*
X208596000Y-33274000D02*
X212660000Y-29210000D01*
X185928000Y-35179000D02*
X186563000Y-34544000D01*
X205694000Y-34544000D02*
X207160000Y-36010000D01*
X185928000Y-36576000D02*
X185928000Y-35179000D01*
X186563000Y-34544000D02*
X205694000Y-34544000D01*
D26*
X178181000Y-85344000D02*
X188798200Y-95961200D01*
X101219000Y-109097026D02*
X101219000Y-104000000D01*
X113468400Y-121346426D02*
X101219000Y-109097026D01*
X103773000Y-58293000D02*
X107823000Y-58293000D01*
X169621200Y-95961200D02*
X170467900Y-95961200D01*
X143000000Y-73000000D02*
X143000000Y-66000000D01*
X142621000Y-62357000D02*
X139500000Y-62357000D01*
X101219000Y-69977000D02*
X101219000Y-98552000D01*
X188798200Y-95961200D02*
X190356100Y-95961200D01*
X126187200Y-95961200D02*
X130691500Y-95961200D01*
X184325500Y-71325500D02*
X178181000Y-77470000D01*
X101600000Y-98552000D02*
X104190800Y-95961200D01*
X207975200Y-95961200D02*
X198247000Y-86233000D01*
X210244300Y-95961200D02*
X207975200Y-95961200D01*
X101219000Y-98552000D02*
X101219000Y-104000000D01*
X178181000Y-77470000D02*
X178181000Y-85344000D01*
X143000000Y-66000000D02*
X139500000Y-62500000D01*
X203000000Y-64857000D02*
X200500000Y-62357000D01*
X101219000Y-69977000D02*
X103773000Y-67423000D01*
X184186000Y-65314000D02*
X184325500Y-65453500D01*
X121920000Y-62357000D02*
X108839000Y-62357000D01*
X139500000Y-62500000D02*
X139500000Y-62357000D01*
X139954000Y-87249000D02*
X139954000Y-76046000D01*
X124889500Y-75389500D02*
X120523000Y-79756000D01*
X113468400Y-140999999D02*
X113468400Y-121346426D01*
X103773000Y-67423000D02*
X103773000Y-58293000D01*
X104190800Y-95961200D02*
X110803300Y-95961200D01*
X164847500Y-65152500D02*
X164847500Y-71372500D01*
X101219000Y-98552000D02*
X101600000Y-98552000D01*
X148666200Y-95961200D02*
X139954000Y-87249000D01*
X120523000Y-90297000D02*
X126187200Y-95961200D01*
X164847500Y-71372500D02*
X159512000Y-76708000D01*
X184325500Y-65453500D02*
X184325500Y-71325500D01*
X203000000Y-72209000D02*
X203000000Y-64857000D01*
X198247000Y-86233000D02*
X198247000Y-76962000D01*
X120523000Y-79756000D02*
X120523000Y-90297000D01*
X124889500Y-65326500D02*
X124889500Y-75389500D01*
X162052000Y-62357000D02*
X142621000Y-62357000D01*
X150579700Y-95961200D02*
X148666200Y-95961200D01*
X159512000Y-76708000D02*
X159512000Y-85852000D01*
X198247000Y-76962000D02*
X203000000Y-72209000D01*
X108839000Y-62357000D02*
X101219000Y-69977000D01*
X208102200Y-95961200D02*
X210244300Y-95961200D01*
X139500000Y-62357000D02*
X121920000Y-62357000D01*
X162052000Y-62357000D02*
X164847500Y-65152500D01*
X181229000Y-62357000D02*
X200500000Y-62357000D01*
X181229000Y-62357000D02*
X184186000Y-65314000D01*
X181229000Y-62357000D02*
X162052000Y-62357000D01*
X139954000Y-76046000D02*
X143000000Y-73000000D01*
X159512000Y-85852000D02*
X169621200Y-95961200D01*
X121920000Y-62357000D02*
X124889500Y-65326500D01*
D30*
X201928000Y-80497000D02*
X209335000Y-73090000D01*
X209335000Y-73090000D02*
X209335000Y-69850000D01*
X201928000Y-83566000D02*
X201928000Y-80497000D01*
X182649400Y-83566000D02*
X182649400Y-79989000D01*
X182649400Y-79989000D02*
X189548400Y-73090000D01*
X189548400Y-73090000D02*
X189548400Y-69850000D01*
X163370800Y-83566000D02*
X163370800Y-80424098D01*
X163370800Y-80424098D02*
X169761800Y-74033098D01*
X169761800Y-74033098D02*
X169761800Y-69850000D01*
X110402000Y-79645061D02*
X113665000Y-82908061D01*
X110402000Y-69850000D02*
X110402000Y-79645061D01*
X113665000Y-82908061D02*
X113665000Y-83566000D01*
X130188600Y-80153061D02*
X132943600Y-82908061D01*
X132943600Y-82908061D02*
X132943600Y-83566000D01*
X130188600Y-69850000D02*
X130188600Y-80153061D01*
X149975200Y-69850000D02*
X149975200Y-69975200D01*
X149975200Y-69975200D02*
X150000000Y-70000000D01*
X150000000Y-79540678D02*
X152222200Y-81762878D01*
X152222200Y-81762878D02*
X152222200Y-83566000D01*
X150000000Y-70000000D02*
X150000000Y-79540678D01*
X212530300Y-102743000D02*
X213546300Y-102743000D01*
X210058000Y-85543600D02*
X210058000Y-83566000D01*
X213546300Y-102743000D02*
X217610300Y-98679000D01*
X217610300Y-93095900D02*
X210058000Y-85543600D01*
X217610300Y-98679000D02*
X217610300Y-93095900D01*
X191830000Y-89080000D02*
X194930300Y-89080000D01*
X190779400Y-83566000D02*
X190779400Y-88029400D01*
X197798300Y-100203000D02*
X195258300Y-102743000D01*
X197798300Y-91948000D02*
X197798300Y-100203000D01*
X194930300Y-89080000D02*
X197798300Y-91948000D01*
X190779400Y-88029400D02*
X191830000Y-89080000D01*
X195258300Y-102743000D02*
X192642100Y-102743000D01*
X177351300Y-102743000D02*
X179002300Y-101092000D01*
X172753900Y-102743000D02*
X177351300Y-102743000D01*
X179002300Y-101092000D02*
X179002300Y-93472000D01*
X171500800Y-83566000D02*
X171500800Y-85970500D01*
X171500800Y-85970500D02*
X179002300Y-93472000D01*
X113089300Y-102743000D02*
X114554000Y-102743000D01*
X105535000Y-85369122D02*
X105535000Y-83566000D01*
X117348000Y-92837000D02*
X113411000Y-88900000D01*
X113411000Y-88900000D02*
X109065878Y-88900000D01*
X117348000Y-99949000D02*
X117348000Y-92837000D01*
X109065878Y-88900000D02*
X105535000Y-85369122D01*
X114554000Y-102743000D02*
X117348000Y-99949000D01*
X134620000Y-88900000D02*
X127000000Y-88900000D01*
X124813600Y-86713600D02*
X124813600Y-83566000D01*
X132977500Y-102743000D02*
X135382000Y-102743000D01*
X127000000Y-88900000D02*
X124813600Y-86713600D01*
X138049000Y-92329000D02*
X134620000Y-88900000D01*
X138049000Y-99822000D02*
X138049000Y-92329000D01*
X135382000Y-102743000D02*
X138176000Y-99949000D01*
X138176000Y-99949000D02*
X138049000Y-99822000D01*
X154686000Y-102743000D02*
X157861000Y-99568000D01*
X147447000Y-89154000D02*
X144092200Y-85799200D01*
X144092200Y-85799200D02*
X144092200Y-83566000D01*
X157861000Y-99568000D02*
X157861000Y-92583000D01*
X154432000Y-89154000D02*
X147447000Y-89154000D01*
X157861000Y-92583000D02*
X154432000Y-89154000D01*
X152865700Y-102743000D02*
X154686000Y-102743000D01*
X203500000Y-141500000D02*
X203500000Y-132620000D01*
X203500000Y-132620000D02*
X213500000Y-122620000D01*
D26*
X136540000Y-140960000D02*
X136500000Y-141000000D01*
X143500000Y-140960000D02*
X136540000Y-140960000D01*
M02*
