G04 #@! TF.GenerationSoftware,KiCad,Pcbnew,9.0.0*
G04 #@! TF.CreationDate,2025-10-15T21:43:40-05:00*
G04 #@! TF.ProjectId,SubCircuitV3,53756243-6972-4637-9569-7456332e6b69,rev?*
G04 #@! TF.SameCoordinates,Original*
G04 #@! TF.FileFunction,Soldermask,Top*
G04 #@! TF.FilePolarity,Negative*
%FSLAX46Y46*%
G04 Gerber Fmt 4.6, Leading zero omitted, Abs format (unit mm)*
G04 Created by KiCad (PCBNEW 9.0.0) date 2025-10-15 21:43:40*
%MOMM*%
%LPD*%
G01*
G04 APERTURE LIST*
G04 Aperture macros list*
%AMRoundRect*
0 Rectangle with rounded corners*
0 $1 Rounding radius*
0 $2 $3 $4 $5 $6 $7 $8 $9 X,Y pos of 4 corners*
0 Add a 4 corners polygon primitive as box body*
4,1,4,$2,$3,$4,$5,$6,$7,$8,$9,$2,$3,0*
0 Add four circle primitives for the rounded corners*
1,1,$1+$1,$2,$3*
1,1,$1+$1,$4,$5*
1,1,$1+$1,$6,$7*
1,1,$1+$1,$8,$9*
0 Add four rect primitives between the rounded corners*
20,1,$1+$1,$2,$3,$4,$5,0*
20,1,$1+$1,$4,$5,$6,$7,0*
20,1,$1+$1,$6,$7,$8,$9,0*
20,1,$1+$1,$8,$9,$2,$3,0*%
G04 Aperture macros list end*
%ADD10C,2.700000*%
%ADD11RoundRect,1.500000X1.500000X1.500000X-1.500000X1.500000X-1.500000X-1.500000X1.500000X-1.500000X0*%
%ADD12C,6.000000*%
%ADD13R,1.700000X1.700000*%
%ADD14O,1.700000X1.700000*%
%ADD15C,1.727200*%
%ADD16R,0.939800X2.743200*%
%ADD17R,5.562600X6.096000*%
%ADD18C,2.754000*%
%ADD19C,1.600000*%
%ADD20O,1.600000X1.600000*%
%ADD21R,2.300000X2.300000*%
%ADD22C,2.300000*%
%ADD23R,1.651000X1.651000*%
%ADD24C,1.651000*%
%ADD25R,1.800000X1.800000*%
%ADD26C,1.800000*%
G04 APERTURE END LIST*
D10*
X214122000Y-140716000D03*
D11*
X171802800Y-121208800D03*
D12*
X164602800Y-121208800D03*
D13*
X143500000Y-138470000D03*
D14*
X143500000Y-141010000D03*
X143500000Y-143550000D03*
D15*
X113468400Y-140999999D03*
X117278400Y-140999999D03*
X121088400Y-140999999D03*
D16*
X148293700Y-102743000D03*
D17*
X150579700Y-95961200D03*
D16*
X152865700Y-102743000D03*
D11*
X121333000Y-43280000D03*
D12*
X114133000Y-43280000D03*
D18*
X163370800Y-83566000D03*
X167030800Y-83566000D03*
X171500800Y-83566000D03*
X175160800Y-83566000D03*
D19*
X103773000Y-48133000D03*
D20*
X103773000Y-58293000D03*
D15*
X215930000Y-46380000D03*
X215930000Y-42570000D03*
X215930000Y-38760000D03*
D19*
X107823000Y-48133000D03*
D20*
X107823000Y-58293000D03*
D19*
X154850000Y-32060000D03*
X151350000Y-32060000D03*
D16*
X168181900Y-102743000D03*
D17*
X170467900Y-95961200D03*
D16*
X172753900Y-102743000D03*
D19*
X170713400Y-55499000D03*
D20*
X180873400Y-55499000D03*
D18*
X105535000Y-83566000D03*
X109195000Y-83566000D03*
X113665000Y-83566000D03*
X117325000Y-83566000D03*
D21*
X135524000Y-48631000D03*
D22*
X145684000Y-48631000D03*
X153304000Y-48631000D03*
X135524000Y-41011000D03*
D16*
X128405500Y-102743000D03*
D17*
X130691500Y-95961200D03*
D16*
X132977500Y-102743000D03*
D19*
X189814200Y-55499000D03*
D20*
X199974200Y-55499000D03*
D11*
X121412000Y-31623000D03*
D12*
X114212000Y-31623000D03*
D19*
X113411000Y-55499000D03*
D20*
X123571000Y-55499000D03*
D18*
X201928000Y-83566000D03*
X205588000Y-83566000D03*
X210058000Y-83566000D03*
X213718000Y-83566000D03*
D16*
X188070100Y-102743000D03*
D17*
X190356100Y-95961200D03*
D16*
X192642100Y-102743000D03*
D18*
X124813600Y-83566000D03*
X128473600Y-83566000D03*
X132943600Y-83566000D03*
X136603600Y-83566000D03*
D16*
X207958300Y-102743000D03*
D17*
X210244300Y-95961200D03*
D16*
X212530300Y-102743000D03*
D10*
X105156000Y-140716000D03*
D19*
X133270000Y-32060000D03*
X129770000Y-32060000D03*
D13*
X202080000Y-36010000D03*
D14*
X204620000Y-36010000D03*
X207160000Y-36010000D03*
D13*
X170688000Y-39116000D03*
D14*
X170688000Y-36576000D03*
X173228000Y-39116000D03*
X173228000Y-36576000D03*
X175768000Y-39116000D03*
X175768000Y-36576000D03*
X178308000Y-39116000D03*
X178308000Y-36576000D03*
X180848000Y-39116000D03*
X180848000Y-36576000D03*
X183388000Y-39116000D03*
X183388000Y-36576000D03*
X185928000Y-39116000D03*
X185928000Y-36576000D03*
X188468000Y-39116000D03*
X188468000Y-36576000D03*
D16*
X108517300Y-102743000D03*
D17*
X110803300Y-95961200D03*
D16*
X113089300Y-102743000D03*
D23*
X140081000Y-32512000D03*
D24*
X142621000Y-32512000D03*
X145161000Y-32512000D03*
D19*
X151612600Y-55499000D03*
D20*
X161772600Y-55499000D03*
D19*
X208915000Y-55499000D03*
D20*
X219075000Y-55499000D03*
D15*
X213500000Y-115000000D03*
X213500000Y-118810000D03*
X213500000Y-122620000D03*
D18*
X182649400Y-83566000D03*
X186309400Y-83566000D03*
X190779400Y-83566000D03*
X194439400Y-83566000D03*
D10*
X105156000Y-32131000D03*
D13*
X179790000Y-138470000D03*
D14*
X179790000Y-141010000D03*
X179790000Y-143550000D03*
D15*
X128880000Y-141000000D03*
X132690000Y-141000000D03*
X136500000Y-141000000D03*
D19*
X132511800Y-55499000D03*
D20*
X142671800Y-55499000D03*
D25*
X105288000Y-134025000D03*
D26*
X102748000Y-134025000D03*
D18*
X144092200Y-83566000D03*
X147752200Y-83566000D03*
X152222200Y-83566000D03*
X155882200Y-83566000D03*
X195370000Y-141500000D03*
X199030000Y-141500000D03*
X203500000Y-141500000D03*
X207160000Y-141500000D03*
D19*
X110000000Y-131580000D03*
D20*
X110000000Y-121420000D03*
D11*
X215500000Y-69850000D03*
D12*
X208300000Y-69850000D03*
D11*
X117602000Y-69850000D03*
D12*
X110402000Y-69850000D03*
D13*
X159068000Y-29210000D03*
D14*
X161608000Y-29210000D03*
X164148000Y-29210000D03*
D11*
X137388600Y-69850000D03*
D12*
X130188600Y-69850000D03*
D13*
X169786400Y-29210000D03*
D14*
X172326400Y-29210000D03*
X174866400Y-29210000D03*
D11*
X157175200Y-69850000D03*
D12*
X149975200Y-69850000D03*
D13*
X180504800Y-29210000D03*
D14*
X183044800Y-29210000D03*
X185584800Y-29210000D03*
D13*
X191223200Y-29210000D03*
D14*
X193763200Y-29210000D03*
X196303200Y-29210000D03*
D11*
X176961800Y-69850000D03*
D12*
X169761800Y-69850000D03*
D13*
X201941600Y-29210000D03*
D14*
X204481600Y-29210000D03*
X207021600Y-29210000D03*
D11*
X196748400Y-69850000D03*
D12*
X189548400Y-69850000D03*
D13*
X212660000Y-29210000D03*
D14*
X215200000Y-29210000D03*
X217740000Y-29210000D03*
M02*
