G04 #@! TF.GenerationSoftware,KiCad,Pcbnew,9.0.0*
G04 #@! TF.CreationDate,2025-10-15T21:43:40-05:00*
G04 #@! TF.ProjectId,SubCircuitV3,53756243-6972-4637-9569-7456332e6b69,rev?*
G04 #@! TF.SameCoordinates,Original*
G04 #@! TF.FileFunction,Legend,Bot*
G04 #@! TF.FilePolarity,Positive*
%FSLAX46Y46*%
G04 Gerber Fmt 4.6, Leading zero omitted, Abs format (unit mm)*
G04 Created by KiCad (PCBNEW 9.0.0) date 2025-10-15 21:43:40*
%MOMM*%
%LPD*%
G01*
G04 APERTURE LIST*
G04 Aperture macros list*
%AMRoundRect*
0 Rectangle with rounded corners*
0 $1 Rounding radius*
0 $2 $3 $4 $5 $6 $7 $8 $9 X,Y pos of 4 corners*
0 Add a 4 corners polygon primitive as box body*
4,1,4,$2,$3,$4,$5,$6,$7,$8,$9,$2,$3,0*
0 Add four circle primitives for the rounded corners*
1,1,$1+$1,$2,$3*
1,1,$1+$1,$4,$5*
1,1,$1+$1,$6,$7*
1,1,$1+$1,$8,$9*
0 Add four rect primitives between the rounded corners*
20,1,$1+$1,$2,$3,$4,$5,0*
20,1,$1+$1,$4,$5,$6,$7,0*
20,1,$1+$1,$6,$7,$8,$9,0*
20,1,$1+$1,$8,$9,$2,$3,0*%
G04 Aperture macros list end*
%ADD10C,0.150000*%
%ADD11C,0.508000*%
%ADD12C,0.120000*%
%ADD13C,2.700000*%
%ADD14RoundRect,1.500000X1.500000X1.500000X-1.500000X1.500000X-1.500000X-1.500000X1.500000X-1.500000X0*%
%ADD15C,6.000000*%
%ADD16R,1.700000X1.700000*%
%ADD17O,1.700000X1.700000*%
%ADD18C,1.727200*%
%ADD19C,2.550000*%
%ADD20C,1.600000*%
%ADD21O,1.600000X1.600000*%
%ADD22R,2.300000X2.300000*%
%ADD23C,2.300000*%
%ADD24R,1.651000X1.651000*%
%ADD25C,1.651000*%
%ADD26R,1.800000X1.800000*%
%ADD27C,1.800000*%
G04 APERTURE END LIST*
D10*
X212233333Y-64004819D02*
X212233333Y-64719104D01*
X212233333Y-64719104D02*
X212280952Y-64861961D01*
X212280952Y-64861961D02*
X212376190Y-64957200D01*
X212376190Y-64957200D02*
X212519047Y-65004819D01*
X212519047Y-65004819D02*
X212614285Y-65004819D01*
X211614285Y-64433390D02*
X211709523Y-64385771D01*
X211709523Y-64385771D02*
X211757142Y-64338152D01*
X211757142Y-64338152D02*
X211804761Y-64242914D01*
X211804761Y-64242914D02*
X211804761Y-64195295D01*
X211804761Y-64195295D02*
X211757142Y-64100057D01*
X211757142Y-64100057D02*
X211709523Y-64052438D01*
X211709523Y-64052438D02*
X211614285Y-64004819D01*
X211614285Y-64004819D02*
X211423809Y-64004819D01*
X211423809Y-64004819D02*
X211328571Y-64052438D01*
X211328571Y-64052438D02*
X211280952Y-64100057D01*
X211280952Y-64100057D02*
X211233333Y-64195295D01*
X211233333Y-64195295D02*
X211233333Y-64242914D01*
X211233333Y-64242914D02*
X211280952Y-64338152D01*
X211280952Y-64338152D02*
X211328571Y-64385771D01*
X211328571Y-64385771D02*
X211423809Y-64433390D01*
X211423809Y-64433390D02*
X211614285Y-64433390D01*
X211614285Y-64433390D02*
X211709523Y-64481009D01*
X211709523Y-64481009D02*
X211757142Y-64528628D01*
X211757142Y-64528628D02*
X211804761Y-64623866D01*
X211804761Y-64623866D02*
X211804761Y-64814342D01*
X211804761Y-64814342D02*
X211757142Y-64909580D01*
X211757142Y-64909580D02*
X211709523Y-64957200D01*
X211709523Y-64957200D02*
X211614285Y-65004819D01*
X211614285Y-65004819D02*
X211423809Y-65004819D01*
X211423809Y-65004819D02*
X211328571Y-64957200D01*
X211328571Y-64957200D02*
X211280952Y-64909580D01*
X211280952Y-64909580D02*
X211233333Y-64814342D01*
X211233333Y-64814342D02*
X211233333Y-64623866D01*
X211233333Y-64623866D02*
X211280952Y-64528628D01*
X211280952Y-64528628D02*
X211328571Y-64481009D01*
X211328571Y-64481009D02*
X211423809Y-64433390D01*
X114811523Y-64004819D02*
X114811523Y-64719104D01*
X114811523Y-64719104D02*
X114859142Y-64861961D01*
X114859142Y-64861961D02*
X114954380Y-64957200D01*
X114954380Y-64957200D02*
X115097237Y-65004819D01*
X115097237Y-65004819D02*
X115192475Y-65004819D01*
X113811523Y-65004819D02*
X114382951Y-65004819D01*
X114097237Y-65004819D02*
X114097237Y-64004819D01*
X114097237Y-64004819D02*
X114192475Y-64147676D01*
X114192475Y-64147676D02*
X114287713Y-64242914D01*
X114287713Y-64242914D02*
X114382951Y-64290533D01*
X112859142Y-65004819D02*
X113430570Y-65004819D01*
X113144856Y-65004819D02*
X113144856Y-64004819D01*
X113144856Y-64004819D02*
X113240094Y-64147676D01*
X113240094Y-64147676D02*
X113335332Y-64242914D01*
X113335332Y-64242914D02*
X113430570Y-64290533D01*
X156142819Y-28876666D02*
X156857104Y-28876666D01*
X156857104Y-28876666D02*
X156999961Y-28829047D01*
X156999961Y-28829047D02*
X157095200Y-28733809D01*
X157095200Y-28733809D02*
X157142819Y-28590952D01*
X157142819Y-28590952D02*
X157142819Y-28495714D01*
X156142819Y-29781428D02*
X156142819Y-29590952D01*
X156142819Y-29590952D02*
X156190438Y-29495714D01*
X156190438Y-29495714D02*
X156238057Y-29448095D01*
X156238057Y-29448095D02*
X156380914Y-29352857D01*
X156380914Y-29352857D02*
X156571390Y-29305238D01*
X156571390Y-29305238D02*
X156952342Y-29305238D01*
X156952342Y-29305238D02*
X157047580Y-29352857D01*
X157047580Y-29352857D02*
X157095200Y-29400476D01*
X157095200Y-29400476D02*
X157142819Y-29495714D01*
X157142819Y-29495714D02*
X157142819Y-29686190D01*
X157142819Y-29686190D02*
X157095200Y-29781428D01*
X157095200Y-29781428D02*
X157047580Y-29829047D01*
X157047580Y-29829047D02*
X156952342Y-29876666D01*
X156952342Y-29876666D02*
X156714247Y-29876666D01*
X156714247Y-29876666D02*
X156619009Y-29829047D01*
X156619009Y-29829047D02*
X156571390Y-29781428D01*
X156571390Y-29781428D02*
X156523771Y-29686190D01*
X156523771Y-29686190D02*
X156523771Y-29495714D01*
X156523771Y-29495714D02*
X156571390Y-29400476D01*
X156571390Y-29400476D02*
X156619009Y-29352857D01*
X156619009Y-29352857D02*
X156714247Y-29305238D01*
X134598123Y-64004819D02*
X134598123Y-64719104D01*
X134598123Y-64719104D02*
X134645742Y-64861961D01*
X134645742Y-64861961D02*
X134740980Y-64957200D01*
X134740980Y-64957200D02*
X134883837Y-65004819D01*
X134883837Y-65004819D02*
X134979075Y-65004819D01*
X133598123Y-65004819D02*
X134169551Y-65004819D01*
X133883837Y-65004819D02*
X133883837Y-64004819D01*
X133883837Y-64004819D02*
X133979075Y-64147676D01*
X133979075Y-64147676D02*
X134074313Y-64242914D01*
X134074313Y-64242914D02*
X134169551Y-64290533D01*
X133217170Y-64100057D02*
X133169551Y-64052438D01*
X133169551Y-64052438D02*
X133074313Y-64004819D01*
X133074313Y-64004819D02*
X132836218Y-64004819D01*
X132836218Y-64004819D02*
X132740980Y-64052438D01*
X132740980Y-64052438D02*
X132693361Y-64100057D01*
X132693361Y-64100057D02*
X132645742Y-64195295D01*
X132645742Y-64195295D02*
X132645742Y-64290533D01*
X132645742Y-64290533D02*
X132693361Y-64433390D01*
X132693361Y-64433390D02*
X133264789Y-65004819D01*
X133264789Y-65004819D02*
X132645742Y-65004819D01*
X166861219Y-28876666D02*
X167575504Y-28876666D01*
X167575504Y-28876666D02*
X167718361Y-28829047D01*
X167718361Y-28829047D02*
X167813600Y-28733809D01*
X167813600Y-28733809D02*
X167861219Y-28590952D01*
X167861219Y-28590952D02*
X167861219Y-28495714D01*
X166861219Y-29829047D02*
X166861219Y-29352857D01*
X166861219Y-29352857D02*
X167337409Y-29305238D01*
X167337409Y-29305238D02*
X167289790Y-29352857D01*
X167289790Y-29352857D02*
X167242171Y-29448095D01*
X167242171Y-29448095D02*
X167242171Y-29686190D01*
X167242171Y-29686190D02*
X167289790Y-29781428D01*
X167289790Y-29781428D02*
X167337409Y-29829047D01*
X167337409Y-29829047D02*
X167432647Y-29876666D01*
X167432647Y-29876666D02*
X167670742Y-29876666D01*
X167670742Y-29876666D02*
X167765980Y-29829047D01*
X167765980Y-29829047D02*
X167813600Y-29781428D01*
X167813600Y-29781428D02*
X167861219Y-29686190D01*
X167861219Y-29686190D02*
X167861219Y-29448095D01*
X167861219Y-29448095D02*
X167813600Y-29352857D01*
X167813600Y-29352857D02*
X167765980Y-29305238D01*
X154384723Y-64004819D02*
X154384723Y-64719104D01*
X154384723Y-64719104D02*
X154432342Y-64861961D01*
X154432342Y-64861961D02*
X154527580Y-64957200D01*
X154527580Y-64957200D02*
X154670437Y-65004819D01*
X154670437Y-65004819D02*
X154765675Y-65004819D01*
X153384723Y-65004819D02*
X153956151Y-65004819D01*
X153670437Y-65004819D02*
X153670437Y-64004819D01*
X153670437Y-64004819D02*
X153765675Y-64147676D01*
X153765675Y-64147676D02*
X153860913Y-64242914D01*
X153860913Y-64242914D02*
X153956151Y-64290533D01*
X153051389Y-64004819D02*
X152432342Y-64004819D01*
X152432342Y-64004819D02*
X152765675Y-64385771D01*
X152765675Y-64385771D02*
X152622818Y-64385771D01*
X152622818Y-64385771D02*
X152527580Y-64433390D01*
X152527580Y-64433390D02*
X152479961Y-64481009D01*
X152479961Y-64481009D02*
X152432342Y-64576247D01*
X152432342Y-64576247D02*
X152432342Y-64814342D01*
X152432342Y-64814342D02*
X152479961Y-64909580D01*
X152479961Y-64909580D02*
X152527580Y-64957200D01*
X152527580Y-64957200D02*
X152622818Y-65004819D01*
X152622818Y-65004819D02*
X152908532Y-65004819D01*
X152908532Y-65004819D02*
X153003770Y-64957200D01*
X153003770Y-64957200D02*
X153051389Y-64909580D01*
X177579619Y-28876666D02*
X178293904Y-28876666D01*
X178293904Y-28876666D02*
X178436761Y-28829047D01*
X178436761Y-28829047D02*
X178532000Y-28733809D01*
X178532000Y-28733809D02*
X178579619Y-28590952D01*
X178579619Y-28590952D02*
X178579619Y-28495714D01*
X177912952Y-29781428D02*
X178579619Y-29781428D01*
X177532000Y-29543333D02*
X178246285Y-29305238D01*
X178246285Y-29305238D02*
X178246285Y-29924285D01*
X188298019Y-28876666D02*
X189012304Y-28876666D01*
X189012304Y-28876666D02*
X189155161Y-28829047D01*
X189155161Y-28829047D02*
X189250400Y-28733809D01*
X189250400Y-28733809D02*
X189298019Y-28590952D01*
X189298019Y-28590952D02*
X189298019Y-28495714D01*
X188298019Y-29257619D02*
X188298019Y-29876666D01*
X188298019Y-29876666D02*
X188678971Y-29543333D01*
X188678971Y-29543333D02*
X188678971Y-29686190D01*
X188678971Y-29686190D02*
X188726590Y-29781428D01*
X188726590Y-29781428D02*
X188774209Y-29829047D01*
X188774209Y-29829047D02*
X188869447Y-29876666D01*
X188869447Y-29876666D02*
X189107542Y-29876666D01*
X189107542Y-29876666D02*
X189202780Y-29829047D01*
X189202780Y-29829047D02*
X189250400Y-29781428D01*
X189250400Y-29781428D02*
X189298019Y-29686190D01*
X189298019Y-29686190D02*
X189298019Y-29400476D01*
X189298019Y-29400476D02*
X189250400Y-29305238D01*
X189250400Y-29305238D02*
X189202780Y-29257619D01*
X174171323Y-64004819D02*
X174171323Y-64719104D01*
X174171323Y-64719104D02*
X174218942Y-64861961D01*
X174218942Y-64861961D02*
X174314180Y-64957200D01*
X174314180Y-64957200D02*
X174457037Y-65004819D01*
X174457037Y-65004819D02*
X174552275Y-65004819D01*
X173171323Y-65004819D02*
X173742751Y-65004819D01*
X173457037Y-65004819D02*
X173457037Y-64004819D01*
X173457037Y-64004819D02*
X173552275Y-64147676D01*
X173552275Y-64147676D02*
X173647513Y-64242914D01*
X173647513Y-64242914D02*
X173742751Y-64290533D01*
X172552275Y-64004819D02*
X172457037Y-64004819D01*
X172457037Y-64004819D02*
X172361799Y-64052438D01*
X172361799Y-64052438D02*
X172314180Y-64100057D01*
X172314180Y-64100057D02*
X172266561Y-64195295D01*
X172266561Y-64195295D02*
X172218942Y-64385771D01*
X172218942Y-64385771D02*
X172218942Y-64623866D01*
X172218942Y-64623866D02*
X172266561Y-64814342D01*
X172266561Y-64814342D02*
X172314180Y-64909580D01*
X172314180Y-64909580D02*
X172361799Y-64957200D01*
X172361799Y-64957200D02*
X172457037Y-65004819D01*
X172457037Y-65004819D02*
X172552275Y-65004819D01*
X172552275Y-65004819D02*
X172647513Y-64957200D01*
X172647513Y-64957200D02*
X172695132Y-64909580D01*
X172695132Y-64909580D02*
X172742751Y-64814342D01*
X172742751Y-64814342D02*
X172790370Y-64623866D01*
X172790370Y-64623866D02*
X172790370Y-64385771D01*
X172790370Y-64385771D02*
X172742751Y-64195295D01*
X172742751Y-64195295D02*
X172695132Y-64100057D01*
X172695132Y-64100057D02*
X172647513Y-64052438D01*
X172647513Y-64052438D02*
X172552275Y-64004819D01*
X199016419Y-28876666D02*
X199730704Y-28876666D01*
X199730704Y-28876666D02*
X199873561Y-28829047D01*
X199873561Y-28829047D02*
X199968800Y-28733809D01*
X199968800Y-28733809D02*
X200016419Y-28590952D01*
X200016419Y-28590952D02*
X200016419Y-28495714D01*
X199111657Y-29305238D02*
X199064038Y-29352857D01*
X199064038Y-29352857D02*
X199016419Y-29448095D01*
X199016419Y-29448095D02*
X199016419Y-29686190D01*
X199016419Y-29686190D02*
X199064038Y-29781428D01*
X199064038Y-29781428D02*
X199111657Y-29829047D01*
X199111657Y-29829047D02*
X199206895Y-29876666D01*
X199206895Y-29876666D02*
X199302133Y-29876666D01*
X199302133Y-29876666D02*
X199444990Y-29829047D01*
X199444990Y-29829047D02*
X200016419Y-29257619D01*
X200016419Y-29257619D02*
X200016419Y-29876666D01*
X193481733Y-64004819D02*
X193481733Y-64719104D01*
X193481733Y-64719104D02*
X193529352Y-64861961D01*
X193529352Y-64861961D02*
X193624590Y-64957200D01*
X193624590Y-64957200D02*
X193767447Y-65004819D01*
X193767447Y-65004819D02*
X193862685Y-65004819D01*
X192957923Y-65004819D02*
X192767447Y-65004819D01*
X192767447Y-65004819D02*
X192672209Y-64957200D01*
X192672209Y-64957200D02*
X192624590Y-64909580D01*
X192624590Y-64909580D02*
X192529352Y-64766723D01*
X192529352Y-64766723D02*
X192481733Y-64576247D01*
X192481733Y-64576247D02*
X192481733Y-64195295D01*
X192481733Y-64195295D02*
X192529352Y-64100057D01*
X192529352Y-64100057D02*
X192576971Y-64052438D01*
X192576971Y-64052438D02*
X192672209Y-64004819D01*
X192672209Y-64004819D02*
X192862685Y-64004819D01*
X192862685Y-64004819D02*
X192957923Y-64052438D01*
X192957923Y-64052438D02*
X193005542Y-64100057D01*
X193005542Y-64100057D02*
X193053161Y-64195295D01*
X193053161Y-64195295D02*
X193053161Y-64433390D01*
X193053161Y-64433390D02*
X193005542Y-64528628D01*
X193005542Y-64528628D02*
X192957923Y-64576247D01*
X192957923Y-64576247D02*
X192862685Y-64623866D01*
X192862685Y-64623866D02*
X192672209Y-64623866D01*
X192672209Y-64623866D02*
X192576971Y-64576247D01*
X192576971Y-64576247D02*
X192529352Y-64528628D01*
X192529352Y-64528628D02*
X192481733Y-64433390D01*
X209734819Y-28400476D02*
X210449104Y-28400476D01*
X210449104Y-28400476D02*
X210591961Y-28352857D01*
X210591961Y-28352857D02*
X210687200Y-28257619D01*
X210687200Y-28257619D02*
X210734819Y-28114762D01*
X210734819Y-28114762D02*
X210734819Y-28019524D01*
X210734819Y-29400476D02*
X210734819Y-28829048D01*
X210734819Y-29114762D02*
X209734819Y-29114762D01*
X209734819Y-29114762D02*
X209877676Y-29019524D01*
X209877676Y-29019524D02*
X209972914Y-28924286D01*
X209972914Y-28924286D02*
X210020533Y-28829048D01*
X209734819Y-30305238D02*
X209734819Y-29829048D01*
X209734819Y-29829048D02*
X210211009Y-29781429D01*
X210211009Y-29781429D02*
X210163390Y-29829048D01*
X210163390Y-29829048D02*
X210115771Y-29924286D01*
X210115771Y-29924286D02*
X210115771Y-30162381D01*
X210115771Y-30162381D02*
X210163390Y-30257619D01*
X210163390Y-30257619D02*
X210211009Y-30305238D01*
X210211009Y-30305238D02*
X210306247Y-30352857D01*
X210306247Y-30352857D02*
X210544342Y-30352857D01*
X210544342Y-30352857D02*
X210639580Y-30305238D01*
X210639580Y-30305238D02*
X210687200Y-30257619D01*
X210687200Y-30257619D02*
X210734819Y-30162381D01*
X210734819Y-30162381D02*
X210734819Y-29924286D01*
X210734819Y-29924286D02*
X210687200Y-29829048D01*
X210687200Y-29829048D02*
X210639580Y-29781429D01*
D11*
X111187401Y-140999999D02*
G75*
G02*
X110425401Y-140999999I-381000J0D01*
G01*
X110425401Y-140999999D02*
G75*
G02*
X111187401Y-140999999I381000J0D01*
G01*
X216311000Y-49041999D02*
G75*
G02*
X215549000Y-49041999I-381000J0D01*
G01*
X215549000Y-49041999D02*
G75*
G02*
X216311000Y-49041999I381000J0D01*
G01*
X213881000Y-112338001D02*
G75*
G02*
X213119000Y-112338001I-381000J0D01*
G01*
X213119000Y-112338001D02*
G75*
G02*
X213881000Y-112338001I381000J0D01*
G01*
X126599001Y-141000000D02*
G75*
G02*
X125837001Y-141000000I-381000J0D01*
G01*
X125837001Y-141000000D02*
G75*
G02*
X126599001Y-141000000I381000J0D01*
G01*
D12*
X204050000Y-65700000D02*
X216900000Y-65700000D01*
X204050000Y-74000000D02*
X204050000Y-65700000D01*
X216900000Y-65700000D02*
X219750000Y-68250000D01*
X216900000Y-74000000D02*
X204050000Y-74000000D01*
X219750000Y-68250000D02*
X219750000Y-71400000D01*
X219750000Y-71400000D02*
X216900000Y-74000000D01*
X106152000Y-65700000D02*
X119002000Y-65700000D01*
X106152000Y-74000000D02*
X106152000Y-65700000D01*
X119002000Y-65700000D02*
X121852000Y-68250000D01*
X119002000Y-74000000D02*
X106152000Y-74000000D01*
X121852000Y-68250000D02*
X121852000Y-71400000D01*
X121852000Y-71400000D02*
X119002000Y-74000000D01*
X157738000Y-27880000D02*
X157738000Y-29210000D01*
X159068000Y-27880000D02*
X157738000Y-27880000D01*
X160338000Y-27880000D02*
X160338000Y-30540000D01*
X160338000Y-27880000D02*
X165478000Y-27880000D01*
X160338000Y-30540000D02*
X165478000Y-30540000D01*
X165478000Y-27880000D02*
X165478000Y-30540000D01*
X125938600Y-65700000D02*
X138788600Y-65700000D01*
X125938600Y-74000000D02*
X125938600Y-65700000D01*
X138788600Y-65700000D02*
X141638600Y-68250000D01*
X138788600Y-74000000D02*
X125938600Y-74000000D01*
X141638600Y-68250000D02*
X141638600Y-71400000D01*
X141638600Y-71400000D02*
X138788600Y-74000000D01*
X168456400Y-27880000D02*
X168456400Y-29210000D01*
X169786400Y-27880000D02*
X168456400Y-27880000D01*
X171056400Y-27880000D02*
X171056400Y-30540000D01*
X171056400Y-27880000D02*
X176196400Y-27880000D01*
X171056400Y-30540000D02*
X176196400Y-30540000D01*
X176196400Y-27880000D02*
X176196400Y-30540000D01*
X145725200Y-65700000D02*
X158575200Y-65700000D01*
X145725200Y-74000000D02*
X145725200Y-65700000D01*
X158575200Y-65700000D02*
X161425200Y-68250000D01*
X158575200Y-74000000D02*
X145725200Y-74000000D01*
X161425200Y-68250000D02*
X161425200Y-71400000D01*
X161425200Y-71400000D02*
X158575200Y-74000000D01*
X179174800Y-27880000D02*
X179174800Y-29210000D01*
X180504800Y-27880000D02*
X179174800Y-27880000D01*
X181774800Y-27880000D02*
X181774800Y-30540000D01*
X181774800Y-27880000D02*
X186914800Y-27880000D01*
X181774800Y-30540000D02*
X186914800Y-30540000D01*
X186914800Y-27880000D02*
X186914800Y-30540000D01*
X189893200Y-27880000D02*
X189893200Y-29210000D01*
X191223200Y-27880000D02*
X189893200Y-27880000D01*
X192493200Y-27880000D02*
X192493200Y-30540000D01*
X192493200Y-27880000D02*
X197633200Y-27880000D01*
X192493200Y-30540000D02*
X197633200Y-30540000D01*
X197633200Y-27880000D02*
X197633200Y-30540000D01*
X165511800Y-65700000D02*
X178361800Y-65700000D01*
X165511800Y-74000000D02*
X165511800Y-65700000D01*
X178361800Y-65700000D02*
X181211800Y-68250000D01*
X178361800Y-74000000D02*
X165511800Y-74000000D01*
X181211800Y-68250000D02*
X181211800Y-71400000D01*
X181211800Y-71400000D02*
X178361800Y-74000000D01*
X200611600Y-27880000D02*
X200611600Y-29210000D01*
X201941600Y-27880000D02*
X200611600Y-27880000D01*
X203211600Y-27880000D02*
X203211600Y-30540000D01*
X203211600Y-27880000D02*
X208351600Y-27880000D01*
X203211600Y-30540000D02*
X208351600Y-30540000D01*
X208351600Y-27880000D02*
X208351600Y-30540000D01*
X185298400Y-65700000D02*
X198148400Y-65700000D01*
X185298400Y-74000000D02*
X185298400Y-65700000D01*
X198148400Y-65700000D02*
X200998400Y-68250000D01*
X198148400Y-74000000D02*
X185298400Y-74000000D01*
X200998400Y-68250000D02*
X200998400Y-71400000D01*
X200998400Y-71400000D02*
X198148400Y-74000000D01*
X211330000Y-27880000D02*
X211330000Y-29210000D01*
X212660000Y-27880000D02*
X211330000Y-27880000D01*
X213930000Y-27880000D02*
X213930000Y-30540000D01*
X213930000Y-27880000D02*
X219070000Y-27880000D01*
X213930000Y-30540000D02*
X219070000Y-30540000D01*
X219070000Y-27880000D02*
X219070000Y-30540000D01*
%LPC*%
D13*
X214122000Y-140716000D03*
D14*
X171802800Y-121208800D03*
D15*
X164602800Y-121208800D03*
D16*
X143500000Y-138470000D03*
D17*
X143500000Y-141010000D03*
X143500000Y-143550000D03*
D18*
X113468400Y-140999999D03*
X117278400Y-140999999D03*
X121088400Y-140999999D03*
D14*
X121333000Y-43280000D03*
D15*
X114133000Y-43280000D03*
D19*
X163370800Y-83566000D03*
X167030800Y-83566000D03*
X171500800Y-83566000D03*
X175160800Y-83566000D03*
D20*
X103773000Y-48133000D03*
D21*
X103773000Y-58293000D03*
D18*
X215930000Y-46380000D03*
X215930000Y-42570000D03*
X215930000Y-38760000D03*
D20*
X107823000Y-48133000D03*
D21*
X107823000Y-58293000D03*
D20*
X154850000Y-32060000D03*
X151350000Y-32060000D03*
X170713400Y-55499000D03*
D21*
X180873400Y-55499000D03*
D19*
X105535000Y-83566000D03*
X109195000Y-83566000D03*
X113665000Y-83566000D03*
X117325000Y-83566000D03*
D22*
X135524000Y-48631000D03*
D23*
X145684000Y-48631000D03*
X153304000Y-48631000D03*
X135524000Y-41011000D03*
D20*
X189814200Y-55499000D03*
D21*
X199974200Y-55499000D03*
D14*
X121412000Y-31623000D03*
D15*
X114212000Y-31623000D03*
D20*
X113411000Y-55499000D03*
D21*
X123571000Y-55499000D03*
D19*
X201928000Y-83566000D03*
X205588000Y-83566000D03*
X210058000Y-83566000D03*
X213718000Y-83566000D03*
X124813600Y-83566000D03*
X128473600Y-83566000D03*
X132943600Y-83566000D03*
X136603600Y-83566000D03*
D13*
X105156000Y-140716000D03*
D20*
X133270000Y-32060000D03*
X129770000Y-32060000D03*
D16*
X202080000Y-36010000D03*
D17*
X204620000Y-36010000D03*
X207160000Y-36010000D03*
D16*
X170688000Y-39116000D03*
D17*
X170688000Y-36576000D03*
X173228000Y-39116000D03*
X173228000Y-36576000D03*
X175768000Y-39116000D03*
X175768000Y-36576000D03*
X178308000Y-39116000D03*
X178308000Y-36576000D03*
X180848000Y-39116000D03*
X180848000Y-36576000D03*
X183388000Y-39116000D03*
X183388000Y-36576000D03*
X185928000Y-39116000D03*
X185928000Y-36576000D03*
X188468000Y-39116000D03*
X188468000Y-36576000D03*
D24*
X140081000Y-32512000D03*
D25*
X142621000Y-32512000D03*
X145161000Y-32512000D03*
D20*
X151612600Y-55499000D03*
D21*
X161772600Y-55499000D03*
D20*
X208915000Y-55499000D03*
D21*
X219075000Y-55499000D03*
D18*
X213500000Y-115000000D03*
X213500000Y-118810000D03*
X213500000Y-122620000D03*
D19*
X182649400Y-83566000D03*
X186309400Y-83566000D03*
X190779400Y-83566000D03*
X194439400Y-83566000D03*
D13*
X105156000Y-32131000D03*
D16*
X179790000Y-138470000D03*
D17*
X179790000Y-141010000D03*
X179790000Y-143550000D03*
D18*
X128880000Y-141000000D03*
X132690000Y-141000000D03*
X136500000Y-141000000D03*
D20*
X132511800Y-55499000D03*
D21*
X142671800Y-55499000D03*
D26*
X105288000Y-134025000D03*
D27*
X102748000Y-134025000D03*
D19*
X144092200Y-83566000D03*
X147752200Y-83566000D03*
X152222200Y-83566000D03*
X155882200Y-83566000D03*
X195370000Y-141500000D03*
X199030000Y-141500000D03*
X203500000Y-141500000D03*
X207160000Y-141500000D03*
D20*
X110000000Y-131580000D03*
D21*
X110000000Y-121420000D03*
D14*
X215500000Y-69850000D03*
D15*
X208300000Y-69850000D03*
D14*
X117602000Y-69850000D03*
D15*
X110402000Y-69850000D03*
D16*
X159068000Y-29210000D03*
D17*
X161608000Y-29210000D03*
X164148000Y-29210000D03*
D14*
X137388600Y-69850000D03*
D15*
X130188600Y-69850000D03*
D16*
X169786400Y-29210000D03*
D17*
X172326400Y-29210000D03*
X174866400Y-29210000D03*
D14*
X157175200Y-69850000D03*
D15*
X149975200Y-69850000D03*
D16*
X180504800Y-29210000D03*
D17*
X183044800Y-29210000D03*
X185584800Y-29210000D03*
D16*
X191223200Y-29210000D03*
D17*
X193763200Y-29210000D03*
X196303200Y-29210000D03*
D14*
X176961800Y-69850000D03*
D15*
X169761800Y-69850000D03*
D16*
X201941600Y-29210000D03*
D17*
X204481600Y-29210000D03*
X207021600Y-29210000D03*
D14*
X196748400Y-69850000D03*
D15*
X189548400Y-69850000D03*
D16*
X212660000Y-29210000D03*
D17*
X215200000Y-29210000D03*
X217740000Y-29210000D03*
%LPD*%
M02*
